<svg xmlns="http://www.w3.org/2000/svg" width="128" height="128"><path fill="#FBA919" d="M23.078 31.022s2.171 8.37 2.48 11.161c.311 2.789-5.58 8.989-5.58 12.089 0 3.101 1.238 8.68 8.06 11.472 6.821 2.789 7.75 9.919 7.75 14.26s-2.48 12.71-2.48 12.71-1.549 20.77 6.821 24.49c8.369 3.72 6.509 3.72 8.369 3.72 1.859 0 15.5 5.582 23.56 3.411 8.061-2.17 10.229-4.649 10.229-4.649s8.061.619 10.54-6.512c2.481-7.131 4.03-22.009 3.1-28.83-.93-6.821-2.169-15.81 3.41-18.91 5.582-3.101 11.471-6.819 10.541-9.92-.931-3.1-5.889-7.44-5.889-7.44s-1.24-7.75-.312-9.61c.93-1.86 6.51-6.512 3.409-9.92-3.098-3.409-8.681-3.409-8.681-3.409l-7.129.619s-12.089-10.85-27.9-10.229c-15.809.62-25.73 10.229-25.73 10.229s-5.27-1.86-9.92 0c-4.65 1.859-5.577-.002-4.648 5.268z"/><path fill="#E78724" d="M51.405 77.179s-6.139 9.387-10.642 16.048c-.697 1.03 4.503 1.103 4.503 1.103l6.139-17.151zm2.923-19.462s-1.851 4.616-2.864 7.063c-1.101 2.661-5.296 3.984-5.296 3.984s2.174-2.28 2.174-8.059c0-2.424 3.131-3.388 3.131-3.388l2.855.4z"/><path fill="#E78724" d="M52.459 60.327s-3.792 4.513-10.831 1.985c-7.042-2.527-7.763-11.554-7.763-14.082s13.359 2.528 15.164 3.611c1.807 1.084 5.235 5.416 3.43 8.486zM25.866 12.101s6.499-1.265 10.832 2.166c4.333 3.43 5.596 6.139 5.596 6.139l-7.303 5.789s-3.529-1.636-4.612-6.331c-1.083-4.695-.36-6.86-4.513-7.763z"/><path fill="#E78724" d="M50.563 47.291c-2.798-3.972-7.41-5.705-11.092-5.992-6.277-.491-9.258 1.729-9.258 1.729s10.282.435 13.245 4.327c5.516 7.244 13.565 7.832 14.852 6.241-1.488.075-3.125-.663-4.877-2.32-1.095-1.036-1.982-2.724-2.87-3.985zM33.207 61.335s-11.407-3.922-9.239-7.893c2.166-3.972.442-6.136.442-6.136s-6.37 4.755-4.748 9.809c.998 3.103 2.671 5.35 11.861 9.656 4.408 8.187.91 22.923 1.12 22.992.349.117 6.188-2.886 5.791-16.673-.123-4.234-.461-10.012-5.227-11.755zm14.947-42.169c-4.783 2.429-11.335 5.814-11.335 5.814l2.579 1.291c-.246.398-.364.636-.364.636l2.647 1.203s6.462 4.681 10.421 7.691c-1.32-4.066-5.194-10.452-5.194-10.452s-1.099-2.934 1.246-6.183zm15.892 99.054c-14.702 0-19.682-7.464-19.682-7.464l2.298 5.596c.868 2.42 10.132 9.952 17.362 9.952"/><path fill="#E78724" d="M45.975 105.714s1.353 8.267 6.77 8.267c4.602 0 5.958-6.983 5.958-8.427l-12.728.16zm-9.014-12.468c.481-1.325 2.167-6.681 2.708-11.555.649-5.839.412-14.375.412-14.375s-1.445 5.597-2.708 6.5c-1.263.902-3.61 7.04-3.61 7.04s-1.257 9.138-1.856 12.208c1.655.332 3.049-.643 5.054.182zm-13.079-36.22s3.068-1.084 3.972-7.763c.902-6.68-1.084-12.458-1.084-12.458s.181 9.208-.902 11.014c-1.084 1.804-1.985 2.346-3.25 4.694-1.265 2.347.541 3.79 1.264 4.513z"/><path fill="#FDC168" d="M27.546 13.681l-.626-.397c-1.848.062.626.397.626.397z"/><path fill="#FBA919" d="M50.652 17.187s-2.887-.481-4.332-2.647c-1.445-2.167-5.537-6.5-12.059-6.548-6.522-.049-12.975 1.734-12.975 1.734l5.632 3.559c.596-.02 1.638-.011 3.36.046 7.069.235 8.158 7.227 8.158 7.227l24.913-3.43"/><path fill="#FFF" d="M53.061 55.808s-3.371 3.37-8.546 2.286c-5.176-1.082-8.306-3.37-8.546-7.342-.24-3.972 1.084-5.537 1.084-5.537s5.776 1.807 8.546 4.214c2.768 2.407 4.813 6.259 7.462 6.379z"/><path fill="#C9C9C9" d="M48.981 54.604s-2.922 1.335-6.19.247c-4.276-1.427-4.561-5.875-4.561-5.875s-2.624 7.7 4.732 9.182c5.9 1.189 9.39-2.23 9.39-2.23l-3.371-1.324z"/><path fill="#463014" d="M51.059 15.554c-.314-6.603 5.1-11.862 6.975-12.086.104 1.119-.104 5.483 1.771 6.826.546-3.565 2.392-7.496 9.681-10.07-1.561 4.141-.208 7.609.437 9.217 4.978-4.519 8.331-3.772 8.331-3.772s-3.458 5.969-2.106 9.885c-9.994-.785-25.041 1.06-25.089 0zM29.875 25.612c-2.384-1.978-.607-3.814-.796-6.061-.102-1.196-.197-2.324-.591-2.947-2.194-3.464-7.37-4.515-7.421-4.527l-2.429-.476 1.607-1.881c.208-.244 6.812-6.544 17.032-3.246 7.148 2.306 12.44 10.124 12.637 10.44L46.33 18.6c-.042-.066-4.226-7.415-10.359-9.393-4.957-1.599-9.527-.078-11.484.92 2.081.83 4.801 2.343 6.44 4.931.773 1.222.904 2.761 1.03 4.251.166 1.973.321 3.834 1.772 5.041l-3.854 1.262zm-6.368 28.875s3.003-3.725 3.894-10.973c.35-2.855-.271-8.486-1.265-10.652.181 5.325-1.174 10.652-1.174 10.652s-.913 9.889-1.455 10.973z"/><path fill="#463014" d="M39.347 21.85c-.002-.008-.964-4.213-3.632-6.336-3.764-2.994-8.358-1.401-8.403-1.387l-.667-2.061c.222-.072 5.474-1.727 10.315 1.676 4.87 3.422 5.454 6.523 5.504 6.866l-3.117 1.242zm-6.406 29.965s-1.576-2.256-1.293-4.737c.141-1.226.709-2.483 1.723-2.929 1.883-.827 2.718 1.308 2.718 1.308s-2.65.654-3.148 6.358z"/><path fill="#463014" d="M50.244 55.254c.066.123.1.191.1.191s-4.915 3.689-9.952-.055c-2.696-2.006-2.442-6.967-1.617-9.07 2.149.487 3.971 1.364 5.494 2.389-1.925-1.717-3.61-2.982-3.605-3.011l-2.188-.619-4.252-1.458c-.055.324-1.605 7.593 2.872 12.546 1.984 2.196 11.285 7.115 15.702-1.295l-2.554.382z"/><path fill="#463014" d="M49.784 55.795c2.768 4.211 9.75 1.804 9.63-2.648 0 0-4.665 2.575-8.789-2.167-2.406-2.768-10.117-10.399-20.575-7.863 7.222 1.589 16.784 8.186 19.734 12.678z"/><path fill="#463014" d="M29.073 67.682c.666.385 3.014 2.816 3.015 6.453 0 1.824-.18 10.985-1.084 16.583 1.358.882 2.304 1.068 3.655 1.968.677-6.482 1.163-15.876.937-19.67-.259-4.322-2.574-7.224-4.721-8.461-.672-.387-1.374-.767-2.082-1.149-3.677-1.987-7.479-4.042-7.479-7.551 0-2.746 1.068-3.604 2.197-4.514l.122-.099c.75-.606 1.598-1.292 2.101-2.42 1.372-3.083 1.596-10.94 0-12.935-.796-.993-2.927-4.334-2.314-6.581.233-.857.772-1.493 1.652-1.942.929-.476 2.186-.718 3.732-.718 3.037 0 6.406.924 8.145 1.475 6.21 1.968 13.705 7.644 15.854 9.337.061.047.098.075.104.079l1.375.957-.859-1.438c-.053-.09-5.498-9.043-15.234-12.326-1.894-.639-5.615-1.71-9.272-1.71-2.177 0-4.025.381-5.487 1.129-1.783.912-2.99 2.367-3.492 4.207-1.229 4.509 2.775 9.53 2.911 9.691.467.833.665 6.887-.414 9.309-.147.334-.554.663-1.069 1.079-.162.13-.342.266-.533.411-1.521 1.148-3.822 2.883-3.822 6.883 0 5.473 5.546 8.44 10.003 10.826.731.391 1.428.764 2.059 1.127z"/><path fill="#463014" d="M29.875 25.612c-2.384-1.978-.607-3.814-.796-6.061-.102-1.196-.197-2.324-.591-2.947-2.194-3.464-7.37-4.515-7.421-4.527l-2.429-.476 1.607-1.881c.208-.244 6.812-6.544 17.032-3.246 7.148 2.306 12.44 10.124 12.637 10.44L46.33 18.6c-.042-.066-4.226-7.415-10.359-9.393-4.957-1.599-9.527-.078-11.484.92 2.081.83 4.801 2.343 6.44 4.931.773 1.222.904 2.761 1.03 4.251.166 1.973.321 3.834 1.772 5.041l-3.854 1.262z"/><path fill="#463014" d="M29.797 26.017l-.154-.127c-1.768-1.468-1.455-2.913-1.15-4.312.138-.645.283-1.312.225-1.997-.097-1.151-.189-2.237-.536-2.785-2.089-3.298-7.138-4.355-7.188-4.365l-3.034-.595 2.011-2.352c.037-.044 4.277-4.324 11.458-4.324 1.958 0 3.964.326 5.958.97 7.461 2.406 12.785 10.512 12.833 10.592l.216.344-4.24 1.994-.17-.27c-.456-.778-4.477-7.408-10.164-9.243-1.397-.451-2.869-.679-4.373-.679-2.725 0-4.934.743-6.11 1.241 1.965.885 4.349 2.374 5.855 4.751.82 1.295.953 2.878 1.083 4.408.16 1.902.311 3.691 1.645 4.798l.503.417-4.668 1.534z"/><path fill="#463014" d="M39.347 21.85c-.002-.008-.964-4.213-3.632-6.336-3.764-2.994-8.358-1.401-8.403-1.387l-.667-2.061c.222-.072 5.474-1.727 10.315 1.676 4.87 3.422 5.454 6.523 5.504 6.866l-3.117 1.242z"/><path fill="#463014" d="M39.087 22.341l-.094-.414c-.009-.041-.953-4.102-3.505-6.13-1.454-1.158-3.208-1.746-5.209-1.746-1.562 0-2.723.373-2.849.417l-.345.115-.896-2.75.343-.111c.154-.049 1.547-.484 3.52-.484 2.602 0 5.061.764 7.116 2.207 4.991 3.507 5.602 6.751 5.653 7.109l.043.283-3.777 1.504zm-8.808-9.01c2.138 0 4.097.658 5.66 1.9 2.266 1.805 3.331 4.99 3.653 6.132l2.456-.979c-.222-.867-1.201-3.469-5.296-6.347-1.958-1.377-4.212-2.074-6.699-2.074-1.365 0-2.425.217-2.949.349l.443 1.369c.513-.138 1.501-.35 2.732-.35zm22.239 98.666c-1.066 0-2.156-.387-2.91-1.04-.578-.499-2.531-2.293-3.393-4.49-.321-.822-.249-1.479.217-1.953.321-.324.989-.712 2.343-.712l.964-.001c1.148-.001 3.083-.001 4.735-.001h1.584c1.031 0 1.77.223 2.193.656.547.561.371 1.274.219 1.649-.266.657-1.364 2.796-3.225 4.785-.665.714-1.634 1.107-2.727 1.107zm1.117-55.955l-3.852-.248s.985 1.735 1.623 3.979c.721 2.539-.658 6.25-.658 6.25s5.135-5.814 2.887-9.981zm-4.808 66.124c-13.708-1.053-18.531-14.007-18.531-16.704l3.58.001-1.79-.001h1.79c.018 1.166 3.661 12.247 15.226 13.137l-.275 3.567z"/><path fill="#FFF" d="M44.976 98.958c-.215-1.237-.237-2.411.024-3.565-1.042-.783-2.911-1.073-4.314-1.528-1.147-.726-7.016.744-11.274-4.409-5.335-6.452-4.213-10.305-4.213-10.305-1.368 1.52-2.693.94-4.778 8.026-2.088 7.088.979 12.029 6.698 16.99 2.702 2.343 6.521 3.309 9.806 3.679-1.101-1.104 1.88-1.216 3.934-1.983-.164-1.659.111-3.27 1.347-4.565.745-.781 1.705-1.249 2.7-1.621.056-.129.102-.247.156-.371-.036-.115-.064-.23-.086-.348z"/><path fill="#C9C9C9" d="M40.831 105.818c-.119-.348-.208-.702-.297-1.061-.095-.389-.568-1.495.015-.232-.149-.323-.248-.656-.32-.991-9.261-.013-17.318-6.371-15.761-19.738-1.212-1.61-2.91 3.245-2.91 3.245s-4.636 13.462 7.337 18.68c3.99 1.74 7.516 2.986 8.348 2.484 1.733.351 3.297-.856 3.884-1.651-.109-.243-.21-.488-.296-.736z"/><path fill="#463014" d="M44.808 97.021c.015-1.128.246-2.222.791-3.311.038-.074.083-.146.123-.22-3.563-.03-7.667-.372-11.162-1.771-3.842-1.536-8.647-6.793-9.473-12.97 0 0-7.234 5.583-5.108 17.531 1.995 11.221 11.385 14.879 22.093 15.497.005-.072-1.204-2.572-.822-4.103-6.08.442-12.879-1.906-16.162-7.308-3.005-4.943-2.162-13.384-.927-14.62 3.011 9.508 13.851 11.44 20.647 11.275z"/><path fill="#463014" d="M45.931 90.216c-1.927 5.654-5.863 10.23-5.863 10.23s5.414-.246 5.713-1.203c.221-.707 4.889-11.633 6.68-24.434-1.686 2.769-6.366 14.922-6.53 15.407z"/><path fill="#E78724" d="M76.604 77.179s6.138 9.387 10.643 16.048c.697 1.03-4.505 1.103-4.505 1.103l-6.138-17.151zm-2.923-19.462s1.852 4.616 2.863 7.063c1.102 2.661 5.296 3.984 5.296 3.984s-2.175-2.28-2.175-8.059c0-2.424-3.129-3.388-3.129-3.388l-2.855.4z"/><path fill="#E78724" d="M75.551 60.327s3.791 4.513 10.833 1.985c7.041-2.527 7.762-11.554 7.762-14.082s-13.358 2.528-15.164 3.611c-1.807 1.084-5.237 5.416-3.431 8.486zm26.593-48.226s-6.499-1.265-10.833 2.166c-4.332 3.43-5.596 6.139-5.596 6.139l7.302 5.789s3.531-1.637 4.614-6.331c1.082-4.695.36-6.861 4.513-7.763z"/><path fill="#E78724" d="M77.446 47.291c2.799-3.972 7.408-5.705 11.092-5.992 6.278-.491 9.257 1.729 9.257 1.729s-10.282.435-13.246 4.327c-5.517 7.244-13.562 7.832-14.849 6.241 1.488.075 3.125-.663 4.877-2.32 1.094-1.036 1.983-2.724 2.869-3.985zm17.357 14.044s11.407-3.922 9.24-7.893c-2.166-3.972-.443-6.136-.443-6.136s6.371 4.755 4.747 9.809c-.998 3.103-2.671 5.349-11.861 9.655-4.407 8.187-.909 22.924-1.118 22.992-.35.117-6.188-2.886-5.79-16.673.12-4.233.459-10.012 5.225-11.754zM79.854 19.166c4.782 2.429 11.336 5.814 11.336 5.814l-2.578 1.291c.245.398.365.636.365.636L86.33 28.11s-6.462 4.681-10.422 7.691c1.319-4.065 5.194-10.452 5.194-10.452s1.1-2.934-1.248-6.183zM63.965 118.22c14.7 0 19.681-7.464 19.681-7.464l-2.297 5.596c-.869 2.42-10.134 9.952-17.361 9.952"/><path fill="#E78724" d="M82.035 105.714s-1.354 8.267-6.769 8.267c-4.602 0-5.959-6.983-5.959-8.427l12.728.16zm9.014-12.468c-.481-1.325-2.166-6.681-2.709-11.555-.648-5.839-.411-14.375-.411-14.375s1.444 5.597 2.707 6.5c1.266.902 3.61 7.04 3.61 7.04s1.258 9.138 1.856 12.208c-1.656.332-3.048-.643-5.053.182zm13.08-36.22s-3.069-1.084-3.972-7.763c-.903-6.68 1.083-12.458 1.083-12.458s-.181 9.208.902 11.014c1.084 1.805 1.986 2.346 3.25 4.694 1.264 2.347-.541 3.79-1.263 4.513z"/><path fill="#FDC168" d="M100.464 13.681l.627-.397c1.847.062-.627.397-.627.397z"/><path fill="#FBA919" d="M77.355 17.187s2.89-.481 4.333-2.647c1.444-2.167 5.537-6.5 12.061-6.549 6.522-.049 12.975 1.734 12.975 1.734l-5.633 3.559c-.596-.02-1.638-.011-3.361.046-7.068.235-8.156 7.227-8.156 7.227l-24.914-3.43"/><path fill="#FFF" d="M74.949 55.808s3.37 3.37 8.546 2.286c5.176-1.082 8.306-3.37 8.546-7.342.24-3.972-1.082-5.537-1.082-5.537s-5.778 1.807-8.547 4.214-4.813 6.259-7.463 6.379z"/><path fill="#C9C9C9" d="M79.027 54.604s2.924 1.335 6.19.247c4.277-1.427 4.562-5.875 4.562-5.875s2.622 7.7-4.734 9.182c-5.898 1.189-9.389-2.23-9.389-2.23l3.371-1.324z"/><path fill="#463014" d="M98.135 25.612c2.385-1.978.608-3.814.798-6.061.101-1.196.194-2.324.589-2.947 2.194-3.464 7.37-4.515 7.423-4.527l2.431-.476-1.609-1.881c-.207-.244-6.812-6.544-17.033-3.246-7.146 2.306-12.438 10.124-12.636 10.44L81.68 18.6c.043-.066 4.228-7.415 10.36-9.393 4.958-1.599 9.527-.078 11.482.92-2.079.83-4.801 2.343-6.439 4.931-.772 1.222-.903 2.761-1.028 4.251-.167 1.973-.323 3.834-1.774 5.041l3.854 1.262zm6.366 28.875s-3.002-3.725-3.892-10.973c-.35-2.855.271-8.486 1.263-10.652-.18 5.325 1.176 10.652 1.176 10.652s.912 9.889 1.453 10.973z"/><path fill="#463014" d="M88.663 21.85c.002-.008.965-4.213 3.633-6.336 3.764-2.994 8.358-1.401 8.401-1.387l.67-2.061c-.224-.072-5.476-1.727-10.317 1.676-4.87 3.422-5.452 6.523-5.505 6.866l3.118 1.242zm6.405 29.965s1.576-2.256 1.292-4.737c-.14-1.226-.708-2.483-1.722-2.929-1.884-.827-2.72 1.308-2.72 1.308s2.653.654 3.15 6.358z"/><path fill="#463014" d="M77.766 55.254c-.065.123-.101.191-.101.191s4.914 3.689 9.951-.055c2.699-2.006 2.444-6.967 1.616-9.07-2.147.487-3.969 1.364-5.492 2.389 1.925-1.717 3.61-2.982 3.604-3.011l2.189-.619 4.252-1.458c.055.325 1.604 7.593-2.873 12.547-1.984 2.196-11.286 7.114-15.702-1.295l2.556.381z"/><path fill="#463014" d="M78.224 55.795c-2.767 4.211-9.747 1.804-9.627-2.648 0 0 4.664 2.575 8.786-2.167 2.407-2.768 10.12-10.399 20.576-7.863-7.221 1.589-16.782 8.186-19.735 12.678z"/><path fill="#463014" d="M98.938 67.682c-.667.385-3.016 2.816-3.016 6.453-.002 1.824.18 10.985 1.084 16.583-1.358.882-2.304 1.068-3.655 1.968-.678-6.482-1.164-15.876-.937-19.67.259-4.322 2.572-7.224 4.719-8.461.673-.387 1.374-.767 2.084-1.149 3.677-1.987 7.479-4.042 7.479-7.551 0-2.746-1.068-3.604-2.199-4.514l-.119-.099c-.751-.606-1.601-1.292-2.102-2.42-1.372-3.083-1.598-10.94-.002-12.935.796-.993 2.929-4.334 2.315-6.581-.234-.857-.774-1.493-1.653-1.942-.929-.476-2.184-.718-3.732-.718-3.034 0-6.405.924-8.143 1.475-6.211 1.968-13.706 7.644-15.854 9.337-.062.047-.098.075-.104.079l-1.376.957.858-1.438c.056-.09 5.5-9.043 15.235-12.326 1.895-.639 5.614-1.71 9.271-1.71 2.178 0 4.022.381 5.488 1.129 1.783.912 2.988 2.367 3.491 4.207 1.229 4.509-2.774 9.53-2.911 9.691-.467.833-.665 6.887.413 9.309.148.334.555.663 1.07 1.079.161.13.34.266.532.411 1.521 1.148 3.822 2.883 3.822 6.883 0 5.473-5.547 8.44-10.003 10.826-.727.391-1.427.764-2.055 1.127z"/><path fill="#463014" d="M92.321 24.968c-.882-1.494-3.138-4.379-8.338-6.914-5.803-2.829-12.52-4.264-19.964-4.267v-.002h-.029v.001c-7.447.004-14.164 1.44-19.965 4.268-5.199 2.536-7.455 5.42-8.337 6.915l-.379.501 4.453.991.142-.178.075-.163c.069-.294.666-1.883 5.629-4.304 5.307-2.589 11.498-3.901 18.397-3.904 6.899.002 13.088 1.315 18.395 3.904 4.965 2.42 5.563 4.009 5.632 4.303l.074.164.14.178 4.454-.991-.379-.502z"/><path fill="#463014" d="M98.135 25.612c2.385-1.978.608-3.814.798-6.061.101-1.196.194-2.324.589-2.947 2.194-3.464 7.37-4.515 7.423-4.527l2.431-.476-1.609-1.881c-.207-.244-6.812-6.544-17.033-3.246-7.146 2.306-12.438 10.124-12.636 10.44L81.68 18.6c.043-.066 4.228-7.415 10.36-9.393 4.958-1.599 9.527-.078 11.482.92-2.079.83-4.801 2.343-6.439 4.931-.772 1.222-.903 2.761-1.028 4.251-.167 1.973-.323 3.834-1.774 5.041l3.854 1.262z"/><path fill="#463014" d="M93.547 24.489l.5-.418c1.336-1.108 1.485-2.896 1.646-4.798.131-1.53.264-3.114 1.083-4.408 1.507-2.377 3.892-3.866 5.855-4.752-1.176-.498-3.387-1.24-6.11-1.24-1.505 0-2.974.227-4.372.678-5.688 1.834-9.709 8.464-10.164 9.243l-.17.27-4.24-1.995.216-.344c.05-.08 5.37-8.186 12.833-10.592 1.994-.645 4-.97 5.959-.97 7.181 0 11.422 4.281 11.458 4.325l2.011 2.351-3.034.595c-.051.01-5.1 1.066-7.188 4.366-.347.548-.438 1.633-.536 2.784-.058.685.087 1.352.227 1.997.303 1.399.616 2.845-1.153 4.311l-.153.128-4.668-1.531z"/><path fill="#463014" d="M88.663 21.85c.002-.008.965-4.213 3.633-6.336 3.764-2.994 8.358-1.401 8.401-1.387l.67-2.061c-.224-.072-5.476-1.727-10.317 1.676-4.87 3.422-5.452 6.523-5.505 6.866l3.118 1.242z"/><path fill="#463014" d="M85.146 20.837l.043-.283c.052-.358.662-3.602 5.653-7.109 2.054-1.443 4.514-2.207 7.114-2.207 1.974 0 3.367.434 3.521.483l.343.111-.895 2.75-.346-.115c-.129-.043-1.288-.417-2.851-.417-2.001 0-3.753.587-5.208 1.746-2.552 2.029-3.496 6.091-3.505 6.13l-.094.413-3.775-1.502zm15.318-7.156l.444-1.369c-.525-.133-1.585-.349-2.951-.349-2.486 0-4.741.698-6.698 2.074-4.096 2.879-5.075 5.48-5.297 6.347l2.457.979c.322-1.143 1.386-4.328 3.653-6.132 1.564-1.243 3.521-1.9 5.658-1.9 1.23 0 2.22.212 2.734.35zm-27.698 97.21c-1.86-1.988-2.962-4.128-3.227-4.785-.153-.374-.325-1.089.22-1.649.426-.434 1.162-.656 2.193-.656h1.586c1.652 0 3.584 0 4.732.001l.965.001c1.354 0 2.021.388 2.342.712.468.473.539 1.129.219 1.953-.861 2.197-2.815 3.992-3.393 4.49-.757.653-1.843 1.04-2.91 1.04-1.093-.001-2.062-.394-2.727-1.107zm1.61-54.849l3.848-.248s-.982 1.735-1.619 3.979c-.722 2.539.657 6.25.657 6.25s-5.136-5.814-2.886-9.981z"/><path fill="#E78724" d="M64.006 42.292c-2.455 0-5.656-.067-8.057-1.793 0 0 3.145 5.512 8.053 5.512l.004-.697.004.697c4.908 0 8.052-5.511 8.052-5.511-2.401 1.724-5.604 1.792-8.056 1.792z"/><path fill="#463014" d="M70.765 42.264c-2.463 1.491-4.662 2.007-6.759 2.053-2.099-.046-4.297-.562-6.76-2.053 0 0 3.586 4.377 6.741 4.41v.003c.005 0 .011-.001.018-.001.006 0 .011.001.019.001v-.003c3.153-.033 6.741-4.41 6.741-4.41zm8.418 79.902l-.273-3.568c11.561-.889 15.204-11.97 15.223-13.137h3.58c0 2.697-4.823 15.652-18.53 16.705z"/><path fill="#FFF" d="M83.034 98.958c.216-1.237.236-2.411-.025-3.565 1.044-.783 2.912-1.073 4.313-1.528 1.147-.726 7.019.744 11.277-4.409 5.335-6.452 4.21-10.305 4.21-10.305 1.369 1.52 2.694.94 4.78 8.026 2.089 7.088-.981 12.029-6.699 16.99-2.701 2.343-6.521 3.309-9.807 3.679 1.102-1.104-1.879-1.216-3.932-1.983.164-1.659-.111-3.27-1.348-4.565-.744-.781-1.706-1.249-2.699-1.621-.057-.129-.104-.247-.155-.371.033-.114.064-.227.085-.348z"/><path fill="#C9C9C9" d="M87.177 105.818c.121-.348.209-.702.297-1.061.097-.389.57-1.495-.014-.232.149-.323.248-.656.319-.991 9.262-.013 17.317-6.371 15.761-19.738 1.212-1.61 2.911 3.245 2.911 3.245s4.636 13.462-7.339 18.68c-3.989 1.74-7.515 2.986-8.346 2.484-1.734.351-3.3-.856-3.885-1.651.11-.243.213-.488.296-.736z"/><path fill="#463014" d="M83.2 97.021c-.014-1.128-.245-2.222-.788-3.311-.04-.074-.084-.146-.124-.22 3.563-.03 7.667-.372 11.163-1.771 3.841-1.536 8.646-6.793 9.472-12.97 0 0 7.235 5.583 5.109 17.531-1.997 11.221-11.386 14.879-22.094 15.497-.005-.072 1.205-2.572.823-4.103 6.078.442 12.878-1.906 16.162-7.308 3.003-4.943 2.161-13.384.925-14.62-3.01 9.508-13.852 11.44-20.648 11.275z"/><path fill="#463014" d="M87.523 99.835c-1.279-1.383-3.631-3.031-9.054-3.031l-14.446-.009h-.036c-4.163.003-14.446.009-14.446.009-5.423 0-7.775 1.648-9.055 3.031-1.865 2.013-2.157 4.812-.867 8.312 3.427 9.315 8.244 18.779 24.368 18.793v.002c.006 0 .011-.002.018-.002.006 0 .011.002.019.002v-.002c16.122-.015 20.938-9.478 24.367-18.793 1.291-3.5.997-6.299-.868-8.312zm-2.509 7.659c-1.633 4.678-6.021 16.001-21.009 16.02-14.989-.019-19.376-11.342-21.01-16.02-.904-2.596-.835-4.516.212-5.709.714-.815 2.356-1.789 6.098-1.789l3.908-.001c2.883-.003 6.504-.005 10.792-.007 4.287.002 7.908.004 10.792.007l3.907.001c3.743 0 5.384.974 6.099 1.789 1.045 1.194 1.115 3.113.211 5.709z"/><path fill="#463014" d="M82.078 90.216c1.927 5.654 5.863 10.23 5.863 10.23s-5.414-.246-5.714-1.203c-.219-.707-4.887-11.633-6.679-24.434 1.684 2.769 6.365 14.922 6.53 15.407z"/></svg>