<svg xmlns="http://www.w3.org/2000/svg" width="128" height="128"><g fill="#21609B"><path d="M124.725 93.902l-.571 1.481c-9.739 18.965-26.997 30.6-51.613 31.114-11.507.237-22.471-2.715-29.634-5.925-15.458-6.945-28.459-19.826-35.559-33.587C-2.839 67.26-4.676 39.819 16.502 19.323c.327 0-2.569 4.444-2.242 4.444l-.583 1.896c-15.261 47.779 31.757 88.725 77.463 84.042 10.986-1.124 24.993-7.141 33.585-15.803"/><path d="M97.067 74.146c11.498.078 23.509-5.296 30.622-12.841-6.223 15.795-24.241 25.948-48.401 22.719C59.057 81.316 39.785 60.958 37.8 40.56c-1.451-14.846 3.722-23.706 12.249-34.455-2.963 5.622-4.07 9.957-4.346 12.722-3.24 32.114 25.653 55.149 51.364 55.319"/><path d="M126.534 34.257c-1.787 4.101-12.08 11.843-16.625 12.812-17.998 3.835-29.523-4.7-35.562-14.413-.897-1.45-2.557-5.411-2.854-6.419C69.152 18.275 70.229 6.233 77.214 0c-2.104 5.927-2.411 12.811-1.305 17.287.672 2.706 2.717 7.43 4.762 10.401 3.723 5.413 6.084 6.728 10.865 9.603 2.153 1.293 4.464 2.332 5.463 2.616 4.534 1.335 14.105 4.851 29.535-5.65"/></g></svg>