<?xml version="1.0" encoding="utf-8"?>
<!-- Generator: Adobe Illustrator 15.0.0, SVG Export Plug-In . SVG Version: 6.00 Build 0)  -->
<!DOCTYPE svg PUBLIC "-//W3C//DTD SVG 1.1//EN" "http://www.w3.org/Graphics/SVG/1.1/DTD/svg11.dtd">
<svg version="1.1" id="Layer_1" xmlns="http://www.w3.org/2000/svg" xmlns:xlink="http://www.w3.org/1999/xlink" x="0px" y="0px"
	 width="300px" height="104px" viewBox="0 0 300 104" enable-background="new 0 0 300 104" xml:space="preserve">
<path fill="#FFFFFF" d="M3.5-0.146h19.079c3.765,0,7.072,1.4,9.92,4.2c1.376,1.545,2.329,3.029,2.859,4.453
	c0.652,1.762,0.978,3.368,0.978,4.815c0,4.032-1.498,7.495-4.489,10.391c-0.241,0.314-0.362,0.628-0.362,0.941
	c0,0.772,0.555,1.399,1.666,1.883c2.486,1.642,4.284,3.875,5.394,6.698c0.602,1.69,0.905,3.344,0.905,4.96
	c0,2.414-0.712,4.815-2.136,7.205c-1.739,2.703-4.115,4.575-7.133,5.611c-1.424,0.506-2.92,0.76-4.489,0.76H3.499
	c-1.063,0-1.955-0.579-2.68-1.738c-0.217-0.506-0.325-0.929-0.325-1.267V2.858c0-1.061,0.579-1.955,1.738-2.679
	C2.738-0.038,3.16-0.146,3.5-0.146z M6.757,7.891v13.034c0,1.182,0.591,1.774,1.775,1.774h14.626c0.701,0,1.786-0.422,3.259-1.267
	c1.327-1.014,2.171-1.906,2.534-2.68c0.82-1.327,1.231-2.69,1.231-4.09v-0.507c0-1.859-0.701-3.632-2.1-5.322
	C26.9,7.65,25.97,6.974,25.294,6.804c-0.966-0.458-1.678-0.688-2.136-0.688H8.532C7.348,6.117,6.757,6.708,6.757,7.891z M6.757,30.7
	v13.034c0,1.182,0.64,1.774,1.919,1.774h17.595c0.845-0.049,1.955-0.483,3.331-1.304c2.461-1.834,3.692-4.176,3.692-7.023
	c0-2.462-1.013-4.622-3.041-6.481c-1.497-1.086-2.824-1.665-3.982-1.738H8.531C7.348,28.962,6.757,29.542,6.757,30.7z"/>
<path fill="#FFFFFF" d="M60.351-0.146c1.207,0,2.112,0.652,2.716,1.955c0.096,0.411,0.145,0.892,0.145,1.448v45.112
	c0,1.593-0.567,2.642-1.701,3.15c-0.241,0.122-0.628,0.205-1.159,0.253c-1.207,0-2.124-0.651-2.751-1.955
	c-0.097-0.386-0.145-0.869-0.145-1.447V3.258c0-1.593,0.578-2.63,1.738-3.113C59.409-0.001,59.795-0.097,60.351-0.146z"/>
<path fill="#FFFFFF" d="M71.94-0.146c1.207,0,2.112,0.652,2.716,1.955c0.095,0.411,0.145,0.892,0.145,1.448v45.112
	c0,1.593-0.567,2.642-1.701,3.15c-0.241,0.122-0.628,0.205-1.159,0.253c-1.207,0-2.124-0.651-2.751-1.955
	c-0.097-0.386-0.145-0.869-0.145-1.447V3.258c0-1.593,0.579-2.63,1.738-3.113C70.999-0.001,71.385-0.097,71.94-0.146z"/>
<path fill="#FFFFFF" d="M47.745,16.327h0.217c1.231,0,2.282,0.579,3.15,1.738c0.41,0.652,0.616,1.304,0.616,1.955v0.398
	c0,1.183-0.579,2.197-1.738,3.042c-0.701,0.435-1.376,0.652-2.028,0.652H47.71c-1.183,0-2.209-0.555-3.078-1.665
	c-0.458-0.748-0.688-1.497-0.688-2.246c0-0.819,0.29-1.629,0.87-2.425C45.658,16.811,46.636,16.327,47.745,16.327z M47.673,44.023
	h0.363c1.254,0,2.317,0.628,3.186,1.882c0.337,0.652,0.506,1.267,0.506,1.847v0.289c0,1.231-0.592,2.269-1.774,3.114
	c-0.651,0.411-1.291,0.616-1.918,0.616h-0.363c-1.23,0-2.281-0.602-3.15-1.81c-0.386-0.748-0.579-1.436-0.579-2.063
	c0-0.845,0.29-1.678,0.87-2.499C45.706,44.483,46.66,44.023,47.673,44.023z"/>
<g>
	<path fill="#FFFFFF" d="M146.802,66.653h9.342c2.895,0,5.574,1.014,8.037,3.041c1.231,1.183,2.028,2.124,2.39,2.824
		c1.253,2.077,1.882,4.226,1.882,6.444v21.688c0,0.989-0.482,1.847-1.448,2.57c-0.577,0.313-1.122,0.471-1.628,0.471
		c-1.352,0-2.331-0.64-2.935-1.919c-0.314-0.869-0.856-1.304-1.629-1.304c-0.339,0-1.062,0.351-2.172,1.051
		c-0.94,0.507-2.015,0.953-3.222,1.34c-1.954,0.557-3.681,0.832-5.177,0.832h-0.471c-3.234,0-6.131-1.243-8.689-3.727
		c-1.086-1.231-1.811-2.247-2.172-3.041c-0.869-1.835-1.303-3.597-1.303-5.289v-0.397c0-3.16,1.218-6.046,3.656-8.65
		c2.607-2.317,5.407-3.477,8.4-3.477h10.246c0.892,0,1.459-0.231,1.7-0.688c0.192-0.24,0.289-0.506,0.289-0.796V77.48
		c-0.072-0.699-0.52-1.545-1.34-2.534c-0.893-0.869-1.653-1.398-2.281-1.594c-0.604-0.313-1.69-0.47-3.258-0.47H146.8
		c-0.845,0-1.617-0.399-2.317-1.195c-0.435-0.602-0.652-1.181-0.652-1.737v-0.254c0-1.014,0.458-1.858,1.375-2.534
		C145.764,66.822,146.296,66.653,146.802,66.653z M143.833,91.419c0,1.664,0.7,3.175,2.1,4.526c1.254,0.989,2.486,1.483,3.692,1.483
		h0.616c2.051,0,4.139-0.64,6.264-1.918c2.366-1.497,4.057-3.657,5.069-6.481c0.217-0.844,0.373-1.522,0.471-2.026v-0.184
		c0-0.602-0.351-1.071-1.051-1.41c-0.169-0.024-0.302-0.036-0.4-0.036h-10.969c-1.448,0-2.836,0.64-4.163,1.917
		C144.376,88.571,143.833,89.946,143.833,91.419z"/>
	<path fill="#FFFFFF" d="M178.445,51.773h0.289c1.037,0,1.907,0.543,2.607,1.631c0.265,0.409,0.397,1.098,0.397,2.064v9.592
		c0,0.772,0.435,1.281,1.305,1.522h7.929c0.048,0,0.071,0.022,0.071,0.07v4.854c-0.096,0.456-0.34,0.832-0.724,1.122
		c-0.289,0.169-0.712,0.254-1.268,0.254h-4.127c-1.328,0-2.305,0.604-2.933,1.81c-0.169,0.435-0.254,0.795-0.254,1.086v18.754
		c0,1.038,0.592,1.907,1.774,2.606c0.459,0.17,0.82,0.254,1.086,0.254h2.499c0.072,0,0.108,0.022,0.108,0.071v6.156
		c0,0.048-0.036,0.072-0.108,0.072h-2.969c-2.052,0-3.609-0.338-4.67-1.014c-1.615-0.821-2.822-2.293-3.622-4.417
		c-0.265-0.771-0.397-1.907-0.397-3.403v-39.39c0-1.45,0.397-2.439,1.195-2.97C177.189,52.015,177.793,51.773,178.445,51.773z"/>
	<path fill="#FFFFFF" d="M208.784,66.583c1.567,0,3.137,0.457,4.705,1.376c2.222,1.521,3.331,3.053,3.331,4.598
		c0,1.086-0.543,1.979-1.629,2.679c-0.507,0.266-1.039,0.4-1.593,0.4c-0.822,0-1.608-0.386-2.354-1.159
		c-0.651-1.062-1.474-1.594-2.462-1.594h-0.146c-1.086,0-1.908,0.569-2.462,1.701c-0.146,0.387-0.219,0.736-0.219,1.052
		c0,1.108,0.64,2.016,1.92,2.716c4.684,3.111,7.3,4.888,7.855,5.322c0.87,0.75,1.483,1.363,1.849,1.846
		c1.566,2.148,2.351,4.394,2.351,6.734c0,3.789-1.532,6.88-4.598,9.269c-2.052,1.448-4.296,2.17-6.733,2.17
		c-2.316,0-4.515-0.722-6.589-2.17c-1.352-1.036-2.353-2.124-3.005-3.259c-0.652-1.11-0.978-2.027-0.978-2.751v-0.073
		c0-0.917,0.448-1.737,1.34-2.462c0.602-0.363,1.183-0.543,1.739-0.543c1.158,0,2.076,0.533,2.753,1.594
		c0.337,0.675,0.651,1.207,0.941,1.592c1.107,1.209,2.388,1.812,3.837,1.812c1.618,0,2.97-0.665,4.058-1.993
		c0.651-0.94,0.974-1.953,0.974-3.041c0-1.953-1.073-3.546-3.222-4.778c-4.515-3.018-6.965-4.671-7.351-4.961
		c-2.268-1.904-3.403-4.294-3.403-7.168c0-2.245,0.857-4.309,2.57-6.191C204.15,67.488,206.323,66.583,208.784,66.583z"/>
	<path fill="#FFFFFF" d="M243.469,66.583h0.616c3.812,0,7.517,1.303,11.115,3.909c1.642,1.376,2.787,2.56,3.439,3.549
		c2.463,3.379,3.693,7.084,3.693,11.115c0,4.873-1.774,9.22-5.322,13.031c-1.908,1.812-3.716,3.066-5.431,3.766
		c-2.582,1.158-5.083,1.737-7.494,1.737h-0.615c-3.861,0-7.579-1.313-11.15-3.945c-1.328-1.087-2.366-2.136-3.114-3.15
		c-2.654-3.428-3.98-7.253-3.98-11.479c0-4.586,1.594-8.725,4.778-12.418c1.643-1.665,2.825-2.68,3.549-3.041
		C236.783,67.608,240.088,66.583,243.469,66.583z M231.521,85.156v0.253c0,3.112,1.232,5.975,3.694,8.579
		c2.556,2.269,5.334,3.404,8.326,3.404h0.472c3.33,0,6.311-1.352,8.941-4.055c2.053-2.486,3.078-5.127,3.078-7.929v-0.253
		c0-3.452-1.267-6.432-3.802-8.943c-1.399-1.254-2.836-2.136-4.309-2.644c-1.399-0.456-2.667-0.687-3.802-0.687h-0.688
		c-2.027,0-4.102,0.627-6.227,1.882c-0.725,0.435-1.63,1.207-2.716,2.318c-1.279,1.616-2.078,3.053-2.39,4.31
		C231.715,82.429,231.521,83.684,231.521,85.156z"/>
	<path fill="#FFFFFF" d="M270.804,66.619c1.035,0,1.904,0.471,2.605,1.412c0.408,0.651,0.928,0.975,1.558,0.975
		c0.266,0,0.832-0.238,1.701-0.724c2.293-1.108,4.647-1.663,7.058-1.663c4.78,0,8.871,1.858,12.274,5.575
		c1.23,1.569,2.052,2.884,2.462,3.946c0.966,1.907,1.448,4.415,1.448,7.529v16.365c0,1.475-0.41,2.465-1.229,2.97
		c-0.558,0.458-1.209,0.688-1.955,0.688c-0.796,0-1.545-0.336-2.245-1.012c-0.557-0.533-0.835-1.411-0.835-2.644V83.818
		c0-2.316-0.302-4.043-0.904-5.177c-1.159-2.462-3.054-4.2-5.686-5.214c-1.157-0.362-2.244-0.541-3.258-0.541
		c-2.85,0-5.31,1.109-7.387,3.329c-1.137,1.305-1.882,2.836-2.244,4.598c-0.146,0.629-0.218,1.629-0.218,3.005v16.219
		c0,1.475-0.409,2.465-1.231,2.972c-0.53,0.457-1.182,0.688-1.954,0.688c-0.796,0-1.544-0.338-2.244-1.014
		c-0.555-0.531-0.834-1.411-0.834-2.644V70.277c0-1.252,0.302-2.147,0.905-2.679C269.27,66.945,270.007,66.619,270.804,66.619z"/>
</g>
<g>
	<path fill="#FFFFFF" d="M90.801,59.981c0.955,3.789,2.314,9.246,4.076,16.377c0.023,0.048,1.05,4.113,3.077,12.2
		c0.313,0.651,0.725,0.978,1.231,0.978h0.289c0.652,0,1.255-0.711,1.811-2.136c4.295-8.521,6.48-12.816,6.552-12.889
		c0.676-0.772,1.448-1.159,2.317-1.159c1.449,0,2.535,0.976,3.259,2.933l6.409,12.744c0.362,0.338,0.7,0.507,1.013,0.507h0.29
		c0.82,0,1.351-0.856,1.593-2.569l8.436-33.31c0.337-0.676,0.795-1.171,1.375-1.485c0.217-0.121,0.627-0.229,1.23-0.326
		c1.472,0,2.462,0.76,2.969,2.282c0.048,0.313,0.084,0.506,0.108,0.579c0,0.482-0.749,3.596-2.245,9.339
		c-2.945,11.853-6.094,24.438-9.45,37.763c-0.603,1.255-1.534,1.881-2.788,1.881c-1.448,0-2.558-1.012-3.33-3.039
		c-5.118-10.21-7.711-15.351-7.785-15.425c-0.362-0.314-0.676-0.471-0.941-0.471h-0.289c-0.652,0-1.231,0.675-1.739,2.026
		l-7.82,15.496c-0.628,0.941-1.498,1.412-2.606,1.412c-1.28,0-2.196-0.71-2.752-2.135c-2.84-11.293-5.565-22.192-8.174-32.693"/>
</g>
<path fill="#FFFFFF" d="M91.773,57.744c1.472-3.21,2.209-5.081,2.209-5.61v-0.181c0-0.579-0.447-1.846-1.34-3.801
	c-8.231-18.901-12.431-28.579-12.599-29.038c-0.169-0.363-0.253-0.724-0.253-1.086v-0.253c0-1.182,0.652-2.124,1.955-2.824
	c0.579-0.145,0.978-0.217,1.195-0.217c1.568,0,2.715,1.063,3.439,3.186c6.468,14.965,9.823,22.688,10.064,23.171
	c0.386,0.435,0.809,0.652,1.267,0.652c0.844,0,1.448-0.627,1.811-1.883l10.209-23.425c0.7-1.135,1.642-1.701,2.824-1.701
	c1.327,0,2.317,0.736,2.969,2.209c0.096,0.362,0.146,0.639,0.146,0.833v0.253c0,0.506-0.507,1.823-1.521,3.946
	c-11.513,26.598-17.487,40.332-17.921,41.201c-0.941,1.617-2.402,2.765-4.38,3.441"/>
<path fill="#FFFFFF" d="M101.438,51.303c-8.226,18.902-12.45,28.571-12.671,29.006c-0.149,0.37-0.357,0.68-0.622,0.925l-0.185,0.173
	c-0.866,0.807-1.999,0.97-3.4,0.493c-0.5-0.324-0.824-0.566-0.973-0.727c-1.069-1.148-1.072-2.711-0.012-4.688
	c6.548-14.931,9.914-22.649,10.104-23.154"/>
<path fill="#FFFFFF" d="M91.993,72.837c-8.226,18.9-12.45,28.568-12.671,29.003c-0.149,0.371-0.358,0.681-0.622,0.927l-0.185,0.172
	c-0.865,0.807-1.999,0.97-3.399,0.493c-0.5-0.324-0.824-0.567-0.973-0.727c-1.069-1.149-1.072-2.712-0.012-4.688
	c6.548-14.931,9.51-21.608,9.699-22.115L91.993,72.837z"/>
<path fill="#FFFFFF" d="M106.067,40.662c-8.226,18.9-12.45,28.569-12.671,29.006c-0.149,0.368-0.358,0.68-0.622,0.926l-0.186,0.171
	c-0.865,0.806-1.998,0.971-3.399,0.494c-0.5-0.325-0.824-0.568-0.973-0.726c-1.069-1.15-1.072-2.713-0.012-4.69
	c6.547-14.931,9.914-22.649,10.104-23.154"/>
<path fill="#EDCD2F" d="M126.257,16.327h0.217c1.424,0,2.546,0.712,3.367,2.136c0.266,0.506,0.398,1.05,0.398,1.629v0.363
	c0,1.376-0.736,2.486-2.209,3.331c-0.531,0.241-1.086,0.362-1.665,0.362c-1.642,0-2.849-0.819-3.621-2.462
	c-0.169-0.435-0.253-0.844-0.253-1.23V20.13c0-1.642,0.869-2.837,2.606-3.584C125.533,16.399,125.919,16.327,126.257,16.327z"/>
<path fill="#478D34" d="M122.31,25.52h0.217c1.424,0,2.547,0.712,3.368,2.135c0.266,0.507,0.398,1.051,0.398,1.63v0.362
	c0,1.376-0.736,2.486-2.209,3.33c-0.531,0.242-1.086,0.363-1.665,0.363c-1.642,0-2.849-0.82-3.621-2.462
	c-0.168-0.435-0.253-0.844-0.253-1.23v-0.326c0-1.641,0.869-2.836,2.606-3.583C121.586,25.591,121.971,25.52,122.31,25.52z"/>
<path fill="#255485" d="M118.317,34.712h0.217c1.424,0,2.546,0.712,3.368,2.136c0.265,0.506,0.398,1.05,0.398,1.629v0.362
	c0,1.376-0.736,2.486-2.209,3.33c-0.531,0.241-1.086,0.363-1.665,0.363c-1.642,0-2.848-0.82-3.621-2.462
	c-0.169-0.435-0.254-0.844-0.254-1.231v-0.326c0-1.641,0.87-2.836,2.607-3.584C117.593,34.786,117.979,34.712,118.317,34.712z"/>
<path fill="#74160D" d="M114.322,43.952h0.218c1.424,0,2.546,0.711,3.367,2.135c0.266,0.507,0.399,1.051,0.399,1.629v0.363
	c0,1.376-0.736,2.486-2.209,3.331c-0.532,0.241-1.087,0.362-1.666,0.362c-1.642,0-2.849-0.819-3.621-2.462
	c-0.169-0.435-0.253-0.845-0.253-1.231v-0.325c0-1.642,0.869-2.836,2.606-3.583C113.599,44.023,113.985,43.952,114.322,43.952z"/>
</svg>
