<?xml version="1.0" encoding="utf-8"?>
<!-- Generator: Adobe Illustrator 15.0.0, SVG Export Plug-In . SVG Version: 6.00 Build 0)  -->
<!DOCTYPE svg PUBLIC "-//W3C//DTD SVG 1.1//EN" "http://www.w3.org/Graphics/SVG/1.1/DTD/svg11.dtd">
<svg version="1.1" id="Layer_1" xmlns="http://www.w3.org/2000/svg" xmlns:xlink="http://www.w3.org/1999/xlink" x="0px" y="0px"
	 width="300px" height="104px" viewBox="0 0 300 104" enable-background="new 0 0 300 104" xml:space="preserve">
<path fill="#FFFFFF" d="M8.249,1.052h18.527c3.656,0,6.867,1.359,9.633,4.078c1.336,1.5,2.262,2.941,2.777,4.324
	c0.633,1.711,0.949,3.27,0.949,4.676c0,3.915-1.454,7.277-4.359,10.09c-0.234,0.305-0.352,0.61-0.352,0.914
	c0,0.75,0.539,1.359,1.617,1.828c2.414,1.594,4.16,3.762,5.238,6.504c0.585,1.641,0.879,3.247,0.879,4.816
	c0,2.344-0.691,4.676-2.074,6.996c-1.688,2.625-3.996,4.442-6.926,5.449c-1.383,0.492-2.836,0.738-4.359,0.738H8.248
	c-1.032,0-1.898-0.562-2.602-1.688c-0.211-0.492-0.316-0.902-0.316-1.23V3.969c0-1.031,0.562-1.898,1.688-2.602
	C7.51,1.157,7.92,1.052,8.249,1.052z M11.413,8.856v12.656c0,1.148,0.574,1.723,1.723,1.723h14.203c0.68,0,1.734-0.41,3.164-1.23
	c1.289-0.984,2.109-1.851,2.461-2.602c0.796-1.289,1.195-2.613,1.195-3.973v-0.492c0-1.805-0.68-3.527-2.039-5.168
	c-1.148-1.148-2.051-1.805-2.707-1.969c-0.938-0.445-1.629-0.668-2.074-0.668H13.136C11.987,7.134,11.413,7.708,11.413,8.856z
	 M11.413,31.005v12.656c0,1.148,0.621,1.723,1.863,1.723h17.086c0.82-0.047,1.898-0.469,3.234-1.266
	c2.391-1.781,3.586-4.055,3.586-6.82c0-2.391-0.984-4.488-2.953-6.293c-1.454-1.055-2.742-1.617-3.867-1.688H13.135
	C11.987,29.317,11.413,29.88,11.413,31.005z"/>
<path fill="#FFFFFF" d="M63.454,1.052c1.172,0,2.051,0.633,2.637,1.898c0.093,0.399,0.141,0.867,0.141,1.406v43.805
	c0,1.547-0.551,2.566-1.652,3.059c-0.234,0.118-0.61,0.199-1.125,0.246c-1.172,0-2.062-0.633-2.672-1.898
	c-0.094-0.375-0.141-0.844-0.141-1.406V4.357c0-1.547,0.562-2.554,1.688-3.023C62.54,1.192,62.914,1.099,63.454,1.052z"/>
<path fill="#FFFFFF" d="M74.708,1.052c1.172,0,2.051,0.633,2.637,1.898c0.093,0.399,0.141,0.867,0.141,1.406v43.805
	c0,1.547-0.551,2.566-1.652,3.059c-0.234,0.118-0.61,0.199-1.125,0.246c-1.172,0-2.062-0.633-2.672-1.898
	c-0.094-0.375-0.141-0.844-0.141-1.406V4.357c0-1.547,0.562-2.554,1.688-3.023C73.794,1.192,74.169,1.099,74.708,1.052z"/>
<path fill="#FFFFFF" d="M51.214,17.048h0.211c1.195,0,2.215,0.562,3.059,1.688c0.398,0.633,0.598,1.266,0.598,1.898v0.387
	c0,1.148-0.562,2.133-1.688,2.953c-0.68,0.422-1.336,0.633-1.969,0.633h-0.246c-1.148,0-2.145-0.539-2.988-1.617
	c-0.445-0.726-0.668-1.453-0.668-2.18c0-0.796,0.281-1.582,0.844-2.355C49.187,17.517,50.136,17.048,51.214,17.048z M51.144,43.942
	h0.352c1.218,0,2.25,0.61,3.094,1.828c0.328,0.633,0.492,1.23,0.492,1.793v0.281c0,1.195-0.575,2.203-1.723,3.023
	c-0.633,0.399-1.254,0.598-1.863,0.598h-0.352c-1.195,0-2.215-0.585-3.059-1.758c-0.375-0.726-0.562-1.394-0.562-2.004
	c0-0.82,0.281-1.629,0.844-2.426C49.234,44.388,50.16,43.942,51.144,43.942z"/>
<g>
	<path fill="#FFFFFF" d="M147.402,65.917h9.07c2.812,0,5.414,0.984,7.806,2.953c1.194,1.147,1.969,2.062,2.319,2.742
		c1.218,2.017,1.828,4.103,1.828,6.258v21.06c0,0.961-0.469,1.793-1.405,2.496c-0.562,0.305-1.091,0.457-1.582,0.457
		c-1.313,0-2.263-0.621-2.849-1.863c-0.306-0.844-0.832-1.266-1.582-1.266c-0.329,0-1.032,0.34-2.108,1.02
		c-0.914,0.492-1.957,0.926-3.129,1.301c-1.898,0.54-3.574,0.809-5.028,0.809h-0.457c-3.141,0-5.954-1.207-8.438-3.621
		c-1.055-1.195-1.758-2.18-2.109-2.953c-0.844-1.78-1.266-3.492-1.266-5.133v-0.387c0-3.07,1.183-5.871,3.551-8.402
		c2.531-2.25,5.25-3.375,8.156-3.375h9.949c0.866,0,1.418-0.223,1.651-0.668c0.188-0.233,0.281-0.492,0.281-0.772V76.43
		c-0.07-0.68-0.504-1.5-1.301-2.461c-0.867-0.844-1.605-1.358-2.215-1.547c-0.586-0.304-1.641-0.457-3.164-0.457h-7.98
		c-0.821,0-1.57-0.387-2.25-1.16c-0.422-0.584-0.633-1.147-0.633-1.688v-0.246c0-0.984,0.445-1.805,1.336-2.461
		C146.394,66.081,146.91,65.917,147.402,65.917z M144.519,89.965c0,1.616,0.68,3.082,2.039,4.395
		c1.218,0.961,2.414,1.441,3.586,1.441h0.598c1.993,0,4.02-0.621,6.083-1.863c2.297-1.453,3.938-3.551,4.922-6.293
		c0.211-0.82,0.363-1.478,0.457-1.969v-0.177c0-0.585-0.34-1.042-1.02-1.37c-0.164-0.023-0.293-0.035-0.388-0.035h-10.652
		c-1.406,0-2.754,0.621-4.043,1.862C145.047,87.199,144.519,88.535,144.519,89.965z"/>
	<path fill="#FFFFFF" d="M178.129,51.468h0.281c1.007,0,1.851,0.527,2.531,1.583c0.258,0.398,0.387,1.066,0.387,2.004v9.315
		c0,0.75,0.422,1.243,1.266,1.478h7.699c0.047,0,0.07,0.022,0.07,0.069v4.712c-0.094,0.444-0.33,0.809-0.703,1.09
		c-0.281,0.164-0.691,0.246-1.23,0.246h-4.008c-1.289,0-2.238,0.586-2.848,1.758c-0.164,0.422-0.246,0.772-0.246,1.055v18.211
		c0,1.008,0.574,1.852,1.723,2.531c0.445,0.164,0.796,0.246,1.055,0.246h2.426c0.07,0,0.105,0.022,0.105,0.069v5.978
		c0,0.047-0.035,0.07-0.105,0.07h-2.883c-1.992,0-3.504-0.328-4.535-0.984c-1.569-0.797-2.741-2.227-3.516-4.289
		c-0.258-0.75-0.387-1.852-0.387-3.305v-38.25c0-1.406,0.387-2.368,1.16-2.883C176.91,51.702,177.496,51.468,178.129,51.468z"/>
	<path fill="#FFFFFF" d="M207.589,65.848c1.522,0,3.046,0.444,4.569,1.336c2.156,1.477,3.234,2.965,3.234,4.465
		c0,1.055-0.527,1.922-1.582,2.602c-0.492,0.258-1.008,0.387-1.547,0.387c-0.797,0-1.561-0.375-2.285-1.125
		c-0.633-1.031-1.43-1.547-2.391-1.547h-0.141c-1.055,0-1.853,0.551-2.391,1.652c-0.142,0.375-0.212,0.715-0.212,1.02
		c0,1.078,0.62,1.957,1.863,2.637c4.548,3.023,7.089,4.746,7.628,5.169c0.846,0.728,1.441,1.323,1.795,1.793
		c1.521,2.086,2.283,4.266,2.283,6.538c0,3.681-1.488,6.681-4.465,9c-1.992,1.406-4.172,2.109-6.538,2.109
		c-2.25,0-4.384-0.703-6.398-2.109c-1.313-1.006-2.284-2.061-2.918-3.163c-0.633-1.078-0.948-1.97-0.948-2.673v-0.069
		c0-0.892,0.434-1.688,1.301-2.392c0.584-0.352,1.147-0.526,1.688-0.526c1.125,0,2.016,0.517,2.672,1.547
		c0.328,0.656,0.633,1.172,0.914,1.547c1.077,1.173,2.32,1.759,3.727,1.759c1.57,0,2.883-0.646,3.939-1.935
		c0.633-0.914,0.947-1.897,0.947-2.953c0-1.897-1.043-3.444-3.129-4.642c-4.383-2.93-6.762-4.534-7.137-4.815
		c-2.203-1.851-3.305-4.171-3.305-6.961c0-2.181,0.832-4.185,2.496-6.012C203.089,66.727,205.199,65.848,207.589,65.848z"/>
	<path fill="#FFFFFF" d="M241.27,65.848h0.598c3.703,0,7.299,1.266,10.793,3.797c1.594,1.336,2.707,2.484,3.34,3.445
		c2.391,3.281,3.586,6.879,3.586,10.793c0,4.733-1.723,8.953-5.168,12.655c-1.852,1.759-3.609,2.978-5.273,3.656
		c-2.508,1.125-4.936,1.688-7.277,1.688h-0.598c-3.75,0-7.359-1.277-10.828-3.832c-1.289-1.056-2.297-2.074-3.023-3.06
		c-2.578-3.328-3.865-7.043-3.865-11.146c0-4.453,1.547-8.473,4.641-12.059c1.594-1.617,2.742-2.602,3.445-2.953
		C234.777,66.844,237.986,65.848,241.27,65.848z M229.668,83.883v0.246c0,3.022,1.195,5.801,3.586,8.331
		c2.482,2.203,5.18,3.306,8.086,3.306h0.457c3.234,0,6.129-1.312,8.684-3.938c1.992-2.414,2.988-4.979,2.988-7.698v-0.246
		c0-3.353-1.23-6.246-3.691-8.685c-1.359-1.218-2.754-2.074-4.184-2.565c-1.359-0.445-2.59-0.668-3.691-0.668h-0.668
		c-1.969,0-3.984,0.609-6.047,1.827c-0.703,0.423-1.582,1.173-2.637,2.25c-1.242,1.57-2.018,2.966-2.32,4.185
		C229.855,81.234,229.668,82.453,229.668,83.883z"/>
	<path fill="#FFFFFF" d="M267.812,65.883c1.006,0,1.85,0.457,2.531,1.371c0.396,0.633,0.9,0.948,1.512,0.948
		c0.258,0,0.809-0.233,1.652-0.703c2.227-1.077,4.512-1.616,6.854-1.616c4.641,0,8.613,1.805,11.918,5.414
		c1.195,1.523,1.992,2.801,2.391,3.832c0.938,1.852,1.406,4.288,1.406,7.311v15.892c0,1.431-0.398,2.392-1.193,2.884
		c-0.541,0.444-1.174,0.668-1.898,0.668c-0.773,0-1.5-0.328-2.18-0.984c-0.541-0.516-0.811-1.371-0.811-2.566v-15.75
		c0-2.25-0.293-3.925-0.879-5.027c-1.125-2.391-2.965-4.078-5.52-5.062c-1.125-0.353-2.18-0.526-3.164-0.526
		c-2.766,0-5.156,1.078-7.172,3.233c-1.104,1.267-1.828,2.754-2.18,4.465c-0.141,0.61-0.211,1.582-0.211,2.918v15.75
		c0,1.431-0.398,2.392-1.195,2.884c-0.516,0.444-1.148,0.668-1.898,0.668c-0.773,0-1.5-0.328-2.18-0.984
		c-0.539-0.516-0.809-1.371-0.809-2.566V69.436c0-1.217,0.293-2.086,0.879-2.602C266.322,66.199,267.039,65.883,267.812,65.883z"/>
</g>
<g>
	<path fill="#FFFFFF" d="M93.023,59.438c0.927,3.679,2.247,8.979,3.958,15.902c0.023,0.047,1.02,3.995,2.988,11.848
		c0.304,0.633,0.703,0.949,1.195,0.949h0.281c0.633,0,1.218-0.691,1.758-2.074c4.171-8.273,6.293-12.445,6.363-12.516
		c0.656-0.75,1.406-1.125,2.25-1.125c1.406,0,2.461,0.948,3.164,2.848l6.223,12.375c0.352,0.328,0.68,0.492,0.984,0.492h0.281
		c0.796,0,1.312-0.832,1.547-2.496l8.191-32.344c0.328-0.657,0.773-1.138,1.336-1.442c0.211-0.117,0.609-0.223,1.195-0.316
		c1.429,0,2.391,0.738,2.883,2.215c0.047,0.305,0.082,0.492,0.105,0.562c0,0.469-0.727,3.492-2.18,9.07
		c-2.86,11.508-5.918,23.729-9.176,36.668c-0.586,1.219-1.489,1.828-2.707,1.828c-1.406,0-2.484-0.984-3.234-2.953
		c-4.969-9.914-7.488-14.906-7.559-14.978c-0.352-0.304-0.656-0.457-0.914-0.457h-0.281c-0.633,0-1.195,0.656-1.688,1.97
		l-7.594,15.047c-0.61,0.914-1.454,1.371-2.531,1.371c-1.243,0-2.133-0.691-2.672-2.074c-2.758-10.965-5.404-21.549-7.938-31.748"/>
</g>
<path fill="#FFFFFF" d="M93.967,57.266c1.429-3.117,2.145-4.934,2.145-5.448v-0.176c0-0.562-0.434-1.793-1.301-3.691
	C86.818,29.598,82.74,20.2,82.577,19.755c-0.164-0.352-0.246-0.703-0.246-1.055v-0.246c0-1.148,0.633-2.062,1.898-2.742
	c0.562-0.141,0.949-0.211,1.16-0.211c1.523,0,2.637,1.032,3.34,3.094c6.281,14.532,9.539,22.031,9.773,22.5
	c0.375,0.422,0.785,0.633,1.23,0.633c0.82,0,1.406-0.609,1.758-1.828l9.914-22.746c0.68-1.102,1.594-1.652,2.742-1.652
	c1.289,0,2.25,0.715,2.883,2.145c0.093,0.352,0.141,0.621,0.141,0.809v0.246c0,0.492-0.492,1.77-1.477,3.832
	c-11.18,25.828-16.98,39.164-17.402,40.008c-0.914,1.57-2.333,2.685-4.254,3.341"/>
<path fill="#FFFFFF" d="M103.351,51.011c-7.987,18.354-12.089,27.743-12.304,28.165c-0.145,0.359-0.347,0.66-0.604,0.899
	l-0.18,0.167c-0.84,0.783-1.94,0.941-3.301,0.479c-0.486-0.314-0.8-0.551-0.945-0.705c-1.038-1.115-1.041-2.633-0.011-4.553
	c6.358-14.498,9.627-21.992,9.811-22.483"/>
<path fill="#FFFFFF" d="M94.18,71.92c-7.987,18.354-12.089,27.742-12.304,28.165c-0.145,0.359-0.347,0.66-0.604,0.899l-0.18,0.167
	c-0.84,0.782-1.94,0.942-3.301,0.479c-0.486-0.316-0.8-0.552-0.945-0.705c-1.038-1.117-1.041-2.634-0.011-4.554
	c6.358-14.498,9.235-20.983,9.418-21.474L94.18,71.92z"/>
<path fill="#FFFFFF" d="M107.846,40.678C99.859,59.032,95.757,68.42,95.542,68.844c-0.145,0.358-0.347,0.66-0.604,0.898l-0.18,0.167
	c-0.84,0.783-1.94,0.942-3.301,0.479c-0.486-0.315-0.8-0.551-0.945-0.705c-1.038-1.116-1.041-2.633-0.011-4.553
	c6.358-14.499,9.627-21.994,9.811-22.484"/>
<path fill="#EDCD2F" d="M127.452,17.048h0.211c1.383,0,2.473,0.691,3.27,2.074c0.258,0.492,0.387,1.02,0.387,1.582v0.352
	c0,1.336-0.715,2.414-2.145,3.234c-0.516,0.234-1.055,0.352-1.617,0.352c-1.594,0-2.766-0.796-3.516-2.391
	c-0.164-0.422-0.246-0.82-0.246-1.195V20.74c0-1.594,0.844-2.754,2.531-3.48C126.749,17.118,127.124,17.048,127.452,17.048z"/>
<path fill="#478D34" d="M123.619,25.974h0.211c1.383,0,2.473,0.691,3.27,2.074c0.258,0.492,0.387,1.02,0.387,1.582v0.352
	c0,1.336-0.715,2.414-2.145,3.234c-0.516,0.234-1.055,0.352-1.617,0.352c-1.594,0-2.766-0.796-3.516-2.391
	c-0.164-0.422-0.246-0.82-0.246-1.195v-0.316c0-1.594,0.844-2.754,2.531-3.48C122.916,26.044,123.29,25.974,123.619,25.974z"/>
<path fill="#255485" d="M119.742,34.901h0.211c1.383,0,2.473,0.691,3.27,2.074c0.258,0.492,0.387,1.02,0.387,1.582v0.352
	c0,1.336-0.715,2.414-2.145,3.234c-0.516,0.234-1.055,0.352-1.617,0.352c-1.594,0-2.766-0.796-3.516-2.391
	c-0.164-0.422-0.246-0.82-0.246-1.195v-0.316c0-1.594,0.844-2.754,2.531-3.48C119.039,34.972,119.414,34.901,119.742,34.901z"/>
<path fill="#74160D" d="M115.863,43.872h0.211c1.383,0,2.473,0.691,3.27,2.074c0.258,0.492,0.387,1.02,0.387,1.582v0.352
	c0,1.336-0.715,2.414-2.145,3.234c-0.516,0.234-1.055,0.352-1.617,0.352c-1.594,0-2.766-0.796-3.516-2.391
	c-0.164-0.422-0.246-0.82-0.246-1.195v-0.316c0-1.594,0.844-2.754,2.531-3.48C115.16,43.942,115.535,43.872,115.863,43.872z"/>
</svg>
