<?xml version="1.0" encoding="utf-8"?>
<!-- Generator: Adobe Illustrator 15.0.0, SVG Export Plug-In . SVG Version: 6.00 Build 0)  -->
<!DOCTYPE svg PUBLIC "-//W3C//DTD SVG 1.1//EN" "http://www.w3.org/Graphics/SVG/1.1/DTD/svg11.dtd">
<svg version="1.1" id="Layer_1" xmlns="http://www.w3.org/2000/svg" xmlns:xlink="http://www.w3.org/1999/xlink" x="0px" y="0px"
	 width="1200px" height="548px" viewBox="0 0 1200 548" enable-background="new 0 0 1200 548" xml:space="preserve">
<g>
	<g>
		<path fill="#2E2D2C" d="M693.757,123.269l0.703-4.551h27.424l0.464,4.551l-7.232,1.4c-2.332,0.468-2.332,1.634-2.332,3.033V169.6
			c0,18.438-9.807,31.039-31.279,31.039c-19.371,0-30.104-9.566-30.104-30.105v-40.029c0-4.549-0.236-5.716-8.875-7.236l0.705-4.551
			h28.589l0.465,4.551l-7.232,1.4c-2.218,0.468-2.332,1.634-2.332,3.033v41.08c0,15.286,5.715,24.04,20.653,24.04
			c16.333,0,21.587-11.672,21.587-22.288v-37.811C704.962,126.068,703.796,124.436,693.757,123.269z"/>
		<path fill="#2E2D2C" d="M754.21,195.034c8.636-1.516,8.872-2.682,8.872-7.233v-57.297c0-4.549-0.234-5.716-8.872-7.236
			l0.703-4.551h32.443c17.269,0,24.619,7.704,24.619,19.604c0,10.62-6.415,20.071-18.201,24.039v0.584
			c0.815,0.232,1.632,1.048,2.567,2.567l16.453,24.739c2.102,3.151,3.383,4.319,9.57,4.783l-0.701,4.551h-16.572l-23.104-35.476
			h-7.587v26.49c0,1.4,0.118,2.568,2.331,3.033l6.424,1.4l-0.471,4.551h-27.772L754.21,195.034z M780.82,158.161
			c11.087,0,18.673-3.503,18.673-18.789c0-12.487-9.222-14.471-15.758-14.471h-7.003c-2.213,0-2.331,1.401-2.331,2.8v30.459H780.82z
			"/>
		<path fill="#2E2D2C" d="M853.174,195.034c8.638-1.516,8.876-2.682,8.876-7.233v-57.297c0-4.549-0.236-5.716-8.876-7.236
			l0.703-4.551h15.874l1.164,11.787h-1.048v57.415c0,3.732,1.166,5.601,5.132,6.068l8.173,1.046l-0.471,4.551h-28.822
			L853.174,195.034z M862.863,118.715h13.3l47.38,69.787l-0.232,10.969l-5.837,0.116L862.863,118.715z M915.959,177.534h0.934
			v-44.697c0-6.77-1.168-8.401-11.203-9.568l0.701-4.551h27.426l0.465,4.551l-7.235,1.4c-2.215,0.468-2.337,1.634-2.337,3.033
			v71.886h-6.881L915.959,177.534z"/>
		<path fill="#2E2D2C" d="M968.831,195.034c8.632-1.516,8.868-2.682,8.868-7.233v-57.297c0-4.549-0.236-5.716-8.868-7.236
			l0.697-4.551h54.383c0.467,2.918,0.698,7.351,0.698,9.219c0,3.268-0.113,6.302-0.229,8.987l-6.652,0.816
			c-2.216-10.97-2.685-12.137-3.968-12.253c-2.1-0.231-3.85-0.35-7.119-0.466l-17.623-0.35v31.394h17.505
			c0.936,0,1.751-0.936,3.733-8.289l3.622,0.352c0,13.071,0.462,14.353,1.632,23.105l-4.202,0.699
			c-2.453-8.519-2.8-9.686-3.968-9.686h-18.322v31.39l10.389-0.116c15.282-0.234,15.753-1.4,16.566-1.633
			c1.17-0.352,2.34-1.984,5.138-13.768l6.416,0.585c0.116,1.983,0.116,3.964,0.116,5.951c0,6.185-0.699,10.969-1.282,14.935h-56.834
			L968.831,195.034z"/>
		<path fill="#2E2D2C" d="M1110.271,126.768c0,4.669-0.587,9.571-1.284,13.77l-6.77,0.817c-1.054-10.969-1.869-13.655-3.153-14.704
			c-1.632-1.401-6.531-2.452-10.967-2.452c-4.785,0-8.284,1.167-10.506,2.801c-1.748,1.283-4.314,3.966-4.314,8.869
			c0,9.92,10.271,13.537,20.188,17.738c9.921,4.201,20.306,9.453,20.306,23.458c0,14.239-10.502,23.571-27.654,23.571
			c-10.271,0-20.539-3.385-23.692-5.018c-0.353-1.4-0.353-2.8-0.353-5.134c0-5.252,0.705-10.502,1.402-14.236l6.654-0.352
			c1.282,12.02,1.98,13.186,3.265,14.119c2.222,1.517,8.868,4.087,15.403,4.087c4.669,0,7.82-1.285,9.803-2.799
			c3.384-2.571,4.436-6.188,4.436-9.687c0-10.973-10.27-14.823-19.606-18.79c-9.921-4.201-19.84-8.869-19.84-22.172
			c0-14.472,11.788-22.99,28.363-22.99c7.583,0,14.231,1.75,17.969,3.15C1110.153,122.685,1110.271,124.668,1110.271,126.768z"/>
		<path fill="#2E2D2C" d="M1196.513,126.768c0,4.669-0.583,9.571-1.282,13.77l-6.772,0.817c-1.048-10.969-1.866-13.655-3.15-14.704
			c-1.631-1.401-6.534-2.452-10.971-2.452c-4.781,0-8.285,1.167-10.498,2.801c-1.749,1.283-4.318,3.966-4.318,8.869
			c0,9.92,10.273,13.537,20.188,17.738c9.919,4.201,20.305,9.453,20.305,23.458c0,14.239-10.502,23.571-27.65,23.571
			c-10.271,0-20.543-3.385-23.689-5.018c-0.356-1.4-0.356-2.8-0.356-5.134c0-5.252,0.703-10.502,1.4-14.236l6.651-0.352
			c1.286,12.02,1.983,13.186,3.27,14.119c2.217,1.517,8.871,4.087,15.403,4.087c4.667,0,7.819-1.285,9.799-2.799
			c3.385-2.571,4.44-6.188,4.44-9.687c0-10.973-10.275-14.823-19.605-18.79c-9.921-4.201-19.842-8.869-19.842-22.172
			c0-14.472,11.787-22.99,28.356-22.99c7.59,0,14.235,1.75,17.972,3.15C1196.396,122.685,1196.513,124.668,1196.513,126.768z"/>
	</g>
	<g>
		<path fill="#2E2D2C" d="M540.517,194.026c10.554-1.853,10.842-3.281,10.842-8.842v-70.037c0-5.562-0.288-6.989-10.842-8.843
			l0.854-5.564h66.468c0.575,3.564,0.858,8.986,0.858,11.269c0,3.993-0.142,7.702-0.283,10.982l-8.133,1.001
			c-2.71-13.409-3.281-14.835-4.847-14.979c-2.568-0.284-4.708-0.427-8.703-0.57l-21.539-0.427v39.653h21.967
			c1.144,0,3.854-1.142,6.278-10.127l4.42,0.428c0,15.975,0.571,17.546,1.996,28.241l-5.134,0.857
			c-2.997-10.412-5.135-11.839-6.562-11.839h-22.966v33.376c0,1.712,0.146,3.422,2.854,3.709l14.407,1.711l-0.571,5.562h-40.51
			L540.517,194.026z"/>
	</g>
	<g>
		<path fill="#2E2D2C" d="M643.11,309.578c8.635-1.517,8.873-2.683,8.873-7.235v-57.295c0-4.55-0.238-5.719-8.873-7.236l0.703-4.551
			h32.442c17.269,0,24.622,7.704,24.622,19.606c0,10.618-6.418,20.074-18.206,24.039v0.587c0.819,0.231,1.631,1.045,2.57,2.562
			l16.455,24.744c2.099,3.148,3.383,4.314,9.566,4.781l-0.703,4.553h-16.567l-23.109-35.479h-7.585v26.49
			c0,1.399,0.116,2.569,2.335,3.036l6.42,1.398l-0.467,4.553h-27.773L643.11,309.578z M669.719,272.701
			c11.086,0,18.67-3.5,18.67-18.787c0-12.487-9.216-14.471-15.752-14.471h-7.003c-2.219,0-2.335,1.402-2.335,2.8v30.457H669.719z"/>
		<path fill="#2E2D2C" d="M786.77,232.208c23.574,0,36.527,15.756,36.527,39.446c0,26.023-14.003,43.53-38.275,43.53
			c-23.574,0-36.527-16.106-36.527-40.496C748.494,249.363,762.497,232.208,786.77,232.208z M810.344,273.635
			c0-19.837-8.403-35.243-25.441-35.243c-17.504,0-23.455,17.041-23.455,34.309c0,20.538,8.4,36.298,25.44,36.298
			C804.395,308.999,810.344,291.721,810.344,273.635z"/>
		<path fill="#2E2D2C" d="M912.344,241.31c0,4.67-0.587,9.571-1.286,13.772l-6.772,0.815c-1.045-10.969-1.862-13.655-3.146-14.705
			c-1.632-1.4-6.535-2.449-10.969-2.449c-4.783,0-8.286,1.166-10.502,2.8c-1.752,1.28-4.32,3.964-4.32,8.865
			c0,9.919,10.271,13.539,20.19,17.739c9.919,4.203,20.307,9.455,20.307,23.458c0,14.235-10.504,23.574-27.659,23.574
			c-10.268,0-20.535-3.382-23.688-5.021c-0.353-1.395-0.353-2.799-0.353-5.132c0-5.25,0.705-10.504,1.404-14.234l6.65-0.356
			c1.284,12.022,1.984,13.19,3.269,14.126c2.216,1.518,8.868,4.08,15.401,4.08c4.669,0,7.818-1.282,9.805-2.801
			c3.384-2.562,4.434-6.185,4.434-9.683c0-10.968-10.271-14.818-19.604-18.786c-9.923-4.203-19.842-8.872-19.842-22.176
			c0-14.47,11.788-22.989,28.361-22.989c7.583,0,14.237,1.75,17.971,3.151C912.226,237.227,912.344,239.21,912.344,241.31z"/>
	</g>
	<g>
		<path fill="#2E2D2C" d="M540.517,308.568c10.554-1.854,10.842-3.281,10.842-8.846v-70.034c0-5.564-0.288-6.989-10.842-8.843
			l0.854-5.563h37.658c20.97,0,32.093,8.986,32.093,23.535c0,13.121-9.13,20.825-14.977,22.68v0.997
			c12.121,2.284,21.396,12.552,21.396,24.108c0,12.41-8.984,27.529-34.518,27.529h-41.652L540.517,308.568z M573.183,259.499
			c16.261,0,22.681-7.844,22.681-18.97c0-16.691-14.266-17.687-21.112-17.687h-9.559v36.656H573.183z M567.334,305.287
			c0.428,0.287,2.994,1.427,8.699,1.427c19.113,0,25.676-7.275,25.676-18.827c0-16.835-13.407-20.828-22.68-20.828H565.19v33.235
			C565.192,302.293,565.338,304.43,567.334,305.287z"/>
	</g>
	<g>
		<path fill="#2E2D2C" d="M669.875,417.964v-63.018c-15.287,0.236-15.636,0.469-16.455,0.821c-1.166,0.463-2.334,1.164-4.665,14.122
			l-5.953-0.469c-0.116-1.751-0.116-3.382-0.116-5.02c0-6.065,0.579-11.67,1.048-15.524h63.6c0.463,3.854,1.048,9.459,1.048,15.524
			c0,1.636,0,3.269-0.114,5.02l-5.955,0.469c-2.333-12.958-3.501-13.655-4.667-14.122c-0.817-0.353-1.168-0.585-16.455-0.821v65.818
			c0,1.401,0.116,2.686,2.334,3.04l8.985,1.396l-0.467,4.551h-32.093l-0.698-4.551C669.524,423.566,669.875,422.519,669.875,417.964
			z"/>
		<path fill="#2E2D2C" d="M747.016,425.201c8.637-1.517,8.869-2.687,8.869-7.237v-57.301c0-4.547-0.23-5.717-8.869-7.23l0.705-4.556
			h36.525c27.777,0,36.762,19.142,36.762,37.932c0,20.421-10.624,42.943-39.332,42.943h-33.955L747.016,425.201z M769.658,421.932
			c2.916,0.587,7.463,1.635,12.368,1.635c17.972,0,26.023-14.235,26.023-33.839c0-27.077-15.401-34.661-26.49-34.661h-14.354v63.835
			C767.202,420.302,767.322,421.468,769.658,421.932z"/>
	</g>
	<g>
		<path fill="#2E2D2C" d="M540.517,424.191c10.554-1.854,10.842-3.283,10.842-8.846v-70.033c0-5.561-0.288-6.989-10.842-8.842
			l0.854-5.564h34.946l0.571,5.564l-8.844,1.711c-2.71,0.57-2.854,1.994-2.854,3.707v80.592l12.697-0.142
			c18.686-0.289,17.545-0.711,18.544-1c1.424-0.429,2.995-3.139,7.988-21.969l7.842,0.719c0.145,2.424,0.145,4.846,0.145,7.271
			c0,8.703-0.855,16.831-1.566,22.394h-69.468L540.517,424.191z"/>
	</g>
	<rect x="540.399" y="463.473" fill="#2E2D2C" width="339.196" height="10.372"/>
	<g>
		<path fill="#2E2D2C" d="M865.356,355.979c0-3.618,2.685-7.003,6.999-7.003c3.852,0,7.234,1.869,7.234,7.003
			c0,3.85-2.798,7.232-7.234,7.232C868.622,363.211,865.356,360.992,865.356,355.979z"/>
	</g>
</g>
<g>
	<path fill="#2E2D2C" d="M37.604,271.523c3.749,0.662,8.384,0.55,8.384,0.55s1.433-0.994-1.656-2.094
		c-3.088-1.105-2.538-2.315-6.178-1.658c-3.641,0.665-5.072,1.323-9.817,1.216c-4.744-0.11-6.839,0.991-3.64,2.315
		c3.201,1.324,8.271,0.223,8.714,0.774c0.439,0.55-4.147,3.018-0.992,7.386c3.154,4.373,0.992,5.406,1.543,8.495
		c0.55,3.089,2.537,6.51,1.433,11.141c-1.104,4.63-1.42,11.361-0.654,12.684c0.767,1.326,1.342,0.551,1.095-1.983
		c0,0-0.992-5.405,0.883-7.724c1.873-2.313,1.652-3.859,0-11.249c-1.654-7.391-1.632-13.454-1.148-16.985
		C36.06,270.862,33.852,270.862,37.604,271.523L37.604,271.523z"/>
	<path fill="#2E2D2C" d="M373.037,299.648c0.919-2.297,4.522-5.957,9.484-6.175c4.966-0.221,5.626-0.114,5.403-3.087
		c-0.22-2.982-0.552-21.845-0.552-21.845l-20.07-0.88c0,0,0.772,23.493,1.432,29.231
		C369.396,302.625,370.829,305.163,373.037,299.648L373.037,299.648z"/>
	<path fill="#2E2D2C" d="M350.754,295.24c1.982-3.091,6.398-2.317,10.475-1.987c4.087,0.329,4.749-0.44,4.636-2.317
		c-0.112-1.877-1.324-23.272-1.324-23.272l-21.511-1.543c0,0,0.477,18.86,1.107,29.229
		C345.13,311.675,348.766,298.327,350.754,295.24L350.754,295.24z"/>
	<g>
		<g>
			<defs>
				<rect id="SVGID_1_" width="510.031" height="548.508"/>
			</defs>
			<clipPath id="SVGID_2_">
				<use xlink:href="#SVGID_1_"  overflow="visible"/>
			</clipPath>
			<path clip-path="url(#SVGID_2_)" fill="#2E2D2C" d="M339.836,292.594c0-5.298,0-26.476,0-26.476l-22.171-0.772
				c0,0,0.991,30.775,1.104,39.379c0.107,8.603,1.322,5.732,1.322,1.322c0-4.411,3.417-10.37,9.375-10.147
				C335.422,296.121,339.836,297.886,339.836,292.594L339.836,292.594z"/>
		</g>
		<g>
			<defs>
				<rect id="SVGID_3_" width="510.031" height="548.508"/>
			</defs>
			<clipPath id="SVGID_4_">
				<use xlink:href="#SVGID_3_"  overflow="visible"/>
			</clipPath>
			<path clip-path="url(#SVGID_4_)" fill="#2E2D2C" d="M291.467,493.893c2.812,2.318,7.775,5.13,13.732,5.957
				c5.955,0.83,11.579,0.497,16.542,0c4.966-0.492,6.618,1.491,9.764,4.8c3.143,3.309,2.98,3.806,0.995,5.46
				c-1.986,1.657-5.296,3.312-11.086,5.296c-5.791,1.983-6.454,1.983-8.272-0.496c-1.821-2.482-4.303-0.329-7.117,2.149
				c-1.959,1.73,0.34,1.774,3.929,1.696c-4.817,0.759-9.819,1.206-14.585,1.128c-7.124-0.118-9.962-0.932-11.354-1.815
				c2.281-0.469,4.883-0.854,9.44-0.679c8.602,0.332,6.616-2.479,9.262-4.297c2.647-1.822,1.985-0.829,3.639,1.156
				c1.658,1.984,1.491-1.488,3.31-3.476c1.818-1.982-0.332-1.816-3.31-1.816c-2.976,0-1.155-5.13-2.477-4.469
				c-1.326,0.661-5.463,3.145-7.778,7.611c-2.161,4.166-3.172,3.585-6.786,2.95c0,0,0,0-0.002,0
				c-0.027-0.006-0.053-0.01-0.084-0.016c-0.776-0.135-2.137-0.343,0.086-2.602c2.312-2.346,7.91-8.273,7.91-8.273
				c1.509-1.596-0.792-1.82-1.541-0.747c-0.743,1.076-8.354,8.026-9.511,9.353c-1.157,1.32-2.647,1.238-1.383-0.501
				c1.262-1.736,5.848-7.276,8.001-9.679c2.151-2.397-0.747-2.069-1.489-1.071c-0.747,0.989-6.121,7.361-8.607,10.093
				c-2.479,2.725-3.224,1.322-1.569-0.747c1.654-2.066,6.287-7.859,8.188-10.093c1.906-2.231-0.084-2.231-1.157-0.909
				c-1.072,1.323-7.527,8.19-9.183,10.179c-1.652,1.981-2.728,0.998-1.486-0.747c1.232-1.746,6.614-7.611,9.016-10.093
				c2.397-2.486-0.166-2.069-1.241-0.992c-1.079,1.074-4.385,4.547-7.198,7.518c-2.813,2.961-3.184,0.097-1.488-1.397
				c1.693-1.492,5.624-5.21,7.506-6.867c1.877-1.654,0.27-1.982-0.887-1.157c-1.161,0.827-2.07,1.987-4.798,3.395
				c-2.514,1.29-1.078-0.975-0.834-1.344c2.376-3.028,5.717-4.911,7.454-5.277c1.939-0.411,2.872-0.876,3.962-0.632
				c0.689,0.453,1.446,0.872,2.23,1.263C291.298,493.769,291.372,493.814,291.467,493.893L291.467,493.893z M258.511,503.752
				c0.002-0.042,0.002-0.094,0.002-0.138c0,0.027,0,0.056,0,0.082C258.513,503.716,258.511,503.732,258.511,503.752L258.511,503.752
				z M258.46,505.286c0.008-0.204,0.015-0.412,0.021-0.623C258.473,504.872,258.469,505.09,258.46,505.286L258.46,505.286z
				 M292.071,481.568c0.427-0.172,0.888-0.322,1.357-0.463c-0.402,0.137-0.796,0.271-1.205,0.405
				C292.17,481.53,292.126,481.549,292.071,481.568L292.071,481.568z M212.742,312.063c0.232-0.477,0.493-0.881,0.794-1.163
				L212.742,312.063L212.742,312.063z M204.604,299.435c-0.187,0.098-0.363,0.206-0.543,0.311c0.002,0,0.002-0.002,0.002-0.004
				c0.375-0.901-0.206-0.753-0.534-1.913c-0.333-1.153-0.911-1.901-2.318-5.046c-1.406-3.145-1.156-0.25-0.828,0.573
				c0.332,0.829,1.736,3.647,2.365,5.012c0.628,1.366,0,2.181,0,2.181l0,0c-0.875,0.563-1.64,1.09-2.354,1.561
				c1-0.845,0.411-1.853-0.096-2.79c-0.578-1.075-0.829-2.479-2.631-4.966c-1.805-2.479-1.423,0.459-1.423,0.459
				s1.159,1.858,2.399,4.341c1.226,2.455-0.461,4.178-0.499,4.214c-1.255,0.473-2.332,0.305-3.472-1.071
				c-1.285-1.553-2.043-2.142-2.482-2.552c-0.812-0.747-0.495-1.639,1.489-3.283c1.985-1.641,1.162-3.265,0-4.375
				c-1.157-1.104-2.979-2.782-4.209-5.096c-1.229-2.315,0.917-2.968,0.917-2.968h-0.002c4.324-1.354,8.953-3.706,12.229-1.579
				c4.082,2.645,0.991,6.288,1.324,8.489C204.272,293.145,209.568,296.675,204.604,299.435L204.604,299.435z M198.165,303.366
				c0.071-0.04,0.373-0.198,1.692-0.897C199.25,302.855,198.692,303.166,198.165,303.366L198.165,303.366z M190.481,296.452
				c-0.448,0.082-0.93-0.076-1.382-0.118c-0.559-0.12-1.625-0.539-2.253-2.039c-0.885-2.098-2.649-7.996-3.917-8.884
				c-0.321-0.218-0.579-0.351-0.755-0.425c0.325,0,0.642,0,0.957-0.002c0.114-0.002,0.214,0.002,0.348-0.004
				c0.013,0,0.026-0.004,0.042-0.004c0.911-0.014,1.771-0.046,2.556-0.104c0.391,0.188,0.747,0.523,1.153,1.04
				c0.835,1.063,2.071,3.972,4.137,7.443c1.266,2.125,0.651,2.802-0.016,3.017C191.158,296.338,190.886,296.378,190.481,296.452
				L190.481,296.452z M187.469,298.343c-0.028,0.154-0.049,0.312-0.074,0.493c-0.074,0.623-0.174,1.228-0.313,1.814
				c-0.613,1.326-3.357-5.366-4.374-7.397c-1.105-2.207-1.6-0.772-0.987,0.234c0.611,1.008,1.902,5.032,3.247,7.045
				c1.102,1.65,0.993,2.688,0.993,2.688c-0.395,0.544-0.897,1.045-1.543,1.488c-0.262,0.128-0.583,0.304-0.999,0.562
				c-0.141,0.066-0.273,0.134-0.422,0.2c-0.042,0.014-0.082,0.014-0.124,0.026c-0.097,0.027-0.195,0.054-0.292,0.082
				c-0.115-0.198,0.027-0.924-0.369-2.178c-0.663-2.095-2.979-7.832-3.42-9.155c-0.443-1.32-1.875-0.771-1.106,0.568
				c0.776,1.338,1.878,4.507,2.871,7.922c0.993,3.419,0,3.31,0,3.31s0.028,0.029,0.058,0.067c-0.698,0.169-1.41,0.309-2.123,0.438
				c-0.168,0.021-0.311,0.044-0.469,0.063c-0.946,0.116-0.443-0.214-0.443-2.333c0-2.424-2.097-6.51-2.747-8.445
				c-0.651-1.938-1.558-0.819-1.335,0.838c0.22,1.652,1.876,3.857,2.538,7.057c0.628,3.044-1.117,3.196-1.289,3.2
				c-1.207,0.024-2.316-0.086-3.265-0.347c0.183-0.334-0.062-1.481-0.63-3.793c-0.958-3.889-3.43-6.334-3.43-6.334l-0.002,0.004
				c-0.625-0.591-1.687-0.805-3.516-0.457c-5.739,1.104-2.869,5.517-6.177,3.971c-3.311-1.543-7.282-0.657-8.605,0.885
				c-1.325,1.543,1.986,7.055-1.543,6.174c-3.53-0.882-6.176-7.279-6.176-1.542c0,5.736,0.662,7.894-1.544,7.475
				c-2.206-0.416-6.176,2.891-6.176,2.891s-11.913,9.264-17.872,12.135c-5.957,2.868-4.189,2.428-8.604,2.428
				c-0.72,0-1.392,0.029-2,0.111l-0.006-0.004c0,0-0.01,0.004-0.012,0.008c-1.052,0.146-1.896,0.467-2.432,1.148
				c-5.018,2.143-16.16,5.646-17.931-4.659c-2.298-13.368-1.229-12.976,0-14.056c1.229-1.077,5.583-1.243,1.613-3.56
				c-3.973-2.313-5.462-2.148-5.462-8.438c0-0.907-0.035-1.708-0.086-2.415c4.11-26.284,12.062-39.114,17.017-44.974
				c0.242-0.277,0.441-0.5,0.667-0.754c1.646-1.593,3.224-2.27,5.268-2.485c3.145-0.331,1.489,0.992,6.949-8.606
				c5.46-9.595,8.929-10.276,14.223-12.591c5.296-2.317,10.594-2.464,10.76,3.988c0.126,5.001,0.611,10.698,0.583,14.472
				c-0.116,0.693-0.122,1.705-0.176,2.774c-0.03,0.194-0.04,0.378-0.032,0.553c-0.17,2.339-0.745,4.729-3.464,4.483
				c-4.852-0.444-2.756,2.314-2.756,5.296c0,2.979,0.554,3.529-1.433,3.417c-1.986-0.108-1.434-3.639-2.648-6.065
				c-1.213-2.427-3.201,0.549-5.186,3.64c-1.982,3.085-2.977,1.987,0,3.97c2.98,1.986,2.76,3.307,0.442,3.75
				c-2.315,0.445-4.97,0.445-2.32,4.196c2.652,3.749,1.441,5.958-2.089,5.402c-3.531-0.55-5.074-0.99-6.84-3.97
				c-1.764-2.979-3.641-5.736-4.411-7.5c-0.771-1.763-1.436-1.432-2.206-0.551c-0.772,0.881-1.328,1.875,0.55,3.528
				c1.877,1.657,3.418,5.186,1.986,4.747c-1.432-0.441-4.631-4.309-7.608-0.944c-2.979,3.369-4.746,1.383-5.078,2.375
				c-0.331,0.993,4.304,0.333,2.98,2.314c-1.325,1.99,2.266,1.215,6.041,0.992c3.775-0.216,10.283,0.958,13.702,4.013
				c3.42,3.047,4.854,5.037-0.769,3.821c-5.628-1.212-10.087-2.979-12.931-2.315c-2.842,0.663-2.292,1.214,2.12,1.765
				c4.416,0.551,11.362,2.426,12.685,2.975c1.326,0.555,5.186,6.843-0.548,8.167c-5.737,1.325-9.268,1.43-17.097,1.982
				c-7.834,0.551-4.855,2.313-1.215,2.761c3.64,0.44,2.317,2.758,1.656,4.741c-0.663,1.988-4.522,5.736,1.765,2.427
				c6.288-3.311,14.778-6.728,20.294-8.49c5.515-1.767,7.393-2.761,7.171,0.214c-0.222,2.98-0.111-3.194,4.081-4.849
				c4.194-1.655,19.192-4.525,24.487-6.398c5.296-1.877,8.824-5.738,11.583-6.071c1.587-0.186,5.703,0.061,9.873,0.177
				c0.395,0.014,0.788,0.024,1.177,0.032c0.953,0.174,2.264,0.781,3.071,2.712c1.379,3.311,2.206,5.614,2.92,7.137
				c0.719,1.526,1.427,2.027,1.343,3.514C187.469,298.331,187.469,298.337,187.469,298.343L187.469,298.343z M135.128,529.686
				c-6.638,2.289-8.845,1.622-9.579,0.979c1.117-5.04-2.288-14.488-2.446-21.097c3.382-4.675,11.843-6.737,14.986-4.919
				c3.144,1.818,6.618,4.467,8.438,7.942c1.819,3.473-6.62,7.116-14.229,10.59c-7.61,3.475-1.655,2.315-1.655,2.315
				s10.424-4.467,13.659-6.123c3.234-1.655,5.369-0.663,5.369,0.661c0,1.323-2.315,2.148-7.113,3.4
				c-4.798,1.246-3.145,1.564,4.797,0.074c1.786-0.332,3.146-0.652,4.198-0.981c0.004,0,0.007,0,0.013,0
				C156.438,522.825,135.128,529.686,135.128,529.686L135.128,529.686z M140.558,503.544c0.021,0.014,0.046,0.032,0.065,0.048
				c-0.035-0.018-0.069-0.038-0.105-0.052L140.558,503.544L140.558,503.544z M109.598,383.536c2.306,1.151,4.628,11.299,4.65,11.377
				c0.459,2.51,0.94,4.77,1.411,6.456c1.5,5.713,7.983,30.275,12.063,42.891c4.63,14.342,3.306,8.171,1.323-0.877
				c-1.986-9.044-13.867-35.484-5.941-36.277c0,0,0.002,0,0.003,0c2.445,0.11,5.227-0.292,7.92-0.791
				c5.958-1.104,13.238-0.879,13.678,4.633c0.341,4.23-1.125,12.072,0.354,15.508c-0.002,0.004-0.01,0.008-0.01,0.008
				s-8.636,0-14.187,0c-5.548,0-3.715,3.237,0,3.237c0,0,29.063,0,35.485,0c6.42,0,6.821,1.982,6.821,4.3
				c0,0.007,0.002,0.011,0.002,0.021c0.008,2.407,0.035,4.728,0.068,6.954h-0.002c0,0,0.002,0.019,0.002,0.032
				c0,0.026,0,0.046,0,0.072c0.01,0.665-0.242,4.601-7.534,4.601c-7.965,0-21.406,0-21.406,0s-12.783,1.89,0,1.89
				c12.781,0,22.71,0,22.71,0s5.833-0.034,5.833,5.832c0,0.72,0.176,1.118,0.483,1.267c-0.031,1.592-0.076,3.131-0.165,4.601
				c-0.122,2.003-0.202,3.777-0.054,5.294l0,0c-0.208,9.054-9.208,8.381-16.269,7.493c-7.059-0.881-4.853,4.415-5.735,6.29
				c-0.562,1.191-0.763,4.739-0.726,7.565c-0.04,2.62-11.538,5.937-11.542,5.937c3.875-1.786,5.746-2.131,5.428-4.997
				c-0.441-3.968-14.341,0-14.341,0c-6.885,1.472-20.074,5.3-27.821,10.596c-7.748,5.294-5.047,0.219-3.5-2.868
				c1.543-3.089,2.864-2.872-4.564-4.192c-7.431-1.324-6.249-4.413-1.835-4.855c4.411-0.44,4.631-3.309,1.835-5.957
				c-2.796-2.647-4.263-3.972-2.053-6.397c2.204-2.428,3.529-9.484-3.971-11.466c-7.504-1.986-4.631-5.298-7.062-21.841
				c-2.426-16.549,0.663-47.656,0.663-55.374c0-3.285-0.482-5.562-1.301-7.427c-1.181-4.76-1.654-22.153,0-26.843
				c1.655-4.682,3.268-6.277,3.268-6.277l0,0c1.497-1.378,3.051-2.736,4.508-3.76c6.121-4.301,13.866-5.641,16.127,1.688
				c0.002,0.008,0.004,0.014,0.007,0.018c3.174,8.728,6.268,24.447,7.005,30.023c0.012,0.521,0.063,1.1,0.168,1.747
				c0,0.493,0.098,1.675,0.274,3.312C111.616,383.26,107.581,382.528,109.598,383.536L109.598,383.536z M80.479,311.232
				l-0.625-4.655c0-0.002,0-0.002,0-0.004C80.138,308.631,80.479,309.68,80.479,311.232L80.479,311.232z M118.946,177.406
				L118.946,177.406l-0.002,0.026C118.943,177.424,118.943,177.414,118.946,177.406L118.946,177.406z M119.334,140.48
				c-0.247-1.153-0.339-2.308-0.348-3.543C119.172,139.073,119.334,140.48,119.334,140.48L119.334,140.48z M125.344,103.251
				l0.038,1.055C125.298,103.817,125.292,103.498,125.344,103.251L125.344,103.251z M125.652,111.784l0.002,0.052l-0.01,0.001
				C125.646,111.82,125.648,111.802,125.652,111.784L125.652,111.784z M139.595,225.55c0.594,0.031,1.164,0.09,1.691,0.197
				c7.171,1.434,9.268,2.205,11.475,3.418c2.205,1.215,4.078,1.432,5.402,0.109c1.326-1.322,2.98,0.665,0.995-5.625
				c-1.988-6.287-2.758-13.676-0.441-15.333c2.316-1.654,0.884,1.657,3.087,1.877c2.207,0.22,2.428-0.807,2.428-4.543
				c0-3.73,1.766-3.95,4.08-3.95c2.316,0,0.553-5.737,2.649-7.061c2.095-1.324,2.756-0.993,2.976,0
				c0.164,0.736,0.807,0.134,1.31-1.122c0.023-0.058,0.044-0.122,0.065-0.182c0.088-0.048,0.265-0.082,0.593-0.074
				c0.872,0.014,0.206,0.741,0.206,1.118c0,0.371,0.832-0.059,0.993-0.562c0.161-0.498,1.281-0.333,1.157,0.073
				c-0.124,0.407,0.381,0.363,0.459-0.038c0.036-0.183,0.218-0.306,0.41-0.375c0.172,0.014,0.346,0.03,0.518,0.042
				c0.061,0.238,0.414,1.052,0.855,0.584c-0.017,0.071-0.024,0.138-0.057,0.208c-0.882,1.875-4.963,1.882-5.296,4.525
				c-0.33,2.643-1.236,1.95,0.755,1.95c5.476,0,5.092,0.585,6.305,1.797c1.213,1.214,2.619,0.497,4.636-0.221
				c3.195-1.136,5.79,1.084,3.987-3.332c-1.804-4.414-1.563-3.618-2.994-3.727c-1.149-0.086-2.072-0.469-2.288-1.349
				c0.058,0.005,0.119,0.009,0.176,0.013l0.523,0.034c0,0,0.452,0.563,0.7,0.31c0.25-0.251,0.49-0.241,0.578-0.234
				c0.088,0.003,0.621,0.085,0.745,0.442c0.124,0.359,0.583-0.017,0.621-0.194c0.042-0.174,0.498-0.113,0.623,0.342
				c0.122,0.458,0.495,0.451,0.661,0c0.164-0.449,0.787-0.535,0.911-0.121c0.124,0.415,0.454,1.074,0.7,0.289
				c0.103-0.321,0.238-0.474,0.362-0.55c0.134,0.003,0.265,0.007,0.399,0.009l1.655,1.836c0.993,1.573,0.061,2.271,1.64,5.12
				c-0.065-0.154-0.125-0.307-0.185-0.465c0.128,0.238,0.269,0.535,0.417,0.88c-0.088-0.147-0.158-0.277-0.231-0.416
				c0.151,0.356,0.314,0.684,0.462,0.959c0.846,2.063,1.893,5.178,2.29,6.716c0.55,2.151,0.384,2.71,0.494,3.583
				c0.114,0.878-0.408,0.835-0.853,0.939c-2.234,0.545-3.896,0.599-4.759,0.354c-2.328-2.474-1.484-4.286-1.281-5.442
				c0.298-1.705,1.187-2.524,0.747-2.69c-0.445-0.166-1.656,0.83-1.645,3.972c0.013,3.143-0.934,3.966-0.934,3.966v0.002
				c-1.516,0.797-3.248,2.266-4.345,3.203c-1.49,1.267-1.875,2.868-1.49,4.19c0.387,1.324,1.268,1.989,4.299-0.88
				c0,0,3.686,1.243,5.013-0.666l0,0c0.138,0.092,0.27,0.17,0.394,0.224c0.993,0.442,0.924,2.059,0.829,5.624
				c-0.029,1.012-0.044,1.75-0.084,2.333c-0.048,0.185-1.509,5.381-10.472,4.87c-0.208-0.018-0.417-0.03-0.616-0.03
				c-2.12,0-11.495-2.94-15.356-7.262c-3.861-4.32-3.97-4.763-4.081,0.642c-0.109,5.407,0.552,6.508,1.545,9.05
				c0.99,2.536-1.545,4.961,1.21,3.75c2.756-1.214,1.765-1.877,5.957-0.886c4.19,0.995,5.626,1.216,5.735,6.729
				c0.111,5.515-0.221,6.727,0.663,6.727c0.883,0,0.661-2.536,0.661-6.838c0-4.302,2.208-7.203,4.303-4.208
				c2.096,2.995,7.718,8.73,7.718,17.005c0,8.271-2.315,17.203-7.279,17.147c-4.962-0.05-8.933-5.568-11.364-8.545
				c-2.423-2.976-10.258-11.03-14.559-18.42c-4.303-7.391-3.862,0.661-4.412,3.197c-0.55,2.54-2.427,1.437,0.882,4.083
				c3.308,2.646,4.964,4.521,0.772,4.635c-4.191,0.11-14.889,5.074-15.771-3.529c-0.062-0.591-0.126-1.135-0.197-1.659h0.002
				c0,0-0.006-0.024-0.006-0.028c-0.18-1.376-0.392-2.533-0.618-3.489c-0.675-3.946-1.666-10.288-1.775-14.032
				C137.758,230.825,134.989,225.741,139.595,225.55L139.595,225.55z M150.345,179.19c0.26,0.104,0.822,0.8,2.354,2.171
				c1.383,1.238,3.874,2.229,6.54,3.007c3.074,0.9,6.387,1.518,8.516,1.891c3.715,0.646,7.884,0.495,3.715-0.055
				c-0.288-0.042-0.617-0.08-0.989-0.12c-0.013-0.003-0.029-0.005-0.048-0.007c-0.169-0.017-0.344-0.037-0.516-0.057
				c-0.096-0.012-0.187-0.035-0.283-0.046c-5.412-0.689-10.395-2.091-15.037-4.213c-3.867-1.769-3.601-4.381-3.32-5.397
				c0.158-0.446,0.309-0.878,0.49-1.356c1.953-5.174,4.865-8.507,7.964-10.665c0.17-0.1,0.346-0.195,0.521-0.291
				c10.806-5.992,29.142-3.443,30.063-3.307c2.147,0.326,3.965,0.594,4.775,0.694c2.551,0.312,3.887-0.059,3.971,4.105
				c1.339,0.868,2.063,1.491,2.063,1.491c1.117,1.436,1.849,2.624,1.988,2.848c0.015,0.036,0.034,0.07,0.052,0.106
				c1.824,4.208,2.454,7.85,2.46,10.869c0.004,0.021,0.004,0.042,0.004,0.063c0,0.222-0.014,0.43-0.023,0.648
				c-0.147,1.092-1.113,1.82-6.21,3.71c-5.761,2.135-14.301,2.079-15.325,2.061c-0.067,0-0.101,0-0.101,0
				c14.723,1.856,19.827-2.432,21.098-3.015c1.269-0.585,1.622,1.732,1.622,1.732v-0.002c0.113,0.939,0.058,2.067-0.369,3.341
				c-1.088,3.273-20.396,4.449-44.13,0.495c-0.927-0.084-1.758-0.162-2.48-0.234c-1.556-0.237-2.873-0.563-4-0.951
				c-0.02-0.005-0.038-0.007-0.056-0.011l0.005-0.006c-4.919-1.714-6.008-4.655-5.934-7.059
				C149.88,180.892,150.083,180.088,150.345,179.19L150.345,179.19z M200.505,201.703l-1.112,7.269c0-0.002,0-0.002,0-0.002
				C199.4,208.903,199.852,204.913,200.505,201.703L200.505,201.703z M199.026,207.423c-0.678-2.75-1.329-4.667-2.27-6.518
				c0.008,0.006,1.75,1.138,2.828,1.015C199.416,204.038,199.196,206.37,199.026,207.423L199.026,207.423z M213.739,228.686
				c0.344,0.242,0.703,0.507,1.075,0.789c0.323,0.272,0.572,0.465,0.763,0.593c1.208,0.968,2.559,2.173,4.083,3.813
				c3.224,3.474,5.294,6.867,7.443,10.176c2.152,3.309,2.333,7.856,7.744,11.746c5.41,3.89,9.369,5.749,7.019,5.557
				c-0.018,0-0.023,0-0.04,0c-0.568-0.084-1.168-0.144-1.817-0.178c-4.795-0.248-10.173,1.987-13.565,5.378
				c-2.746,2.742-3.229,4.168-4.45,4.539c-0.312-0.04-0.656-0.01-1.029,0.095c-0.304-0.021-0.548,0.019-0.76,0.084
				c-3.109,0.001-8.092-4.167-7.332-7.368c0.829-3.472,5.626,1.491,2.482-4.961c-3.145-6.454-5.957-6.288-6.289-11.916
				c-0.328-5.626-1.323-7.115-3.309-10.424c-1.985-3.305-6.783-9.1-8.438-10.918c-0.128-0.141-0.234-0.234-0.334-0.312
				c-0.307-0.351-0.712-0.986-0.712-1.947c0-1.544-0.168-1.542,2.868-1.542c0.438,0,0.816-0.01,1.167-0.028
				C200.311,221.863,209.758,226.014,213.739,228.686L213.739,228.686z M221.128,233.704l0.005,0.01
				c-0.009-0.015-0.021-0.029-0.034-0.038L221.128,233.704L221.128,233.704z M230.922,248.932l1.953,3.418
				c-0.628-0.708-1.023-1.541-1.955-3.42L230.922,248.932L230.922,248.932z M310.052,143.02c2.428,3.751,5.403,7.059,8.052,10.368
				c2.647,3.309,6.507,10.368,9.767,15.772c3.256,5.404-0.394,6.616-0.285,10.698c0.109,4.085-0.674,6.621-2.095,3.42
				c-0.116-0.262-0.243-0.502-0.376-0.734c0.002,0,0.008,0.004,0.008,0.004s-0.751-2.926-1.585-4.829
				c-0.044-0.104-0.086-0.207-0.138-0.303c-0.003-0.01-0.011-0.022-0.015-0.034c-0.007-0.018-0.02-0.028-0.029-0.046
				c-0.061-0.108-0.125-0.21-0.191-0.312c-0.088-0.136-0.177-0.26-0.271-0.364c-1.253-1.526-3.382-2.556-3.479-5.182
				c-0.124-3.308-2.414-3.418-5.504-6.286c-3.086-2.869-2.206-2.318,0.661-5.076c2.873-2.756-2.421-4.301-6.062-6.287
				c-3.643-1.985-3.53-4.631-3.752-8.934c-0.219-4.301-0.219-4.854,0.823-6.872c1.043-2.019,2.044-3.056,2.044-1.181
				c0,1.415,0.002,2.082,1.045,3.933l0.003,0.004C309.013,141.38,309.457,142.101,310.052,143.02L310.052,143.02z M328.69,166.407
				c-0.281-0.309-0.555-0.635-0.819-0.999c-0.094-0.13-0.187-0.271-0.283-0.407C328.223,165.81,328.613,166.309,328.69,166.407
				L328.69,166.407z M314.794,118.145c3.642-1.82,2.979-3.639,4.465-6.287c0.625-1.112,1.986-1.519,3.615-1.685
				c0.106-0.003,0.225-0.014,0.353-0.034c0.319-0.023,0.65-0.042,0.982-0.053c0.34,0.103,0.227,0.556,1.176,1.703
				c1.412,1.694,2.727,0.4,3.39-0.592c0.656-0.989,2.065-1.631,2.077-1.638c2.755-0.356,2.626,1.379,4.293,3.955
				c0.195,0.305,0.367,0.563,0.529,0.806l0,0l0.004,0.004c0.418,0.626,0.729,1.046,0.985,1.256l0.011,0.018
				c0,0,0.541,1.554,1.451,4.038c0.909,2.481-0.332,3.226-2.4,3.226c-2.071,0-0.994,0.663,1.818,1.241
				c1.953,0.403,3.344,1.127,3.405,2.167c-0.309,0.487-0.639,1.023-0.975,1.57c-0.088-0.203-0.108-0.873-1.108-1.332
				c-1.629-0.744-3.25-1.579-6.616-1.083c-1.671,0.247-2.383,0.625-2.67,0.958c-0.236,0.142-0.489,0.339-0.783,0.637
				c-1.633,1.669,0.834,2.043,3.424,2.099c2.592,0.056,4.467,0.276,2.702-0.056c-1.765-0.331-2.478-0.496-3.69-1.157
				c-1.171-0.641-0.083-1.265-0.013-1.303c1.312-0.422,3.168-0.458,4.751-0.268c1.29,0.153,2.349,0.982,2.967,1.587
				c0.427,0.787-1.645,1.196-1.645,1.196c0.831-0.054,1.217,0.643,1.217,0.643l0.947-1.276c0.036,0.05,0.06,0.079,0.062,0.081
				c-1.811,2.078-4.271,5.419-5.367,6.373c-0.976,0.844-0.451,1.271,1.501-0.672l-0.042,0.04c0,0-0.447,1.292-0.25,3.508
				c-0.616,1.461-2.729,6.008-6.171,8.625c-4.14,3.142-0.732,7.682-5.561,1.341c-4.832-6.342-1.194-6.679-5.842-6.606
				c-1.452-0.416-1.417-0.75,1.013-2.179c1.563-0.918,2.834-1.125,3.683-1.125c1.253,0.307,2.137,0.07,4.551-0.035
				c3.804-0.167-2.976-0.827-4.629-3.806c-1.655-2.977-2.318-1.984-4.303-3.31c-1.986-1.324,0.499-3.143-2.648-5.46
				C312.315,122.942,311.154,119.964,314.794,118.145L314.794,118.145z M338.126,114.008c0.475-1.19,1.489-1.687,2.668-1.91
				c0.017,0.017,0.81,0.599,2.164,0.51c0.846-0.056,1.449-0.453,1.787-0.75c0.946-0.067,1.196,0.837,1.261,1.758
				c-0.19,2.838-1.789,6.648-2.636,8.807c-0.396,0.64-0.819,1.314-1.292,2.061c-0.333-0.134-0.739-0.291-1.324-0.514
				c-3.476-1.325-1.887-0.863-1.635-2.02c0.249-1.158-0.5-2.745-1.24-5.468c-0.167-0.599-0.201-1.089-0.172-1.509
				C337.831,114.712,337.966,114.406,338.126,114.008L338.126,114.008z M356.88,177.823l1.433,4.115
				C357.812,180.623,357.333,179.248,356.88,177.823L356.88,177.823z M346.376,116.156c-0.248,0.792-0.528,1.505-0.827,2.199
				c0.449-1.349,0.825-2.454,1.099-3.257C346.578,115.433,346.495,115.781,346.376,116.156L346.376,116.156z M329.985,246.888
				c2.512,2.43,4.553,7.288,2.623,9.149c-0.556,0.423-1.376-0.869-1.376-0.869c-0.114-0.964-0.292-2.257-0.531-3.388
				c-0.438-2.099-2.538-3.752-2.979-3.971c-0.439-0.222-1.544-1.216,0.441,1.431c1.693,2.261,1.99,3.801,2.124,6.229
				c0.014,0.525-0.066,1.134-0.655,1.33c-0.275,0-0.556,0-0.834-0.002c-0.495-0.19-0.573-0.739-0.573-1.036
				c0.075-1.608-0.308-4.015-1.166-5.3c-1.102-1.657-2.759-3.013-2.759-3.013c-0.713-0.644-0.99-0.076,1.215,2.57
				c1.73,2.077,1.762,4.541,1.619,5.973c-0.067,0.413-0.244,0.661-0.55,0.788c-0.427-0.005-0.836-0.011-1.228-0.019
				c-0.265-0.202-0.387-0.585-0.441-0.955c-0.004-0.261-0.011-0.544-0.036-0.846v-0.002c-0.104-1.352-0.432-2.976-1.095-3.728
				c-1.071-1.212-3.344-3.784-3.344-3.784c-1.104,0.735,1.104,2.9,2.239,4.445c0.619,0.839,0.891,2.25,1.008,3.355
				c0.038,0.354,0.023,1.288-0.884,1.46c-0.331-0.01-0.59-0.016-0.775-0.021c-0.905-0.242-0.815-1.158-1.139-1.585
				c0-0.002-0.002-0.002-0.002-0.002c-0.817-3.208-3.861-5.937-3.877-5.952c-1.288-1.757-4.083-1.937-5.304-2.111
				c-0.729-0.101-1.958-0.152-3.207-0.11c0.007-0.002,0.009-0.002,0.009-0.002s-1.489,0.026,0-2.246
				c1.487-2.271,6.077-4.78,9.155-3.504c0.012,0.006,0.022,0.007,0.036,0.011C320.772,242.783,326.884,243.888,329.985,246.888
				L329.985,246.888z M335.146,249.187h12.41c0,0,34.414,0,43.679,0c9.267,0,6.288,5.127,0,5.127c-5.749,0-46.468,0-53.41,0
				c-0.354-0.155-0.714-0.302-1.025-0.497C333.327,251.664,335.146,249.187,335.146,249.187L335.146,249.187z M361.486,246.569
				v-22.433c4.358,3.241,8.56,6.363,10.227,7.675c3.018,2.374,8.465,6.686,12.229,8.771l0.1,0.072c0,0,0.114,0.061,0.302,0.156
				c0.627,0.33,1.213,0.609,1.708,0.775c0.617,0.207,1.135,0.234,1.611,0.202c0.763,0.023,1.461-0.168,1.896-0.772
				c0.807-0.71,1.145-1.629,1.147-1.634c1.035,0.572,2.133,1.103,3.024,1.638c1.397,0.844,1.686,0.836,1.468,0.543
				c1.008,0.636,1.883,1.329,2.327,2.004c0.044,0.122,0.114,0.269,0.234,0.47c0.008,0.019,0.016,0.034,0.025,0.053
				c0.157,0.542,0.403,1.083,0.68,1.603c0.12,0.603,0.029,1.186-0.831,1.192c-0.114,0-0.19,0.01-0.24,0.023
				c-9.175-0.057-25.227,0-36.608,0.054C361.238,246.732,361.486,246.569,361.486,246.569L361.486,246.569z M389.975,239.707
				c0.019-0.229,0.031-0.46,0.017-0.734C389.996,238.977,390.231,239.266,389.975,239.707L389.975,239.707z M388.939,237.232
				c-0.202-0.214-0.349-0.441-0.416-0.682L388.939,237.232L388.939,237.232z M391.849,232.032c2.278-1.646,3.563-1.133,4.04-0.799
				c2.755,2.353,4.355,3.675,5.354,4.398c0.002,0,0.002,0,0.004,0c0.006,0.004,0.014,0.01,0.018,0.016
				c0.548,0.391,0.919,0.605,1.209,0.704c2.661,1.321,7.913,2.956,11.011,4.067c2.167,0.964,3.663,2.956,4.601,5.112
				c0.07,0.214,0.104,0.346,0.104,0.346s0.03,0.037,0.084,0.093c0.2,0.5,0.369,1,0.51,1.5c-0.042-0.098-0.069-0.176-0.092-0.237
				c0.04,0.107,0.1,0.281,0.16,0.494c0.03,0.102,0.06,0.207,0.082,0.309c0.062,0.245,0.113,0.521,0.144,0.815
				c0.019,0.334,0.024,1.289-0.656,1.289c-0.25,0-0.431-0.082-0.579-0.208v-0.002c0,0-0.183-0.27-0.376-0.696
				c-0.048-0.189-0.584-2.368-1.029-3.631c-0.468-1.324-0.71-2.037-1.143-1.955c-0.429,0.082-0.484,0.426,0.23,1.943
				c0.002,0.002,0.002,0.004,0.004,0.008c0.002,0.002,0.004,0.008,0.005,0.012c0.115,0.314,0.275,0.666,0.469,1.037
				c0.069,0.128,0.111,0.229,0.174,0.35c0.32,0.641,0.547,1.196,0.707,1.713l-0.104-0.21c0,0,0.132,0.371,0.242,0.912
				c0.042,0.152,0.084,0.298,0.116,0.443c0.344,1.452,0.679,2.878-0.358,2.682c-1.031-0.192-0.995-1.643-0.995-1.675
				c-0.011-0.026-0.02-0.048-0.036-0.072c-0.002-0.01-0.002-0.022-0.002-0.034c-0.174-1.625-0.864-3.199-1.559-4.409
				c-0.184-0.321-0.367-0.615-0.541-0.879c-0.558-0.849-1.006-1.376-1.006-1.376c-1.433-1.218-0.661,0.442-0.661,0.442l0.208,0.463
				l1.646,3.702c0.502,1.359,0.718,2.343,0.776,3.064c0.134,1.667-0.59,1.891-0.608,1.895c-0.572,0.124-1.098-0.134-1.041-1.124
				c0.01-0.182,0.004-0.375-0.015-0.569c0.002-0.002,0.011-0.012,0.011-0.012s-0.009-0.026-0.02-0.072
				c-0.165-0.557-1.327-4.48-2.152-5.667c-0.884-1.28-2.043-1.453-0.994,0.346c0.501,0.86,1.057,2.01,1.431,3.146
				c0.002,0.006,0.006,0.013,0.006,0.019c0.208,0.626,0.355,1.247,0.407,1.811c0.002,0.023,0.004,0.038,0.006,0.063
				c0.014,0.187,0.004,0.358-0.003,0.533c-0.132,0.697-0.877,0.257-1.19,0.019c-0.012-0.01-0.02-0.023-0.036-0.034
				c-0.366-0.319-1.733-3.109-2.331-4.419c-0.232-0.506-0.772-0.71-1.352-0.771l-18.222-10.42
				C388.207,235.259,389.57,233.681,391.849,232.032L391.849,232.032z M388.92,259.282c-1.177,0.019-1.953,0.07-2.465,0.142
				c-10.768-0.068-21.184-0.36-23.852-1.634c-3.466-1.655,1.333-1.16,11.757-1.16c8.759,0,22.071,1.167,28.261,1.736
				C398.825,258.735,393.098,259.219,388.92,259.282L388.92,259.282z M304.865,247.474c-0.997,0.431-2.361-0.799-3.623-2.201
				c-0.084-0.116-0.189-0.238-0.321-0.369c-2.046-2.017,4.608-6.97,8.577-8.476c3.972-1.503,4.44,0,4.44,0s0-0.002-0.002-0.004
				c0.369,0.842,0.808,1.666,1.347,2.458c-1.403,0.206-3.663,0.781-5.455,2.358c-2.811,2.486-5.711,6.051-3.516,5.868
				c0.006,0,0.008-0.002,0.014-0.002C305.752,247.193,305.246,247.313,304.865,247.474L304.865,247.474z M299.352,243.063
				c-0.102-0.114-0.245-0.19-0.422-0.24c-3.308-3.035-14.192-13.124-20.042-19.942c-6.946-8.106-4.795-10.916-8.104-13.895
				c-3.308-2.982-5.46-1.991-3.308-5.464c2.149-3.473,1.655,2.317,3.474,1.985c1.822-0.331,0.331-3.116,0.827-11.98
				c0.495-8.866,3.142-1.42,4.465-14.159c0.183-1.768,0.343-3.428,0.484-4.982c0-0.006,0-0.008,0.002-0.012
				c2.42-12.539-1.88-9.3,3.979-18.52c0.012-0.021,0.024-0.042,0.038-0.062c0.182-0.286,0.372-0.584,0.577-0.895
				c0.004-0.003,0.008-0.01,0.011-0.014c-2.042,3.344,2.206-2.352,3.127-3.477c0.995-1.212,3.518-5.748,12.013-9.965
				c8.504-4.218,6.298-3.379,6.409,4.452c0.109,7.83,2.644,8.491,6.835,10.919c4.192,2.426,3.643,1.766,1.435,4.069
				c-2.206,2.304-2.758,2,2.208,5.749c2.32,1.75,3.426,3.213,4.125,4.635c0.128,0.458,0.094,1.266-0.873,2.479
				c-1.612,2.026-2.81,3.432-3.388,4.013c-0.583,0.579-1.447,2.313,0.496,0.413c1.945-1.905,2.854-3.103,3.475-3.722
				c0.623-0.622,1.157-0.375,1.28,0.331c0.125,0.704-0.599,2.087-1.862,3.351c-1.259,1.262-0.926,0.929-1.612,1.612
				c-0.682,0.685-0.558,1.595,0.663,0.375c1.216-1.22,2.009-2.014,2.811-2.812c0.8-0.798,0.993-0.334,1.118-0.042
				c0.122,0.292,0.851,0.655-0.772,2.275c-1.618,1.618-0.853,0.855-1.618,1.618c-0.768,0.767-0.96,1.69,0.382,0.346
				c1.347-1.344,2.318-1.82,2.75-2.252c0.436-0.435,1.561,1.09,2.206,2.82c0.01,0.024,0.021,0.042,0.028,0.064
				c0.018,0.056,0.034,0.104,0.054,0.164c1.213,3.087-4.188,7.39-8.052,13.012c-3.857,5.623-2.316,5.851,0,2.76
				c2.316-3.09,5.188-6.176,8.386-9.708c3.197-3.528,3.927-0.221,3.927-0.219c-0.023,4.349-0.13,0.586-5.222,8.849
				c-5.306,8.615,0.331,2.734,1.242,1.533c0.912-1.2,2.811-4.259,3.24-2.536c0.428,1.728-1.616,5.07-1.616,5.07
				c-0.859,1.413-1.877,3.118-3.114,4.954c-3.452,5.12-8.616,13.278-11.245,17.452c-0.679,0.526-1.941-0.39-6.292-6.2
				c-6.456-8.602-4.47-12.574-4.635-23.825c-0.166-11.251-1.322-14.394-1.488-21.841c-0.166-7.443-1.323,0.83-1.323,8.603
				c0,7.778-1.157,6.618-1.822,19.359c-0.658,12.738,4.14,15.388,7.283,19.688c3.141,4.303,7.974,8.705,7.974,8.705
				c1.387,1.837,2.138,2.808,2.778,4.861c0.234,0.737,0.463,1.457,0.719,2.164c-1.149-1.466-4.017-1.421-9.483,3.134
				c-2.446,2.038-3.732,3.75-4.386,5.126C299.445,243.171,299.397,243.115,299.352,243.063L299.352,243.063z M245.471,264.41
				c3.225,2.884-0.25,6.118,3.143,4.464c-0.736,0.529-0.957,1.661-0.713,2.891c-0.002,0.002-0.009,0.002-0.009,0.002
				c0,0.006,0.009,0.038,0.02,0.068c0.028,0.13,0.074,0.266,0.114,0.4c0.104,0.434,0.136,0.945-0.513,0.47
				c-0.999-0.734-4.275-2.011-9.239-2.177c-4.963-0.166-8.771,1.077-11.499,2.731c-1.849,1.122-2.575,0.441-2.852-0.116
				c-0.046-0.174-0.1-0.334-0.163-0.491c0-0.002-0.002-0.01-0.002-0.01v0.006c-0.002,0-0.002-0.006-0.002-0.006h0.002
				c0,0,0.617-2.198,3.68-5.01C230.496,264.822,240.345,259.824,245.471,264.41L245.471,264.41z M243.131,260.479
				c-0.002-0.002-0.004-0.004-0.006-0.007l0.004,0.003L243.131,260.479L243.131,260.479z M213.537,301.634
				c-1.82-2.811-2.315-2.828-1.323-5.797c0.993-2.969-1.819-5.616,1.159-4.957c2.976,0.663,15.055,6.483,19.853,7.956
				c4.798,1.476,7.778-0.855,5.128-2.999c-2.646-2.141-7.113-4.499-1.49-5.058c5.626-0.557,6.95-2.378,7.942-3.87
				c0.995-1.49-0.328-4.134,1.654-4.631c1.987-0.495,1.821-3.145,0-2.979c-1.82,0.166-12.738,3.638-17.702,1.986
				c-4.963-1.655-7.611,2.961-5.628-1.994c0.001-0.002,0.001-0.004,0.001-0.006c0.509-1.215,3.534-7.355,13.153-7.431
				c7.47-0.06,11.878,2.125,13.856,3.444c0.084,0.065,0.146,0.14,0.232,0.195c2.646,1.763,1.764,2.205,1.323,6.839
				c-0.438,4.629,1.323,2.868,3.088,5.736c1.762,2.866,1.767,4.631,3.715,9.048c1.95,4.408,0.475,2.424,0.036,10.147
				c-0.325,5.66,1.607,6.466,2.922,9.454c2.917,9.446-3.484,8.351-18.902,3.579c-15.422-4.772-27.597-12.461-27.597-12.461l0,0
				C215.232,305.796,214.673,303.395,213.537,301.634L213.537,301.634z M288.551,247.092c-0.012,0.008-0.02,0.014-0.034,0.019
				c-2.335,1.418-4.521,2.926-5.932,4.114c-4.194,3.53-6.177,2.645-14.341,0.438c-8.163-2.205-9.043-5.294-11.028-8.379
				c-0.505-0.782-1.094-1.496-1.69-2.036c-0.541-1.754-0.52-4.996,1.69-10.953c0.184-0.497,0.36-0.956,0.536-1.419l2.568-6.304
				c2.565-5.729,4.244-7.522,5.831-8.13c2.151-0.827,5.957-1.656,4.962,3.145c-0.991,4.795-1.654,4.795-3.805,9.43
				c-2.149,4.633-4.465,7.114-2.149,4.633c2.317-2.484,2.971-5.462,6.117-5.544c3.15-0.084,1.994,1.657,4.141,2.443
				c2.15,0.784,7.944-1.093,6.949,1.75c-0.993,2.84-2.318,6.48-1.99,8.136c0.334,1.652,1.494,2.317,3.314-1.656
				c1.816-3.972,4.268,1.015,7.014,3.403C293.454,242.566,293.417,243.83,288.551,247.092L288.551,247.092z M405.631,490.75
				c0,0-77.598-37.559-95.636-47.155c-6.404-3.411-11.865-6.814-16.104-9.186c-0.002-0.008-14.837-13.499,5.021-4.057
				c6.514,3.101,11.031,5.074,11.031,5.074s-10.328-13.711-4.723-36.195c0.042-0.17,0.083-0.312,0.128-0.477
				c-0.588,7.188,1.008,16.95,4.595,28.735c8.38,27.574,18.09,7.718,18.75-13.9c0.542-17.76-5.604-25.533-7.82-27.746
				c13.438,8.938,16.577,31.562,16.577,31.562l0,0c0.644,21.604-4.047,25.06-8.591,25.526c-4.797,0.497-1.157,0.665,0.661,2.648
				c1.823,1.986,5.128,2.149,9.763,3.972c0,0,10.492,7.283,17.159,9.597c6.667,2.315,9.477,6.796,3.024-2.646
				c-3.399-4.975-4.518-12.739-5.011-23.162c-0.499-10.424,4.418-20.264,6.833-21.846c2.412-1.574,0.493,1.755-0.083,3.03
				c0,0-8.023,13.19,0.25,38.006c8.273,24.819,22.998,1.549,22.998-8.322c0-9.879,0-16.857-3.144-24.289
				c-3.143-7.429-1.986-8.322,1.322-5.395c3.312,2.933,4.722,1.24,6.748-0.065c2.024-1.307,1.691-2.3-1.453-5.775
				c-3.141-3.471-10.455-9.957-19.026-12.857c-2.58-1.125-6.857-2.31-12.574-4.184c-5.428-1.779-15.475-5.13-23.623-7.854
				l-15.642-5.839h-0.002c-8.198-3.377-26.66-10.98-29.396-12.006c-2.603-0.978-12.648-5.109-17.738-7.211v-3.363
				c0,0,14.473,5.48,18.536,6.719c4.063,1.237,3.289-10.809,3.289-10.809l-0.004-0.006c-0.059-2.42-0.269-5.621-0.555-9.819
				c-1.104-16.106-4.852-30.444-5.514-40.371c-0.661-9.929-0.883-12.575,1.103-12.135c1.985,0.441,6.617,8.165,8.602,12.726
				c1.983,4.563,1.547,5.364,3.971,0c2.423-5.362,7.059-5.444,10.366-2.355c3.312,3.087,4.853,4.411,4.635-4.194
				c-0.227-8.601-1.547-29.779-1.547-29.779c0.113-2.097-6.726-1.876-13.014-2.76c-6.287-0.881-6.818-1.268-9.729-1.793
				c-13.983-2.51-12.88-3.721,0.132-1.514c4.866,0.824,18.314,2.093,23.276,1.985c0.412-0.01,0.771-0.05,1.099-0.104
				c0.008,0,0.006,0.004,0.014,0.004c1.117-0.098,51.289-0.56,50.748-0.56h22.629h8.07h69.162h15.553l-25.152-2.645l-25.642-3.065
				c0,0,0.331-3.062-2.647-4.217c-1.867-0.729-4.512-1.13-6.228-1.324c-0.451-0.256-1.114-1.071-1.835-3.415
				c-0.06-0.363-0.208-0.899-0.502-1.701c-0.4-1.089-0.896-1.949-1.471-2.664c-1.224-1.606-2.954-2.764-5.234-3.233
				c-0.004-0.002-0.007-0.002-0.01-0.002c-0.326-0.118-0.654-0.232-0.999-0.348c-3.616-1.213-7.874-2.755-7.874-2.755
				s-0.352-0.098-0.787-0.187c-2.101-1.297-4.307-3.193-6.994-6.167c-0.303-0.332-0.597-0.648-0.894-0.954
				c-5.853-6.089-10.449-7.224-2.417,0c0.064,0.374,0.853,1.136,0,0.99c-0.849-0.145-8.022,1.658-8.022,6.621
				c0,0-22.668-16.88-28.96-22.587c-6.297-5.705-5.525-5.93-5.205-7.941c1.817-1.821-0.166-2.317-2.98-4.303
				c-2.813-1.985-4.465-5.957-5.128-12.739c-0.661-6.785-2.979-9.597-3.474-2.317c-0.494,7.279-0.661,2.151-2.735,3.805
				c-2.075,1.655,1.578,0.496,1.411,4.796c-0.166,4.303,3.308,6.124,6.064,10.756c1.656,2.778,1.763,4.871,2.157,10.258
				c0.042,0.855,1.294,25.928,5.419,31.751c-1.839,0.01-2.918,0.015-2.918,0.015s-0.023,0.018-0.06,0.04
				c-0.192-1.362-0.954-2.973-3.38-3.511c-4.465-0.994-3.143,0.497-6.951-6.124c-3.804-6.622-7.611-29.616-8.548-36.731
				c-0.41-3.121-0.951-3.851-1.832-3.091c0.46-2.313,0.899-5.344,0.951-6.836c0.007-0.264,0.002-0.581-0.014-0.917
				c-0.012-0.517-0.028-1.977,0.018-5.588c0.058-4.893,2.808-6.728,4.796-10.592c1.791-3.483-1.269-4.281-3.952-7.243
				c-0.001-0.048-0.491-12.529,3.306-19.3c2.426-4.325,3.194-7.114,3.432-8.57c0.318,2.221,1.269,5.19,3.721,8.642
				c5.406,7.612,4.519,5.404,10.806,17.097c6.287,11.691,5.074,17.649,11.031,26.473c5.957,8.824,8.16,8.272,5.502,5.737
				c-2.045-1.953-5.433-7.36-8.194-14.562l-4.653-72.446l-0.094,0.04c1.951-1.033,3.876-2.386,4.737-4.307
				c0.672-1.493,0.381-2.222-0.286-2.597c2.59,0.334,6.251,0.611,10.094,0.611c9.709,0,37.946,0,37.946,0
				c3.971,0,5.958-1.765,0-1.765s-28.02,0-34.635,0c-6.619,0-5.735-5.296-5.735-15.226c0-9.929-2.185-2.202-2.185,7.948
				s0.42,7.28-6.64,7.28c-3.216,0-3.16,0.368-1.245,0.766c-0.276,0.001-0.544,0.005-0.787,0.005c-1.824,0-2.152-2.481-2.152-2.481
				c-0.118-0.38-0.254-0.737-0.4-1.079c-0.722-1.938-2.199-5.894-2.56-6.781c-0.004-0.004-0.004-0.004-0.006-0.01
				c-1.213-3.13-3.383-7.211-7.139-10.167c0,0,7.293,10.315,6.518,16.161c-0.512,3.886-1.083,4.952-1.735,5.277
				c-3.801,0.829-11.947,1.199-17.514-0.754c-6.12-2.151-8.932-3.641-15.221-2.647c-0.382,0.06-0.767,0.114-1.142,0.166
				c-6.079,0-4.316-2.318-1.171-9.731c1.335-3.151,3.568-5.473,5.88-7.112c2.384-1.517,5.056-2.614,7.926-3.178
				c1.181-0.009,3.674-0.218,4.923-0.442c1.518,0.032,3.065,0.206,4.638,0.546c0,0-8.255-12.237-14.263-17.538
				c-6.009-5.3,0.783-5.567,2.688-5.567c1.905,0,3.23-1.855,3.759-3.975c0.531-2.122,0.794-5.46,3.447-4.984
				c2.651,0.477-3.846-2.598-5.5,0c-1.657,2.597,1.161,5.511-1.705,6.573c-2.867,1.06-2.867,0-5.122,1.589
				c-2.251,1.59-2.026,2.386-7.173-1.589c-5.15-3.976-21.317-14.312-29.801-16.168c-8.48-1.855-1.855-6.892-1.589-10.339
				c0.264-3.443-2.12,4.242-4.506,6.362c-2.385,2.122-7.648,0.266-14.428-1.062c-5.604-1.095-16.179,0.931-22.516,1.816
				c-1.275-1.688-1.392-3.415-1.392-4.716c0-1.986-1.105-2.756-1.216-0.771c-0.108,1.986,0.112,3.859-1.655,3.971
				c-1.761,0.11-18.64,1.569-24.044,2.12c-5.403,0.554-6.619,4.02-6.619,0.71c0-3.308-2.096-6.949-1.875-5.296
				c0.221,1.656-0.332,5.187-1.433,5.187c-1.103,0-1.103-2.756-1.656-2.095c-0.552,0.66,1.656,7.499-1.103,8.27
				c-2.758,0.772-10.59,1.436-18.972,5.628c-1.563,0.783-2.784,1.383-3.757,1.823c-1.335,0.215-2.54,0.497-3.621,0.812
				c-0.794-0.345-1.255-1.372-2.547-2.856c-2.981-3.418-6.507-17.318-7.391-19.635c-0.884-2.316-1.548-3.53-2.649-2.537
				c-1.102,0.992,0.111,3.75,4.635,17.209c2.252,6.702,2.206,9.518,0.897,11.216l-3.453,2.421c-1.011,0.556-2.133,1.2-3.294,2.134
				c-0.486,0.39-0.981,0.798-1.474,1.212l-12.3,8.629c-0.843,0.228-1.627,0.282-2.332,0.086
				c-3.972-1.104-11.14-11.583-14.889-15.884c-3.753-4.301-2.871,0.439-1.767,2.868c1.104,2.428,7.722,8.382,12.466,14.45
				c4.742,6.067-0.333,5.957-5.075,12.133c-4.744,6.176-3.529,8.495-5.957,14.34c-2.427,5.847-3.642,2.756-7.167,0.883
				c-3.534-1.875-11.805-6.509-19.307-9.707c-7.501-3.2-13.676-6.507-11.25-3.641c2.425,2.869-0.552,2.426,3.529,4.414
				c4.081,1.988,27.464,12.246,30.002,14.231c2.537,1.986,1.654,7.61-0.112,9.818c-0.984,1.232-1.731,2.501-2.486,5.055
				c-0.444,0.911-0.741,2.24-0.931,3.797c-0.31,1.467-0.634,3.188-0.994,5.266c-1.653,9.598-2.648,7.832-6.619,7.613
				c-3.969-0.22-22.391-1.213-22.391-1.213s-19.305-0.882-24.048-0.882s-0.111,1.544-3.419,2.208
				c-3.31,0.661,0.771,3.199,2.317,11.251c1.542,8.052,1.986,3.419,2.425-0.441c0.44-3.859,0.773-9.045,2.319-9.595
				c1.543-0.553,8.711,0,20.294,0.55c11.583,0.552,21.621,1.217,26.254,3.423c4.634,2.205,2.206,9.707,2.426,16.984
				c0.22,7.282-1.988,6.839-5.296,6.839c-3.31,0-18.75-0.663-30.885-0.663c-12.134,0-12.573-0.442-18.973,1.104
				c-6.398,1.545-8.161,1.323-4.19,1.323c3.972,0,3.31,0,9.264,0.664c5.957,0.659,20.296,1.762,30.003,1.102
				c9.707-0.663,16.986-0.221,18.973,2.205c1.985,2.424-0.663,9.925-1.233,15.664c-0.569,5.736,0.57,12.57,0.348,19.409
				c-0.073,2.29-0.17,4.595-0.248,6.552l-0.192,4.479c0,0,0.661,5.625-5.46,5.458c-6.123-0.166-8.106,0.01-14.889,0.006
				c-6.784-0.006-10.258,0.832-15.718,0.827c-5.46-0.004-1.819,1.982,0,3.305c1.819,1.322,7.443,1.654,17.867,1.156
				c1.985-0.091,3.743-0.224,5.378-0.354c0.043-0.002,0.08-0.002,0.126-0.006c5.504-0.364,4.533,6.089,3.407,11.94
				c-0.002,0.01-0.004,0.016-0.006,0.028c-0.388,1.853-0.853,3.47-2.122,4.274c-0.396,0.254-0.74,0.515-1.025,0.767
				c-1.053,0.574-2.548,1.426-4.794,3.195c-6.714,5.292-13.075,12.379-17.021,24.394c-3.942,12.016-7.715,36.047-9.377,47.062
				c-0.16,1.076-0.458,1.965-0.813,2.771c-3.885,6.656-11.226,4.731-19.971,2.634c-11.029-2.647-9.145-1.755-4.19,0.44
				c0,0,14.119,6.178,19.193,8.824c0.205,0.105,0.39,0.196,0.583,0.292c0.239-0.044,0.361-0.068,0.361-0.068l-4.196,24.918
				c0,0,3.11,20.483-3.148,23.534c-3.711,1.805-5.871,2.259-9.928,2.303c0.655,0.124,1.171,0.124,1.171,0.124
				c3.304,0,4.889,0.173,4.884,0.333c5.517-0.427,8.062-0.867,8.062-0.867l-4.197,24.911c0,0,3.111,9.604-3.148,12.651
				c-6.261,3.047-8.054,2.252-22.101,2.119c-1.545-0.014-2.817-0.09-3.922-0.216c0.876,0.579,3.444,0.38,8.668,0.38
				c9.807,0,9.278,1.593-0.541,1.593c-9.814,0-12.049,3.91-12.049,3.91l0,0c-12.017,24.247-29.588,47.283-2.84,59.085
				c27.02,11.918,25.735,9.731,25.712,9.701c2.494,0.839,5.682,1.126,9.02,1.224c19.068,1.374,5.274,25.852,22.937,29.387
				c6.329,1.264,12.322,2.56,17.432,3.71c0.238,0.118,0.632,0.21,1.115,0.254c8.548,1.931,14.318,3.377,14.318,3.377l-0.31-0.749
				c2.374,1.01,5.396,1.17,8.42,0.343c0.038-0.008,0.069-0.012,0.106-0.022c10.059-1.957,33.458-6.649,33.139-8.28
				c0.829,2.994,3.367,6.452,13.069,11.653c20.479,10.983,41.298,9.991,41.331,9.989c2.492,0.244,5.584,0.156,8.2,0.156
				c5.664,0,2.056-3.093-9.855-15.447c-11.914-12.353-20.735-45.89-23.191-54.931c-1.616-5.951-1.106-7.506-0.567-7.874
				c4.158-0.527,15.749-1.759,22.674-3.63c8.162-2.205,6.197-6.153,7.301-13.652c1.102-7.502,1.542-15.58-1.765-31.286
				c-3.309-15.703-16.451-81.251-19.098-93.798c-0.194-0.925-0.84-3.247-1.053-4.13c0.002-0.002-0.767-5.795-0.767-5.795
				s1.191-3.972,4.996-3.972c3.804,0,1.986,7.44,7.612,11.665c5.625,4.219,6.288,0.415,6.782-1.902
				c0.427-1.989,0.614-7.988,2.016-10.907c0.008,0.013,2.934,3.804,15.93,10.753c2.065,1.107,4.155,2.062,6.221,2.912
				c-0.017-0.004-0.044-0.012-0.044-0.012s14.231,7.017,24.468,12.837c7.368,4.188,8.019,13.896,7.803,19.015
				c-0.124-0.054-0.193-0.082-0.193-0.082s-0.078,1.271-0.104,3.365l-0.001,0.008h0.001c-0.077,5.812,0.229,18.012,3.631,27.572
				c4.632,13.018,5.297,22.812,8.603,32.473c3.31,9.663,6.396,20.061,6.396,20.061l0.004-0.002
				c3.453,12.91,9.1,27.462,10.477,31.908c0.675,2.17,2.033,4.297,4.955,5.771c-0.088,0.031-0.178,0.058-0.268,0.088
				c-1.45,0.134-3.31,0.29-5.677,0.431c-6.224,0.372-6.287,3.307-12.742,3.307c-6.452,0-23.493,0-23.493,0
				c-0.082,1.269-0.134,2.404-0.154,3.43c-0.006-1.564-0.012-3.394-0.012-5.911c0-2.033-0.108-3.752-0.274-5.282
				c0,0,0.311-14.736,0.311-21.521c0-6.782-1.194-12.124-1.194-1.488c0,10.628-0.083,15.946-1.365,11.535
				c-0.121-0.812-0.223-1.666-0.291-2.6c-0.497-6.952,0-14.893,0-27.137c0-12.243,0.166-10.096,0.166-14.559
				c0-4.467-1.987-7.451-1.987,4.629c0,12.081-1.361,26.146-1.361,29.947c0,3.809-8.484,6.627-8.484-4.458c0-0.004,0-0.009,0-0.013
				c0.546-7.453-0.139-17.811-0.527-28.141c-0.659-17.687,1.239-28.941,1.394-21.22c0.152,7.72,0.058,5.957,2.861,5.957
				s1.702-0.099,1.702-8.433c0-8.333-0.881-7.888,1.543-12.743c2.427-4.855,1.544-7.83,0-4.912c-1.543,2.925-4.194,1.052-4.194,0
				c0-1.045,0.223-3.911-5.294-3.911c-5.514,0-5.734-5.078-6.839-9.709c-1.102-4.635-2.647-12.354-3.748-16.766
				c-1.105-4.413-1.764-4.855-1.764-7.503c0-2.648-1.924-4.411-2.065,0c-0.141,4.414,1.687,15.002,0,13.898
				c-1.686-1.105-5.214-11.474-8.304-10.371c-3.09,1.104-6.397,5.512-8.825,2.43c-2.426-3.089-5.074-7.06-5.958-12.798
				c-0.883-5.736-5.734-19.191-2.424,0c3.309,19.191,8.603,30.511,13.457,60.481c4.853,29.968,7.061,29.747,7.279,40.778
				c0.15,7.585-1.469,16.452-1.423,21.707c0,0,0,10.615,0,13.264c0,2.646,1.697,4.905,1.697-1.189c0-6.094,0-5.433,5.958-5.433
				c5.954,0,22.097,0,23.952,0c1.857,0,3.348,0.827,3.348,10.258c0,9.434,0.661,28.295,0,33.919
				c-0.665,5.627-2.316,14.727-8.273,24.651c-5.957,9.929-11.583,19.692-5.46,13.07c1.109-1.202,2.131-2.477,3.107-3.872
				c1.815,1.208,10.792-2.879,27.819-5.098c24.383-3.181,49.78-17.89,49.78-17.89c-0.014,0.002-0.027,0.006-0.041,0.013
				c6.058-3.289,9.957-6.73,11.646-8.389c0.004,0,0.008-0.005,0.01-0.009c0.434-0.314,0.75-0.652,0.979-1.007l0.004-0.004l0,0
				c1.673-2.606-1.858-6.107-4.626-8.581c-3.141-2.814-3.474-3.809-9.102-3.478c-5.624,0.332-5.954,1.492-16.378,0
				c-0.978-0.137-1.846-0.288-2.664-0.438h0.008c0,0-1.237-0.259-3.052-0.764c0.306,0.124,0.602,0.225,0.891,0.312
				c-1.291-0.312-2.35-0.652-3.263-1.025c0.85,0.272,1.66,0.513,2.374,0.709c-2.336-0.939-4.946-3.003-3.573-7.443
				c0.741-1.915,4.041-6.612,18.482-8.867c1.689-0.097,3.517-0.261,5.521-0.522c4.519-0.587,10.613-0.808,17.457-0.684
				c1.1,0.019,2.208,0.046,3.365,0.086c19.727,0.659,44.313,4.022,56.116,9.865C413.738,497.534,416.199,495.876,405.631,490.75
				L405.631,490.75z"/>
		</g>
		<g>
			<defs>
				<rect id="SVGID_5_" width="510.031" height="548.508"/>
			</defs>
			<clipPath id="SVGID_6_">
				<use xlink:href="#SVGID_5_"  overflow="visible"/>
			</clipPath>
			<path clip-path="url(#SVGID_6_)" fill="#2E2D2C" d="M426.249,409.432c-2.297,0.298-6.262,0.698-10.342,0.614
				c-0.357-0.052-5.812-0.915-5.812-5.717c0-4.961,0.779-6.396,2.762-6.396c2.462,0,11.939,0.221,13.896,0.221
				c1.323,0,2.098,4.078,2.098,7.83C428.853,408.333,427.364,409.148,426.249,409.432L426.249,409.432z M499.886,479.779
				c-8.834-3.509-33.894-12.246-55.259-20.028c20.621,7.708,30.161,4.005,30.161,4.005l-0.006-0.007
				c12.453-2.937,17.883-24.477,17.053-33.06c-0.995-10.258-0.331-10.59-8.604-22.833c-5.274-7.806-7.855-14.792-9.034-18.838
				c-0.002-0.154-0.556-32.569,2.248-80.435c0,0,0-2.289,0-9.752c0-7.458-2.293-17.053-2.293,13.721
				c0,30.774-2.502,37.725-3.163,56.581c-0.662,18.867-8.934-4.627-8.934-10.916c0-4.938-0.054,10.569-0.076,22.41
				c-0.375,0.981-0.586,1.95-0.586,2.739c0,1.599,0.24,3.596,0.579,5.657c0,9.574-1.057,12.629-4.74,12.979
				c-0.054,0-0.104,0.004-0.155,0.008c-0.2,0.017-0.404,0.028-0.621,0.028c-2.718,0.106-5.935,0.114-9.289,0.259
				c-6.769,0.292-12.636,0.3-15.448,0.664v-0.002c0,0-0.002,0.002-0.004,0.002c-0.052,0.009-0.107,0.015-0.157,0.021
				c-0.325-0.01-1.048-0.337-1.048-3.07c0-3.531-3.969-4.602-5.847-4.602c-1.873,0-14.228,0.076-18.747-0.917
				c-4.524-0.991-5.296-0.815-0.663,0.917c4.631,1.729,3.526,4.821,3.526,8.903c0,4.076-1.116,4.688-3.537,3.898
				c-8.492-2.778-26.572-8.533-26.572-8.533s15.387,8.272,18.863,19.523c1.639,5.314,2.476,12.447,2.896,17.777
				c-1.225,7.353-7.408,36.785-26.942,30.982c0,0,38.607,19.687,53.827,27.159c15.225,7.476,9.267,2.841,1.325-1.348
				c-7.944-4.194-35.959-15.664-13.456-16.768c22.503-1.105,48.313-4.194,55.591-3.752c7.281,0.441,15.442,3.752,27.796,8.381
				C510.918,486.178,515.99,486.178,499.886,479.779L499.886,479.779z"/>
		</g>
	</g>
	<path fill="#2E2D2C" d="M336.802,372.451c0,0,34.578,11.253,45.83,14.558c11.253,3.308,10.206,3.969,9.072-14.558
		c-1.126-18.532-1.165-19.856-1.478,0c-0.312,19.854-33.787,3.968-42.366,1.158C339.283,370.795,310.853,364.091,336.802,372.451
		L336.802,372.451z"/>
	<path fill="#2E2D2C" d="M402.125,346.197c0-43.239-6.982-61.106-4.8-45.225c0,0,2.983,64.197,2.917,77.436
		c-0.068,13.234,6.608,11.579,19.154,12.571c12.544,0.995,24.643,0,13.797,0C422.342,390.979,402.125,389.437,402.125,346.197
		L402.125,346.197z"/>
	<g>
		<g>
			<defs>
				<rect id="SVGID_7_" width="510.031" height="548.508"/>
			</defs>
			<clipPath id="SVGID_8_">
				<use xlink:href="#SVGID_7_"  overflow="visible"/>
			</clipPath>
			<path clip-path="url(#SVGID_8_)" fill="#2E2D2C" d="M296.927,310.283c0,0,2.81,34.037,3.309,43.304
				c0.497,9.266,0.659,3.309,0-9.431c-0.665-12.741-2.483-33.873-2.483-33.873S296.199,301.399,296.927,310.283L296.927,310.283z"/>
		</g>
		<g>
			<defs>
				<rect id="SVGID_9_" width="510.031" height="548.508"/>
			</defs>
			<clipPath id="SVGID_10_">
				<use xlink:href="#SVGID_9_"  overflow="visible"/>
			</clipPath>
			<path clip-path="url(#SVGID_10_)" fill="#2E2D2C" d="M52.956,224.753c-7.06,0-6.637,2.87-6.637-7.28
				c0-10.149-2.187-17.878-2.187-7.947s0.883,15.225-5.734,15.225c-6.619,0-28.682,0-34.639,0c-5.958,0-3.971,1.767,0,1.767
				c0,0,28.238,0,37.945,0C51.413,226.518,60.015,224.753,52.956,224.753L52.956,224.753z"/>
		</g>
	</g>
	<path fill="#2E2D2C" d="M38.399,164.83c6.617,0,6.617,4.112,6.617,8c0,3.886,0,4.052,0,11.838c0,7.786,2.205,7.435,2.205,0.615
		s0-10.604,0-16.119c0-5.515,3.753-4.193,3.753-4.193c6.837,0,7.06-2.867,1.983-2.867c-5.074,0-4.411,0-14.556,0
		C28.249,162.1,31.778,164.83,38.399,164.83L38.399,164.83z"/>
	<path fill="#2E2D2C" d="M46.337,103.86c8.605,0,10.81-0.22,16.325-0.22c5.516,0,6.396-0.663,5.735,3.75
		c-0.663,4.414-0.22,10.149,0.441,15.222c0.663,5.074,2.87,2.428,1.765-9.044c0,0-0.882-3.972,0.882-11.25
		c1.765-7.28,3.969-20.738,1.102-13.016c-2.866,7.722,0.663,12.795-10.148,12.795c-10.808,0-11.03,0-16.104,0
		C41.266,102.094,37.734,103.86,46.337,103.86L46.337,103.86z"/>
	<path fill="#2E2D2C" d="M64.873,48.488c0,0,16,0,26.309,0c3.826,0,6.795-0.364,8.277-0.823
		c-8.332,12.215-8.747,16.201-7.233,12.956c1.543-3.309,9.047-12.353,13.898-18.53c4.852-6.178,10.806,2.868,10.806,2.868
		c4.263,4.179,0.884-1.103-2.424-5.733c-3.308-4.632,0.443-5.957,4.854-10.371c4.414-4.411,2.427-6.177-1.104-2.425
		c-3.5,3.721-9.391,7.668-18.098,20.219c-0.917-0.45-3.701-0.807-8.976-0.807c-14.4,0-17.486,0-26.309,0
		C56.044,45.84,50.31,48.488,64.873,48.488L64.873,48.488z"/>
	<path fill="#2E2D2C" d="M62.223,231.187c0-4.817-1.767-2.022-1.767,1.402c0,3.422,0,2.313,0,8.048c0,5.734-1.102,5.514-4.915,5.514
		c-3.808,0-15.821,0-15.821,0c-13.236,0,8.382,2.222,13.898,2.222c5.514,0,5.514,3.074,5.514,9.447c0,6.372-1.323,9.475-6.396,9.475
		c-5.074,0-2.868,0.839,3.732,0.839c6.602,0,5.752-4.89,5.752-4.89s0-6.724,0-14.008C62.223,241.961,62.223,236.004,62.223,231.187
		L62.223,231.187z"/>
	<path fill="#2E2D2C" d="M190.379,169.101c0.833,0.152,1.569,0.26,2.252,0.345c4.842,0.595,6.086-0.441,6.36-1.81
		c0.065-0.326,0.078-0.666,0.073-1.012c0,0-0.002,0.034-0.016,0.084c-0.101,0.409-1.032,2.143-9.622,0.94
		c-9.679-1.357-25.066-4.038-25.066-4.038S182.227,167.609,190.379,169.101L190.379,169.101L190.379,169.101z"/>
	<path fill="#2E2D2C" d="M178.922,168.94c15.944,7.067,19.913,3.508,20.887,1.613c-0.435,0.501-1.423,1.094-3.642,1.474
		C191.678,172.802,178.922,168.94,178.922,168.94L178.922,168.94z"/>
	<path fill="#2E2D2C" d="M200.117,169.626c0,0-0.039,0.4-0.31,0.929C200.25,170.044,200.117,169.626,200.117,169.626
		L200.117,169.626z"/>
	<g>
		<g>
			<defs>
				<rect id="SVGID_11_" width="510.031" height="548.508"/>
			</defs>
			<clipPath id="SVGID_12_">
				<use xlink:href="#SVGID_11_"  overflow="visible"/>
			</clipPath>
			<path clip-path="url(#SVGID_12_)" fill="#2E2D2C" d="M153.333,173.792c-1.793,5.001,1.264,6.238,1.264,6.238
				c0.771,0.555,3.48,1.925,3.48,1.925c-6.809-6.399,2.452-16.656,2.452-16.656C158.79,167.394,155.128,168.797,153.333,173.792
				L153.333,173.792z"/>
		</g>
		<g>
			<defs>
				<rect id="SVGID_13_" width="510.031" height="548.508"/>
			</defs>
			<clipPath id="SVGID_14_">
				<use xlink:href="#SVGID_13_"  overflow="visible"/>
			</clipPath>
			<path clip-path="url(#SVGID_14_)" fill="#2E2D2C" d="M236.701,10.156c0.131,4.642-0.003,10.27,2.713,0.669
				c0,0,0.063-8.936,12.97-5.297c12.902,3.641,23.163,9.928,27.133,13.238c3.972,3.31,4.635,1.445-7.277-7.053
				c-11.916-8.5-34.864-12.802-52.838-11.476c-17.977,1.322-5.402,1.982,6.839,2.315C238.487,2.882,236.568,5.512,236.701,10.156
				L236.701,10.156z"/>
		</g>
	</g>
	<path fill="#2E2D2C" d="M353.942,46.688c-0.993,2.794,2.168-1.803,4.893,0c2.719,1.799,1.064-1.392,2.055-2.444
		c0.997-1.051,15.554,0.06,23.493,0c7.945-0.058,12.911-2.043,0-2.043c-12.905,0-17.865-1.323-22.829-1.323
		c-4.963,0-9.927-3.309-7.612,0C353.942,40.876,354.935,43.893,353.942,46.688L353.942,46.688z"/>
	<path fill="#2E2D2C" d="M49.181,382.967c4.06-0.044,6.217-0.498,9.928-2.303c6.259-3.049,3.148-23.534,3.148-23.534l4.197-24.918
		c0,0-0.122,0.026-0.362,0.068c-1.701,0.29-9.467,1.599-23.706,3.455c-16.246,2.119-5.975,3.183-10.58,17.493
		c-4.606,14.312-8.846,29.42,5.203,29.557c0.808,0.008,1.562,0.02,2.295,0.027C43.739,382.881,46.79,382.993,49.181,382.967
		L49.181,382.967z"/>
	<path fill="#2E2D2C" d="M29.929,422.022c1.105,0.128,2.378,0.206,3.923,0.218c14.049,0.135,15.842,0.93,22.101-2.121
		c6.259-3.045,3.148-12.649,3.148-12.649l4.198-24.911c0,0-2.546,0.438-8.062,0.865c-3.507,0.272-8.217,0.535-14.259,0.671
		c-0.945,0.022-1.912,0.042-2.92,0.056c-16.383,0.251-8.207,8.129-10.15,18.73c-0.708,3.876-1.599,7.025-2.279,9.587
		C23.999,418.611,23.626,421.299,29.929,422.022L29.929,422.022z"/>
	<path fill="#2E2D2C" d="M361.835,150.087c-7.062,0,1.545,1.768,11.25,1.768c9.706,0,37.947,0,37.947,0c3.971,0,5.955-1.768,0-1.768
		c-5.957,0-28.019,0-34.638,0H361.835L361.835,150.087z"/>
	<path fill="#2E2D2C" d="M384.635,206.542c-7.059,0,1.547,1.767,11.253,1.767c9.707,0,37.944,0,37.944,0
		c3.971,0,5.958-1.767,0-1.767c-5.957,0-28.02,0-34.636,0H384.635L384.635,206.542z"/>
</g>
</svg>
