<svg xmlns="http://www.w3.org/2000/svg" xmlns:xlink="http://www.w3.org/1999/xlink" width="1200" height="548"><g fill="#2E2D2C"><path d="M693.757 123.269l.703-4.551h27.424l.464 4.551-7.232 1.4c-2.332.468-2.332 1.634-2.332 3.033V169.6c0 18.438-9.807 31.039-31.279 31.039-19.371 0-30.104-9.566-30.104-30.105v-40.029c0-4.549-.236-5.716-8.875-7.236l.705-4.551h28.589l.465 4.551-7.232 1.4c-2.218.468-2.332 1.634-2.332 3.033v41.08c0 15.286 5.715 24.04 20.653 24.04 16.333 0 21.587-11.672 21.587-22.288v-37.811c.001-6.655-1.165-8.287-11.204-9.454zM754.21 195.034c8.636-1.516 8.872-2.682 8.872-7.233v-57.297c0-4.549-.234-5.716-8.872-7.236l.703-4.551h32.443c17.269 0 24.619 7.704 24.619 19.604 0 10.62-6.415 20.071-18.201 24.039v.584c.815.232 1.632 1.048 2.567 2.567l16.453 24.739c2.102 3.151 3.383 4.319 9.57 4.783l-.701 4.551h-16.572l-23.104-35.476H774.4v26.49c0 1.4.118 2.568 2.331 3.033l6.424 1.4-.471 4.551h-27.772l-.702-4.548zm26.61-36.873c11.087 0 18.673-3.503 18.673-18.789 0-12.487-9.222-14.471-15.758-14.471h-7.003c-2.213 0-2.331 1.401-2.331 2.8v30.459h6.419zM853.174 195.034c8.638-1.516 8.876-2.682 8.876-7.233v-57.297c0-4.549-.236-5.716-8.876-7.236l.703-4.551h15.874l1.164 11.787h-1.048v57.415c0 3.732 1.166 5.601 5.132 6.068l8.173 1.046-.471 4.551h-28.822l-.705-4.55zm9.689-76.319h13.3l47.38 69.787-.232 10.969-5.837.116-54.611-80.872zm53.096 58.819h.934v-44.697c0-6.77-1.168-8.401-11.203-9.568l.701-4.551h27.426l.465 4.551-7.235 1.4c-2.215.468-2.337 1.634-2.337 3.033v71.886h-6.881l-1.87-22.054zM968.831 195.034c8.632-1.516 8.868-2.682 8.868-7.233v-57.297c0-4.549-.236-5.716-8.868-7.236l.697-4.551h54.383c.467 2.918.698 7.351.698 9.219 0 3.268-.113 6.302-.229 8.987l-6.652.816c-2.216-10.97-2.685-12.137-3.968-12.253-2.1-.231-3.85-.35-7.119-.466l-17.623-.35v31.394h17.505c.936 0 1.751-.936 3.733-8.289l3.622.352c0 13.071.462 14.353 1.632 23.105l-4.202.699c-2.453-8.519-2.8-9.686-3.968-9.686h-18.322v31.39l10.389-.116c15.282-.234 15.753-1.4 16.566-1.633 1.17-.352 2.34-1.984 5.138-13.768l6.416.585c.116 1.983.116 3.964.116 5.951 0 6.185-.699 10.969-1.282 14.935h-56.834l-.696-4.555zM1110.271 126.768c0 4.669-.587 9.571-1.284 13.77l-6.77.817c-1.054-10.969-1.869-13.655-3.153-14.704-1.632-1.401-6.531-2.452-10.967-2.452-4.785 0-8.284 1.167-10.506 2.801-1.748 1.283-4.314 3.966-4.314 8.869 0 9.92 10.271 13.537 20.188 17.738 9.921 4.201 20.306 9.453 20.306 23.458 0 14.239-10.502 23.571-27.654 23.571-10.271 0-20.539-3.385-23.692-5.018-.353-1.4-.353-2.8-.353-5.134 0-5.252.705-10.502 1.402-14.236l6.654-.352c1.282 12.02 1.98 13.186 3.265 14.119 2.222 1.517 8.868 4.087 15.403 4.087 4.669 0 7.82-1.285 9.803-2.799 3.384-2.571 4.436-6.188 4.436-9.687 0-10.973-10.27-14.823-19.606-18.79-9.921-4.201-19.84-8.869-19.84-22.172 0-14.472 11.788-22.99 28.363-22.99 7.583 0 14.231 1.75 17.969 3.15.232 1.871.35 3.854.35 5.954zM1196.513 126.768c0 4.669-.583 9.571-1.282 13.77l-6.772.817c-1.048-10.969-1.866-13.655-3.15-14.704-1.631-1.401-6.534-2.452-10.971-2.452-4.781 0-8.285 1.167-10.498 2.801-1.749 1.283-4.318 3.966-4.318 8.869 0 9.92 10.273 13.537 20.188 17.738 9.919 4.201 20.305 9.453 20.305 23.458 0 14.239-10.502 23.571-27.65 23.571-10.271 0-20.543-3.385-23.689-5.018-.356-1.4-.356-2.8-.356-5.134 0-5.252.703-10.502 1.4-14.236l6.651-.352c1.286 12.02 1.983 13.186 3.27 14.119 2.217 1.517 8.871 4.087 15.403 4.087 4.667 0 7.819-1.285 9.799-2.799 3.385-2.571 4.44-6.188 4.44-9.687 0-10.973-10.275-14.823-19.605-18.79-9.921-4.201-19.842-8.869-19.842-22.172 0-14.472 11.787-22.99 28.356-22.99 7.59 0 14.235 1.75 17.972 3.15.232 1.871.349 3.854.349 5.954z"/></g><path fill="#2E2D2C" d="M540.517 194.026c10.554-1.853 10.842-3.281 10.842-8.842v-70.037c0-5.562-.288-6.989-10.842-8.843l.854-5.564h66.468c.575 3.564.858 8.986.858 11.269 0 3.993-.142 7.702-.283 10.982l-8.133 1.001c-2.71-13.409-3.281-14.835-4.847-14.979-2.568-.284-4.708-.427-8.703-.57l-21.539-.427v39.653h21.967c1.144 0 3.854-1.142 6.278-10.127l4.42.428c0 15.975.571 17.546 1.996 28.241l-5.134.857c-2.997-10.412-5.135-11.839-6.562-11.839h-22.966v33.376c0 1.712.146 3.422 2.854 3.709l14.407 1.711-.571 5.562h-40.51l-.854-5.561z"/><g fill="#2E2D2C"><path d="M643.11 309.578c8.635-1.517 8.873-2.683 8.873-7.235v-57.295c0-4.55-.238-5.719-8.873-7.236l.703-4.551h32.442c17.269 0 24.622 7.704 24.622 19.606 0 10.618-6.418 20.074-18.206 24.039v.587c.819.231 1.631 1.045 2.57 2.562l16.455 24.744c2.099 3.148 3.383 4.314 9.566 4.781l-.703 4.553h-16.567l-23.109-35.479h-7.585v26.49c0 1.399.116 2.569 2.335 3.036l6.42 1.398-.467 4.553h-27.773l-.703-4.553zm26.609-36.877c11.086 0 18.67-3.5 18.67-18.787 0-12.487-9.216-14.471-15.752-14.471h-7.003c-2.219 0-2.335 1.402-2.335 2.8V272.7h6.42zM786.77 232.208c23.574 0 36.527 15.756 36.527 39.446 0 26.023-14.003 43.53-38.275 43.53-23.574 0-36.527-16.106-36.527-40.496-.001-25.325 14.002-42.48 38.275-42.48zm23.574 41.427c0-19.837-8.403-35.243-25.441-35.243-17.504 0-23.455 17.041-23.455 34.309 0 20.538 8.4 36.298 25.44 36.298 17.507 0 23.456-17.278 23.456-35.364zM912.344 241.31c0 4.67-.587 9.571-1.286 13.772l-6.772.815c-1.045-10.969-1.862-13.655-3.146-14.705-1.632-1.4-6.535-2.449-10.969-2.449-4.783 0-8.286 1.166-10.502 2.8-1.752 1.28-4.32 3.964-4.32 8.865 0 9.919 10.271 13.539 20.19 17.739 9.919 4.203 20.307 9.455 20.307 23.458 0 14.235-10.504 23.574-27.659 23.574-10.268 0-20.535-3.382-23.688-5.021-.353-1.395-.353-2.799-.353-5.132 0-5.25.705-10.504 1.404-14.234l6.65-.356c1.284 12.022 1.984 13.19 3.269 14.126 2.216 1.518 8.868 4.08 15.401 4.08 4.669 0 7.818-1.282 9.805-2.801 3.384-2.562 4.434-6.185 4.434-9.683 0-10.968-10.271-14.818-19.604-18.786-9.923-4.203-19.842-8.872-19.842-22.176 0-14.47 11.788-22.989 28.361-22.989 7.583 0 14.237 1.75 17.971 3.151.231 1.869.349 3.852.349 5.952z"/></g><path fill="#2E2D2C" d="M540.517 308.568c10.554-1.854 10.842-3.281 10.842-8.846v-70.034c0-5.564-.288-6.989-10.842-8.843l.854-5.563h37.658c20.97 0 32.093 8.986 32.093 23.535 0 13.121-9.13 20.825-14.977 22.68v.997c12.121 2.284 21.396 12.552 21.396 24.108 0 12.41-8.984 27.529-34.518 27.529h-41.652l-.854-5.563zm32.666-49.069c16.261 0 22.681-7.844 22.681-18.97 0-16.691-14.266-17.687-21.112-17.687h-9.559v36.656h7.99zm-5.849 45.788c.428.287 2.994 1.427 8.699 1.427 19.113 0 25.676-7.275 25.676-18.827 0-16.835-13.407-20.828-22.68-20.828H565.19v33.235c.002 1.999.148 4.136 2.144 4.993z"/><g fill="#2E2D2C"><path d="M669.875 417.964v-63.018c-15.287.236-15.636.469-16.455.821-1.166.463-2.334 1.164-4.665 14.122l-5.953-.469c-.116-1.751-.116-3.382-.116-5.02 0-6.065.579-11.67 1.048-15.524h63.6c.463 3.854 1.048 9.459 1.048 15.524 0 1.636 0 3.269-.114 5.02l-5.955.469c-2.333-12.958-3.501-13.655-4.667-14.122-.817-.353-1.168-.585-16.455-.821v65.818c0 1.401.116 2.686 2.334 3.04l8.985 1.396-.467 4.551H659.95l-.698-4.551c10.272-1.634 10.623-2.681 10.623-7.236zM747.016 425.201c8.637-1.517 8.869-2.687 8.869-7.237v-57.301c0-4.547-.23-5.717-8.869-7.23l.705-4.556h36.525c27.777 0 36.762 19.142 36.762 37.932 0 20.421-10.624 42.943-39.332 42.943h-33.955l-.705-4.551zm22.642-3.269c2.916.587 7.463 1.635 12.368 1.635 17.972 0 26.023-14.235 26.023-33.839 0-27.077-15.401-34.661-26.49-34.661h-14.354v63.835c-.003 1.4.117 2.566 2.453 3.03z"/></g><path fill="#2E2D2C" d="M540.517 424.191c10.554-1.854 10.842-3.283 10.842-8.846v-70.033c0-5.561-.288-6.989-10.842-8.842l.854-5.564h34.946l.571 5.564-8.844 1.711c-2.71.57-2.854 1.994-2.854 3.707v80.592l12.697-.142c18.686-.289 17.545-.711 18.544-1 1.424-.429 2.995-3.139 7.988-21.969l7.842.719c.145 2.424.145 4.846.145 7.271 0 8.703-.855 16.831-1.566 22.394h-69.468l-.855-5.562zM540.399 463.473h339.196v10.372H540.399zM865.356 355.979c0-3.618 2.685-7.003 6.999-7.003 3.852 0 7.234 1.869 7.234 7.003 0 3.85-2.798 7.232-7.234 7.232-3.733 0-6.999-2.219-6.999-7.232z"/><g><path fill="#2E2D2C" d="M37.604 271.523c3.749.662 8.384.55 8.384.55s1.433-.994-1.656-2.094c-3.088-1.105-2.538-2.315-6.178-1.658-3.641.665-5.072 1.323-9.817 1.216-4.744-.11-6.839.991-3.64 2.315 3.201 1.324 8.271.223 8.714.774.439.55-4.147 3.018-.992 7.386 3.154 4.373.992 5.406 1.543 8.495.55 3.089 2.537 6.51 1.433 11.141-1.104 4.63-1.42 11.361-.654 12.684.767 1.326 1.342.551 1.095-1.983 0 0-.992-5.405.883-7.724 1.873-2.313 1.652-3.859 0-11.249-1.654-7.391-1.632-13.454-1.148-16.985.489-3.529-1.719-3.529 2.033-2.868zM373.037 299.648c.919-2.297 4.522-5.957 9.484-6.175 4.966-.221 5.626-.114 5.403-3.087-.22-2.982-.552-21.845-.552-21.845l-20.07-.88s.772 23.493 1.432 29.231c.662 5.733 2.095 8.271 4.303 2.756zM350.754 295.24c1.982-3.091 6.398-2.317 10.475-1.987 4.087.329 4.749-.44 4.636-2.317-.112-1.877-1.324-23.272-1.324-23.272l-21.511-1.543s.477 18.86 1.107 29.229c.993 16.325 4.629 2.977 6.617-.11z"/><defs><path id="a" d="M0 0h510.031v548.508H0z"/></defs><clipPath id="b"><use xlink:href="#a" overflow="visible"/></clipPath><path clip-path="url(#b)" fill="#2E2D2C" d="M339.836 292.594v-26.476l-22.171-.772s.991 30.775 1.104 39.379c.107 8.603 1.322 5.732 1.322 1.322 0-4.411 3.417-10.37 9.375-10.147 5.956.221 10.37 1.986 10.37-3.306z"/><defs><path id="c" d="M0 0h510.031v548.508H0z"/></defs><clipPath id="d"><use xlink:href="#c" overflow="visible"/></clipPath><path clip-path="url(#d)" fill="#2E2D2C" d="M291.467 493.893c2.812 2.318 7.775 5.13 13.732 5.957 5.955.83 11.579.497 16.542 0 4.966-.492 6.618 1.491 9.764 4.8 3.143 3.309 2.98 3.806.995 5.46-1.986 1.657-5.296 3.312-11.086 5.296-5.791 1.983-6.454 1.983-8.272-.496-1.821-2.482-4.303-.329-7.117 2.149-1.959 1.73.34 1.774 3.929 1.696-4.817.759-9.819 1.206-14.585 1.128-7.124-.118-9.962-.932-11.354-1.815 2.281-.469 4.883-.854 9.44-.679 8.602.332 6.616-2.479 9.262-4.297 2.647-1.822 1.985-.829 3.639 1.156 1.658 1.984 1.491-1.488 3.31-3.476 1.818-1.982-.332-1.816-3.31-1.816-2.976 0-1.155-5.13-2.477-4.469-1.326.661-5.463 3.145-7.778 7.611-2.161 4.166-3.172 3.585-6.786 2.95h-.002c-.027-.006-.053-.01-.084-.016-.776-.135-2.137-.343.086-2.602 2.312-2.346 7.91-8.273 7.91-8.273 1.509-1.596-.792-1.82-1.541-.747-.743 1.076-8.354 8.026-9.511 9.353-1.157 1.32-2.647 1.238-1.383-.501 1.262-1.736 5.848-7.276 8.001-9.679 2.151-2.397-.747-2.069-1.489-1.071-.747.989-6.121 7.361-8.607 10.093-2.479 2.725-3.224 1.322-1.569-.747 1.654-2.066 6.287-7.859 8.188-10.093 1.906-2.231-.084-2.231-1.157-.909-1.072 1.323-7.527 8.19-9.183 10.179-1.652 1.981-2.728.998-1.486-.747 1.232-1.746 6.614-7.611 9.016-10.093 2.397-2.486-.166-2.069-1.241-.992-1.079 1.074-4.385 4.547-7.198 7.518-2.813 2.961-3.184.097-1.488-1.397 1.693-1.492 5.624-5.21 7.506-6.867 1.877-1.654.27-1.982-.887-1.157-1.161.827-2.07 1.987-4.798 3.395-2.514 1.29-1.078-.975-.834-1.344 2.376-3.028 5.717-4.911 7.454-5.277 1.939-.411 2.872-.876 3.962-.632.689.453 1.446.872 2.23 1.263.088.064.162.109.257.188zm-32.956 9.859c.002-.042.002-.094.002-.138v.082c0 .02-.002.036-.002.056zm-.051 1.534c.008-.204.015-.412.021-.623-.008.209-.012.427-.021.623zm33.611-23.718c.427-.172.888-.322 1.357-.463-.402.137-.796.271-1.205.405-.053.02-.097.039-.152.058zm-79.329-169.505c.232-.477.493-.881.794-1.163l-.794 1.163zm-8.138-12.628c-.187.098-.363.206-.543.311.002 0 .002-.002.002-.004.375-.901-.206-.753-.534-1.913-.333-1.153-.911-1.901-2.318-5.046-1.406-3.145-1.156-.25-.828.573.332.829 1.736 3.647 2.365 5.012.628 1.366 0 2.181 0 2.181-.875.563-1.64 1.09-2.354 1.561 1-.845.411-1.853-.096-2.79-.578-1.075-.829-2.479-2.631-4.966-1.805-2.479-1.423.459-1.423.459s1.159 1.858 2.399 4.341c1.226 2.455-.461 4.178-.499 4.214-1.255.473-2.332.305-3.472-1.071-1.285-1.553-2.043-2.142-2.482-2.552-.812-.747-.495-1.639 1.489-3.283 1.985-1.641 1.162-3.265 0-4.375-1.157-1.104-2.979-2.782-4.209-5.096-1.229-2.315.917-2.968.917-2.968h-.002c4.324-1.354 8.953-3.706 12.229-1.579 4.082 2.645.991 6.288 1.324 8.489.334 2.212 5.63 5.742.666 8.502zm-6.439 3.931c.071-.04.373-.198 1.692-.897-.607.386-1.165.697-1.692.897zm-7.684-6.914c-.448.082-.93-.076-1.382-.118-.559-.12-1.625-.539-2.253-2.039-.885-2.098-2.649-7.996-3.917-8.884-.321-.218-.579-.351-.755-.425.325 0 .642 0 .957-.002.114-.002.214.002.348-.004.013 0 .026-.004.042-.004.911-.014 1.771-.046 2.556-.104.391.188.747.523 1.153 1.04.835 1.063 2.071 3.972 4.137 7.443 1.266 2.125.651 2.802-.016 3.017-.193-.034-.465.006-.87.08zm-3.012 1.891c-.028.154-.049.312-.074.493-.074.623-.174 1.228-.313 1.814-.613 1.326-3.357-5.366-4.374-7.397-1.105-2.207-1.6-.772-.987.234.611 1.008 1.902 5.032 3.247 7.045 1.102 1.65.993 2.688.993 2.688-.395.544-.897 1.045-1.543 1.488-.262.128-.583.304-.999.562-.141.066-.273.134-.422.2-.042.014-.082.014-.124.026-.097.027-.195.054-.292.082-.115-.198.027-.924-.369-2.178-.663-2.095-2.979-7.832-3.42-9.155-.443-1.32-1.875-.771-1.106.568.776 1.338 1.878 4.507 2.871 7.922.993 3.419 0 3.31 0 3.31s.028.029.058.067c-.698.169-1.41.309-2.123.438-.168.021-.311.044-.469.063-.946.116-.443-.214-.443-2.333 0-2.424-2.097-6.51-2.747-8.445-.651-1.938-1.558-.819-1.335.838.22 1.652 1.876 3.857 2.538 7.057.628 3.044-1.117 3.196-1.289 3.2-1.207.024-2.316-.086-3.265-.347.183-.334-.062-1.481-.63-3.793-.958-3.889-3.43-6.334-3.43-6.334l-.002.004c-.625-.591-1.687-.805-3.516-.457-5.739 1.104-2.869 5.517-6.177 3.971-3.311-1.543-7.282-.657-8.605.885-1.325 1.543 1.986 7.055-1.543 6.174-3.53-.882-6.176-7.279-6.176-1.542 0 5.736.662 7.894-1.544 7.475-2.206-.416-6.176 2.891-6.176 2.891s-11.913 9.264-17.872 12.135c-5.957 2.868-4.189 2.428-8.604 2.428-.72 0-1.392.029-2 .111l-.006-.004s-.01.004-.012.008c-1.052.146-1.896.467-2.432 1.148-5.018 2.143-16.16 5.646-17.931-4.659-2.298-13.368-1.229-12.976 0-14.056 1.229-1.077 5.583-1.243 1.613-3.56-3.973-2.313-5.462-2.148-5.462-8.438 0-.907-.035-1.708-.086-2.415 4.11-26.284 12.062-39.114 17.017-44.974.242-.277.441-.5.667-.754 1.646-1.593 3.224-2.27 5.268-2.485 3.145-.331 1.489.992 6.949-8.606 5.46-9.595 8.929-10.276 14.223-12.591 5.296-2.317 10.594-2.464 10.76 3.988.126 5.001.611 10.698.583 14.472-.116.693-.122 1.705-.176 2.774-.03.194-.04.378-.032.553-.17 2.339-.745 4.729-3.464 4.483-4.852-.444-2.756 2.314-2.756 5.296 0 2.979.554 3.529-1.433 3.417-1.986-.108-1.434-3.639-2.648-6.065-1.213-2.427-3.201.549-5.186 3.64-1.982 3.085-2.977 1.987 0 3.97 2.98 1.986 2.76 3.307.442 3.75-2.315.445-4.97.445-2.32 4.196 2.652 3.749 1.441 5.958-2.089 5.402-3.531-.55-5.074-.99-6.84-3.97-1.764-2.979-3.641-5.736-4.411-7.5-.771-1.763-1.436-1.432-2.206-.551-.772.881-1.328 1.875.55 3.528 1.877 1.657 3.418 5.186 1.986 4.747-1.432-.441-4.631-4.309-7.608-.944-2.979 3.369-4.746 1.383-5.078 2.375-.331.993 4.304.333 2.98 2.314-1.325 1.99 2.266 1.215 6.041.992 3.775-.216 10.283.958 13.702 4.013 3.42 3.047 4.854 5.037-.769 3.821-5.628-1.212-10.087-2.979-12.931-2.315-2.842.663-2.292 1.214 2.12 1.765 4.416.551 11.362 2.426 12.685 2.975 1.326.555 5.186 6.843-.548 8.167-5.737 1.325-9.268 1.43-17.097 1.982-7.834.551-4.855 2.313-1.215 2.761 3.64.44 2.317 2.758 1.656 4.741-.663 1.988-4.522 5.736 1.765 2.427 6.288-3.311 14.778-6.728 20.294-8.49 5.515-1.767 7.393-2.761 7.171.214-.222 2.98-.111-3.194 4.081-4.849 4.194-1.655 19.192-4.525 24.487-6.398 5.296-1.877 8.824-5.738 11.583-6.071 1.587-.186 5.703.061 9.873.177.395.014.788.024 1.177.032.953.174 2.264.781 3.071 2.712 1.379 3.311 2.206 5.614 2.92 7.137.719 1.526 1.427 2.027 1.343 3.514-.009.004-.009.01-.009.016zm-52.341 231.343c-6.638 2.289-8.845 1.622-9.579.979 1.117-5.04-2.288-14.488-2.446-21.097 3.382-4.675 11.843-6.737 14.986-4.919 3.144 1.818 6.618 4.467 8.438 7.942 1.819 3.473-6.62 7.116-14.229 10.59-7.61 3.475-1.655 2.315-1.655 2.315s10.424-4.467 13.659-6.123c3.234-1.655 5.369-.663 5.369.661 0 1.323-2.315 2.148-7.113 3.4-4.798 1.246-3.145 1.564 4.797.074 1.786-.332 3.146-.652 4.198-.981h.013c4.872.298-16.438 7.159-16.438 7.159zm5.43-26.142c.021.014.046.032.065.048-.035-.018-.069-.038-.105-.052l.04.004zm-30.96-120.008c2.306 1.151 4.628 11.299 4.65 11.377.459 2.51.94 4.77 1.411 6.456 1.5 5.713 7.983 30.275 12.063 42.891 4.63 14.342 3.306 8.171 1.323-.877-1.986-9.044-13.867-35.484-5.941-36.277h.003c2.445.11 5.227-.292 7.92-.791 5.958-1.104 13.238-.879 13.678 4.633.341 4.23-1.125 12.072.354 15.508-.002.004-.01.008-.01.008h-14.187c-5.548 0-3.715 3.237 0 3.237h35.485c6.42 0 6.821 1.982 6.821 4.3 0 .007.002.011.002.021.008 2.407.035 4.728.068 6.954h-.002s.002.019.002.032v.072c.01.665-.242 4.601-7.534 4.601h-21.406s-12.783 1.89 0 1.89h22.71s5.833-.034 5.833 5.832c0 .72.176 1.118.483 1.267-.031 1.592-.076 3.131-.165 4.601-.122 2.003-.202 3.777-.054 5.294-.208 9.054-9.208 8.381-16.269 7.493-7.059-.881-4.853 4.415-5.735 6.29-.562 1.191-.763 4.739-.726 7.565-.04 2.62-11.538 5.937-11.542 5.937 3.875-1.786 5.746-2.131 5.428-4.997-.441-3.968-14.341 0-14.341 0-6.885 1.472-20.074 5.3-27.821 10.596-7.748 5.294-5.047.219-3.5-2.868 1.543-3.089 2.864-2.872-4.564-4.192-7.431-1.324-6.249-4.413-1.835-4.855 4.411-.44 4.631-3.309 1.835-5.957-2.796-2.647-4.263-3.972-2.053-6.397 2.204-2.428 3.529-9.484-3.971-11.466-7.504-1.986-4.631-5.298-7.062-21.841-2.426-16.549.663-47.656.663-55.374 0-3.285-.482-5.562-1.301-7.427-1.181-4.76-1.654-22.153 0-26.843 1.655-4.682 3.268-6.277 3.268-6.277 1.497-1.378 3.051-2.736 4.508-3.76 6.121-4.301 13.866-5.641 16.127 1.688.002.008.004.014.007.018 3.174 8.728 6.268 24.447 7.005 30.023.012.521.063 1.1.168 1.747 0 .493.098 1.675.274 3.312-.052 6.28-4.087 5.548-2.07 6.556zm-29.119-72.304l-.625-4.655v-.004c.284 2.058.625 3.107.625 4.659zm38.467-133.826l-.002.026c-.001-.008-.001-.018.002-.026zm.388-36.926c-.247-1.153-.339-2.308-.348-3.543.186 2.136.348 3.543.348 3.543zm6.01-37.229l.038 1.055c-.084-.489-.09-.808-.038-1.055zm.308 8.533l.002.052-.01.001c.002-.017.004-.035.008-.053zm13.943 113.766c.594.031 1.164.09 1.691.197 7.171 1.434 9.268 2.205 11.475 3.418 2.205 1.215 4.078 1.432 5.402.109 1.326-1.322 2.98.665.995-5.625-1.988-6.287-2.758-13.676-.441-15.333 2.316-1.654.884 1.657 3.087 1.877 2.207.22 2.428-.807 2.428-4.543 0-3.73 1.766-3.95 4.08-3.95 2.316 0 .553-5.737 2.649-7.061 2.095-1.324 2.756-.993 2.976 0 .164.736.807.134 1.31-1.122.023-.058.044-.122.065-.182.088-.048.265-.082.593-.074.872.014.206.741.206 1.118 0 .371.832-.059.993-.562.161-.498 1.281-.333 1.157.073-.124.407.381.363.459-.038.036-.183.218-.306.41-.375.172.014.346.03.518.042.061.238.414 1.052.855.584-.017.071-.024.138-.057.208-.882 1.875-4.963 1.882-5.296 4.525-.33 2.643-1.236 1.95.755 1.95 5.476 0 5.092.585 6.305 1.797 1.213 1.214 2.619.497 4.636-.221 3.195-1.136 5.79 1.084 3.987-3.332-1.804-4.414-1.563-3.618-2.994-3.727-1.149-.086-2.072-.469-2.288-1.349.058.005.119.009.176.013l.523.034s.452.563.7.31c.25-.251.49-.241.578-.234.088.003.621.085.745.442.124.359.583-.017.621-.194.042-.174.498-.113.623.342.122.458.495.451.661 0 .164-.449.787-.535.911-.121.124.415.454 1.074.7.289.103-.321.238-.474.362-.55.134.003.265.007.399.009l1.655 1.836c.993 1.573.061 2.271 1.64 5.12-.065-.154-.125-.307-.185-.465.128.238.269.535.417.88-.088-.147-.158-.277-.231-.416.151.356.314.684.462.959.846 2.063 1.893 5.178 2.29 6.716.55 2.151.384 2.71.494 3.583.114.878-.408.835-.853.939-2.234.545-3.896.599-4.759.354-2.328-2.474-1.484-4.286-1.281-5.442.298-1.705 1.187-2.524.747-2.69-.445-.166-1.656.83-1.645 3.972.013 3.143-.934 3.966-.934 3.966v.002c-1.516.797-3.248 2.266-4.345 3.203-1.49 1.267-1.875 2.868-1.49 4.19.387 1.324 1.268 1.989 4.299-.88 0 0 3.686 1.243 5.013-.666.138.092.27.17.394.224.993.442.924 2.059.829 5.624-.029 1.012-.044 1.75-.084 2.333-.048.185-1.509 5.381-10.472 4.87-.208-.018-.417-.03-.616-.03-2.12 0-11.495-2.94-15.356-7.262-3.861-4.32-3.97-4.763-4.081.642-.109 5.407.552 6.508 1.545 9.05.99 2.536-1.545 4.961 1.21 3.75 2.756-1.214 1.765-1.877 5.957-.886 4.19.995 5.626 1.216 5.735 6.729.111 5.515-.221 6.727.663 6.727.883 0 .661-2.536.661-6.838s2.208-7.203 4.303-4.208c2.096 2.995 7.718 8.73 7.718 17.005 0 8.271-2.315 17.203-7.279 17.147-4.962-.05-8.933-5.568-11.364-8.545-2.423-2.976-10.258-11.03-14.559-18.42-4.303-7.391-3.862.661-4.412 3.197-.55 2.54-2.427 1.437.882 4.083 3.308 2.646 4.964 4.521.772 4.635-4.191.11-14.889 5.074-15.771-3.529-.062-.591-.126-1.135-.197-1.659h.002s-.006-.024-.006-.028c-.18-1.376-.392-2.533-.618-3.489-.675-3.946-1.666-10.288-1.775-14.032-.167-5.72-2.936-10.804 1.67-10.995zm10.75-46.36c.26.104.822.8 2.354 2.171 1.383 1.238 3.874 2.229 6.54 3.007 3.074.9 6.387 1.518 8.516 1.891 3.715.646 7.884.495 3.715-.055-.288-.042-.617-.08-.989-.12-.013-.003-.029-.005-.048-.007-.169-.017-.344-.037-.516-.057-.096-.012-.187-.035-.283-.046-5.412-.689-10.395-2.091-15.037-4.213-3.867-1.769-3.601-4.381-3.32-5.397.158-.446.309-.878.49-1.356 1.953-5.174 4.865-8.507 7.964-10.665.17-.1.346-.195.521-.291 10.806-5.992 29.142-3.443 30.063-3.307 2.147.326 3.965.594 4.775.694 2.551.312 3.887-.059 3.971 4.105 1.339.868 2.063 1.491 2.063 1.491 1.117 1.436 1.849 2.624 1.988 2.848.015.036.034.07.052.106 1.824 4.208 2.454 7.85 2.46 10.869.004.021.004.042.004.063 0 .222-.014.43-.023.648-.147 1.092-1.113 1.82-6.21 3.71-5.761 2.135-14.301 2.079-15.325 2.061h-.101c14.723 1.856 19.827-2.432 21.098-3.015 1.269-.585 1.622 1.732 1.622 1.732v-.002c.113.939.058 2.067-.369 3.341-1.088 3.273-20.396 4.449-44.13.495-.927-.084-1.758-.162-2.48-.234-1.556-.237-2.873-.563-4-.951-.02-.005-.038-.007-.056-.011l.005-.006c-4.919-1.714-6.008-4.655-5.934-7.059.155-.738.358-1.542.62-2.44zm50.16 22.513l-1.112 7.269v-.002c.007-.067.459-4.057 1.112-7.267zm-1.479 5.72c-.678-2.75-1.329-4.667-2.27-6.518.008.006 1.75 1.138 2.828 1.015-.168 2.118-.388 4.45-.558 5.503zm14.713 21.263c.344.242.703.507 1.075.789.323.272.572.465.763.593 1.208.968 2.559 2.173 4.083 3.813 3.224 3.474 5.294 6.867 7.443 10.176 2.152 3.309 2.333 7.856 7.744 11.746 5.41 3.89 9.369 5.749 7.019 5.557h-.04c-.568-.084-1.168-.144-1.817-.178-4.795-.248-10.173 1.987-13.565 5.378-2.746 2.742-3.229 4.168-4.45 4.539-.312-.04-.656-.01-1.029.095-.304-.021-.548.019-.76.084-3.109.001-8.092-4.167-7.332-7.368.829-3.472 5.626 1.491 2.482-4.961-3.145-6.454-5.957-6.288-6.289-11.916-.328-5.626-1.323-7.115-3.309-10.424-1.985-3.305-6.783-9.1-8.438-10.918-.128-.141-.234-.234-.334-.312-.307-.351-.712-.986-.712-1.947 0-1.544-.168-1.542 2.868-1.542.438 0 .816-.01 1.167-.028.003.001 9.45 4.152 13.431 6.824zm7.389 5.018l.005.01c-.009-.015-.021-.029-.034-.038l.029.028zm9.794 15.228l1.953 3.418c-.628-.708-1.023-1.541-1.955-3.42l.002.002zm79.13-105.912c2.428 3.751 5.403 7.059 8.052 10.368 2.647 3.309 6.507 10.368 9.767 15.772 3.256 5.404-.394 6.616-.285 10.698.109 4.085-.674 6.621-2.095 3.42-.116-.262-.243-.502-.376-.734.002 0 .008.004.008.004s-.751-2.926-1.585-4.829c-.044-.104-.086-.207-.138-.303-.003-.01-.011-.022-.015-.034-.007-.018-.02-.028-.029-.046-.061-.108-.125-.21-.191-.312-.088-.136-.177-.26-.271-.364-1.253-1.526-3.382-2.556-3.479-5.182-.124-3.308-2.414-3.418-5.504-6.286-3.086-2.869-2.206-2.318.661-5.076 2.873-2.756-2.421-4.301-6.062-6.287-3.643-1.985-3.53-4.631-3.752-8.934-.219-4.301-.219-4.854.823-6.872 1.043-2.019 2.044-3.056 2.044-1.181 0 1.415.002 2.082 1.045 3.933l.003.004c.34.601.784 1.322 1.379 2.241zm18.638 23.387c-.281-.309-.555-.635-.819-.999-.094-.13-.187-.271-.283-.407.635.809 1.025 1.308 1.102 1.406zm-13.896-48.262c3.642-1.82 2.979-3.639 4.465-6.287.625-1.112 1.986-1.519 3.615-1.685.106-.003.225-.014.353-.034.319-.023.65-.042.982-.053.34.103.227.556 1.176 1.703 1.412 1.694 2.727.4 3.39-.592.656-.989 2.065-1.631 2.077-1.638 2.755-.356 2.626 1.379 4.293 3.955.195.305.367.563.529.806l.004.004c.418.626.729 1.046.985 1.256l.011.018s.541 1.554 1.451 4.038c.909 2.481-.332 3.226-2.4 3.226-2.071 0-.994.663 1.818 1.241 1.953.403 3.344 1.127 3.405 2.167-.309.487-.639 1.023-.975 1.57-.088-.203-.108-.873-1.108-1.332-1.629-.744-3.25-1.579-6.616-1.083-1.671.247-2.383.625-2.67.958-.236.142-.489.339-.783.637-1.633 1.669.834 2.043 3.424 2.099 2.592.056 4.467.276 2.702-.056-1.765-.331-2.478-.496-3.69-1.157-1.171-.641-.083-1.265-.013-1.303 1.312-.422 3.168-.458 4.751-.268 1.29.153 2.349.982 2.967 1.587.427.787-1.645 1.196-1.645 1.196.831-.054 1.217.643 1.217.643l.947-1.276c.036.05.06.079.062.081-1.811 2.078-4.271 5.419-5.367 6.373-.976.844-.451 1.271 1.501-.672l-.042.04s-.447 1.292-.25 3.508c-.616 1.461-2.729 6.008-6.171 8.625-4.14 3.142-.732 7.682-5.561 1.341-4.832-6.342-1.194-6.679-5.842-6.606-1.452-.416-1.417-.75 1.013-2.179 1.563-.918 2.834-1.125 3.683-1.125 1.253.307 2.137.07 4.551-.035 3.804-.167-2.976-.827-4.629-3.806-1.655-2.977-2.318-1.984-4.303-3.31-1.986-1.324.499-3.143-2.648-5.46-3.138-2.318-4.299-5.296-.659-7.115zm23.332-4.137c.475-1.19 1.489-1.687 2.668-1.91.017.017.81.599 2.164.51.846-.056 1.449-.453 1.787-.75.946-.067 1.196.837 1.261 1.758-.19 2.838-1.789 6.648-2.636 8.807-.396.64-.819 1.314-1.292 2.061-.333-.134-.739-.291-1.324-.514-3.476-1.325-1.887-.863-1.635-2.02.249-1.158-.5-2.745-1.24-5.468-.167-.599-.201-1.089-.172-1.509.124-.261.259-.567.419-.965zm18.754 63.815l1.433 4.115c-.501-1.315-.98-2.69-1.433-4.115zm-10.504-61.667c-.248.792-.528 1.505-.827 2.199.449-1.349.825-2.454 1.099-3.257-.07.335-.153.683-.272 1.058zm-16.391 130.732c2.512 2.43 4.553 7.288 2.623 9.149-.556.423-1.376-.869-1.376-.869-.114-.964-.292-2.257-.531-3.388-.438-2.099-2.538-3.752-2.979-3.971-.439-.222-1.544-1.216.441 1.431 1.693 2.261 1.99 3.801 2.124 6.229.014.525-.066 1.134-.655 1.33-.275 0-.556 0-.834-.002-.495-.19-.573-.739-.573-1.036.075-1.608-.308-4.015-1.166-5.3-1.102-1.657-2.759-3.013-2.759-3.013-.713-.644-.99-.076 1.215 2.57 1.73 2.077 1.762 4.541 1.619 5.973-.067.413-.244.661-.55.788-.427-.005-.836-.011-1.228-.019-.265-.202-.387-.585-.441-.955-.004-.261-.011-.544-.036-.846v-.002c-.104-1.352-.432-2.976-1.095-3.728-1.071-1.212-3.344-3.784-3.344-3.784-1.104.735 1.104 2.9 2.239 4.445.619.839.891 2.25 1.008 3.355.038.354.023 1.288-.884 1.46-.331-.01-.59-.016-.775-.021-.905-.242-.815-1.158-1.139-1.585 0-.002-.002-.002-.002-.002-.817-3.208-3.861-5.937-3.877-5.952-1.288-1.757-4.083-1.937-5.304-2.111-.729-.101-1.958-.152-3.207-.11.007-.002.009-.002.009-.002s-1.489.026 0-2.246c1.487-2.271 6.077-4.78 9.155-3.504.012.006.022.007.036.011 3.073 1.6 9.185 2.705 12.286 5.705zm5.161 2.299h56.089c9.267 0 6.288 5.127 0 5.127h-53.41c-.354-.155-.714-.302-1.025-.497-3.473-2.153-1.654-4.63-1.654-4.63zm26.34-2.618v-22.433c4.358 3.241 8.56 6.363 10.227 7.675 3.018 2.374 8.465 6.686 12.229 8.771l.1.072s.114.061.302.156c.627.33 1.213.609 1.708.775.617.207 1.135.234 1.611.202.763.023 1.461-.168 1.896-.772.807-.71 1.145-1.629 1.147-1.634 1.035.572 2.133 1.103 3.024 1.638 1.397.844 1.686.836 1.468.543 1.008.636 1.883 1.329 2.327 2.004.044.122.114.269.234.47.008.019.016.034.025.053.157.542.403 1.083.68 1.603.12.603.029 1.186-.831 1.192-.114 0-.19.01-.24.023-9.175-.057-25.227 0-36.608.054.453-.229.701-.392.701-.392zm28.489-6.862c.019-.229.031-.46.017-.734.004.004.239.293-.017.734zm-1.036-2.475c-.202-.214-.349-.441-.416-.682l.416.682zm2.91-5.2c2.278-1.646 3.563-1.133 4.04-.799 2.755 2.353 4.355 3.675 5.354 4.398h.004c.006.004.014.01.018.016.548.391.919.605 1.209.704 2.661 1.321 7.913 2.956 11.011 4.067 2.167.964 3.663 2.956 4.601 5.112.07.214.104.346.104.346s.03.037.084.093c.2.5.369 1 .51 1.5-.042-.098-.069-.176-.092-.237.04.107.1.281.16.494.03.102.06.207.082.309.062.245.113.521.144.815.019.334.024 1.289-.656 1.289-.25 0-.431-.082-.579-.208v-.002s-.183-.27-.376-.696c-.048-.189-.584-2.368-1.029-3.631-.468-1.324-.71-2.037-1.143-1.955-.429.082-.484.426.23 1.943.002.002.002.004.004.008.002.002.004.008.005.012.115.314.275.666.469 1.037.069.128.111.229.174.35.32.641.547 1.196.707 1.713l-.104-.21s.132.371.242.912c.042.152.084.298.116.443.344 1.452.679 2.878-.358 2.682-1.031-.192-.995-1.643-.995-1.675-.011-.026-.02-.048-.036-.072-.002-.01-.002-.022-.002-.034-.174-1.625-.864-3.199-1.559-4.409-.184-.321-.367-.615-.541-.879-.558-.849-1.006-1.376-1.006-1.376-1.433-1.218-.661.442-.661.442l.208.463 1.646 3.702c.502 1.359.718 2.343.776 3.064.134 1.667-.59 1.891-.608 1.895-.572.124-1.098-.134-1.041-1.124.01-.182.004-.375-.015-.569.002-.002.011-.012.011-.012s-.009-.026-.02-.072c-.165-.557-1.327-4.48-2.152-5.667-.884-1.28-2.043-1.453-.994.346.501.86 1.057 2.01 1.431 3.146.002.006.006.013.006.019.208.626.355 1.247.407 1.811.002.023.004.038.006.063.014.187.004.358-.003.533-.132.697-.877.257-1.19.019-.012-.01-.02-.023-.036-.034-.366-.319-1.733-3.109-2.331-4.419-.232-.506-.772-.71-1.352-.771l-18.222-10.42c-.3-1.248 1.063-2.826 3.342-4.475zm-2.929 27.25c-1.177.019-1.953.07-2.465.142-10.768-.068-21.184-.36-23.852-1.634-3.466-1.655 1.333-1.16 11.757-1.16 8.759 0 22.071 1.167 28.261 1.736-3.796.369-9.523.853-13.701.916zm-84.055-11.808c-.997.431-2.361-.799-3.623-2.201-.084-.116-.189-.238-.321-.369-2.046-2.017 4.608-6.97 8.577-8.476 3.972-1.503 4.44 0 4.44 0s0-.002-.002-.004c.369.842.808 1.666 1.347 2.458-1.403.206-3.663.781-5.455 2.358-2.811 2.486-5.711 6.051-3.516 5.868.006 0 .008-.002.014-.002-.574.087-1.08.207-1.461.368zm-5.513-4.411c-.102-.114-.245-.19-.422-.24-3.308-3.035-14.192-13.124-20.042-19.942-6.946-8.106-4.795-10.916-8.104-13.895-3.308-2.982-5.46-1.991-3.308-5.464 2.149-3.473 1.655 2.317 3.474 1.985 1.822-.331.331-3.116.827-11.98.495-8.866 3.142-1.42 4.465-14.159.183-1.768.343-3.428.484-4.982 0-.006 0-.008.002-.012 2.42-12.539-1.88-9.3 3.979-18.52.012-.021.024-.042.038-.062.182-.286.372-.584.577-.895.004-.003.008-.01.011-.014-2.042 3.344 2.206-2.352 3.127-3.477.995-1.212 3.518-5.748 12.013-9.965 8.504-4.218 6.298-3.379 6.409 4.452.109 7.83 2.644 8.491 6.835 10.919 4.192 2.426 3.643 1.766 1.435 4.069-2.206 2.304-2.758 2 2.208 5.749 2.32 1.75 3.426 3.213 4.125 4.635.128.458.094 1.266-.873 2.479-1.612 2.026-2.81 3.432-3.388 4.013-.583.579-1.447 2.313.496.413 1.945-1.905 2.854-3.103 3.475-3.722.623-.622 1.157-.375 1.28.331.125.704-.599 2.087-1.862 3.351-1.259 1.262-.926.929-1.612 1.612-.682.685-.558 1.595.663.375 1.216-1.22 2.009-2.014 2.811-2.812.8-.798.993-.334 1.118-.042.122.292.851.655-.772 2.275-1.618 1.618-.853.855-1.618 1.618-.768.767-.96 1.69.382.346 1.347-1.344 2.318-1.82 2.75-2.252.436-.435 1.561 1.09 2.206 2.82.01.024.021.042.028.064.018.056.034.104.054.164 1.213 3.087-4.188 7.39-8.052 13.012-3.857 5.623-2.316 5.851 0 2.76 2.316-3.09 5.188-6.176 8.386-9.708 3.197-3.528 3.927-.221 3.927-.219-.023 4.349-.13.586-5.222 8.849-5.306 8.615.331 2.734 1.242 1.533.912-1.2 2.811-4.259 3.24-2.536.428 1.728-1.616 5.07-1.616 5.07-.859 1.413-1.877 3.118-3.114 4.954-3.452 5.12-8.616 13.278-11.245 17.452-.679.526-1.941-.39-6.292-6.2-6.456-8.602-4.47-12.574-4.635-23.825-.166-11.251-1.322-14.394-1.488-21.841-.166-7.443-1.323.83-1.323 8.603 0 7.778-1.157 6.618-1.822 19.359-.658 12.738 4.14 15.388 7.283 19.688 3.141 4.303 7.974 8.705 7.974 8.705 1.387 1.837 2.138 2.808 2.778 4.861.234.737.463 1.457.719 2.164-1.149-1.466-4.017-1.421-9.483 3.134-2.446 2.038-3.732 3.75-4.386 5.126-.049-.068-.097-.124-.142-.176zm-53.881 21.347c3.225 2.884-.25 6.118 3.143 4.464-.736.529-.957 1.661-.713 2.891-.002.002-.009.002-.009.002 0 .006.009.038.02.068.028.13.074.266.114.4.104.434.136.945-.513.47-.999-.734-4.275-2.011-9.239-2.177-4.963-.166-8.771 1.077-11.499 2.731-1.849 1.122-2.575.441-2.852-.116-.046-.174-.1-.334-.163-.491 0-.002-.002-.01-.002-.01v.006c-.002 0-.002-.006-.002-.006h.002s.617-2.198 3.68-5.01c3.058-2.81 12.907-7.808 18.033-3.222zm-2.34-3.931c-.002-.002-.004-.004-.006-.007l.004.003.002.004zm-29.594 41.155c-1.82-2.811-2.315-2.828-1.323-5.797.993-2.969-1.819-5.616 1.159-4.957 2.976.663 15.055 6.483 19.853 7.956 4.798 1.476 7.778-.855 5.128-2.999-2.646-2.141-7.113-4.499-1.49-5.058 5.626-.557 6.95-2.378 7.942-3.87.995-1.49-.328-4.134 1.654-4.631 1.987-.495 1.821-3.145 0-2.979-1.82.166-12.738 3.638-17.702 1.986-4.963-1.655-7.611 2.961-5.628-1.994.001-.002.001-.004.001-.006.509-1.215 3.534-7.355 13.153-7.431 7.47-.06 11.878 2.125 13.856 3.444.084.065.146.14.232.195 2.646 1.763 1.764 2.205 1.323 6.839-.438 4.629 1.323 2.868 3.088 5.736 1.762 2.866 1.767 4.631 3.715 9.048 1.95 4.408.475 2.424.036 10.147-.325 5.66 1.607 6.466 2.922 9.454 2.917 9.446-3.484 8.351-18.902 3.579-15.422-4.772-27.597-12.461-27.597-12.461.275-2.039-.284-4.44-1.42-6.201zm75.014-54.542c-.012.008-.02.014-.034.019-2.335 1.418-4.521 2.926-5.932 4.114-4.194 3.53-6.177 2.645-14.341.438-8.163-2.205-9.043-5.294-11.028-8.379-.505-.782-1.094-1.496-1.69-2.036-.541-1.754-.52-4.996 1.69-10.953.184-.497.36-.956.536-1.419l2.568-6.304c2.565-5.729 4.244-7.522 5.831-8.13 2.151-.827 5.957-1.656 4.962 3.145-.991 4.795-1.654 4.795-3.805 9.43-2.149 4.633-4.465 7.114-2.149 4.633 2.317-2.484 2.971-5.462 6.117-5.544 3.15-.084 1.994 1.657 4.141 2.443 2.15.784 7.944-1.093 6.949 1.75-.993 2.84-2.318 6.48-1.99 8.136.334 1.652 1.494 2.317 3.314-1.656 1.816-3.972 4.268 1.015 7.014 3.403 2.75 2.384 2.713 3.648-2.153 6.91zm117.08 243.658s-77.598-37.559-95.636-47.155c-6.404-3.411-11.865-6.814-16.104-9.186-.002-.008-14.837-13.499 5.021-4.057 6.514 3.101 11.031 5.074 11.031 5.074s-10.328-13.711-4.723-36.195c.042-.17.083-.312.128-.477-.588 7.188 1.008 16.95 4.595 28.735 8.38 27.574 18.09 7.718 18.75-13.9.542-17.76-5.604-25.533-7.82-27.746 13.438 8.938 16.577 31.562 16.577 31.562.644 21.604-4.047 25.06-8.591 25.526-4.797.497-1.157.665.661 2.648 1.823 1.986 5.128 2.149 9.763 3.972 0 0 10.492 7.283 17.159 9.597 6.667 2.315 9.477 6.796 3.024-2.646-3.399-4.975-4.518-12.739-5.011-23.162-.499-10.424 4.418-20.264 6.833-21.846 2.412-1.574.493 1.755-.083 3.03 0 0-8.023 13.19.25 38.006 8.273 24.819 22.998 1.549 22.998-8.322 0-9.879 0-16.857-3.144-24.289-3.143-7.429-1.986-8.322 1.322-5.395 3.312 2.933 4.722 1.24 6.748-.065 2.024-1.307 1.691-2.3-1.453-5.775-3.141-3.471-10.455-9.957-19.026-12.857-2.58-1.125-6.857-2.31-12.574-4.184-5.428-1.779-15.475-5.13-23.623-7.854l-15.642-5.839h-.002c-8.198-3.377-26.66-10.98-29.396-12.006-2.603-.978-12.648-5.109-17.738-7.211v-3.363s14.473 5.48 18.536 6.719c4.063 1.237 3.289-10.809 3.289-10.809l-.004-.006c-.059-2.42-.269-5.621-.555-9.819-1.104-16.106-4.852-30.444-5.514-40.371-.661-9.929-.883-12.575 1.103-12.135 1.985.441 6.617 8.165 8.602 12.726 1.983 4.563 1.547 5.364 3.971 0 2.423-5.362 7.059-5.444 10.366-2.355 3.312 3.087 4.853 4.411 4.635-4.194-.227-8.601-1.547-29.779-1.547-29.779.113-2.097-6.726-1.876-13.014-2.76-6.287-.881-6.818-1.268-9.729-1.793-13.983-2.51-12.88-3.721.132-1.514 4.866.824 18.314 2.093 23.276 1.985.412-.01.771-.05 1.099-.104.008 0 .006.004.014.004 1.117-.098 51.289-.56 50.748-.56h115.414l-25.152-2.645-25.642-3.065s.331-3.062-2.647-4.217c-1.867-.729-4.512-1.13-6.228-1.324-.451-.256-1.114-1.071-1.835-3.415-.06-.363-.208-.899-.502-1.701-.4-1.089-.896-1.949-1.471-2.664-1.224-1.606-2.954-2.764-5.234-3.233-.004-.002-.007-.002-.01-.002-.326-.118-.654-.232-.999-.348-3.616-1.213-7.874-2.755-7.874-2.755s-.352-.098-.787-.187c-2.101-1.297-4.307-3.193-6.994-6.167-.303-.332-.597-.648-.894-.954-5.853-6.089-10.449-7.224-2.417 0 .064.374.853 1.136 0 .99-.849-.145-8.022 1.658-8.022 6.621 0 0-22.668-16.88-28.96-22.587-6.297-5.705-5.525-5.93-5.205-7.941 1.817-1.821-.166-2.317-2.98-4.303-2.813-1.985-4.465-5.957-5.128-12.739-.661-6.785-2.979-9.597-3.474-2.317-.494 7.279-.661 2.151-2.735 3.805-2.075 1.655 1.578.496 1.411 4.796-.166 4.303 3.308 6.124 6.064 10.756 1.656 2.778 1.763 4.871 2.157 10.258.042.855 1.294 25.928 5.419 31.751-1.839.01-2.918.015-2.918.015s-.023.018-.06.04c-.192-1.362-.954-2.973-3.38-3.511-4.465-.994-3.143.497-6.951-6.124-3.804-6.622-7.611-29.616-8.548-36.731-.41-3.121-.951-3.851-1.832-3.091.46-2.313.899-5.344.951-6.836.007-.264.002-.581-.014-.917-.012-.517-.028-1.977.018-5.588.058-4.893 2.808-6.728 4.796-10.592 1.791-3.483-1.269-4.281-3.952-7.243-.001-.048-.491-12.529 3.306-19.3 2.426-4.325 3.194-7.114 3.432-8.57.318 2.221 1.269 5.19 3.721 8.642 5.406 7.612 4.519 5.404 10.806 17.097 6.287 11.691 5.074 17.649 11.031 26.473 5.957 8.824 8.16 8.272 5.502 5.737-2.045-1.953-5.433-7.36-8.194-14.562l-4.653-72.446-.094.04c1.951-1.033 3.876-2.386 4.737-4.307.672-1.493.381-2.222-.286-2.597 2.59.334 6.251.611 10.094.611h37.946c3.971 0 5.958-1.765 0-1.765h-34.635c-6.619 0-5.735-5.296-5.735-15.226 0-9.929-2.185-2.202-2.185 7.948s.42 7.28-6.64 7.28c-3.216 0-3.16.368-1.245.766-.276.001-.544.005-.787.005-1.824 0-2.152-2.481-2.152-2.481-.118-.38-.254-.737-.4-1.079-.722-1.938-2.199-5.894-2.56-6.781-.004-.004-.004-.004-.006-.01-1.213-3.13-3.383-7.211-7.139-10.167 0 0 7.293 10.315 6.518 16.161-.512 3.886-1.083 4.952-1.735 5.277-3.801.829-11.947 1.199-17.514-.754-6.12-2.151-8.932-3.641-15.221-2.647-.382.06-.767.114-1.142.166-6.079 0-4.316-2.318-1.171-9.731 1.335-3.151 3.568-5.473 5.88-7.112 2.384-1.517 5.056-2.614 7.926-3.178 1.181-.009 3.674-.218 4.923-.442 1.518.032 3.065.206 4.638.546 0 0-8.255-12.237-14.263-17.538-6.009-5.3.783-5.567 2.688-5.567 1.905 0 3.23-1.855 3.759-3.975.531-2.122.794-5.46 3.447-4.984 2.651.477-3.846-2.598-5.5 0-1.657 2.597 1.161 5.511-1.705 6.573-2.867 1.06-2.867 0-5.122 1.589-2.251 1.59-2.026 2.386-7.173-1.589-5.15-3.976-21.317-14.312-29.801-16.168-8.48-1.855-1.855-6.892-1.589-10.339.264-3.443-2.12 4.242-4.506 6.362-2.385 2.122-7.648.266-14.428-1.062-5.604-1.095-16.179.931-22.516 1.816-1.275-1.688-1.392-3.415-1.392-4.716 0-1.986-1.105-2.756-1.216-.771-.108 1.986.112 3.859-1.655 3.971-1.761.11-18.64 1.569-24.044 2.12-5.403.554-6.619 4.02-6.619.71 0-3.308-2.096-6.949-1.875-5.296.221 1.656-.332 5.187-1.433 5.187-1.103 0-1.103-2.756-1.656-2.095-.552.66 1.656 7.499-1.103 8.27-2.758.772-10.59 1.436-18.972 5.628-1.563.783-2.784 1.383-3.757 1.823-1.335.215-2.54.497-3.621.812-.794-.345-1.255-1.372-2.547-2.856-2.981-3.418-6.507-17.318-7.391-19.635-.884-2.316-1.548-3.53-2.649-2.537-1.102.992.111 3.75 4.635 17.209 2.252 6.702 2.206 9.518.897 11.216l-3.453 2.421c-1.011.556-2.133 1.2-3.294 2.134-.486.39-.981.798-1.474 1.212l-12.3 8.629c-.843.228-1.627.282-2.332.086-3.972-1.104-11.14-11.583-14.889-15.884-3.753-4.301-2.871.439-1.767 2.868 1.104 2.428 7.722 8.382 12.466 14.45 4.742 6.067-.333 5.957-5.075 12.133-4.744 6.176-3.529 8.495-5.957 14.34-2.427 5.847-3.642 2.756-7.167.883-3.534-1.875-11.805-6.509-19.307-9.707-7.501-3.2-13.676-6.507-11.25-3.641 2.425 2.869-.552 2.426 3.529 4.414 4.081 1.988 27.464 12.246 30.002 14.231 2.537 1.986 1.654 7.61-.112 9.818-.984 1.232-1.731 2.501-2.486 5.055-.444.911-.741 2.24-.931 3.797-.31 1.467-.634 3.188-.994 5.266-1.653 9.598-2.648 7.832-6.619 7.613-3.969-.22-22.391-1.213-22.391-1.213s-19.305-.882-24.048-.882-.111 1.544-3.419 2.208c-3.31.661.771 3.199 2.317 11.251 1.542 8.052 1.986 3.419 2.425-.441.44-3.859.773-9.045 2.319-9.595 1.543-.553 8.711 0 20.294.55 11.583.552 21.621 1.217 26.254 3.423 4.634 2.205 2.206 9.707 2.426 16.984.22 7.282-1.988 6.839-5.296 6.839-3.31 0-18.75-.663-30.885-.663-12.134 0-12.573-.442-18.973 1.104-6.398 1.545-8.161 1.323-4.19 1.323 3.972 0 3.31 0 9.264.664 5.957.659 20.296 1.762 30.003 1.102 9.707-.663 16.986-.221 18.973 2.205 1.985 2.424-.663 9.925-1.233 15.664-.569 5.736.57 12.57.348 19.409-.073 2.29-.17 4.595-.248 6.552l-.192 4.479s.661 5.625-5.46 5.458c-6.123-.166-8.106.01-14.889.006-6.784-.006-10.258.832-15.718.827-5.46-.004-1.819 1.982 0 3.305 1.819 1.322 7.443 1.654 17.867 1.156 1.985-.091 3.743-.224 5.378-.354.043-.002.08-.002.126-.006 5.504-.364 4.533 6.089 3.407 11.94-.002.01-.004.016-.006.028-.388 1.853-.853 3.47-2.122 4.274-.396.254-.74.515-1.025.767-1.053.574-2.548 1.426-4.794 3.195-6.714 5.292-13.075 12.379-17.021 24.394-3.942 12.016-7.715 36.047-9.377 47.062-.16 1.076-.458 1.965-.813 2.771-3.885 6.656-11.226 4.731-19.971 2.634-11.029-2.647-9.145-1.755-4.19.44 0 0 14.119 6.178 19.193 8.824.205.105.39.196.583.292.239-.044.361-.068.361-.068l-4.196 24.918s3.11 20.483-3.148 23.534c-3.711 1.805-5.871 2.259-9.928 2.303.655.124 1.171.124 1.171.124 3.304 0 4.889.173 4.884.333 5.517-.427 8.062-.867 8.062-.867l-4.197 24.911s3.111 9.604-3.148 12.651c-6.261 3.047-8.054 2.252-22.101 2.119-1.545-.014-2.817-.09-3.922-.216.876.579 3.444.38 8.668.38 9.807 0 9.278 1.593-.541 1.593-9.814 0-12.049 3.91-12.049 3.91-12.017 24.247-29.588 47.283-2.84 59.085 27.02 11.918 25.735 9.731 25.712 9.701 2.494.839 5.682 1.126 9.02 1.224 19.068 1.374 5.274 25.852 22.937 29.387 6.329 1.264 12.322 2.56 17.432 3.71.238.118.632.21 1.115.254 8.548 1.931 14.318 3.377 14.318 3.377l-.31-.749c2.374 1.01 5.396 1.17 8.42.343.038-.008.069-.012.106-.022 10.059-1.957 33.458-6.649 33.139-8.28.829 2.994 3.367 6.452 13.069 11.653 20.479 10.983 41.298 9.991 41.331 9.989 2.492.244 5.584.156 8.2.156 5.664 0 2.056-3.093-9.855-15.447-11.914-12.353-20.735-45.89-23.191-54.931-1.616-5.951-1.106-7.506-.567-7.874 4.158-.527 15.749-1.759 22.674-3.63 8.162-2.205 6.197-6.153 7.301-13.652 1.102-7.502 1.542-15.58-1.765-31.286-3.309-15.703-16.451-81.251-19.098-93.798-.194-.925-.84-3.247-1.053-4.13.002-.002-.767-5.795-.767-5.795s1.191-3.972 4.996-3.972c3.804 0 1.986 7.44 7.612 11.665 5.625 4.219 6.288.415 6.782-1.902.427-1.989.614-7.988 2.016-10.907.008.013 2.934 3.804 15.93 10.753 2.065 1.107 4.155 2.062 6.221 2.912-.017-.004-.044-.012-.044-.012s14.231 7.017 24.468 12.837c7.368 4.188 8.019 13.896 7.803 19.015-.124-.054-.193-.082-.193-.082s-.078 1.271-.104 3.365l-.001.008h.001c-.077 5.812.229 18.012 3.631 27.572 4.632 13.018 5.297 22.812 8.603 32.473 3.31 9.663 6.396 20.061 6.396 20.061l.004-.002c3.453 12.91 9.1 27.462 10.477 31.908.675 2.17 2.033 4.297 4.955 5.771-.088.031-.178.058-.268.088-1.45.134-3.31.29-5.677.431-6.224.372-6.287 3.307-12.742 3.307H258.7c-.082 1.269-.134 2.404-.154 3.43-.006-1.564-.012-3.394-.012-5.911 0-2.033-.108-3.752-.274-5.282 0 0 .311-14.736.311-21.521 0-6.782-1.194-12.124-1.194-1.488 0 10.628-.083 15.946-1.365 11.535-.121-.812-.223-1.666-.291-2.6-.497-6.952 0-14.893 0-27.137 0-12.243.166-10.096.166-14.559 0-4.467-1.987-7.451-1.987 4.629 0 12.081-1.361 26.146-1.361 29.947 0 3.809-8.484 6.627-8.484-4.458v-.013c.546-7.453-.139-17.811-.527-28.141-.659-17.687 1.239-28.941 1.394-21.22.152 7.72.058 5.957 2.861 5.957s1.702-.099 1.702-8.433c0-8.333-.881-7.888 1.543-12.743 2.427-4.855 1.544-7.83 0-4.912-1.543 2.925-4.194 1.052-4.194 0 0-1.045.223-3.911-5.294-3.911-5.514 0-5.734-5.078-6.839-9.709-1.102-4.635-2.647-12.354-3.748-16.766-1.105-4.413-1.764-4.855-1.764-7.503 0-2.648-1.924-4.411-2.065 0-.141 4.414 1.687 15.002 0 13.898-1.686-1.105-5.214-11.474-8.304-10.371-3.09 1.104-6.397 5.512-8.825 2.43-2.426-3.089-5.074-7.06-5.958-12.798-.883-5.736-5.734-19.191-2.424 0 3.309 19.191 8.603 30.511 13.457 60.481 4.853 29.968 7.061 29.747 7.279 40.778.15 7.585-1.469 16.452-1.423 21.707v13.264c0 2.646 1.697 4.905 1.697-1.189s0-5.433 5.958-5.433h23.952c1.857 0 3.348.827 3.348 10.258 0 9.434.661 28.295 0 33.919-.665 5.627-2.316 14.727-8.273 24.651-5.957 9.929-11.583 19.692-5.46 13.07 1.109-1.202 2.131-2.477 3.107-3.872 1.815 1.208 10.792-2.879 27.819-5.098 24.383-3.181 49.78-17.89 49.78-17.89-.014.002-.027.006-.041.013 6.058-3.289 9.957-6.73 11.646-8.389.004 0 .008-.005.01-.009.434-.314.75-.652.979-1.007l.004-.004c1.673-2.606-1.858-6.107-4.626-8.581-3.141-2.814-3.474-3.809-9.102-3.478-5.624.332-5.954 1.492-16.378 0-.978-.137-1.846-.288-2.664-.438h.008s-1.237-.259-3.052-.764c.306.124.602.225.891.312-1.291-.312-2.35-.652-3.263-1.025.85.272 1.66.513 2.374.709-2.336-.939-4.946-3.003-3.573-7.443.741-1.915 4.041-6.612 18.482-8.867 1.689-.097 3.517-.261 5.521-.522 4.519-.587 10.613-.808 17.457-.684 1.1.019 2.208.046 3.365.086 19.727.659 44.313 4.022 56.116 9.865 16.73 8.279 19.191 6.621 8.623 1.495z"/><defs><path id="e" d="M0 0h510.031v548.508H0z"/></defs><clipPath id="f"><use xlink:href="#e" overflow="visible"/></clipPath><path clip-path="url(#f)" fill="#2E2D2C" d="M426.249 409.432c-2.297.298-6.262.698-10.342.614-.357-.052-5.812-.915-5.812-5.717 0-4.961.779-6.396 2.762-6.396 2.462 0 11.939.221 13.896.221 1.323 0 2.098 4.078 2.098 7.83.002 2.349-1.487 3.164-2.602 3.448zm73.637 70.347c-8.834-3.509-33.894-12.246-55.259-20.028 20.621 7.708 30.161 4.005 30.161 4.005l-.006-.007c12.453-2.937 17.883-24.477 17.053-33.06-.995-10.258-.331-10.59-8.604-22.833-5.274-7.806-7.855-14.792-9.034-18.838-.002-.154-.556-32.569 2.248-80.435v-9.752c0-7.458-2.293-17.053-2.293 13.721s-2.502 37.725-3.163 56.581c-.662 18.867-8.934-4.627-8.934-10.916 0-4.938-.054 10.569-.076 22.41-.375.981-.586 1.95-.586 2.739 0 1.599.24 3.596.579 5.657 0 9.574-1.057 12.629-4.74 12.979-.054 0-.104.004-.155.008-.2.017-.404.028-.621.028-2.718.106-5.935.114-9.289.259-6.769.292-12.636.3-15.448.664v-.002s-.002.002-.004.002c-.052.009-.107.015-.157.021-.325-.01-1.048-.337-1.048-3.07 0-3.531-3.969-4.602-5.847-4.602-1.873 0-14.228.076-18.747-.917-4.524-.991-5.296-.815-.663.917 4.631 1.729 3.526 4.821 3.526 8.903 0 4.076-1.116 4.688-3.537 3.898-8.492-2.778-26.572-8.533-26.572-8.533s15.387 8.272 18.863 19.523c1.639 5.314 2.476 12.447 2.896 17.777-1.225 7.353-7.408 36.785-26.942 30.982 0 0 38.607 19.687 53.827 27.159 15.225 7.476 9.267 2.841 1.325-1.348-7.944-4.194-35.959-15.664-13.456-16.768 22.503-1.105 48.313-4.194 55.591-3.752 7.281.441 15.442 3.752 27.796 8.381 12.348 4.646 17.42 4.646 1.316-1.753z"/><path fill="#2E2D2C" d="M336.802 372.451s34.578 11.253 45.83 14.558c11.253 3.308 10.206 3.969 9.072-14.558-1.126-18.532-1.165-19.856-1.478 0-.312 19.854-33.787 3.968-42.366 1.158-8.577-2.814-37.007-9.518-11.058-1.158zM402.125 346.197c0-43.239-6.982-61.106-4.8-45.225 0 0 2.983 64.197 2.917 77.436-.068 13.234 6.608 11.579 19.154 12.571 12.544.995 24.643 0 13.797 0-10.851 0-31.068-1.542-31.068-44.782z"/><defs><path id="g" d="M0 0h510.031v548.508H0z"/></defs><clipPath id="h"><use xlink:href="#g" overflow="visible"/></clipPath><path clip-path="url(#h)" fill="#2E2D2C" d="M296.927 310.283s2.81 34.037 3.309 43.304c.497 9.266.659 3.309 0-9.431-.665-12.741-2.483-33.873-2.483-33.873s-1.554-8.884-.826 0z"/><defs><path id="i" d="M0 0h510.031v548.508H0z"/></defs><clipPath id="j"><use xlink:href="#i" overflow="visible"/></clipPath><path clip-path="url(#j)" fill="#2E2D2C" d="M52.956 224.753c-7.06 0-6.637 2.87-6.637-7.28 0-10.149-2.187-17.878-2.187-7.947s.883 15.225-5.734 15.225H3.759c-5.958 0-3.971 1.767 0 1.767h37.945c9.709 0 18.311-1.765 11.252-1.765z"/><path fill="#2E2D2C" d="M38.399 164.83c6.617 0 6.617 4.112 6.617 8v11.838c0 7.786 2.205 7.435 2.205.615v-16.119c0-5.515 3.753-4.193 3.753-4.193 6.837 0 7.06-2.867 1.983-2.867H38.401c-10.152-.004-6.623 2.726-.002 2.726zM46.337 103.86c8.605 0 10.81-.22 16.325-.22 5.516 0 6.396-.663 5.735 3.75-.663 4.414-.22 10.149.441 15.222.663 5.074 2.87 2.428 1.765-9.044 0 0-.882-3.972.882-11.25 1.765-7.28 3.969-20.738 1.102-13.016-2.866 7.722.663 12.795-10.148 12.795H46.335c-5.069-.003-8.601 1.763.002 1.763zM64.873 48.488h26.309c3.826 0 6.795-.364 8.277-.823-8.332 12.215-8.747 16.201-7.233 12.956 1.543-3.309 9.047-12.353 13.898-18.53 4.852-6.178 10.806 2.868 10.806 2.868 4.263 4.179.884-1.103-2.424-5.733-3.308-4.632.443-5.957 4.854-10.371 4.414-4.411 2.427-6.177-1.104-2.425-3.5 3.721-9.391 7.668-18.098 20.219-.917-.45-3.701-.807-8.976-.807H64.873c-8.829-.002-14.563 2.646 0 2.646zM62.223 231.187c0-4.817-1.767-2.022-1.767 1.402v8.048c0 5.734-1.102 5.514-4.915 5.514H39.72c-13.236 0 8.382 2.222 13.898 2.222 5.514 0 5.514 3.074 5.514 9.447 0 6.372-1.323 9.475-6.396 9.475-5.074 0-2.868.839 3.732.839 6.602 0 5.752-4.89 5.752-4.89v-14.008c.003-7.275.003-13.232.003-18.049zM190.379 169.101c.833.152 1.569.26 2.252.345 4.842.595 6.086-.441 6.36-1.81.065-.326.078-.666.073-1.012 0 0-.002.034-.016.084-.101.409-1.032 2.143-9.622.94-9.679-1.357-25.066-4.038-25.066-4.038s17.867 3.999 26.019 5.491zM178.922 168.94c15.944 7.067 19.913 3.508 20.887 1.613-.435.501-1.423 1.094-3.642 1.474-4.489.775-17.245-3.087-17.245-3.087z"/><path fill="#2E2D2C" d="M200.117 169.626s-.039.4-.31.929c.443-.511.31-.929.31-.929z"/><g><defs><path id="k" d="M0 0h510.031v548.508H0z"/></defs><clipPath id="l"><use xlink:href="#k" overflow="visible"/></clipPath><path clip-path="url(#l)" fill="#2E2D2C" d="M153.333 173.792c-1.793 5.001 1.264 6.238 1.264 6.238.771.555 3.48 1.925 3.48 1.925-6.809-6.399 2.452-16.656 2.452-16.656-1.739 2.095-5.401 3.498-7.196 8.493z"/><g><defs><path id="m" d="M0 0h510.031v548.508H0z"/></defs><clipPath id="n"><use xlink:href="#m" overflow="visible"/></clipPath><path clip-path="url(#n)" fill="#2E2D2C" d="M236.701 10.156c.131 4.642-.003 10.27 2.713.669 0 0 .063-8.936 12.97-5.297 12.902 3.641 23.163 9.928 27.133 13.238 3.972 3.31 4.635 1.445-7.277-7.053-11.916-8.5-34.864-12.802-52.838-11.476-17.977 1.322-5.402 1.982 6.839 2.315 12.246.33 10.327 2.96 10.46 7.604z"/></g></g><path fill="#2E2D2C" d="M353.942 46.688c-.993 2.794 2.168-1.803 4.893 0 2.719 1.799 1.064-1.392 2.055-2.444.997-1.051 15.554.06 23.493 0 7.945-.058 12.911-2.043 0-2.043-12.905 0-17.865-1.323-22.829-1.323-4.963 0-9.927-3.309-7.612 0 0-.002.993 3.015 0 5.81zM49.181 382.967c4.06-.044 6.217-.498 9.928-2.303 6.259-3.049 3.148-23.534 3.148-23.534l4.197-24.918s-.122.026-.362.068c-1.701.29-9.467 1.599-23.706 3.455-16.246 2.119-5.975 3.183-10.58 17.493-4.606 14.312-8.846 29.42 5.203 29.557.808.008 1.562.02 2.295.027 4.435.069 7.486.181 9.877.155zM29.929 422.022c1.105.128 2.378.206 3.923.218 14.049.135 15.842.93 22.101-2.121 6.259-3.045 3.148-12.649 3.148-12.649l4.198-24.911s-2.546.438-8.062.865c-3.507.272-8.217.535-14.259.671-.945.022-1.912.042-2.92.056-16.383.251-8.207 8.129-10.15 18.73-.708 3.876-1.599 7.025-2.279 9.587-1.63 6.143-2.003 8.831 4.3 9.554zM361.835 150.087c-7.062 0 1.545 1.768 11.25 1.768h37.947c3.971 0 5.955-1.768 0-1.768H361.835zM384.635 206.542c-7.059 0 1.547 1.767 11.253 1.767h37.944c3.971 0 5.958-1.767 0-1.767h-49.197z"/></g></svg>