<?xml version="1.0" encoding="utf-8"?>
<!-- Generator: Adobe Illustrator 15.0.0, SVG Export Plug-In . SVG Version: 6.00 Build 0)  -->
<!DOCTYPE svg PUBLIC "-//W3C//DTD SVG 1.1//EN" "http://www.w3.org/Graphics/SVG/1.1/DTD/svg11.dtd">
<svg version="1.1" id="Layer_1" xmlns="http://www.w3.org/2000/svg" xmlns:xlink="http://www.w3.org/1999/xlink" x="0px" y="0px"
	 width="600px" height="274px" viewBox="0 0 600 274" enable-background="new 0 0 600 274" xml:space="preserve">
<g>
	<g>
		<path fill="#2E2D2C" d="M346.617,61.587l0.352-2.274h13.701l0.232,2.274l-3.614,0.699c-1.165,0.234-1.165,0.817-1.165,1.516
			v20.933c0,9.212-4.899,15.508-15.627,15.508c-9.679,0-15.041-4.78-15.041-15.042V65.202c0-2.273-0.118-2.856-4.434-3.615
			l0.352-2.274h14.284l0.232,2.274l-3.614,0.699c-1.107,0.234-1.165,0.817-1.165,1.516v20.524c0,7.638,2.856,12.011,10.32,12.011
			c8.16,0,10.785-5.831,10.785-11.136V66.31C352.216,62.986,351.633,62.17,346.617,61.587z"/>
		<path fill="#2E2D2C" d="M376.821,97.443c4.315-0.758,4.433-1.34,4.433-3.614V65.202c0-2.273-0.117-2.856-4.433-3.615l0.351-2.274
			h16.21c8.628,0,12.301,3.849,12.301,9.795c0,5.306-3.206,10.028-9.095,12.01v0.292c0.407,0.116,0.816,0.524,1.283,1.283
			l8.221,12.36c1.05,1.574,1.69,2.158,4.781,2.39l-0.351,2.274h-8.28l-11.543-17.725h-3.79v13.235c0,0.7,0.059,1.283,1.165,1.515
			l3.209,0.7l-0.235,2.274h-13.876L376.821,97.443z M390.116,79.02c5.539,0,9.329-1.75,9.329-9.387c0-6.239-4.607-7.23-7.873-7.23
			h-3.498c-1.106,0-1.165,0.7-1.165,1.399V79.02H390.116z"/>
		<path fill="#2E2D2C" d="M426.266,97.443c4.315-0.758,4.434-1.34,4.434-3.614V65.202c0-2.273-0.118-2.856-4.434-3.615l0.351-2.274
			h7.931l0.582,5.889h-0.524v28.686c0,1.865,0.583,2.798,2.564,3.032l4.083,0.523l-0.234,2.274h-14.401L426.266,97.443z
			 M431.106,59.312h6.646l23.672,34.867l-0.116,5.48l-2.916,0.059L431.106,59.312z M457.635,88.699h0.466V66.367
			c0-3.382-0.583-4.197-5.597-4.78l0.35-2.274h13.703l0.232,2.274l-3.615,0.699c-1.107,0.234-1.168,0.817-1.168,1.516v35.916h-3.438
			L457.635,88.699z"/>
		<path fill="#2E2D2C" d="M484.051,97.443c4.312-0.758,4.43-1.34,4.43-3.614V65.202c0-2.273-0.118-2.856-4.43-3.615l0.348-2.274
			h27.171c0.233,1.458,0.349,3.673,0.349,4.606c0,1.633-0.057,3.149-0.115,4.49l-3.324,0.408c-1.106-5.481-1.34-6.064-1.982-6.122
			c-1.049-0.116-1.924-0.175-3.557-0.233l-8.804-0.175v15.685h8.746c0.467,0,0.874-0.467,1.865-4.141l1.809,0.176
			c0,6.53,0.231,7.171,0.816,11.544l-2.1,0.349c-1.226-4.256-1.399-4.839-1.982-4.839h-9.154v15.683l5.189-0.058
			c7.637-0.117,7.871-0.699,8.278-0.816c0.584-0.175,1.168-0.991,2.567-6.879l3.205,0.292c0.059,0.991,0.059,1.981,0.059,2.974
			c0,3.09-0.35,5.48-0.641,7.462h-28.396L484.051,97.443z"/>
		<path fill="#2E2D2C" d="M554.718,63.335c0,2.333-0.293,4.782-0.642,6.88l-3.383,0.408c-0.525-5.48-0.933-6.822-1.574-7.346
			c-0.816-0.7-3.264-1.225-5.479-1.225c-2.392,0-4.14,0.583-5.249,1.399c-0.874,0.642-2.156,1.982-2.156,4.432
			c0,4.956,5.131,6.763,10.086,8.862c4.957,2.099,10.146,4.723,10.146,11.72c0,7.114-5.247,11.777-13.817,11.777
			c-5.132,0-10.262-1.691-11.837-2.507c-0.176-0.7-0.176-1.399-0.176-2.565c0-2.624,0.351-5.247,0.7-7.113l3.324-0.175
			c0.642,6.005,0.99,6.588,1.632,7.054c1.109,0.758,4.431,2.042,7.696,2.042c2.332,0,3.907-0.642,4.898-1.399
			c1.69-1.284,2.216-3.091,2.216-4.84c0-5.481-5.131-7.405-9.796-9.387c-4.956-2.099-9.912-4.431-9.912-11.078
			c0-7.23,5.888-11.486,14.169-11.486c3.79,0,7.112,0.874,8.979,1.574C554.659,61.295,554.718,62.286,554.718,63.335z"/>
		<path fill="#2E2D2C" d="M597.806,63.335c0,2.333-0.291,4.782-0.641,6.88l-3.384,0.408c-0.522-5.48-0.932-6.822-1.573-7.346
			c-0.815-0.7-3.265-1.225-5.481-1.225c-2.389,0-4.14,0.583-5.246,1.399c-0.874,0.642-2.158,1.982-2.158,4.432
			c0,4.956,5.133,6.763,10.087,8.862c4.956,2.099,10.146,4.723,10.146,11.72c0,7.114-5.247,11.777-13.816,11.777
			c-5.132,0-10.263-1.691-11.836-2.507c-0.178-0.7-0.178-1.399-0.178-2.565c0-2.624,0.351-5.247,0.7-7.113l3.324-0.175
			c0.642,6.005,0.99,6.588,1.633,7.054c1.108,0.758,4.432,2.042,7.696,2.042c2.331,0,3.906-0.642,4.896-1.399
			c1.691-1.284,2.217-3.091,2.217-4.84c0-5.481-5.132-7.405-9.795-9.387c-4.957-2.099-9.913-4.431-9.913-11.078
			c0-7.23,5.889-11.486,14.167-11.486c3.792,0,7.114,0.874,8.98,1.574C597.748,61.295,597.806,62.286,597.806,63.335z"/>
	</g>
	<g>
		<path fill="#2E2D2C" d="M270.055,96.939c5.273-0.926,5.417-1.639,5.417-4.418V57.529c0-2.779-0.144-3.492-5.417-4.418l0.427-2.78
			h33.209c0.287,1.781,0.429,4.49,0.429,5.63c0,1.995-0.071,3.848-0.142,5.487l-4.063,0.5c-1.354-6.699-1.639-7.412-2.422-7.484
			c-1.283-0.142-2.352-0.213-4.348-0.285l-10.761-0.213v19.812h10.975c0.571,0,1.925-0.571,3.136-5.06l2.209,0.214
			c0,7.981,0.285,8.766,0.997,14.11l-2.565,0.428c-1.497-5.202-2.565-5.915-3.278-5.915h-11.474v16.676
			c0,0.855,0.072,1.71,1.425,1.853l7.198,0.855l-0.285,2.779h-20.24L270.055,96.939z"/>
	</g>
	<g>
		<path fill="#2E2D2C" d="M321.313,154.671c4.314-0.757,4.433-1.34,4.433-3.614v-28.627c0-2.273-0.118-2.857-4.433-3.615
			l0.351-2.274h16.209c8.628,0,12.302,3.849,12.302,9.796c0,5.305-3.206,10.029-9.096,12.011v0.292
			c0.409,0.116,0.815,0.523,1.283,1.281l8.222,12.362c1.049,1.574,1.69,2.156,4.78,2.389l-0.351,2.275h-8.278l-11.546-17.726h-3.79
			v13.235c0,0.699,0.059,1.283,1.167,1.516l3.207,0.699l-0.232,2.275h-13.877L321.313,154.671z M334.607,136.247
			c5.539,0,9.329-1.749,9.329-9.386c0-6.239-4.605-7.23-7.871-7.23h-3.499c-1.108,0-1.167,0.7-1.167,1.399v15.217H334.607z"/>
		<path fill="#2E2D2C" d="M393.089,116.016c11.778,0,18.25,7.872,18.25,19.708c0,13.002-6.997,21.748-19.124,21.748
			c-11.777,0-18.25-8.047-18.25-20.232C373.965,124.587,380.961,116.016,393.089,116.016z M404.867,136.714
			c0-9.911-4.198-17.609-12.711-17.609c-8.746,0-11.719,8.514-11.719,17.142c0,10.262,4.198,18.135,12.71,18.135
			C401.895,154.382,404.867,145.75,404.867,136.714z"/>
		<path fill="#2E2D2C" d="M455.828,120.563c0,2.333-0.293,4.782-0.642,6.881l-3.383,0.407c-0.523-5.48-0.932-6.822-1.573-7.347
			c-0.815-0.7-3.265-1.224-5.48-1.224c-2.39,0-4.14,0.583-5.247,1.399c-0.875,0.64-2.158,1.981-2.158,4.43
			c0,4.956,5.131,6.764,10.087,8.862c4.956,2.1,10.146,4.724,10.146,11.721c0,7.112-5.248,11.778-13.819,11.778
			c-5.13,0-10.261-1.69-11.836-2.509c-0.176-0.698-0.176-1.398-0.176-2.564c0-2.624,0.353-5.248,0.701-7.112l3.323-0.177
			c0.642,6.006,0.992,6.589,1.633,7.057c1.108,0.758,4.431,2.038,7.696,2.038c2.332,0,3.906-0.64,4.898-1.398
			c1.69-1.282,2.215-3.091,2.215-4.838c0-5.481-5.131-7.405-9.795-9.387c-4.957-2.1-9.913-4.432-9.913-11.079
			c0-7.23,5.89-11.486,14.169-11.486c3.789,0,7.114,0.874,8.979,1.574C455.77,118.523,455.828,119.514,455.828,120.563z"/>
	</g>
	<g>
		<path fill="#2E2D2C" d="M270.055,154.167c5.273-0.927,5.417-1.64,5.417-4.419v-34.991c0-2.78-0.144-3.492-5.417-4.418l0.427-2.78
			h18.815c10.476,0,16.034,4.49,16.034,11.759c0,6.555-4.561,10.404-7.483,11.331v0.498c6.057,1.141,10.69,6.271,10.69,12.044
			c0,6.201-4.489,13.755-17.246,13.755h-20.81L270.055,154.167z M286.376,129.651c8.124,0,11.331-3.919,11.331-9.478
			c0-8.339-7.127-8.837-10.548-8.837h-4.775v18.315H286.376z M283.453,152.527c0.214,0.144,1.496,0.713,4.347,0.713
			c9.549,0,12.828-3.635,12.828-9.406c0-8.411-6.699-10.406-11.331-10.406h-6.914v16.605
			C282.384,151.032,282.456,152.1,283.453,152.527z"/>
	</g>
	<g>
		<path fill="#2E2D2C" d="M334.686,208.824v-31.485c-7.638,0.118-7.813,0.234-8.222,0.41c-0.582,0.232-1.166,0.582-2.331,7.055
			l-2.975-0.233c-0.057-0.875-0.057-1.69-0.057-2.508c0-3.031,0.29-5.831,0.523-7.756h31.776c0.232,1.925,0.524,4.725,0.524,7.756
			c0,0.817,0,1.633-0.058,2.508l-2.974,0.233c-1.166-6.473-1.749-6.822-2.332-7.055c-0.409-0.176-0.583-0.292-8.221-0.41v32.884
			c0,0.701,0.058,1.342,1.166,1.519l4.489,0.698l-0.233,2.273h-16.034l-0.35-2.273C334.51,211.623,334.686,211.099,334.686,208.824z
			"/>
		<path fill="#2E2D2C" d="M373.227,212.439c4.315-0.758,4.431-1.341,4.431-3.615v-28.628c0-2.273-0.115-2.857-4.431-3.614
			l0.352-2.275h18.248c13.879,0,18.367,9.563,18.367,18.951c0,10.203-5.307,21.455-19.65,21.455h-16.965L373.227,212.439z
			 M384.539,210.807c1.457,0.292,3.729,0.816,6.18,0.816c8.979,0,13.002-7.112,13.002-16.907c0-13.528-7.696-17.317-13.236-17.317
			h-7.171v31.893C383.313,209.991,383.372,210.574,384.539,210.807z"/>
	</g>
	<g>
		<path fill="#2E2D2C" d="M270.055,211.935c5.273-0.926,5.417-1.64,5.417-4.42v-34.989c0-2.779-0.144-3.493-5.417-4.419l0.427-2.78
			h17.46l0.285,2.78l-4.419,0.855c-1.354,0.285-1.425,0.997-1.425,1.853v40.265l6.343-0.07c9.336-0.145,8.766-0.356,9.265-0.5
			c0.712-0.214,1.497-1.569,3.991-10.976l3.919,0.358c0.072,1.211,0.072,2.422,0.072,3.634c0,4.348-0.428,8.409-0.784,11.188
			h-34.707L270.055,211.935z"/>
	</g>
	<rect x="269.996" y="231.56" fill="#2E2D2C" width="169.47" height="5.183"/>
	<g>
		<path fill="#2E2D2C" d="M432.353,177.853c0-1.806,1.34-3.497,3.497-3.497c1.923,0,3.614,0.933,3.614,3.497
			c0,1.925-1.399,3.615-3.614,3.615C433.983,181.468,432.353,180.359,432.353,177.853z"/>
	</g>
</g>
<g>
	<path fill="#2E2D2C" d="M18.788,135.658c1.873,0.331,4.189,0.275,4.189,0.275s0.716-0.496-0.827-1.046
		c-1.543-0.552-1.268-1.157-3.087-0.828c-1.819,0.332-2.534,0.661-4.905,0.607c-2.37-0.055-3.417,0.495-1.818,1.157
		s4.132,0.111,4.354,0.387c0.219,0.275-2.072,1.508-0.496,3.69c1.576,2.185,0.496,2.702,0.771,4.244
		c0.275,1.544,1.268,3.252,0.716,5.567c-0.551,2.313-0.71,5.676-0.327,6.337c0.383,0.662,0.671,0.274,0.547-0.991
		c0,0-0.496-2.701,0.441-3.859c0.936-1.156,0.826-1.928,0-5.62c-0.826-3.693-0.815-6.723-0.573-8.487
		C18.016,135.328,16.913,135.328,18.788,135.658L18.788,135.658z"/>
	<path fill="#2E2D2C" d="M186.378,149.711c0.459-1.149,2.259-2.977,4.738-3.086c2.481-0.11,2.811-0.056,2.7-1.542
		c-0.11-1.49-0.276-10.914-0.276-10.914l-10.028-0.44c0,0,0.386,11.738,0.716,14.604
		C184.559,151.198,185.275,152.466,186.378,149.711L186.378,149.711z"/>
	<path fill="#2E2D2C" d="M175.245,147.508c0.991-1.544,3.197-1.158,5.234-0.993c2.042,0.165,2.372-0.22,2.316-1.157
		c-0.056-0.938-0.661-11.628-0.661-11.628l-10.748-0.771c0,0,0.238,9.423,0.553,14.604
		C172.435,155.719,174.252,149.05,175.245,147.508L175.245,147.508z"/>
	<g>
		<defs>
			<rect id="SVGID_1_" x="0" y="-0.001" width="254.823" height="274.048"/>
		</defs>
		<clipPath id="SVGID_2_">
			<use xlink:href="#SVGID_1_"  overflow="visible"/>
		</clipPath>
		<path clip-path="url(#SVGID_2_)" fill="#2E2D2C" d="M169.79,146.185c0-2.646,0-13.227,0-13.227l-11.077-0.386
			c0,0,0.495,15.376,0.551,19.674c0.054,4.299,0.661,2.866,0.661,0.661c0-2.203,1.707-5.181,4.684-5.07
			C167.585,147.948,169.79,148.83,169.79,146.185L169.79,146.185z"/>
		<path clip-path="url(#SVGID_2_)" fill="#2E2D2C" d="M145.624,246.76c1.405,1.158,3.885,2.562,6.861,2.977
			c2.975,0.413,5.785,0.247,8.265,0c2.481-0.248,3.306,0.744,4.878,2.397c1.57,1.653,1.489,1.901,0.497,2.728
			c-0.992,0.827-2.646,1.653-5.539,2.646c-2.893,0.991-3.224,0.991-4.133-0.248c-0.91-1.24-2.15-0.165-3.556,1.074
			c-0.979,0.864,0.17,0.886,1.963,0.847c-2.407,0.379-4.906,0.602-7.287,0.563c-3.56-0.058-4.978-0.464-5.673-0.906
			c1.14-0.235,2.44-0.427,4.716-0.339c4.298,0.166,3.306-1.239,4.628-2.148c1.323-0.909,0.992-0.414,1.818,0.578
			c0.828,0.992,0.745-0.743,1.654-1.736c0.908-0.991-0.166-0.908-1.654-0.908c-1.487,0-0.577-2.563-1.238-2.232
			c-0.662,0.33-2.729,1.571-3.886,3.802c-1.079,2.082-1.585,1.792-3.39,1.475c0,0,0,0-0.001,0c-0.014-0.003-0.027-0.005-0.042-0.008
			c-0.388-0.067-1.068-0.172,0.043-1.301c1.155-1.172,3.952-4.133,3.952-4.133c0.754-0.797-0.396-0.909-0.77-0.372
			c-0.371,0.537-4.174,4.01-4.752,4.671s-1.322,0.619-0.691-0.249c0.631-0.868,2.922-3.636,3.998-4.836
			c1.075-1.198-0.373-1.033-0.744-0.536c-0.373,0.495-3.058,3.678-4.3,5.043c-1.239,1.362-1.611,0.66-0.784-0.373
			c0.826-1.033,3.141-3.927,4.091-5.042c0.952-1.116-0.042-1.116-0.578-0.455c-0.536,0.662-3.761,4.092-4.588,5.085
			c-0.826,0.99-1.363,0.499-0.743-0.373c0.616-0.872,3.305-3.803,4.505-5.043c1.198-1.241-0.083-1.033-0.62-0.495
			c-0.539,0.536-2.191,2.272-3.596,3.756c-1.406,1.48-1.591,0.048-0.744-0.698c0.846-0.746,2.81-2.604,3.75-3.431
			c0.938-0.826,0.135-0.991-0.443-0.578c-0.58,0.413-1.034,0.992-2.397,1.695c-1.256,0.646-0.539-0.486-0.417-0.671
			c1.187-1.513,2.856-2.453,3.724-2.637c0.969-0.204,1.435-0.437,1.98-0.315c0.344,0.226,0.722,0.434,1.114,0.631
			C145.539,246.697,145.576,246.721,145.624,246.76L145.624,246.76z M129.158,251.686c0.001-0.022,0.001-0.047,0.001-0.07
			c0,0.014,0,0.028,0,0.041C129.159,251.667,129.158,251.675,129.158,251.686L129.158,251.686z M129.133,252.452
			c0.004-0.102,0.007-0.206,0.01-0.312C129.139,252.245,129.137,252.354,129.133,252.452L129.133,252.452z M145.926,240.602
			c0.213-0.086,0.443-0.161,0.678-0.231c-0.201,0.068-0.398,0.135-0.602,0.202C145.975,240.583,145.953,240.592,145.926,240.602
			L145.926,240.602z M106.291,155.913c0.116-0.238,0.246-0.44,0.397-0.581L106.291,155.913L106.291,155.913z M102.225,149.603
			c-0.093,0.05-0.181,0.104-0.271,0.156c0.001,0,0.001-0.001,0.001-0.002c0.187-0.45-0.103-0.377-0.267-0.956
			c-0.166-0.577-0.455-0.95-1.158-2.521s-0.578-0.125-0.414,0.287c0.166,0.414,0.868,1.821,1.182,2.503c0.314,0.683,0,1.09,0,1.09h0
			c-0.437,0.282-0.819,0.545-1.176,0.78c0.5-0.422,0.205-0.926-0.048-1.395c-0.289-0.537-0.414-1.239-1.314-2.48
			c-0.902-1.239-0.711,0.229-0.711,0.229s0.579,0.929,1.198,2.168c0.613,1.227-0.23,2.088-0.249,2.107
			c-0.627,0.235-1.165,0.151-1.735-0.536c-0.642-0.776-1.021-1.07-1.24-1.275c-0.406-0.373-0.247-0.818,0.744-1.641
			c0.992-0.819,0.58-1.631,0-2.185c-0.578-0.552-1.488-1.39-2.103-2.546c-0.614-1.158,0.458-1.483,0.458-1.483h-0.001
			c2.16-0.676,4.473-1.852,6.11-0.789c2.039,1.322,0.495,3.141,0.661,4.242C102.059,146.461,104.705,148.225,102.225,149.603
			L102.225,149.603z M99.008,151.568c0.035-0.02,0.186-0.099,0.845-0.448C99.55,151.312,99.271,151.468,99.008,151.568
			L99.008,151.568z M95.169,148.113c-0.224,0.041-0.465-0.038-0.691-0.059c-0.279-0.06-0.812-0.269-1.126-1.019
			c-0.442-1.047-1.323-3.995-1.957-4.437c-0.16-0.11-0.289-0.176-0.377-0.213c0.162,0.001,0.321,0,0.478-0.001
			c0.057-0.001,0.107,0.001,0.174-0.002c0.007,0,0.013-0.002,0.021-0.002c0.455-0.007,0.885-0.023,1.277-0.052
			c0.195,0.094,0.373,0.261,0.576,0.52c0.417,0.531,1.034,1.984,2.067,3.718c0.632,1.062,0.325,1.401-0.008,1.507
			C95.507,148.057,95.371,148.076,95.169,148.113L95.169,148.113z M93.664,149.058c-0.014,0.077-0.025,0.156-0.037,0.246
			c-0.037,0.312-0.087,0.614-0.157,0.907c-0.306,0.663-1.677-2.681-2.185-3.696c-0.552-1.102-0.799-0.386-0.493,0.118
			c0.305,0.503,0.95,2.514,1.622,3.52c0.551,0.824,0.496,1.342,0.496,1.342c-0.197,0.273-0.448,0.523-0.771,0.743
			c-0.13,0.065-0.291,0.152-0.499,0.281c-0.07,0.034-0.136,0.068-0.211,0.101c-0.021,0.007-0.041,0.007-0.062,0.013
			c-0.048,0.014-0.097,0.027-0.146,0.041c-0.057-0.1,0.014-0.461-0.184-1.088c-0.331-1.047-1.488-3.913-1.709-4.574
			c-0.221-0.661-0.937-0.386-0.552,0.284c0.387,0.668,0.938,2.251,1.434,3.958c0.496,1.708,0,1.653,0,1.653s0.014,0.015,0.029,0.034
			c-0.349,0.084-0.705,0.155-1.061,0.218c-0.084,0.011-0.155,0.022-0.234,0.033c-0.473,0.057-0.222-0.108-0.222-1.167
			c0-1.21-1.047-3.251-1.372-4.219c-0.325-0.968-0.778-0.409-0.667,0.418c0.11,0.826,0.937,1.929,1.268,3.526
			c0.314,1.521-0.558,1.597-0.644,1.6c-0.603,0.011-1.157-0.043-1.631-0.173c0.091-0.167-0.031-0.741-0.315-1.896
			c-0.479-1.943-1.714-3.165-1.714-3.165l-0.001,0.002c-0.312-0.295-0.843-0.402-1.757-0.227c-2.867,0.551-1.433,2.756-3.086,1.983
			c-1.654-0.771-3.638-0.329-4.299,0.442c-0.662,0.771,0.992,3.525-0.771,3.085c-1.764-0.441-3.086-3.637-3.086-0.771
			s0.331,3.944-0.771,3.735s-3.086,1.444-3.086,1.444s-5.952,4.629-8.929,6.062c-2.976,1.434-2.093,1.213-4.299,1.213
			c-0.36,0-0.696,0.015-0.999,0.057l-0.003-0.003c0,0-0.005,0.003-0.006,0.004c-0.525,0.073-0.947,0.233-1.215,0.574
			c-2.507,1.071-8.074,2.821-8.959-2.328c-1.148-6.679-0.614-6.483,0-7.022s2.79-0.622,0.806-1.779
			c-1.985-1.156-2.729-1.073-2.729-4.216c0-0.453-0.017-0.854-0.043-1.207c2.054-13.132,6.027-19.542,8.502-22.469
			c0.121-0.139,0.22-0.25,0.333-0.377c0.823-0.796,1.611-1.134,2.632-1.242c1.571-0.165,0.744,0.496,3.472-4.299
			c2.728-4.794,4.461-5.134,7.106-6.291c2.646-1.158,5.293-1.231,5.376,1.992c0.063,2.499,0.305,5.345,0.291,7.231
			c-0.058,0.346-0.061,0.851-0.088,1.386c-0.015,0.097-0.02,0.189-0.016,0.276c-0.085,1.169-0.372,2.363-1.731,2.24
			c-2.424-0.222-1.377,1.156-1.377,2.646c0,1.488,0.277,1.763-0.716,1.707c-0.992-0.054-0.716-1.818-1.323-3.03
			c-0.606-1.213-1.599,0.274-2.591,1.818c-0.99,1.542-1.487,0.993,0,1.984c1.489,0.992,1.379,1.652,0.221,1.873
			c-1.157,0.222-2.483,0.222-1.159,2.096c1.325,1.873,0.72,2.976-1.044,2.7c-1.764-0.275-2.535-0.496-3.417-1.984
			c-0.881-1.489-1.819-2.866-2.204-3.747c-0.385-0.881-0.717-0.716-1.102-0.276c-0.386,0.441-0.663,0.937,0.275,1.763
			c0.938,0.828,1.708,2.591,0.992,2.371c-0.715-0.22-2.314-2.152-3.801-0.471c-1.489,1.683-2.371,0.691-2.537,1.187
			c-0.165,0.496,2.15,0.166,1.489,1.157c-0.662,0.993,1.132,0.606,3.018,0.495c1.886-0.108,5.138,0.479,6.846,2.004
			c1.709,1.523,2.425,2.518-0.384,1.91c-2.812-0.606-5.04-1.488-6.461-1.157c-1.42,0.331-1.145,0.606,1.059,0.882
			c2.206,0.275,5.677,1.212,6.338,1.487c0.662,0.276,2.591,3.418-0.274,4.08c-2.866,0.661-4.63,0.715-8.542,0.99
			c-3.914,0.275-2.425,1.156-0.607,1.378c1.819,0.221,1.158,1.379,0.828,2.37c-0.331,0.993-2.26,2.866,0.881,1.213
			c3.142-1.654,7.384-3.361,10.14-4.243c2.755-0.882,3.693-1.379,3.583,0.108c-0.111,1.489-0.056-1.597,2.039-2.424
			c2.095-0.826,9.589-2.26,12.234-3.196c2.646-0.937,4.409-2.866,5.787-3.032c0.793-0.094,2.849,0.029,4.933,0.088
			c0.197,0.006,0.393,0.011,0.588,0.015c0.476,0.087,1.131,0.391,1.534,1.356c0.689,1.653,1.102,2.804,1.459,3.565
			c0.359,0.762,0.713,1.012,0.671,1.755C93.664,149.052,93.664,149.055,93.664,149.058L93.664,149.058z M67.513,264.643
			c-3.316,1.143-4.419,0.81-4.786,0.489c0.558-2.518-1.143-7.24-1.222-10.54c1.69-2.336,5.917-3.367,7.487-2.458
			c1.571,0.909,3.307,2.231,4.216,3.968c0.909,1.735-3.307,3.555-7.109,5.291c-3.802,1.736-0.827,1.157-0.827,1.157
			s5.208-2.232,6.824-3.06c1.616-0.826,2.683-0.331,2.683,0.331c0,0.661-1.157,1.074-3.554,1.698s-1.571,0.782,2.397,0.038
			c0.892-0.166,1.572-0.326,2.097-0.491c0.002,0,0.004,0.001,0.007,0.001C78.16,261.215,67.513,264.643,67.513,264.643
			L67.513,264.643z M70.226,251.581c0.011,0.007,0.023,0.016,0.033,0.024c-0.018-0.01-0.035-0.019-0.053-0.026L70.226,251.581
			L70.226,251.581z M54.758,191.622c1.152,0.576,2.312,5.646,2.323,5.685c0.23,1.254,0.47,2.383,0.705,3.225
			c0.749,2.855,3.989,15.127,6.027,21.43c2.313,7.165,1.652,4.082,0.661-0.438c-0.992-4.519-6.928-17.729-2.968-18.125
			c0,0,0.001,0,0.002,0c1.221,0.055,2.611-0.147,3.957-0.396c2.977-0.551,6.614-0.439,6.834,2.315
			c0.17,2.113-0.562,6.031,0.177,7.749c-0.001,0.001-0.005,0.004-0.005,0.004s-4.315,0-7.088,0c-2.772,0-1.856,1.616,0,1.616
			c0,0,14.521,0,17.729,0c3.208,0,3.408,0.991,3.408,2.149c0,0.003,0.001,0.005,0.001,0.01c0.004,1.203,0.017,2.362,0.034,3.474
			h-0.001c0,0,0.001,0.01,0.001,0.017c0,0.013,0,0.023,0,0.036c0.005,0.332-0.121,2.298-3.764,2.298c-3.979,0-10.695,0-10.695,0
			s-6.386,0.944,0,0.944c6.386,0,11.347,0,11.347,0s2.914-0.017,2.914,2.914c0,0.36,0.088,0.559,0.241,0.633
			c-0.015,0.795-0.038,1.565-0.082,2.298c-0.061,1.001-0.101,1.888-0.027,2.645c0,0.001,0,0.001,0,0.001
			c-0.104,4.523-4.601,4.187-8.128,3.744c-3.527-0.441-2.425,2.205-2.866,3.141c-0.28,0.596-0.381,2.368-0.362,3.781
			c-0.02,1.308-5.765,2.966-5.767,2.966c1.936-0.892,2.871-1.065,2.712-2.497c-0.22-1.983-7.165,0-7.165,0
			c-3.44,0.735-10.029,2.648-13.9,5.294c-3.871,2.645-2.522,0.11-1.749-1.434c0.771-1.542,1.431-1.434-2.28-2.094
			c-3.713-0.661-3.122-2.205-0.917-2.425c2.204-0.22,2.314-1.654,0.917-2.977s-2.13-1.984-1.026-3.196
			c1.101-1.213,1.763-4.739-1.984-5.73c-3.749-0.992-2.314-2.646-3.528-10.912c-1.212-8.267,0.331-23.809,0.331-27.666
			c0-1.64-0.241-2.779-0.65-3.711c-0.59-2.376-0.826-11.067,0-13.409c0.827-2.341,1.633-3.137,1.633-3.137l0,0
			c0.748-0.689,1.524-1.367,2.252-1.879c3.058-2.148,6.928-2.819,8.058,0.843c0.001,0.004,0.002,0.008,0.003,0.011
			c1.586,4.358,3.132,12.213,3.5,15c0.006,0.259,0.032,0.548,0.084,0.872c0,0.246,0.049,0.837,0.137,1.654
			C55.766,191.485,53.75,191.119,54.758,191.622L54.758,191.622z M40.209,155.498l-0.312-2.326c0-0.001,0-0.001,0-0.002
			C40.039,154.198,40.209,154.723,40.209,155.498L40.209,155.498z M59.428,88.635L59.428,88.635l-0.001,0.013
			C59.427,88.644,59.427,88.639,59.428,88.635L59.428,88.635z M59.622,70.186c-0.123-0.576-0.169-1.153-0.174-1.77
			C59.541,69.483,59.622,70.186,59.622,70.186L59.622,70.186z M62.625,51.586l0.019,0.527
			C62.602,51.868,62.599,51.709,62.625,51.586L62.625,51.586z M62.779,55.849l0.001,0.026c0,0-0.005,0.001-0.005,0.001
			C62.776,55.867,62.777,55.858,62.779,55.849L62.779,55.849z M69.745,112.689c0.297,0.015,0.581,0.045,0.845,0.098
			c3.583,0.717,4.63,1.102,5.733,1.708c1.102,0.607,2.038,0.716,2.699,0.055c0.662-0.661,1.489,0.332,0.497-2.811
			c-0.993-3.141-1.378-6.833-0.22-7.66c1.157-0.827,0.441,0.827,1.542,0.937c1.103,0.111,1.213-0.403,1.213-2.269
			c0-1.864,0.882-1.974,2.039-1.974s0.276-2.866,1.323-3.527c1.047-0.662,1.377-0.497,1.487,0c0.082,0.367,0.403,0.067,0.654-0.561
			c0.012-0.029,0.022-0.061,0.033-0.091c0.044-0.024,0.132-0.041,0.296-0.037c0.436,0.007,0.103,0.371,0.103,0.558
			c0,0.186,0.416-0.029,0.496-0.28c0.08-0.249,0.64-0.167,0.578,0.036c-0.062,0.203,0.19,0.182,0.229-0.019
			c0.018-0.091,0.109-0.153,0.205-0.187c0.086,0.007,0.173,0.015,0.259,0.021c0.03,0.119,0.207,0.526,0.427,0.292
			c-0.008,0.035-0.012,0.069-0.028,0.104c-0.441,0.937-2.48,0.94-2.646,2.261c-0.165,1.32-0.618,0.974,0.377,0.974
			c2.736,0,2.544,0.292,3.15,0.898c0.606,0.606,1.308,0.248,2.316-0.11c1.596-0.568,2.893,0.541,1.992-1.665
			c-0.901-2.205-0.781-1.808-1.496-1.862c-0.574-0.043-1.035-0.234-1.143-0.674c0.029,0.002,0.059,0.004,0.088,0.006l0.261,0.018
			c0,0,0.226,0.281,0.35,0.154c0.125-0.126,0.245-0.12,0.289-0.117c0.044,0.002,0.31,0.043,0.372,0.221
			c0.062,0.179,0.291-0.008,0.31-0.097c0.021-0.087,0.249-0.057,0.311,0.171c0.061,0.228,0.247,0.225,0.33,0
			c0.082-0.225,0.393-0.268,0.455-0.061s0.227,0.537,0.35,0.145c0.051-0.161,0.119-0.237,0.181-0.275
			c0.067,0.002,0.132,0.003,0.199,0.004l0.827,0.918c0.496,0.786,0.03,1.135,0.819,2.558c-0.032-0.077-0.062-0.153-0.092-0.232
			c0.064,0.119,0.134,0.267,0.208,0.44c-0.044-0.074-0.079-0.139-0.116-0.208c0.076,0.178,0.157,0.342,0.231,0.48
			c0.423,1.03,0.946,2.586,1.144,3.355c0.275,1.075,0.192,1.354,0.247,1.791c0.057,0.438-0.204,0.417-0.426,0.469
			c-1.116,0.272-1.947,0.299-2.378,0.177c-1.163-1.236-0.741-2.142-0.64-2.719c0.149-0.852,0.593-1.261,0.373-1.344
			c-0.222-0.083-0.827,0.414-0.822,1.984c0.007,1.571-0.466,1.982-0.466,1.982v0.001c-0.758,0.398-1.623,1.132-2.171,1.6
			c-0.744,0.633-0.937,1.433-0.744,2.094c0.193,0.661,0.633,0.993,2.148-0.44c0,0,1.841,0.621,2.504-0.333l0,0
			c0.069,0.046,0.135,0.085,0.197,0.112c0.496,0.221,0.462,1.029,0.414,2.81c-0.014,0.505-0.022,0.874-0.042,1.165
			c-0.024,0.092-0.754,2.689-5.232,2.433c-0.104-0.009-0.208-0.015-0.308-0.015c-1.059,0-5.743-1.469-7.672-3.628
			c-1.929-2.159-1.984-2.38-2.039,0.321c-0.054,2.701,0.276,3.251,0.772,4.521c0.495,1.267-0.772,2.479,0.605,1.873
			c1.377-0.606,0.882-0.937,2.976-0.442c2.094,0.497,2.811,0.608,2.866,3.362c0.055,2.756-0.111,3.361,0.331,3.361
			c0.441,0,0.33-1.267,0.33-3.416c0-2.15,1.103-3.599,2.15-2.103c1.047,1.496,3.856,4.362,3.856,8.496
			c0,4.133-1.157,8.595-3.637,8.567c-2.479-0.025-4.463-2.782-5.677-4.269c-1.211-1.487-5.125-5.511-7.274-9.203
			c-2.15-3.693-1.93,0.33-2.204,1.597c-0.275,1.269-1.213,0.717,0.44,2.039c1.653,1.323,2.48,2.26,0.386,2.316
			c-2.094,0.055-7.439,2.535-7.88-1.763c-0.031-0.295-0.063-0.567-0.098-0.829h0.001c0,0-0.003-0.012-0.003-0.014
			c-0.09-0.687-0.196-1.265-0.309-1.743c-0.337-1.972-0.832-5.14-0.887-7.011C68.827,115.324,67.444,112.784,69.745,112.689
			L69.745,112.689z M75.116,89.527c0.13,0.052,0.411,0.4,1.176,1.085c0.691,0.618,1.935,1.113,3.267,1.502
			c1.536,0.45,3.191,0.758,4.255,0.945c1.856,0.323,3.939,0.247,1.856-0.028c-0.144-0.02-0.308-0.04-0.494-0.06
			c-0.007-0.001-0.015-0.002-0.024-0.003c-0.085-0.009-0.172-0.019-0.258-0.029c-0.048-0.006-0.093-0.017-0.141-0.023
			c-2.704-0.344-5.194-1.045-7.513-2.105c-1.932-0.883-1.799-2.189-1.659-2.697c0.079-0.222,0.155-0.438,0.245-0.677
			c0.976-2.585,2.431-4.25,3.979-5.328c0.085-0.05,0.173-0.097,0.261-0.145c5.399-2.994,14.56-1.721,15.02-1.653
			c1.073,0.163,1.981,0.297,2.386,0.347c1.274,0.156,1.942-0.029,1.984,2.051c0.669,0.434,1.031,0.745,1.031,0.745
			c0.558,0.718,0.923,1.311,0.993,1.423c0.008,0.018,0.017,0.035,0.026,0.053c0.911,2.102,1.226,3.922,1.229,5.431
			c0.002,0.01,0.002,0.021,0.002,0.031c0,0.111-0.007,0.215-0.012,0.324c-0.073,0.545-0.556,0.909-3.103,1.853
			c-2.878,1.067-7.145,1.039-7.656,1.03c-0.034,0-0.051,0-0.051,0c7.356,0.927,9.906-1.215,10.541-1.506
			c0.634-0.292,0.81,0.865,0.81,0.865v-0.001c0.057,0.47,0.029,1.033-0.184,1.67c-0.544,1.635-10.191,2.222-22.049,0.247
			c-0.463-0.042-0.878-0.081-1.239-0.117c-0.777-0.119-1.435-0.282-1.998-0.476c-0.01-0.002-0.019-0.003-0.028-0.005l0.003-0.003
			c-2.458-0.856-3.002-2.326-2.965-3.527C74.884,90.377,74.985,89.975,75.116,89.527L75.116,89.527z M100.177,100.774l-0.556,3.632
			c0-0.001,0-0.001,0-0.001C99.625,104.372,99.851,102.378,100.177,100.774L100.177,100.774z M99.438,103.633
			c-0.339-1.374-0.664-2.332-1.134-3.257c0.004,0.003,0.874,0.569,1.413,0.507C99.633,101.941,99.523,103.106,99.438,103.633
			L99.438,103.633z M106.789,114.256c0.172,0.121,0.351,0.253,0.537,0.394c0.162,0.136,0.286,0.232,0.381,0.296
			c0.604,0.483,1.279,1.086,2.04,1.905c1.611,1.736,2.645,3.431,3.719,5.084c1.075,1.654,1.166,3.926,3.869,5.869
			s4.681,2.872,3.507,2.776c-0.009,0-0.012,0-0.02,0c-0.284-0.042-0.584-0.072-0.908-0.089c-2.396-0.124-5.083,0.993-6.778,2.687
			c-1.372,1.37-1.613,2.083-2.223,2.268c-0.156-0.02-0.328-0.005-0.514,0.047c-0.152-0.01-0.274,0.01-0.38,0.042
			c-1.553,0.001-4.043-2.082-3.663-3.681c0.414-1.735,2.811,0.745,1.24-2.479c-1.571-3.224-2.976-3.141-3.142-5.953
			c-0.164-2.811-0.661-3.555-1.653-5.208c-0.992-1.652-3.389-4.547-4.216-5.455c-0.064-0.071-0.117-0.118-0.167-0.157
			c-0.153-0.175-0.356-0.492-0.356-0.972c0-0.772-0.084-0.771,1.433-0.771c0.219,0,0.408-0.005,0.583-0.014
			C100.08,110.847,104.8,112.921,106.789,114.256L106.789,114.256z M110.481,116.763l0.003,0.005
			c-0.005-0.007-0.011-0.014-0.017-0.019L110.481,116.763L110.481,116.763z M115.374,124.371l0.976,1.708
			c-0.314-0.354-0.511-0.77-0.977-1.709L115.374,124.371L115.374,124.371z M154.909,71.455c1.213,1.874,2.7,3.527,4.023,5.18
			c1.323,1.653,3.251,5.18,4.88,7.88c1.627,2.7-0.197,3.306-0.142,5.345c0.054,2.041-0.337,3.308-1.047,1.709
			c-0.058-0.131-0.121-0.251-0.188-0.367c0.001,0,0.004,0.002,0.004,0.002s-0.375-1.462-0.792-2.413
			c-0.022-0.052-0.043-0.103-0.069-0.151c-0.002-0.005-0.005-0.011-0.007-0.017c-0.004-0.009-0.01-0.014-0.015-0.023
			c-0.03-0.054-0.062-0.105-0.095-0.156c-0.044-0.068-0.089-0.13-0.136-0.182c-0.626-0.763-1.689-1.277-1.738-2.589
			c-0.062-1.653-1.206-1.708-2.75-3.141c-1.542-1.433-1.102-1.158,0.33-2.536c1.435-1.377-1.21-2.149-3.029-3.141
			c-1.82-0.992-1.764-2.314-1.875-4.464c-0.109-2.149-0.109-2.425,0.412-3.433c0.521-1.009,1.021-1.527,1.021-0.59
			c0,0.707,0.001,1.04,0.522,1.965c0,0,0.002,0.002,0.002,0.002C154.39,70.636,154.612,70.996,154.909,71.455L154.909,71.455z
			 M164.221,83.14c-0.14-0.154-0.277-0.318-0.409-0.499c-0.047-0.065-0.093-0.135-0.141-0.203
			C163.988,82.842,164.183,83.091,164.221,83.14L164.221,83.14z M157.279,59.027c1.819-0.91,1.488-1.818,2.231-3.141
			c0.312-0.556,0.992-0.759,1.806-0.842c0.053-0.002,0.112-0.007,0.176-0.017c0.16-0.012,0.325-0.021,0.491-0.027
			c0.17,0.052,0.113,0.278,0.588,0.851c0.705,0.846,1.362,0.2,1.693-0.296c0.328-0.494,1.032-0.815,1.038-0.818
			c1.376-0.178,1.312,0.689,2.145,1.976c0.097,0.152,0.183,0.281,0.264,0.402v0l0.002,0.002c0.209,0.313,0.364,0.523,0.492,0.628
			l0.006,0.009c0,0,0.27,0.776,0.725,2.017c0.454,1.24-0.166,1.612-1.199,1.612c-1.035,0-0.497,0.331,0.908,0.62
			c0.976,0.201,1.671,0.563,1.701,1.083c-0.154,0.243-0.319,0.511-0.487,0.784c-0.044-0.101-0.054-0.436-0.554-0.665
			c-0.814-0.372-1.624-0.789-3.305-0.541c-0.835,0.123-1.191,0.312-1.334,0.479c-0.118,0.071-0.244,0.169-0.391,0.318
			c-0.816,0.834,0.417,1.021,1.711,1.049c1.295,0.028,2.232,0.138,1.35-0.028c-0.882-0.165-1.238-0.248-1.844-0.578
			c-0.585-0.32-0.041-0.632-0.006-0.651c0.655-0.211,1.583-0.229,2.374-0.134c0.644,0.077,1.173,0.491,1.482,0.793
			c0.213,0.393-0.822,0.598-0.822,0.598c0.415-0.027,0.608,0.321,0.608,0.321l0.473-0.637c0.018,0.025,0.03,0.039,0.031,0.04
			c-0.905,1.038-2.134,2.708-2.682,3.184c-0.487,0.422-0.225,0.635,0.75-0.336l-0.021,0.02c0,0-0.223,0.646-0.125,1.753
			c-0.308,0.73-1.363,3.002-3.083,4.309c-2.068,1.57-0.366,3.838-2.778,0.67c-2.414-3.169-0.597-3.337-2.919-3.301
			c-0.725-0.208-0.708-0.375,0.506-1.088c0.781-0.459,1.416-0.562,1.84-0.562c0.626,0.153,1.068,0.035,2.274-0.018
			c1.901-0.083-1.487-0.413-2.313-1.901c-0.827-1.488-1.158-0.992-2.15-1.654c-0.992-0.661,0.249-1.57-1.323-2.728
			C156.04,61.424,155.46,59.936,157.279,59.027L157.279,59.027z M168.936,56.96c0.237-0.595,0.744-0.843,1.333-0.954
			c0.009,0.008,0.405,0.299,1.081,0.255c0.423-0.028,0.724-0.227,0.893-0.375c0.473-0.034,0.598,0.418,0.63,0.878
			c-0.095,1.418-0.894,3.322-1.317,4.4c-0.198,0.32-0.409,0.657-0.646,1.03c-0.166-0.067-0.369-0.145-0.661-0.257
			c-1.737-0.662-0.943-0.431-0.817-1.009c0.124-0.579-0.25-1.372-0.62-2.732c-0.083-0.299-0.1-0.544-0.086-0.754
			C168.788,57.312,168.856,57.159,168.936,56.96L168.936,56.96z M178.306,88.844l0.716,2.056
			C178.771,90.242,178.532,89.555,178.306,88.844L178.306,88.844z M173.058,58.033c-0.124,0.396-0.264,0.752-0.413,1.099
			c0.224-0.674,0.412-1.226,0.549-1.627C173.158,57.672,173.117,57.846,173.058,58.033L173.058,58.033z M164.868,123.35
			c1.255,1.214,2.275,3.641,1.31,4.571c-0.277,0.211-0.687-0.434-0.687-0.434c-0.057-0.482-0.146-1.128-0.265-1.693
			c-0.219-1.049-1.268-1.875-1.488-1.984c-0.22-0.111-0.772-0.608,0.22,0.715c0.846,1.13,0.994,1.899,1.061,3.112
			c0.007,0.262-0.033,0.566-0.327,0.665c-0.138,0-0.278,0-0.417-0.001c-0.247-0.096-0.286-0.37-0.286-0.518
			c0.037-0.804-0.154-2.006-0.583-2.648c-0.55-0.828-1.378-1.505-1.378-1.505c-0.356-0.322-0.495-0.038,0.607,1.284
			c0.864,1.037,0.88,2.268,0.809,2.984c-0.034,0.206-0.122,0.33-0.275,0.394c-0.214-0.003-0.418-0.006-0.614-0.01
			c-0.132-0.101-0.193-0.292-0.22-0.477c-0.002-0.13-0.006-0.272-0.018-0.422v-0.001c-0.052-0.676-0.216-1.487-0.547-1.863
			c-0.535-0.605-1.671-1.89-1.671-1.89c-0.551,0.367,0.552,1.449,1.119,2.22c0.309,0.42,0.445,1.124,0.503,1.677
			c0.019,0.177,0.012,0.643-0.441,0.729c-0.166-0.005-0.295-0.008-0.388-0.01c-0.452-0.121-0.407-0.578-0.569-0.792
			c0-0.001-0.001-0.001-0.001-0.001c-0.408-1.603-1.929-2.966-1.937-2.974c-0.644-0.877-2.04-0.967-2.65-1.054
			c-0.365-0.051-0.978-0.077-1.602-0.056c0.003-0.001,0.004-0.001,0.004-0.001s-0.744,0.014,0-1.122
			c0.743-1.134,3.036-2.388,4.574-1.751c0.006,0.003,0.011,0.004,0.018,0.006C160.265,121.299,163.319,121.851,164.868,123.35
			L164.868,123.35z M167.447,124.498h6.2c0,0,17.194,0,21.823,0c4.63,0,3.142,2.562,0,2.562c-2.872,0-23.216,0-26.685,0
			c-0.177-0.077-0.357-0.151-0.512-0.248C166.538,125.737,167.447,124.498,167.447,124.498L167.447,124.498z M180.607,123.191
			v-11.208c2.177,1.619,4.277,3.179,5.11,3.835c1.507,1.186,4.229,3.34,6.109,4.382l0.05,0.036c0,0,0.057,0.03,0.151,0.078
			c0.313,0.165,0.606,0.304,0.853,0.387c0.308,0.103,0.567,0.118,0.805,0.102c0.381,0.011,0.73-0.084,0.947-0.386
			c0.403-0.355,0.572-0.814,0.573-0.817c0.517,0.286,1.066,0.551,1.511,0.819c0.698,0.422,0.842,0.418,0.733,0.271
			c0.504,0.318,0.941,0.664,1.163,1.001c0.022,0.061,0.057,0.134,0.117,0.235c0.004,0.009,0.008,0.017,0.012,0.026
			c0.079,0.271,0.202,0.542,0.34,0.801c0.06,0.301,0.014,0.592-0.415,0.596c-0.057,0-0.095,0.005-0.12,0.012
			c-4.584-0.029-12.604,0-18.29,0.026C180.483,123.272,180.607,123.191,180.607,123.191L180.607,123.191z M194.841,119.762
			c0.009-0.114,0.015-0.23,0.008-0.366C194.851,119.398,194.969,119.542,194.841,119.762L194.841,119.762z M194.323,118.526
			c-0.101-0.107-0.174-0.22-0.208-0.341L194.323,118.526L194.323,118.526z M195.777,115.928c1.138-0.822,1.78-0.566,2.018-0.399
			c1.377,1.175,2.176,1.836,2.675,2.197c0.001,0,0.001,0,0.002,0c0.003,0.002,0.007,0.005,0.009,0.008
			c0.274,0.195,0.459,0.302,0.604,0.352c1.329,0.66,3.953,1.477,5.501,2.032c1.083,0.481,1.83,1.477,2.299,2.554
			c0.035,0.107,0.052,0.173,0.052,0.173s0.015,0.018,0.042,0.046c0.1,0.25,0.184,0.5,0.255,0.75
			c-0.021-0.049-0.035-0.088-0.046-0.119c0.02,0.054,0.05,0.141,0.08,0.247c0.015,0.051,0.03,0.103,0.041,0.154
			c0.031,0.122,0.056,0.26,0.072,0.407c0.009,0.167,0.012,0.644-0.328,0.644c-0.125,0-0.215-0.041-0.289-0.104v-0.001
			c0,0-0.091-0.134-0.188-0.348c-0.024-0.094-0.292-1.182-0.514-1.814c-0.234-0.661-0.355-1.018-0.571-0.977
			c-0.214,0.041-0.242,0.213,0.115,0.971c0.001,0.001,0.001,0.002,0.002,0.004c0.001,0.001,0.002,0.004,0.003,0.006
			c0.057,0.157,0.137,0.333,0.234,0.518c0.035,0.064,0.056,0.115,0.087,0.175c0.16,0.32,0.273,0.597,0.353,0.856l-0.052-0.105
			c0,0,0.066,0.185,0.121,0.456c0.021,0.076,0.042,0.149,0.058,0.221c0.172,0.725,0.339,1.438-0.179,1.34
			c-0.515-0.097-0.497-0.821-0.497-0.837c-0.006-0.013-0.01-0.024-0.018-0.036c-0.001-0.005-0.001-0.011-0.001-0.017
			c-0.087-0.812-0.432-1.598-0.779-2.203c-0.092-0.16-0.183-0.307-0.27-0.439c-0.279-0.424-0.503-0.688-0.503-0.688
			c-0.716-0.608-0.33,0.222-0.33,0.222l0.104,0.231l0.822,1.849c0.251,0.679,0.359,1.171,0.388,1.531
			c0.067,0.833-0.295,0.945-0.304,0.947c-0.286,0.062-0.548-0.067-0.52-0.561c0.005-0.091,0.002-0.187-0.007-0.284
			c0.001-0.001,0.005-0.006,0.005-0.006s-0.004-0.014-0.01-0.036c-0.082-0.279-0.663-2.239-1.075-2.832
			c-0.442-0.639-1.021-0.726-0.497,0.173c0.25,0.43,0.528,1.004,0.715,1.572c0.001,0.003,0.003,0.006,0.003,0.009
			c0.104,0.313,0.177,0.623,0.203,0.905c0.001,0.011,0.002,0.019,0.003,0.031c0.007,0.094,0.002,0.18-0.002,0.267
			c-0.066,0.348-0.438,0.128-0.594,0.009c-0.006-0.005-0.01-0.011-0.018-0.017c-0.183-0.159-0.866-1.554-1.165-2.208
			c-0.116-0.253-0.386-0.355-0.675-0.386l-9.104-5.206C193.957,117.54,194.638,116.752,195.777,115.928L195.777,115.928z
			 M194.314,129.542c-0.588,0.01-0.976,0.035-1.232,0.071c-5.38-0.034-10.584-0.18-11.917-0.816c-1.732-0.827,0.666-0.58,5.874-0.58
			c4.376,0,11.027,0.584,14.12,0.868C199.262,129.269,196.401,129.511,194.314,129.542L194.314,129.542z M152.318,123.643
			c-0.498,0.215-1.18-0.4-1.81-1.1c-0.042-0.058-0.095-0.119-0.161-0.184c-1.022-1.008,2.303-3.483,4.286-4.235
			c1.984-0.751,2.218,0,2.218,0s0-0.001-0.001-0.002c0.184,0.421,0.404,0.832,0.673,1.228c-0.701,0.103-1.83,0.39-2.725,1.179
			c-1.405,1.241-2.854,3.023-1.757,2.931c0.003,0,0.004-0.001,0.007-0.001C152.761,123.503,152.508,123.563,152.318,123.643
			L152.318,123.643z M149.563,121.439c-0.051-0.057-0.122-0.095-0.211-0.12c-1.653-1.516-7.091-6.557-10.013-9.964
			c-3.471-4.05-2.396-5.453-4.049-6.942c-1.653-1.49-2.728-0.995-1.653-2.73c1.074-1.735,0.827,1.158,1.736,0.992
			c0.91-0.165,0.165-1.557,0.413-5.986c0.247-4.429,1.57-0.709,2.231-7.074c0.091-0.883,0.171-1.712,0.242-2.489
			c0-0.003,0-0.004,0.001-0.006c1.209-6.265-0.939-4.647,1.988-9.253c0.006-0.01,0.012-0.021,0.019-0.031
			c0.091-0.143,0.186-0.292,0.288-0.447c0.002-0.002,0.004-0.005,0.006-0.007c-1.02,1.671,1.102-1.175,1.562-1.737
			c0.497-0.606,1.758-2.872,6.002-4.979c4.249-2.107,3.147-1.688,3.202,2.224c0.055,3.913,1.321,4.243,3.415,5.456
			c2.095,1.212,1.82,0.882,0.717,2.033c-1.102,1.151-1.378,0.999,1.103,2.872c1.159,0.875,1.712,1.605,2.061,2.316
			c0.064,0.229,0.047,0.632-0.436,1.238c-0.805,1.013-1.404,1.715-1.693,2.005c-0.291,0.289-0.723,1.156,0.248,0.206
			c0.972-0.951,1.426-1.55,1.736-1.859c0.311-0.311,0.578-0.187,0.639,0.165c0.063,0.352-0.299,1.043-0.93,1.674
			c-0.629,0.631-0.463,0.465-0.805,0.806c-0.341,0.342-0.279,0.797,0.331,0.187c0.608-0.609,1.004-1.006,1.404-1.405
			c0.4-0.399,0.497-0.167,0.559-0.021c0.061,0.146,0.425,0.327-0.386,1.137c-0.808,0.809-0.426,0.427-0.808,0.809
			c-0.384,0.383-0.48,0.844,0.191,0.172c0.673-0.671,1.158-0.909,1.374-1.125c0.217-0.217,0.779,0.544,1.102,1.409
			c0.005,0.012,0.01,0.021,0.014,0.032c0.009,0.028,0.017,0.052,0.027,0.082c0.606,1.542-2.093,3.692-4.023,6.501
			c-1.927,2.809-1.157,2.923,0,1.379s2.592-3.086,4.19-4.85c1.597-1.763,1.962-0.111,1.962-0.11
			c-0.012,2.173-0.065,0.293-2.609,4.422c-2.651,4.304,0.165,1.365,0.62,0.765c0.456-0.599,1.405-2.128,1.619-1.267
			c0.214,0.863-0.807,2.533-0.807,2.533c-0.429,0.706-0.938,1.558-1.556,2.475c-1.724,2.558-4.305,6.634-5.618,8.72
			c-0.339,0.262-0.97-0.195-3.144-3.098c-3.225-4.298-2.233-6.283-2.315-11.904c-0.083-5.621-0.661-7.191-0.744-10.912
			c-0.083-3.719-0.661,0.414-0.661,4.298c0,3.886-0.578,3.307-0.91,9.672c-0.329,6.365,2.068,7.688,3.639,9.837
			c1.569,2.15,3.984,4.349,3.984,4.349c0.693,0.918,1.068,1.403,1.388,2.429c0.117,0.368,0.231,0.728,0.359,1.081
			c-0.574-0.733-2.007-0.71-4.738,1.566c-1.222,1.018-1.864,1.874-2.191,2.561C149.61,121.493,149.586,121.465,149.563,121.439
			L149.563,121.439z M122.643,132.104c1.611,1.441-0.125,3.057,1.57,2.231c-0.368,0.264-0.478,0.83-0.356,1.444
			c-0.001,0.001-0.005,0.001-0.005,0.001c0,0.003,0.005,0.019,0.01,0.034c0.014,0.065,0.037,0.133,0.057,0.2
			c0.052,0.217,0.068,0.473-0.256,0.235c-0.499-0.367-2.136-1.005-4.616-1.088c-2.48-0.083-4.382,0.538-5.745,1.365
			c-0.924,0.56-1.287,0.22-1.425-0.058c-0.023-0.087-0.05-0.167-0.081-0.246c0-0.001-0.001-0.004-0.001-0.004v0.002
			c-0.001,0-0.001-0.002-0.001-0.002h0.001c0,0,0.308-1.099,1.839-2.503C115.161,132.31,120.082,129.813,122.643,132.104
			L122.643,132.104z M121.474,130.14c-0.001-0.001-0.002-0.002-0.003-0.003l0.002,0.001L121.474,130.14L121.474,130.14z
			 M106.688,150.702c-0.909-1.404-1.157-1.413-0.661-2.896c0.496-1.483-0.909-2.806,0.579-2.477
			c1.487,0.332,7.522,3.239,9.919,3.975c2.397,0.738,3.886-0.427,2.562-1.498c-1.322-1.07-3.554-2.248-0.744-2.527
			c2.811-0.278,3.472-1.188,3.968-1.933c0.497-0.744-0.164-2.066,0.826-2.314c0.993-0.248,0.91-1.571,0-1.488
			c-0.909,0.083-6.364,1.818-8.844,0.992c-2.48-0.827-3.803,1.48-2.812-0.996c0.001-0.001,0.001-0.002,0.001-0.003
			c0.254-0.607,1.765-3.675,6.571-3.713c3.732-0.03,5.935,1.062,6.923,1.721c0.042,0.032,0.073,0.069,0.116,0.097
			c1.322,0.882,0.881,1.102,0.661,3.416c-0.219,2.314,0.661,1.434,1.543,2.867c0.88,1.432,0.882,2.314,1.856,4.52
			c0.974,2.203,0.237,1.212,0.018,5.07c-0.162,2.829,0.803,3.231,1.46,4.724c1.457,4.72-1.741,4.172-9.444,1.788
			c-7.705-2.384-13.788-6.225-13.788-6.225l0,0C107.535,152.782,107.256,151.582,106.688,150.702L106.688,150.702z M144.167,123.452
			c-0.006,0.004-0.01,0.007-0.017,0.01c-1.167,0.708-2.259,1.462-2.964,2.055c-2.095,1.764-3.086,1.322-7.165,0.22
			c-4.078-1.102-4.518-2.645-5.51-4.187c-0.252-0.391-0.546-0.747-0.844-1.018c-0.27-0.876-0.26-2.496,0.844-5.472
			c0.092-0.248,0.18-0.477,0.268-0.709l1.283-3.15c1.281-2.862,2.12-3.758,2.913-4.062c1.075-0.413,2.976-0.827,2.479,1.571
			c-0.495,2.396-0.826,2.396-1.901,4.712c-1.074,2.315-2.231,3.554-1.074,2.315c1.158-1.241,1.485-2.729,3.056-2.77
			c1.574-0.042,0.996,0.827,2.069,1.22c1.074,0.392,3.969-0.546,3.472,0.874c-0.496,1.419-1.158,3.238-0.994,4.065
			c0.167,0.826,0.746,1.158,1.656-0.827c0.907-1.985,2.132,0.507,3.504,1.7C146.616,121.191,146.598,121.822,144.167,123.452
			L144.167,123.452z M202.663,245.19c0,0-38.77-18.766-47.782-23.56c-3.2-1.705-5.928-3.405-8.046-4.59
			c-0.001-0.004-7.413-6.744,2.509-2.026c3.254,1.548,5.511,2.535,5.511,2.535s-5.16-6.851-2.36-18.084
			c0.021-0.085,0.042-0.156,0.064-0.238c-0.294,3.592,0.504,8.469,2.296,14.356c4.187,13.777,9.038,3.857,9.368-6.944
			c0.271-8.873-2.8-12.757-3.907-13.863c6.714,4.465,8.282,15.768,8.282,15.768l0,0c0.322,10.795-2.022,12.52-4.292,12.755
			c-2.397,0.248-0.578,0.332,0.33,1.322c0.911,0.993,2.562,1.075,4.878,1.984c0,0,5.242,3.639,8.573,4.795
			c3.331,1.157,4.735,3.396,1.511-1.322c-1.698-2.485-2.257-6.364-2.504-11.572c-0.249-5.208,2.208-10.124,3.415-10.914
			c1.205-0.787,0.246,0.876-0.042,1.514c0,0-4.009,6.589,0.125,18.988c4.133,12.4,11.49,0.773,11.49-4.159
			c0-4.935,0-8.422-1.571-12.134c-1.57-3.712-0.992-4.159,0.661-2.695c1.654,1.464,2.359,0.618,3.371-0.034
			c1.011-0.652,0.845-1.148-0.726-2.884c-1.569-1.735-5.223-4.975-9.506-6.425c-1.289-0.562-3.426-1.154-6.282-2.09
			c-2.712-0.889-7.732-2.563-11.803-3.924l-7.815-2.917h-0.001c-4.096-1.688-13.32-5.486-14.687-5.999
			c-1.3-0.488-6.319-2.553-8.862-3.602v-1.681c0,0,7.231,2.738,9.261,3.356c2.03,0.619,1.643-5.4,1.643-5.4l-0.002-0.003
			c-0.029-1.208-0.134-2.808-0.277-4.905c-0.552-8.047-2.424-15.211-2.755-20.171c-0.33-4.96-0.441-6.283,0.551-6.062
			c0.992,0.22,3.306,4.079,4.298,6.358c0.991,2.279,0.773,2.68,1.984,0s3.527-2.721,5.179-1.178
			c1.655,1.543,2.425,2.204,2.316-2.095c-0.113-4.298-0.773-14.879-0.773-14.879c0.057-1.047-3.36-0.937-6.502-1.378
			c-3.141-0.441-3.406-0.634-4.861-0.896c-6.986-1.254-6.435-1.859,0.066-0.757c2.431,0.412,9.15,1.046,11.629,0.992
			c0.206-0.005,0.385-0.025,0.549-0.052c0.004,0,0.003,0.002,0.007,0.002c0.558-0.049,25.625-0.28,25.355-0.28h11.306h4.032h34.555
			h7.771l-12.567-1.321l-12.811-1.532c0,0,0.165-1.529-1.323-2.107c-0.933-0.364-2.254-0.564-3.111-0.662
			c-0.225-0.128-0.557-0.535-0.917-1.706c-0.03-0.181-0.104-0.449-0.251-0.849c-0.2-0.545-0.448-0.974-0.735-1.331
			c-0.612-0.803-1.476-1.382-2.615-1.616c-0.002-0.001-0.004-0.001-0.005-0.001c-0.163-0.059-0.327-0.116-0.499-0.173
			c-1.807-0.606-3.934-1.377-3.934-1.377s-0.176-0.049-0.393-0.093c-1.05-0.648-2.152-1.595-3.495-3.081
			c-0.151-0.166-0.298-0.324-0.446-0.477c-2.924-3.042-5.221-3.609-1.208,0c0.032,0.187,0.426,0.568,0,0.495
			c-0.424-0.072-4.008,0.828-4.008,3.308c0,0-11.325-8.434-14.469-11.285c-3.146-2.85-2.761-2.963-2.601-3.967
			c0.908-0.91-0.083-1.158-1.489-2.15c-1.406-0.992-2.231-2.976-2.562-6.365c-0.33-3.39-1.489-4.795-1.736-1.158
			c-0.247,3.637-0.33,1.075-1.366,1.901c-1.037,0.827,0.788,0.248,0.705,2.397c-0.083,2.149,1.653,3.059,3.029,5.374
			c0.828,1.388,0.881,2.433,1.078,5.125c0.021,0.427,0.647,12.954,2.708,15.863c-0.919,0.005-1.458,0.008-1.458,0.008
			s-0.012,0.008-0.03,0.02c-0.096-0.681-0.477-1.486-1.689-1.755c-2.231-0.496-1.57,0.248-3.473-3.059
			c-1.901-3.308-3.803-14.797-4.271-18.352c-0.205-1.559-0.475-1.924-0.915-1.544c0.23-1.156,0.449-2.67,0.475-3.416
			c0.004-0.132,0.001-0.29-0.007-0.458c-0.006-0.258-0.014-0.988,0.009-2.792c0.029-2.445,1.403-3.362,2.396-5.292
			c0.895-1.741-0.634-2.139-1.974-3.619c-0.001-0.024-0.246-6.26,1.651-9.643c1.212-2.161,1.596-3.554,1.715-4.282
			c0.159,1.11,0.634,2.593,1.859,4.318c2.701,3.803,2.258,2.7,5.399,8.542c3.141,5.841,2.535,8.818,5.511,13.226
			c2.976,4.408,4.077,4.133,2.749,2.866c-1.022-0.975-2.714-3.677-4.094-7.275L176.7,54.711l-0.047,0.02
			c0.975-0.516,1.937-1.192,2.367-2.152c0.336-0.746,0.19-1.11-0.143-1.298c1.294,0.167,3.123,0.306,5.043,0.306
			c4.851,0,18.959,0,18.959,0c1.984,0,2.977-0.882,0-0.882s-13.999,0-17.305,0c-3.307,0-2.865-2.646-2.865-7.607
			s-1.092-1.1-1.092,3.971s0.21,3.637-3.317,3.637c-1.607,0-1.579,0.184-0.622,0.383c-0.138,0.001-0.272,0.003-0.393,0.003
			c-0.911,0-1.075-1.24-1.075-1.24c-0.059-0.19-0.127-0.368-0.2-0.539c-0.361-0.968-1.099-2.945-1.279-3.388
			c-0.002-0.002-0.002-0.002-0.003-0.005c-0.606-1.564-1.69-3.603-3.567-5.079c0,0,3.644,5.153,3.257,8.074
			c-0.256,1.942-0.541,2.474-0.867,2.637c-1.899,0.414-5.969,0.599-8.75-0.377c-3.058-1.075-4.463-1.819-7.605-1.323
			c-0.191,0.03-0.383,0.057-0.571,0.083c-3.037,0-2.156-1.158-0.585-4.862c0.667-1.574,1.783-2.734,2.938-3.553
			c1.191-0.758,2.526-1.306,3.96-1.588c0.59-0.004,1.836-0.109,2.46-0.221c0.758,0.016,1.531,0.103,2.317,0.273
			c0,0-4.124-6.114-7.126-8.763c-3.002-2.648,0.391-2.781,1.343-2.781c0.952,0,1.614-0.927,1.878-1.986
			c0.265-1.06,0.397-2.728,1.722-2.49s-1.921-1.298-2.748,0c-0.828,1.298,0.58,2.754-0.852,3.284c-1.432,0.53-1.432,0-2.559,0.794
			c-1.125,0.795-1.012,1.192-3.584-0.794c-2.573-1.986-10.651-7.151-14.889-8.078c-4.237-0.927-0.927-3.443-0.794-5.165
			c0.132-1.721-1.059,2.119-2.251,3.178c-1.192,1.06-3.822,0.133-7.209-0.53c-2.8-0.547-8.083,0.465-11.249,0.907
			c-0.637-0.843-0.696-1.706-0.696-2.356c0-0.992-0.552-1.377-0.607-0.385c-0.054,0.992,0.056,1.928-0.827,1.984
			c-0.88,0.055-9.313,0.784-12.013,1.059c-2.7,0.276-3.307,2.008-3.307,0.355s-1.047-3.472-0.937-2.646
			c0.11,0.827-0.166,2.591-0.716,2.591c-0.551,0-0.551-1.377-0.827-1.047s0.827,3.747-0.551,4.132
			c-1.378,0.386-5.291,0.718-9.479,2.812c-0.781,0.391-1.391,0.691-1.877,0.911c-0.667,0.107-1.269,0.248-1.809,0.405
			c-0.397-0.172-0.627-0.685-1.273-1.427c-1.489-1.708-3.251-8.652-3.693-9.81c-0.441-1.157-0.773-1.764-1.323-1.268
			c-0.551,0.496,0.055,1.874,2.316,8.599c1.125,3.348,1.102,4.755,0.448,5.603l-1.725,1.21c-0.505,0.278-1.066,0.6-1.646,1.066
			c-0.243,0.195-0.49,0.399-0.737,0.606l-6.145,4.311c-0.421,0.114-0.813,0.141-1.165,0.043c-1.984-0.551-5.566-5.787-7.439-7.936
			c-1.875-2.149-1.434,0.22-0.882,1.433c0.551,1.213,3.858,4.188,6.228,7.22c2.369,3.031-0.166,2.976-2.536,6.062
			c-2.37,3.086-1.763,4.244-2.976,7.165c-1.212,2.921-1.819,1.377-3.581,0.441c-1.765-0.937-5.898-3.252-9.646-4.85
			c-3.748-1.599-6.833-3.251-5.621-1.819c1.212,1.433-0.276,1.212,1.763,2.205s13.722,6.118,14.99,7.11
			c1.267,0.992,0.826,3.802-0.056,4.905c-0.492,0.616-0.865,1.25-1.242,2.526c-0.222,0.455-0.37,1.119-0.465,1.897
			c-0.155,0.733-0.317,1.593-0.497,2.631c-0.826,4.795-1.323,3.913-3.307,3.803c-1.983-0.11-11.187-0.606-11.187-0.606
			s-9.645-0.441-12.015-0.441c-2.37,0-0.056,0.772-1.708,1.103c-1.654,0.331,0.385,1.599,1.157,5.622
			c0.771,4.023,0.993,1.708,1.212-0.221c0.22-1.928,0.386-4.519,1.158-4.794c0.771-0.276,4.353,0,10.14,0.275
			c5.787,0.276,10.802,0.608,13.117,1.71s1.102,4.85,1.212,8.486c0.11,3.638-0.993,3.417-2.646,3.417
			c-1.654,0-9.368-0.331-15.431-0.331c-6.062,0-6.282-0.221-9.479,0.551c-3.197,0.772-4.078,0.661-2.094,0.661
			c1.985,0,1.654,0,4.629,0.331c2.976,0.33,10.14,0.881,14.99,0.551c4.85-0.331,8.487-0.11,9.479,1.102
			c0.992,1.211-0.331,4.959-0.616,7.826c-0.284,2.866,0.285,6.28,0.174,9.697c-0.037,1.144-0.085,2.296-0.124,3.274l-0.096,2.238
			c0,0,0.33,2.81-2.728,2.727c-3.059-0.083-4.05,0.004-7.439,0.002c-3.389-0.002-5.125,0.416-7.853,0.414
			c-2.728-0.002-0.909,0.99,0,1.651s3.719,0.827,8.927,0.578c0.992-0.046,1.87-0.112,2.687-0.178
			c0.022-0.001,0.04-0.001,0.063-0.003c2.75-0.182,2.265,3.043,1.702,5.966c-0.001,0.005-0.002,0.008-0.003,0.014
			c-0.194,0.926-0.426,1.734-1.06,2.136c-0.198,0.127-0.37,0.257-0.512,0.383c-0.526,0.287-1.273,0.712-2.395,1.596
			c-3.355,2.644-6.533,6.185-8.504,12.188c-1.97,6.003-3.855,18.01-4.685,23.513c-0.08,0.537-0.229,0.982-0.407,1.384
			c-1.941,3.326-5.609,2.364-9.978,1.316c-5.51-1.323-4.569-0.876-2.093,0.221c0,0,7.054,3.086,9.589,4.408
			c0.102,0.053,0.195,0.098,0.291,0.145c0.12-0.021,0.181-0.032,0.181-0.032l-2.097,12.449c0,0,1.554,10.233-1.573,11.757
			c-1.854,0.902-2.933,1.129-4.96,1.151c0.327,0.062,0.585,0.062,0.585,0.062c1.651,0,2.443,0.086,2.44,0.166
			c2.756-0.213,4.028-0.433,4.028-0.433l-2.097,12.447c0,0,1.554,4.798-1.573,6.32c-3.128,1.523-4.024,1.126-11.042,1.06
			c-0.772-0.008-1.408-0.046-1.96-0.109c0.438,0.289,1.721,0.191,4.331,0.191c4.9,0,4.635,0.795-0.27,0.795
			c-4.904,0-6.02,1.953-6.02,1.953l0,0c-6.004,12.115-14.783,23.625-1.419,29.52c13.5,5.956,12.858,4.863,12.846,4.847
			c1.246,0.42,2.839,0.564,4.507,0.612c9.527,0.686,2.635,12.916,11.46,14.682c3.162,0.632,6.156,1.28,8.709,1.854
			c0.119,0.058,0.316,0.105,0.557,0.126c4.271,0.965,7.154,1.688,7.154,1.688l-0.155-0.374c1.186,0.504,2.696,0.584,4.207,0.171
			c0.019-0.004,0.034-0.006,0.053-0.011c5.025-0.977,16.716-3.322,16.557-4.138c0.414,1.496,1.682,3.224,6.529,5.823
			c10.232,5.488,20.634,4.992,20.65,4.991c1.245,0.122,2.79,0.078,4.097,0.078c2.83,0,1.027-1.545-4.924-7.717
			c-5.952-6.173-10.36-22.929-11.587-27.446c-0.807-2.973-0.552-3.75-0.283-3.934c2.077-0.263,7.868-0.878,11.328-1.813
			c4.078-1.102,3.096-3.074,3.648-6.821c0.55-3.748,0.77-7.784-0.882-15.631c-1.653-7.846-8.219-40.595-9.542-46.863
			c-0.097-0.464-0.42-1.624-0.526-2.064c0.001-0.001-0.383-2.896-0.383-2.896s0.595-1.984,2.496-1.984
			c1.901,0,0.992,3.718,3.803,5.828c2.811,2.108,3.142,0.207,3.389-0.95c0.213-0.994,0.306-3.991,1.007-5.45
			c0.004,0.007,1.466,1.9,7.959,5.373c1.032,0.552,2.076,1.03,3.108,1.454c-0.008-0.002-0.022-0.006-0.022-0.006
			s7.11,3.506,12.225,6.414c3.681,2.093,4.006,6.942,3.898,9.5c-0.062-0.026-0.096-0.041-0.096-0.041s-0.039,0.635-0.052,1.682
			l-0.001,0.004h0.001c-0.039,2.903,0.114,8.999,1.814,13.775c2.314,6.504,2.646,11.397,4.298,16.225
			c1.654,4.828,3.196,10.022,3.196,10.022l0.002-0.001c1.725,6.45,4.546,13.721,5.234,15.942c0.337,1.084,1.016,2.147,2.476,2.884
			c-0.044,0.015-0.089,0.029-0.134,0.044c-0.724,0.067-1.654,0.145-2.836,0.215c-3.11,0.186-3.141,1.653-6.366,1.653
			c-3.224,0-11.738,0-11.738,0c-0.041,0.633-0.067,1.2-0.077,1.713c-0.003-0.782-0.006-1.696-0.006-2.953
			c0-1.016-0.054-1.875-0.137-2.639c0,0,0.155-7.364,0.155-10.753s-0.596-6.057-0.596-0.744c0,5.311-0.042,7.967-0.682,5.764
			c-0.061-0.406-0.111-0.833-0.145-1.299c-0.249-3.473,0-7.441,0-13.558c0-6.118,0.083-5.044,0.083-7.274
			c0-2.232-0.993-3.722-0.993,2.313s-0.68,13.062-0.68,14.963s-4.239,3.311-4.239-2.229c0-0.002,0-0.004,0-0.006
			c0.273-3.723-0.069-8.898-0.263-14.059c-0.329-8.837,0.619-14.46,0.696-10.602c0.076,3.857,0.029,2.976,1.43,2.976
			c1.401,0,0.85-0.049,0.85-4.213c0-4.163-0.44-3.942,0.771-6.367c1.213-2.426,0.772-3.913,0-2.453c-0.771,1.46-2.095,0.524-2.095,0
			s0.111-1.956-2.645-1.956c-2.755,0-2.865-2.536-3.417-4.85c-0.551-2.315-1.323-6.173-1.873-8.377
			c-0.552-2.204-0.881-2.426-0.881-3.748c0-1.323-0.961-2.204-1.032,0c-0.07,2.205,0.843,7.495,0,6.944
			c-0.842-0.552-2.605-5.732-4.149-5.182c-1.543,0.552-3.196,2.755-4.409,1.213c-1.212-1.543-2.535-3.526-2.977-6.393
			c-0.441-2.866-2.865-9.589-1.211,0c1.653,9.588,4.298,15.244,6.723,30.218c2.425,14.973,3.528,14.862,3.637,20.374
			c0.075,3.79-0.734,8.219-0.711,10.844c0,0,0,5.305,0,6.627c0,1.323,0.848,2.451,0.848-0.594c0-3.044,0-2.713,2.977-2.713
			c2.975,0,11.04,0,11.967,0c0.928,0,1.673,0.413,1.673,5.125c0,4.713,0.33,14.136,0,16.946c-0.332,2.811-1.158,7.357-4.134,12.317
			s-5.787,9.837-2.728,6.53c0.554-0.6,1.065-1.238,1.552-1.935c0.907,0.604,5.392-1.438,13.899-2.547
			c12.183-1.59,24.872-8.938,24.872-8.938c-0.007,0.002-0.014,0.004-0.021,0.007c3.027-1.644,4.975-3.364,5.819-4.192
			c0.002,0,0.004-0.002,0.005-0.003c0.217-0.158,0.375-0.327,0.489-0.504l0.002-0.002l0,0c0.836-1.302-0.928-3.052-2.311-4.288
			c-1.569-1.406-1.735-1.902-4.547-1.737c-2.81,0.166-2.975,0.745-8.183,0c-0.488-0.068-0.922-0.143-1.331-0.22l0.004,0.001
			c0,0-0.618-0.129-1.525-0.382c0.153,0.063,0.301,0.113,0.445,0.157c-0.645-0.156-1.174-0.326-1.63-0.513
			c0.425,0.137,0.829,0.257,1.186,0.355c-1.167-0.469-2.471-1.5-1.785-3.719c0.37-0.957,2.019-3.304,9.234-4.431
			c0.844-0.048,1.757-0.129,2.758-0.26c2.258-0.293,5.303-0.404,8.722-0.343c0.549,0.01,1.103,0.024,1.681,0.044
			c9.856,0.329,22.14,2.009,28.037,4.929C206.713,248.579,207.943,247.751,202.663,245.19L202.663,245.19z"/>
		<path clip-path="url(#SVGID_2_)" fill="#2E2D2C" d="M212.964,204.56c-1.148,0.15-3.129,0.35-5.167,0.308
			c-0.179-0.026-2.904-0.458-2.904-2.856c0-2.48,0.389-3.196,1.38-3.196c1.23,0,5.965,0.11,6.943,0.11
			c0.661,0,1.048,2.038,1.048,3.912C214.265,204.012,213.521,204.42,212.964,204.56L212.964,204.56z M249.755,239.708
			c-4.414-1.753-16.934-6.118-27.609-10.006c10.302,3.851,15.069,2,15.069,2l-0.003-0.003c6.222-1.466,8.935-12.229,8.52-16.517
			c-0.497-5.126-0.165-5.291-4.299-11.409c-2.635-3.899-3.924-7.39-4.513-9.412c-0.001-0.076-0.278-16.271,1.123-40.186
			c0,0,0-1.144,0-4.872c0-3.726-1.146-8.521-1.146,6.854c0,15.376-1.25,18.849-1.58,28.271c-0.331,9.425-4.464-2.313-4.464-5.455
			c0-2.467-0.027,5.281-0.038,11.197c-0.187,0.489-0.293,0.975-0.293,1.368c0,0.799,0.12,1.797,0.289,2.826
			c0,4.785-0.528,6.311-2.368,6.485c-0.027,0.001-0.052,0.003-0.078,0.004c-0.1,0.008-0.202,0.014-0.31,0.014
			c-1.358,0.054-2.965,0.058-4.641,0.13c-3.382,0.146-6.313,0.149-7.718,0.332v-0.001c0,0-0.001,0.001-0.002,0.001
			c-0.026,0.004-0.054,0.007-0.079,0.01c-0.162-0.005-0.523-0.168-0.523-1.534c0-1.765-1.983-2.299-2.921-2.299
			c-0.936,0-7.109,0.038-9.367-0.458c-2.26-0.495-2.646-0.407-0.331,0.458c2.314,0.864,1.762,2.409,1.762,4.448
			c0,2.037-0.558,2.342-1.767,1.949c-4.243-1.39-13.276-4.265-13.276-4.265s7.688,4.133,9.424,9.755
			c0.819,2.655,1.237,6.219,1.447,8.883c-0.612,3.672-3.701,18.378-13.461,15.479c0,0,19.289,9.836,26.893,13.569
			c7.607,3.735,4.63,1.419,0.662-0.674c-3.969-2.095-17.966-7.826-6.723-8.377c11.243-0.553,24.138-2.095,27.775-1.875
			c3.637,0.221,7.715,1.875,13.887,4.188C255.267,242.904,257.801,242.904,249.755,239.708L249.755,239.708z"/>
	</g>
	<path fill="#2E2D2C" d="M168.274,186.084c0,0,17.276,5.622,22.898,7.274c5.622,1.653,5.099,1.983,4.532-7.274
		c-0.563-9.259-0.582-9.92-0.738,0s-16.881,1.983-21.167,0.579C169.514,185.257,155.309,181.907,168.274,186.084L168.274,186.084z"
		/>
	<path fill="#2E2D2C" d="M200.911,172.968c0-21.604-3.488-30.53-2.398-22.596c0,0,1.491,32.074,1.457,38.688
		c-0.034,6.613,3.302,5.786,9.57,6.282c6.267,0.497,12.312,0,6.893,0C211.012,195.342,200.911,194.571,200.911,172.968
		L200.911,172.968z"/>
	<g>
		<defs>
			<rect id="SVGID_3_" x="0" y="-0.001" width="254.823" height="274.048"/>
		</defs>
		<clipPath id="SVGID_4_">
			<use xlink:href="#SVGID_3_"  overflow="visible"/>
		</clipPath>
		<path clip-path="url(#SVGID_4_)" fill="#2E2D2C" d="M148.352,155.024c0,0,1.404,17.006,1.653,21.635
			c0.248,4.63,0.329,1.653,0-4.711c-0.332-6.366-1.241-16.924-1.241-16.924S147.988,150.585,148.352,155.024L148.352,155.024z"/>
		<path clip-path="url(#SVGID_4_)" fill="#2E2D2C" d="M26.458,112.291c-3.527,0-3.316,1.434-3.316-3.637
			c0-5.071-1.092-8.933-1.092-3.971c0,4.962,0.441,7.607-2.865,7.607c-3.307,0-14.33,0-17.306,0c-2.977,0-1.984,0.883,0,0.883
			c0,0,14.108,0,18.958,0C25.687,113.173,29.985,112.291,26.458,112.291L26.458,112.291z"/>
	</g>
	<path fill="#2E2D2C" d="M19.185,82.352c3.306,0,3.306,2.054,3.306,3.997c0,1.942,0,2.025,0,5.915c0,3.89,1.102,3.715,1.102,0.307
		c0-3.408,0-5.298,0-8.053c0-2.756,1.875-2.095,1.875-2.095c3.416,0,3.527-1.433,0.991-1.433c-2.535,0-2.204,0-7.273,0
		C14.114,80.988,15.877,82.352,19.185,82.352L19.185,82.352z"/>
	<path fill="#2E2D2C" d="M23.151,51.89c4.299,0,5.401-0.11,8.156-0.11c2.756,0,3.196-0.331,2.866,1.874
		c-0.331,2.205-0.11,5.07,0.22,7.605c0.331,2.535,1.434,1.213,0.882-4.519c0,0-0.441-1.984,0.441-5.621
		c0.881-3.637,1.983-10.361,0.55-6.503c-1.432,3.858,0.331,6.393-5.07,6.393c-5.4,0-5.511,0-8.046,0
		C20.617,51.008,18.853,51.89,23.151,51.89L23.151,51.89z"/>
	<path fill="#2E2D2C" d="M32.412,24.225c0,0,7.994,0,13.144,0c1.912,0,3.395-0.182,4.136-0.411c-4.163,6.103-4.37,8.094-3.614,6.473
		c0.771-1.653,4.52-6.172,6.944-9.258c2.424-3.087,5.399,1.433,5.399,1.433c2.13,2.088,0.442-0.551-1.211-2.865
		c-1.653-2.314,0.221-2.976,2.425-5.181c2.205-2.204,1.212-3.086-0.552-1.212c-1.749,1.859-4.692,3.831-9.042,10.102
		c-0.458-0.225-1.849-0.403-4.485-0.403c-7.194,0-8.736,0-13.144,0C28.001,22.902,25.136,24.225,32.412,24.225L32.412,24.225z"/>
	<path fill="#2E2D2C" d="M31.088,115.506c0-2.407-0.883-1.011-0.883,0.7c0,1.71,0,1.156,0,4.021c0,2.866-0.55,2.755-2.455,2.755
		c-1.903,0-7.905,0-7.905,0c-6.613,0,4.188,1.111,6.944,1.111c2.755,0,2.755,1.535,2.755,4.72c0,3.183-0.661,4.733-3.196,4.733
		c-2.535,0-1.433,0.42,1.865,0.42s2.874-2.443,2.874-2.443s0-3.36,0-6.999C31.088,120.888,31.088,117.912,31.088,115.506
		L31.088,115.506z"/>
	<path fill="#2E2D2C" d="M95.118,84.486c0.416,0.076,0.784,0.13,1.125,0.172c2.419,0.297,3.041-0.22,3.178-0.904
		c0.032-0.163,0.039-0.333,0.036-0.506c0,0-0.001,0.017-0.008,0.042c-0.05,0.204-0.516,1.071-4.807,0.47
		c-4.836-0.678-12.524-2.018-12.524-2.018S91.045,83.74,95.118,84.486L95.118,84.486L95.118,84.486z"/>
	<path fill="#2E2D2C" d="M89.394,84.405c7.966,3.531,9.949,1.753,10.435,0.807c-0.217,0.25-0.711,0.546-1.819,0.736
		C95.767,86.335,89.394,84.405,89.394,84.405L89.394,84.405z"/>
	<path fill="#2E2D2C" d="M99.983,84.748c0,0-0.019,0.2-0.155,0.465C100.05,84.957,99.983,84.748,99.983,84.748L99.983,84.748z"/>
	<g>
		<defs>
			<rect id="SVGID_5_" x="0" y="-0.001" width="254.823" height="274.048"/>
		</defs>
		<clipPath id="SVGID_6_">
			<use xlink:href="#SVGID_5_"  overflow="visible"/>
		</clipPath>
		<path clip-path="url(#SVGID_6_)" fill="#2E2D2C" d="M76.609,86.83c-0.896,2.498,0.631,3.116,0.631,3.116
			c0.385,0.277,1.739,0.962,1.739,0.962c-3.402-3.197,1.225-8.322,1.225-8.322C79.335,83.633,77.506,84.334,76.609,86.83
			L76.609,86.83z"/>
		<path clip-path="url(#SVGID_6_)" fill="#2E2D2C" d="M118.261,5.073c0.066,2.319-0.001,5.131,1.356,0.334
			c0,0,0.032-4.464,6.48-2.646c6.447,1.819,11.573,4.96,13.557,6.614s2.315,0.722-3.636-3.524
			c-5.953-4.247-17.419-6.396-26.399-5.734c-8.982,0.661-2.699,0.991,3.417,1.157C119.154,1.439,118.195,2.753,118.261,5.073
			L118.261,5.073z"/>
	</g>
	<path fill="#2E2D2C" d="M176.838,23.325c-0.496,1.396,1.083-0.9,2.444,0c1.359,0.899,0.532-0.695,1.027-1.221
		c0.498-0.525,7.771,0.03,11.738,0c3.969-0.029,6.45-1.021,0-1.021c-6.448,0-8.926-0.661-11.406-0.661s-4.96-1.653-3.803,0
		C176.838,20.422,177.334,21.929,176.838,23.325L176.838,23.325z"/>
	<path fill="#2E2D2C" d="M24.572,191.338c2.028-0.022,3.106-0.249,4.96-1.151c3.127-1.523,1.573-11.757,1.573-11.757l2.097-12.449
		c0,0-0.061,0.012-0.181,0.032c-0.85,0.146-4.73,0.799-11.844,1.727c-8.117,1.06-2.985,1.59-5.286,8.74
		c-2.301,7.151-4.42,14.699,2.599,14.767c0.404,0.004,0.781,0.01,1.147,0.015C21.853,191.295,23.377,191.351,24.572,191.338
		L24.572,191.338z"/>
	<path fill="#2E2D2C" d="M14.953,210.852c0.552,0.063,1.188,0.102,1.96,0.109c7.019,0.066,7.915,0.464,11.042-1.06
		c3.127-1.522,1.573-6.32,1.573-6.32l2.097-12.447c0,0-1.272,0.22-4.028,0.433c-1.752,0.135-4.105,0.267-7.124,0.335
		c-0.472,0.011-0.955,0.021-1.459,0.027c-8.185,0.125-4.1,4.062-5.071,9.359c-0.354,1.937-0.799,3.51-1.139,4.789
		C11.99,209.146,11.804,210.49,14.953,210.852L14.953,210.852z"/>
	<path fill="#2E2D2C" d="M180.781,74.986c-3.528,0,0.772,0.883,5.621,0.883c4.849,0,18.959,0,18.959,0c1.984,0,2.975-0.883,0-0.883
		c-2.976,0-13.999,0-17.306,0H180.781L180.781,74.986z"/>
	<path fill="#2E2D2C" d="M192.173,103.192c-3.527,0,0.773,0.883,5.622,0.883c4.85,0,18.958,0,18.958,0c1.984,0,2.977-0.883,0-0.883
		c-2.976,0-13.999,0-17.305,0H192.173L192.173,103.192z"/>
</g>
</svg>
