<svg xmlns="http://www.w3.org/2000/svg" width="422" height="600"><circle fill="#02679E" cx="211" cy="299.797" r="211.014"/><path fill="none" stroke="#BBBCBE" stroke-width="5" stroke-miterlimit="10" d="M262.671 359.722s3.242-19.459 23.242-12.611c0 0 10.091-23.245 36.76-16.576 0 0 22.163 4.684 22.884 31.352 0 0 21.803-1.035 21.803 22.343 0 0-.721 21.442-19.461 22.346h-79.463s-22.345-1.171-22.343-23.785c0-.004-.541-17.032 16.578-23.069zM42 273s3.242-19.46 23.242-12.612c0 0 10.091-23.245 36.76-16.578 0 0 22.163 4.685 22.884 31.353 0 0 21.804-1.036 21.804 22.342 0 0-.723 21.444-19.462 22.345H47.765s-22.344-1.17-22.343-23.785c0-.001-.541-17.028 16.578-23.065z"/><path fill="#E4B278" d="M360.21 449.007L211 299.797 61.791 449.007l.018.019C99.994 487.2 152.739 510.812 211 510.812c58.271 0 111.023-23.619 149.21-61.805z"/><circle fill="none" cx="211" cy="299.797" r="211.014"/><path fill="#B3702C" d="M211 299.797L61.843 449.059c19.074 19.062 41.778 34.487 66.986 45.155L211 299.797z"/><circle fill="none" cx="211" cy="299.797" r="211.014"/><path fill="#02679E" d="M99.529 21.979c0 15.044-9.391 23.796-25.71 23.796H62.422v17.688H45.738V-.448h28.081c16.32 0 25.71 8.205 25.71 22.427zm-15.863.548c0-6.291-3.92-9.664-10.667-9.664H62.422v19.602h10.576c6.747 0 10.668-3.465 10.668-9.938zM141.289 43.041v20.422h-16.684V43.496L101.083-.448h16.685l15.134 27.442 14.77-27.442h16.684l-23.067 43.489zM208.485 63.463l-9.299-17.688h-12.4v17.688h-16.684V-.448h28.719c16.958 0 26.622 8.205 26.622 22.428 0 9.665-4.012 16.776-11.396 20.605l13.311 20.878h-18.873zm-21.698-30.998h12.126c6.747 0 10.667-3.465 10.667-9.938 0-6.291-3.92-9.664-10.667-9.664h-12.126v19.602zM278.691 52.157h-27.625L246.6 63.463h-17.141L256.902-.448h17.14l26.804 63.911h-17.777l-4.378-11.306zm-4.922-12.763l-8.753-22.793-8.935 22.793h17.688zM324.828-.448l16.958 37.289L358.744-.448h18.234v63.911h-14.77l-.092-40.48-14.861 34.099h-10.939l-14.861-34.099v40.48h-14.861V-.448h18.234zM78.459 536.089V600H61.775v-63.911h16.684zM152.4 567.999c0 19.055-13.949 32.001-34.645 32.001H90.859v-63.911h27.534c20.24 0 34.007 12.946 34.007 31.91zm-17.049.183c0-11.032-7.203-18.508-17.323-18.508h-10.485v36.833h11.306c9.664 0 16.502-7.385 16.502-18.325z"/><path fill="#BBBDBF" d="M208.438 548.944c-4.012 0-6.656 1.458-6.656 4.376 0 10.576 33.642 4.559 33.642 27.534 0 13.037-11.487 19.692-25.71 19.692-10.667 0-21.79-3.92-29.448-10.211l6.473-13.037c6.564 5.652 16.502 9.664 23.157 9.664 4.923 0 8.023-1.824 8.023-5.197 0-10.85-33.642-4.285-33.642-26.896 0-11.943 10.12-19.511 25.528-19.511 9.391 0 18.872 2.918 25.528 7.203l-6.291 13.22c-6.745-3.828-15.315-6.837-20.604-6.837zM285.391 600l-16.594-24.707-8.205 9.117V600h-16.685v-63.911h16.685v26.805l23.978-26.805h19.329l-23.705 26.439L305.356 600h-19.965zM356.6 552.591c0 5.379-2.918 10.394-7.658 13.129 6.654 3.009 10.939 9.117 10.939 16.229 0 11.487-10.119 18.781-25.801 18.781-15.591 0-25.619-7.203-25.619-18.508 0-7.202 4.559-13.493 11.67-16.502-5.197-3.009-8.479-8.205-8.479-13.585 0-10.302 8.843-16.866 22.336-16.866 13.859 0 22.612 6.746 22.612 17.322zm-32.549 27.898c0 5.197 3.556 8.023 10.029 8.023 6.564 0 10.211-2.826 10.211-8.023 0-5.105-3.646-7.932-10.12-7.932-6.565.001-10.12 2.827-10.12 7.932zm1.551-26.986c0 4.376 3.008 6.838 8.479 6.838 5.561 0 8.57-2.462 8.57-6.838 0-4.559-3.01-7.021-8.57-7.021-5.472 0-8.479 2.462-8.479 7.021z"/><path fill="none" stroke="#BBBCBE" stroke-width="5" stroke-miterlimit="10" d="M208.868 166.322s3.241-19.46 23.241-12.612c0 0 10.092-23.245 36.761-16.578 0 0 22.163 4.685 22.884 31.353 0 0 21.805-1.036 21.805 22.342 0 0-.724 21.443-19.463 22.345h-79.463s-22.344-1.171-22.343-23.785c0 0-.54-17.028 16.578-23.065z"/></svg>