<?xml version="1.0" encoding="utf-8"?>
<!-- Generator: Adobe Illustrator 15.0.0, SVG Export Plug-In . SVG Version: 6.00 Build 0)  -->
<!DOCTYPE svg PUBLIC "-//W3C//DTD SVG 1.1//EN" "http://www.w3.org/Graphics/SVG/1.1/DTD/svg11.dtd">
<svg version="1.1" id="Layer_1" xmlns="http://www.w3.org/2000/svg" xmlns:xlink="http://www.w3.org/1999/xlink" x="0px" y="0px"
	 width="422px" height="600px" viewBox="0 0 422 600" enable-background="new 0 0 422 600" xml:space="preserve">
<circle fill="#02679E" cx="211" cy="299.797" r="211.014"/>
<path fill="none" stroke="#BBBCBE" stroke-width="5" stroke-miterlimit="10" d="M262.671,359.722c0,0,3.242-19.459,23.242-12.612
	c0,0,10.091-23.245,36.76-16.576c0,0,22.163,4.684,22.883,31.352c0,0,21.804-1.035,21.804,22.343c0,0-0.722,21.442-19.461,22.345
	h-79.463c0,0-22.345-1.171-22.343-23.785C246.093,382.787,245.552,365.759,262.671,359.722z"/>
<path fill="none" stroke="#BBBCBE" stroke-width="5" stroke-miterlimit="10" d="M42,273c0,0,3.242-19.46,23.242-12.612
	c0,0,10.091-23.245,36.76-16.578c0,0,22.163,4.685,22.884,31.353c0,0,21.804-1.036,21.804,22.342c0,0-0.723,21.444-19.462,22.345
	H47.765c0,0-22.344-1.17-22.343-23.785C25.422,296.064,24.881,279.037,42,273z"/>
<path fill="#E4B278" d="M360.21,449.007L211,299.797L61.791,449.007l0.018,0.018C99.994,487.2,152.739,510.812,211,510.812
	C269.271,510.812,322.023,487.193,360.21,449.007L360.21,449.007L360.21,449.007z"/>
<circle fill="none" cx="211" cy="299.797" r="211.014"/>
<path fill="#B3702C" d="M211,299.797L61.843,449.059c19.074,19.061,41.778,34.487,66.986,45.155L211,299.797z"/>
<circle fill="none" cx="211" cy="299.797" r="211.014"/>
<text transform="matrix(1 0 0 1 39.5386 63.4624)" fill="#02679E" font-family="'Montserrat-Bold'" font-size="91.1772">PYRAM</text>
<text transform="matrix(1 0 0 1 55.5757 600)" fill="#02679E" font-family="'Montserrat-Bold'" font-size="91.1772">ID</text>
<text transform="matrix(1 0 0 1 178.8076 600)" fill="#BBBDBF" font-family="'Montserrat-Bold'" font-size="91.1772">SK8</text>
<path fill="none" stroke="#BBBCBE" stroke-width="5" stroke-miterlimit="10" d="M208.868,166.322c0,0,3.242-19.46,23.242-12.612
	c0,0,10.091-23.245,36.76-16.578c0,0,22.163,4.685,22.884,31.353c0,0,21.804-1.036,21.804,22.342c0,0-0.723,21.443-19.462,22.345
	h-79.463c0,0-22.344-1.171-22.343-23.785C192.29,189.387,191.75,172.359,208.868,166.322z"/>
</svg>
