<?xml version="1.0" encoding="utf-8"?>
<!-- Generator: Adobe Illustrator 15.0.0, SVG Export Plug-In . SVG Version: 6.00 Build 0)  -->
<!DOCTYPE svg PUBLIC "-//W3C//DTD SVG 1.1//EN" "http://www.w3.org/Graphics/SVG/1.1/DTD/svg11.dtd">
<svg version="1.1" id="Layer_1" xmlns="http://www.w3.org/2000/svg" xmlns:xlink="http://www.w3.org/1999/xlink" x="0px" y="0px"
	 width="422px" height="600px" viewBox="0 0 422 600" enable-background="new 0 0 422 600" xml:space="preserve">
<circle fill="#02679E" cx="211" cy="299.797" r="211.014"/>
<path fill="none" stroke="#BBBCBE" stroke-width="5" stroke-miterlimit="10" d="M262.671,359.722c0,0,3.242-19.459,23.242-12.611
	c0,0,10.091-23.245,36.76-16.576c0,0,22.163,4.684,22.884,31.352c0,0,21.803-1.035,21.803,22.343c0,0-0.721,21.442-19.461,22.346
	h-79.463c0,0-22.345-1.171-22.343-23.785C246.093,382.787,245.552,365.759,262.671,359.722z"/>
<path fill="none" stroke="#BBBCBE" stroke-width="5" stroke-miterlimit="10" d="M42,273c0,0,3.242-19.46,23.242-12.612
	c0,0,10.091-23.245,36.76-16.578c0,0,22.163,4.685,22.884,31.353c0,0,21.804-1.036,21.804,22.342c0,0-0.723,21.444-19.462,22.345
	H47.765c0,0-22.344-1.17-22.343-23.785C25.422,296.064,24.881,279.037,42,273z"/>
<path fill="#E4B278" d="M360.21,449.007L211,299.797L61.791,449.007l0.018,0.019C99.994,487.2,152.739,510.812,211,510.812
	C269.271,510.812,322.023,487.193,360.21,449.007L360.21,449.007L360.21,449.007z"/>
<circle fill="none" cx="211" cy="299.797" r="211.014"/>
<path fill="#B3702C" d="M211,299.797L61.843,449.059c19.074,19.062,41.778,34.487,66.986,45.155L211,299.797z"/>
<circle fill="none" cx="211" cy="299.797" r="211.014"/>
<path fill="#02679E" d="M99.529,21.979c0,15.044-9.391,23.796-25.71,23.796H62.422v17.688H45.738V-0.448h28.081
	C90.139-0.448,99.529,7.757,99.529,21.979z M83.666,22.527c0-6.291-3.92-9.664-10.667-9.664H62.422v19.602h10.576
	C79.745,32.465,83.666,29,83.666,22.527z"/>
<path fill="#02679E" d="M141.289,43.041v20.422h-16.684V43.496L101.083-0.448h16.685l15.134,27.442l14.77-27.442h16.684
	L141.289,43.041z"/>
<path fill="#02679E" d="M208.485,63.463l-9.299-17.688h-0.365h-12.035v17.688h-16.684V-0.448h28.719
	c16.958,0,26.622,8.205,26.622,22.428c0,9.665-4.012,16.776-11.396,20.605l13.311,20.878H208.485z M186.787,32.465h12.126
	c6.747,0,10.667-3.465,10.667-9.938c0-6.291-3.92-9.664-10.667-9.664h-12.126V32.465z"/>
<path fill="#02679E" d="M278.691,52.157h-27.625L246.6,63.463h-17.141l27.443-63.911h17.14l26.804,63.911h-17.777L278.691,52.157z
	 M273.769,39.394l-8.753-22.793l-8.935,22.793H273.769z"/>
<path fill="#02679E" d="M324.828-0.448l16.958,37.289l16.958-37.289h18.234v63.911h-14.77l-0.092-40.48l-14.861,34.099h-10.939
	l-14.861-34.099v40.48h-14.861V-0.448H324.828z"/>
<path fill="#02679E" d="M78.459,536.089V600H61.775v-63.911H78.459z"/>
<path fill="#02679E" d="M152.4,567.999c0,19.055-13.949,32.001-34.645,32.001H90.859v-63.911h27.534
	C138.633,536.089,152.4,549.035,152.4,567.999z M135.351,568.182c0-11.032-7.203-18.508-17.323-18.508h-10.485v36.833h11.306
	C128.513,586.507,135.351,579.122,135.351,568.182z"/>
<path fill="#BBBDBF" d="M208.438,548.944c-4.012,0-6.656,1.458-6.656,4.376c0,10.576,33.642,4.559,33.642,27.534
	c0,13.037-11.487,19.692-25.71,19.692c-10.667,0-21.79-3.92-29.448-10.211l6.473-13.037c6.564,5.652,16.502,9.664,23.157,9.664
	c4.923,0,8.023-1.824,8.023-5.197c0-10.85-33.642-4.285-33.642-26.896c0-11.943,10.12-19.511,25.528-19.511
	c9.391,0,18.872,2.918,25.528,7.203l-6.291,13.22C222.297,551.953,213.727,548.944,208.438,548.944z"/>
<path fill="#BBBDBF" d="M285.391,600l-16.594-24.707l-8.205,9.117V600h-16.685v-63.911h16.685v26.805l23.978-26.805h19.329
	l-23.705,26.439L305.356,600H285.391z"/>
<path fill="#BBBDBF" d="M356.6,552.591c0,5.379-2.918,10.394-7.658,13.129c6.654,3.009,10.939,9.117,10.939,16.229
	c0,11.487-10.119,18.781-25.801,18.781c-15.591,0-25.619-7.203-25.619-18.508c0-7.202,4.559-13.493,11.67-16.502
	c-5.197-3.009-8.479-8.205-8.479-13.585c0-10.302,8.843-16.866,22.336-16.866C347.847,535.269,356.6,542.015,356.6,552.591z
	 M324.051,580.489c0,5.197,3.556,8.023,10.029,8.023c6.564,0,10.211-2.826,10.211-8.023c0-5.105-3.646-7.932-10.12-7.932
	C327.606,572.558,324.051,575.384,324.051,580.489z M325.602,553.503c0,4.376,3.008,6.838,8.479,6.838
	c5.561,0,8.57-2.462,8.57-6.838c0-4.559-3.01-7.021-8.57-7.021C328.609,546.482,325.602,548.944,325.602,553.503z"/>
<path fill="none" stroke="#BBBCBE" stroke-width="5" stroke-miterlimit="10" d="M208.868,166.322c0,0,3.241-19.46,23.241-12.612
	c0,0,10.092-23.245,36.761-16.578c0,0,22.163,4.685,22.884,31.353c0,0,21.805-1.036,21.805,22.342c0,0-0.724,21.443-19.463,22.345
	h-79.463c0,0-22.344-1.171-22.343-23.785C192.29,189.387,191.75,172.359,208.868,166.322z"/>
</svg>
