<?xml version="1.0" encoding="utf-8"?>
<!-- Generator: Adobe Illustrator 15.0.0, SVG Export Plug-In . SVG Version: 6.00 Build 0)  -->
<!DOCTYPE svg PUBLIC "-//W3C//DTD SVG 1.1//EN" "http://www.w3.org/Graphics/SVG/1.1/DTD/svg11.dtd">
<svg version="1.1" id="Layer_1" xmlns="http://www.w3.org/2000/svg" xmlns:xlink="http://www.w3.org/1999/xlink" x="0px" y="0px"
	 width="600px" height="244px" viewBox="0 0 600 244" enable-background="new 0 0 600 244" xml:space="preserve">
<g>
	<linearGradient id="SVGID_1_" gradientUnits="userSpaceOnUse" x1="0.2153" y1="81.8979" x2="121.7407" y2="81.8979">
		<stop  offset="0" style="stop-color:#7CA52B"/>
		<stop  offset="1" style="stop-color:#ADC910"/>
	</linearGradient>
	<path fill="url(#SVGID_1_)" d="M22.362,92.747v70.936H0.215V0.113H59.46c17.912,0,31.59,3.973,41.034,11.916
		c9.443,7.945,14.165,19.487,14.165,34.625c0,8.395-2.193,15.702-6.577,21.921c-4.384,6.222-10.775,11.168-19.168,14.839
		c8.994,2.924,15.458,7.665,19.392,14.221c3.936,6.56,5.903,14.671,5.903,24.339v15.401c0,5.098,0.562,9.668,1.686,13.716
		c1.124,4.047,3.072,7.345,5.846,9.892v2.698H98.92c-2.923-2.547-4.797-6.296-5.622-11.24c-0.826-4.947-1.236-10.043-1.236-15.289
		V122.2c0-8.843-2.585-15.963-7.757-21.359c-5.17-5.396-12.104-8.094-20.798-8.094H22.362z M22.362,75.321h34.85
		c12.516,0,21.529-2.375,27.038-7.125s8.263-11.987,8.263-21.711c0-9.201-2.681-16.326-8.039-21.374
		c-5.359-5.049-13.697-7.575-25.013-7.575H22.362V75.321z"/>
	<g>
		
			<linearGradient id="SVGID_2_" gradientUnits="userSpaceOnUse" x1="808.1914" y1="83.3237" x2="853.7081" y2="148.4532" gradientTransform="matrix(-1 0 0 1 1194.5605 0)">
			<stop  offset="0" style="stop-color:#7CA52B"/>
			<stop  offset="1" style="stop-color:#ADC910"/>
		</linearGradient>
		<path fill="url(#SVGID_2_)" d="M385.811,80.418c0,0-37.724,16.234-56.279,72.393c0,0,12.466-8.746,17.969-22.629
			c3.231-8.147,2.692-0.062,9.746-12.595c4.965-8.822,13.689-17.918,30.137-26.147C427.199,71.52,385.811,80.418,385.811,80.418z"/>
		
			<linearGradient id="SVGID_3_" gradientUnits="userSpaceOnUse" x1="720.7314" y1="17.8442" x2="711.8407" y2="37.478" gradientTransform="matrix(-1 0 0 1 1194.5605 0)">
			<stop  offset="0" style="stop-color:#ADC910"/>
			<stop  offset="1" style="stop-color:#7CA52B"/>
		</linearGradient>
		<path fill="url(#SVGID_3_)" d="M599.369,9.594c0,0-121.533,11.688-221.281,81.171c-2.366-4.221-4.586-8.751-6.615-13.646
			C334.896-11.038,538.408-7.286,599.369,9.594z"/>
		
			<linearGradient id="SVGID_4_" gradientUnits="userSpaceOnUse" x1="711.0889" y1="46.0859" x2="673.6732" y2="88.3175" gradientTransform="matrix(-1 0 0 1 1194.5605 0)">
			<stop  offset="0" style="stop-color:#ADC910"/>
			<stop  offset="1" style="stop-color:#7CA52B"/>
		</linearGradient>
		<path fill="url(#SVGID_4_)" d="M527.154,82.747c-23.03,55.804-108.797,79.798-149.066,8.019
			C477.836,21.282,599.369,9.594,599.369,9.594S551.538,23.663,527.154,82.747z"/>
		
			<radialGradient id="SVGID_5_" cx="-1070.5176" cy="113.6953" r="178.6624" gradientTransform="matrix(-0.182 0 0 0.182 237.2471 0.8405)" gradientUnits="userSpaceOnUse">
			<stop  offset="0" style="stop-color:#FFFFFF"/>
			<stop  offset="1" style="stop-color:#ADC910"/>
		</radialGradient>
		<path fill="url(#SVGID_5_)" d="M388.348,35.793c0,0,21.486-25.931,87.426-28.524C475.773,7.269,423.541,12.084,388.348,35.793z"/>
		<g>
			
				<linearGradient id="SVGID_6_" gradientUnits="userSpaceOnUse" x1="695.5957" y1="-71.8511" x2="668.3907" y2="-64.2941" gradientTransform="matrix(-0.9385 0.3453 0.3453 0.9385 1159.5952 -104.5977)">
				<stop  offset="0" style="stop-color:#7CA52B"/>
				<stop  offset="1" style="stop-color:#ADC910"/>
			</linearGradient>
			<path fill="url(#SVGID_6_)" d="M474.043,74.796c1.802,4.896,12.63,5.418,24.188,1.166c11.557-4.253,19.463-11.67,17.661-16.565
				c-1.8-4.896-12.63-5.418-24.186-1.166C480.15,62.483,472.243,69.9,474.043,74.796z"/>
			
				<linearGradient id="SVGID_7_" gradientUnits="userSpaceOnUse" x1="698.7793" y1="-61.4258" x2="673.0849" y2="-72.1948" gradientTransform="matrix(-0.9385 0.3453 0.3453 0.9385 1159.5952 -104.5977)">
				<stop  offset="0" style="stop-color:#FFFFFF"/>
				<stop  offset="1" style="stop-color:#ADC910"/>
			</linearGradient>
			<path fill="url(#SVGID_7_)" d="M480.638,71.519c1.5,4.075,10.143,4.645,19.305,1.275c9.162-3.371,15.373-9.407,13.873-13.482
				c-1.5-4.076-10.142-4.647-19.304-1.276C485.35,61.406,479.139,67.444,480.638,71.519z"/>
			
				<linearGradient id="SVGID_8_" gradientUnits="userSpaceOnUse" x1="740.8906" y1="66.8403" x2="744.1501" y2="67.1064" gradientTransform="matrix(-0.9985 -0.0556 -0.0556 0.9985 1250.251 34.4136)">
				<stop  offset="0" style="stop-color:#FFFFFF"/>
				<stop  offset="1" style="stop-color:#ADC910"/>
			</linearGradient>
			<path fill="url(#SVGID_8_)" d="M501.589,59.84c-0.043,0.764,1.314,1.46,3.029,1.555c1.716,0.095,3.142-0.446,3.185-1.208
				c0.043-0.764-1.313-1.46-3.029-1.556C503.056,58.536,501.631,59.078,501.589,59.84z"/>
			
				<linearGradient id="SVGID_9_" gradientUnits="userSpaceOnUse" x1="718.6689" y1="-45.4487" x2="723.5704" y2="-45.0486" gradientTransform="matrix(-0.9827 0.185 0.185 0.9827 1212.4551 -26.415)">
				<stop  offset="0" style="stop-color:#FFFFFF"/>
				<stop  offset="1" style="stop-color:#ADC910"/>
			</linearGradient>
			<path fill="url(#SVGID_9_)" d="M490.224,63.562c0.212,1.128,2.444,1.658,4.983,1.179c2.539-0.478,4.426-1.783,4.214-2.911
				c-0.214-1.13-2.445-1.658-4.984-1.18C491.898,61.129,490.012,62.431,490.224,63.562z"/>
		</g>
		<g>
			
				<linearGradient id="SVGID_10_" gradientUnits="userSpaceOnUse" x1="730.2422" y1="-51.6597" x2="711.1476" y2="-46.3556" gradientTransform="matrix(-0.9385 0.3453 0.3453 0.9385 1159.5952 -104.5977)">
				<stop  offset="0" style="stop-color:#7CA52B"/>
				<stop  offset="1" style="stop-color:#ADC910"/>
			</linearGradient>
			<path fill="url(#SVGID_10_)" d="M450.862,103.73c1.265,3.437,8.866,3.803,16.977,0.818c8.109-2.984,13.662-8.19,12.397-11.626
				s-8.866-3.803-16.978-0.819C455.148,95.088,449.598,100.294,450.862,103.73z"/>
			
				<linearGradient id="SVGID_11_" gradientUnits="userSpaceOnUse" x1="732.4775" y1="-44.3428" x2="714.4435" y2="-51.9012" gradientTransform="matrix(-0.9385 0.3453 0.3453 0.9385 1159.5952 -104.5977)">
				<stop  offset="0" style="stop-color:#FFFFFF"/>
				<stop  offset="1" style="stop-color:#ADC910"/>
			</linearGradient>
			<path fill="url(#SVGID_11_)" d="M455.491,101.43c1.053,2.86,7.119,3.261,13.55,0.896c6.429-2.367,10.789-6.604,9.736-9.464
				s-7.119-3.262-13.55-0.896C458.799,94.333,454.438,98.57,455.491,101.43z"/>
			
				<linearGradient id="SVGID_12_" gradientUnits="userSpaceOnUse" x1="771.915" y1="101.9756" x2="774.2032" y2="102.1624" gradientTransform="matrix(-0.9985 -0.0556 -0.0556 0.9985 1250.251 34.4136)">
				<stop  offset="0" style="stop-color:#FFFFFF"/>
				<stop  offset="1" style="stop-color:#ADC910"/>
			</linearGradient>
			<path fill="url(#SVGID_12_)" d="M470.196,93.233c-0.03,0.536,0.921,1.025,2.127,1.092c1.204,0.067,2.204-0.313,2.235-0.848
				c0.029-0.537-0.924-1.024-2.13-1.091C471.226,92.318,470.226,92.697,470.196,93.233z"/>
			
				<linearGradient id="SVGID_13_" gradientUnits="userSpaceOnUse" x1="754.4805" y1="-18.8271" x2="757.9204" y2="-18.5463" gradientTransform="matrix(-0.9827 0.185 0.185 0.9827 1212.4551 -26.415)">
				<stop  offset="0" style="stop-color:#FFFFFF"/>
				<stop  offset="1" style="stop-color:#ADC910"/>
			</linearGradient>
			<path fill="url(#SVGID_13_)" d="M462.22,95.845c0.149,0.793,1.714,1.164,3.498,0.828c1.782-0.336,3.105-1.25,2.957-2.042
				c-0.151-0.793-1.716-1.165-3.498-0.828C463.395,94.138,462.069,95.052,462.22,95.845z"/>
		</g>
	</g>
	<linearGradient id="SVGID_14_" gradientUnits="userSpaceOnUse" x1="240.4619" y1="81.8418" x2="361.7617" y2="81.8418">
		<stop  offset="0" style="stop-color:#7CA52B"/>
		<stop  offset="1" style="stop-color:#ADC910"/>
	</linearGradient>
	<path fill="url(#SVGID_14_)" d="M240.462,163.683L242.053,0h48.661c21.433,0,38.633,6.576,51.601,19.729
		c12.966,13.153,19.447,30.148,19.447,50.984v22.371c0,20.909-6.481,37.903-19.447,50.982
		c-12.968,13.079-30.168,19.616-51.601,19.616H240.462z M261.458,17.263v128.409l29.256,0.587c15.137,0,27.074-4.979,35.806-14.938
		c8.729-9.96,13.097-22.726,13.097-38.303V70.442c0-15.426-4.368-28.118-13.097-38.078c-8.732-9.959-20.669-14.939-35.806-14.939
		L261.458,17.263z"/>
	<linearGradient id="SVGID_15_" gradientUnits="userSpaceOnUse" x1="99.7974" y1="81.8418" x2="261.4575" y2="81.8418">
		<stop  offset="0" style="stop-color:#7CA52B"/>
		<stop  offset="1" style="stop-color:#ADC910"/>
	</linearGradient>
	<path fill="url(#SVGID_15_)" d="M128.127,0l52.163,132.993h0.675L233.127,0h28.33v163.682h-22.147V98.93l2.248-66.553l-0.562-0.112
		l-53.062,131.418h-14.727L120.37,32.602l-0.561,0.113l2.136,66.215v64.753H99.797V0H128.127z"/>
	<linearGradient id="SVGID_16_" gradientUnits="userSpaceOnUse" x1="0.2153" y1="81.8979" x2="121.7407" y2="81.8979">
		<stop  offset="0" style="stop-color:#7CA52B"/>
		<stop  offset="1" style="stop-color:#ADC910"/>
	</linearGradient>
	<path fill="url(#SVGID_16_)" d="M88.914,83.415c8.994,2.924,15.458,7.665,19.392,14.221c3.936,6.56,5.903,14.671,5.903,24.339
		v15.401c0,5.098,0.562,9.668,1.686,13.716c1.124,4.047,3.072,7.345,5.846,9.892v2.698H98.92c-2.923-2.547-4.797-6.296-5.622-11.24
		c-0.826-4.947-1.236-10.043-1.236-15.289V122.2c0-8.843-2.585-15.963-7.757-21.359c-5.17-5.396-12.104-8.094-20.798-8.094H22.362
		v70.936H0.215V0.113H59.46c17.912,0,30.587,3.973,40.03,11.916 M22.362,75.321h34.85c12.516,0,21.529-2.375,27.038-7.125
		s8.263-11.987,8.263-21.711c0-9.201-2.681-16.326-8.039-21.374c-5.359-5.049-13.697-7.575-25.013-7.575H22.362V75.321z"/>
	<linearGradient id="SVGID_17_" gradientUnits="userSpaceOnUse" x1="12.0576" y1="200.1504" x2="-6.2401" y2="240.558">
		<stop  offset="0" style="stop-color:#ADC910"/>
		<stop  offset="1" style="stop-color:#7CA52B"/>
	</linearGradient>
	<path fill="url(#SVGID_17_)" d="M5.816,203.26H0v-5.936h5.816V203.26z M5.816,243.384H0v-31.946h5.816V243.384z"/>
	<linearGradient id="SVGID_18_" gradientUnits="userSpaceOnUse" x1="34.8145" y1="211.7539" x2="19.5167" y2="245.5366">
		<stop  offset="0" style="stop-color:#ADC910"/>
		<stop  offset="1" style="stop-color:#7CA52B"/>
	</linearGradient>
	<path fill="url(#SVGID_18_)" d="M19.958,211.438l0.414,4.752c1.063-1.691,2.396-3.006,4.001-3.94
		c1.603-0.934,3.429-1.402,5.476-1.402c3.445,0,6.112,1.008,8.001,3.027c1.89,2.018,2.835,5.133,2.835,9.345v20.165h-5.817v-20.048
		c0-2.813-0.556-4.813-1.668-5.993c-1.112-1.181-2.81-1.772-5.093-1.772c-1.673,0-3.154,0.403-4.443,1.212
		c-1.29,0.808-2.317,1.909-3.085,3.306v23.296h-5.816v-31.946H19.958z"/>
	<linearGradient id="SVGID_19_" gradientUnits="userSpaceOnUse" x1="76.9346" y1="198.2842" x2="56.4281" y2="243.5695">
		<stop  offset="0" style="stop-color:#ADC910"/>
		<stop  offset="1" style="stop-color:#7CA52B"/>
	</linearGradient>
	<path fill="url(#SVGID_19_)" d="M47.8,228c0-5.137,1.097-9.279,3.292-12.43c2.194-3.148,5.27-4.724,9.226-4.724
		c1.87,0,3.529,0.346,4.975,1.033c1.447,0.69,2.682,1.694,3.706,3.012v-17.567h5.816v46.06h-4.753l-0.679-3.928
		c-1.043,1.496-2.323,2.628-3.838,3.396c-1.516,0.767-3.277,1.15-5.285,1.15c-3.897,0-6.949-1.411-9.153-4.236
		c-2.204-2.823-3.307-6.541-3.307-11.146V228z M53.617,228.62c0,3.229,0.659,5.813,1.978,7.75c1.319,1.939,3.366,2.91,6.142,2.91
		c1.731,0,3.188-0.395,4.37-1.183c1.181-0.786,2.145-1.89,2.893-3.308v-14.908c-0.749-1.317-1.718-2.367-2.908-3.146
		c-1.191-0.776-2.623-1.166-4.296-1.166c-2.795,0-4.857,1.152-6.186,3.454c-1.328,2.304-1.992,5.296-1.992,8.976V228.62z"/>
	<linearGradient id="SVGID_20_" gradientUnits="userSpaceOnUse" x1="104.5972" y1="209.2686" x2="89.3372" y2="242.9677">
		<stop  offset="0" style="stop-color:#ADC910"/>
		<stop  offset="1" style="stop-color:#7CA52B"/>
	</linearGradient>
	<path fill="url(#SVGID_20_)" d="M103.778,238.658c-1.003,1.714-2.292,3.031-3.867,3.957c-1.575,0.925-3.396,1.388-5.462,1.388
		c-3.483,0-6.2-1.111-8.148-3.337c-1.949-2.224-2.923-5.688-2.923-10.394v-18.835h5.816v18.896c0,3.405,0.501,5.746,1.506,7.026
		c1.004,1.278,2.568,1.92,4.694,1.92c2.067,0,3.774-0.42,5.123-1.257c1.348-0.836,2.367-2.021,3.056-3.557v-23.029h5.815v31.946
		h-5.226L103.778,238.658z"/>
	<linearGradient id="SVGID_21_" gradientUnits="userSpaceOnUse" x1="136.793" y1="212.4355" x2="123.0709" y2="242.7386">
		<stop  offset="0" style="stop-color:#ADC910"/>
		<stop  offset="1" style="stop-color:#7CA52B"/>
	</linearGradient>
	<path fill="url(#SVGID_21_)" d="M136.433,234.88c0-1.28-0.487-2.333-1.461-3.158c-0.975-0.827-2.819-1.545-5.536-2.156
		c-3.877-0.846-6.795-1.99-8.754-3.434c-1.959-1.444-2.938-3.415-2.938-5.911c0-2.594,1.102-4.804,3.307-6.633
		c2.204-1.827,5.078-2.741,8.621-2.741c3.72,0,6.677,0.955,8.872,2.865c2.195,1.909,3.243,4.232,3.144,6.968l-0.059,0.177h-5.551
		c0-1.398-0.585-2.653-1.756-3.765c-1.172-1.112-2.722-1.669-4.65-1.669c-2.066,0-3.602,0.453-4.605,1.359
		c-1.004,0.903-1.506,1.997-1.506,3.275c0,1.261,0.443,2.255,1.329,2.982c0.886,0.729,2.687,1.378,5.403,1.949
		c4.035,0.866,7.037,2.043,9.005,3.529c1.968,1.483,2.953,3.478,2.953,5.978c0,2.835-1.147,5.127-3.439,6.88
		c-2.293,1.751-5.291,2.627-8.99,2.627c-4.075,0-7.283-1.033-9.625-3.1c-2.343-2.066-3.454-4.479-3.336-7.234l0.058-0.177h5.551
		c0.098,2.057,0.866,3.561,2.303,4.51c1.437,0.95,3.119,1.425,5.049,1.425c2.066,0,3.685-0.417,4.856-1.255
		C135.847,237.335,136.433,236.239,136.433,234.88z"/>
	<linearGradient id="SVGID_22_" gradientUnits="userSpaceOnUse" x1="164.0586" y1="206.8574" x2="148.9066" y2="240.3181">
		<stop  offset="0" style="stop-color:#ADC910"/>
		<stop  offset="1" style="stop-color:#7CA52B"/>
	</linearGradient>
	<path fill="url(#SVGID_22_)" d="M157.158,203.732v7.705h6.053v4.312h-6.053v19.396c0,1.496,0.311,2.551,0.931,3.161
		c0.619,0.609,1.441,0.915,2.465,0.915c0.335,0,0.704-0.039,1.108-0.119c0.403-0.078,0.762-0.177,1.077-0.294l0.768,3.983
		c-0.433,0.355-1.068,0.646-1.904,0.873c-0.836,0.226-1.678,0.339-2.524,0.339c-2.362,0-4.242-0.714-5.639-2.141
		c-1.398-1.426-2.096-3.667-2.096-6.718v-19.396h-5.079v-4.312h5.079v-7.705H157.158z"/>
	<linearGradient id="SVGID_23_" gradientUnits="userSpaceOnUse" x1="181.6094" y1="209.0488" x2="166.7974" y2="241.7587">
		<stop  offset="0" style="stop-color:#ADC910"/>
		<stop  offset="1" style="stop-color:#7CA52B"/>
	</linearGradient>
	<path fill="url(#SVGID_23_)" d="M185.502,216.574l-2.982-0.177c-1.536,0-2.83,0.364-3.883,1.092
		c-1.053,0.729-1.865,1.753-2.436,3.072v22.822h-5.816v-31.946h5.197l0.561,4.666c0.905-1.655,2.022-2.943,3.351-3.868
		c1.329-0.926,2.859-1.389,4.592-1.389c0.433,0,0.846,0.035,1.24,0.104c0.393,0.068,0.718,0.143,0.974,0.222L185.502,216.574z"/>
	<linearGradient id="SVGID_24_" gradientUnits="userSpaceOnUse" x1="203.6406" y1="200.1504" x2="185.3433" y2="240.5571">
		<stop  offset="0" style="stop-color:#ADC910"/>
		<stop  offset="1" style="stop-color:#7CA52B"/>
	</linearGradient>
	<path fill="url(#SVGID_24_)" d="M197.4,203.26h-5.816v-5.936h5.816V203.26z M197.4,243.384h-5.816v-31.946h5.816V243.384z"/>
	<linearGradient id="SVGID_25_" gradientUnits="userSpaceOnUse" x1="227.4976" y1="213.0234" x2="213.2808" y2="244.4189">
		<stop  offset="0" style="stop-color:#ADC910"/>
		<stop  offset="1" style="stop-color:#7CA52B"/>
	</linearGradient>
	<path fill="url(#SVGID_25_)" d="M225.979,243.384c-0.197-0.965-0.35-1.815-0.458-2.555c-0.108-0.737-0.172-1.48-0.192-2.229
		c-1.082,1.535-2.494,2.819-4.236,3.854c-1.742,1.031-3.616,1.549-5.625,1.549c-3.327,0-5.86-0.851-7.603-2.555
		c-1.742-1.702-2.613-4.049-2.613-7.04c0-3.051,1.235-5.438,3.705-7.16c2.47-1.722,5.821-2.585,10.053-2.585h6.318v-3.158
		c0-1.87-0.57-3.351-1.711-4.442c-1.142-1.093-2.756-1.64-4.842-1.64c-1.87,0-3.391,0.479-4.562,1.432
		c-1.171,0.955-1.757,2.102-1.757,3.44h-5.551l-0.059-0.178c-0.118-2.321,0.979-4.447,3.292-6.376c2.312-1.93,5.3-2.895,8.961-2.895
		c3.622,0,6.534,0.92,8.739,2.761c2.204,1.841,3.307,4.492,3.307,7.956v15.384c0,1.143,0.059,2.244,0.177,3.307
		c0.118,1.062,0.334,2.106,0.649,3.13H225.979z M216.325,239.102c2.105,0,4.005-0.539,5.698-1.619
		c1.692-1.079,2.794-2.315,3.306-3.71v-5.18h-6.524c-2.342,0-4.217,0.588-5.625,1.765c-1.407,1.178-2.111,2.562-2.111,4.152
		c0,1.414,0.443,2.531,1.329,3.356C213.284,238.689,214.593,239.102,216.325,239.102z"/>
	<linearGradient id="SVGID_26_" gradientUnits="userSpaceOnUse" x1="252.1196" y1="200.1504" x2="233.8219" y2="240.558">
		<stop  offset="0" style="stop-color:#ADC910"/>
		<stop  offset="1" style="stop-color:#7CA52B"/>
	</linearGradient>
	<path fill="url(#SVGID_26_)" d="M245.879,243.384h-5.816v-46.06h5.816V243.384z"/>
	<linearGradient id="SVGID_27_" gradientUnits="userSpaceOnUse" x1="288.7842" y1="212.4355" x2="275.0621" y2="242.7386">
		<stop  offset="0" style="stop-color:#ADC910"/>
		<stop  offset="1" style="stop-color:#7CA52B"/>
	</linearGradient>
	<path fill="url(#SVGID_27_)" d="M288.424,234.88c0-1.28-0.488-2.333-1.461-3.158c-0.975-0.827-2.82-1.545-5.536-2.156
		c-3.878-0.846-6.796-1.99-8.754-3.434c-1.959-1.444-2.938-3.415-2.938-5.911c0-2.594,1.102-4.804,3.307-6.633
		c2.204-1.827,5.078-2.741,8.621-2.741c3.721,0,6.677,0.955,8.873,2.865c2.194,1.909,3.243,4.232,3.144,6.968l-0.059,0.177h-5.551
		c0-1.398-0.586-2.653-1.757-3.765c-1.171-1.112-2.721-1.669-4.65-1.669c-2.066,0-3.602,0.453-4.605,1.359
		c-1.004,0.905-1.506,1.997-1.506,3.275c0,1.261,0.443,2.255,1.329,2.982c0.886,0.729,2.687,1.378,5.403,1.949
		c4.035,0.866,7.037,2.043,9.005,3.529c1.968,1.483,2.952,3.478,2.952,5.978c0,2.835-1.146,5.127-3.439,6.88
		c-2.293,1.751-5.291,2.627-8.991,2.627c-4.074,0-7.283-1.033-9.625-3.1c-2.343-2.066-3.455-4.479-3.336-7.234l0.059-0.177h5.551
		c0.098,2.057,0.865,3.561,2.303,4.51c1.437,0.95,3.119,1.425,5.048,1.425c2.066,0,3.685-0.417,4.856-1.255
		C287.838,237.335,288.424,236.239,288.424,234.88z"/>
	<linearGradient id="SVGID_28_" gradientUnits="userSpaceOnUse" x1="321.2363" y1="212.4043" x2="307.6248" y2="242.4631">
		<stop  offset="0" style="stop-color:#ADC910"/>
		<stop  offset="1" style="stop-color:#7CA52B"/>
	</linearGradient>
	<path fill="url(#SVGID_28_)" d="M300.116,227.116c0-4.725,1.279-8.617,3.837-11.678s6.032-4.592,10.423-4.592
		c4.429,0,7.927,1.525,10.497,4.576c2.568,3.051,3.851,6.948,3.851,11.693v0.649c0,4.762-1.278,8.659-3.835,11.69
		c-2.561,3.031-6.045,4.547-10.454,4.547s-7.897-1.52-10.466-4.561s-3.853-6.935-3.853-11.677V227.116z M305.934,227.75
		c0,3.382,0.711,6.174,2.139,8.375c1.426,2.2,3.549,3.302,6.362,3.302c2.776,0,4.882-1.102,6.319-3.302
		c1.435-2.201,2.154-4.993,2.154-8.375v-0.649c0-3.341-0.724-6.123-2.168-8.345c-1.449-2.221-3.568-3.333-6.364-3.333
		c-2.774,0-4.878,1.112-6.304,3.333c-1.428,2.222-2.139,5.004-2.139,8.345V227.75z"/>
	<linearGradient id="SVGID_29_" gradientUnits="userSpaceOnUse" x1="348.3701" y1="200.1504" x2="330.0726" y2="240.5575">
		<stop  offset="0" style="stop-color:#ADC910"/>
		<stop  offset="1" style="stop-color:#7CA52B"/>
	</linearGradient>
	<path fill="url(#SVGID_29_)" d="M342.128,243.384h-5.815v-46.06h5.815V243.384z"/>
	<linearGradient id="SVGID_30_" gradientUnits="userSpaceOnUse" x1="372.1777" y1="209.2686" x2="356.9176" y2="242.9681">
		<stop  offset="0" style="stop-color:#ADC910"/>
		<stop  offset="1" style="stop-color:#7CA52B"/>
	</linearGradient>
	<path fill="url(#SVGID_30_)" d="M371.357,238.658c-1.004,1.714-2.294,3.031-3.869,3.957c-1.574,0.925-3.394,1.388-5.46,1.388
		c-3.483,0-6.201-1.111-8.15-3.337c-1.948-2.224-2.921-5.688-2.921-10.394v-18.835h5.815v18.896c0,3.405,0.502,5.746,1.505,7.026
		c1.004,1.278,2.568,1.92,4.694,1.92c2.068,0,3.774-0.42,5.123-1.257c1.349-0.836,2.366-2.021,3.057-3.557v-23.029h5.815v31.946
		h-5.226L371.357,238.658z"/>
	<linearGradient id="SVGID_31_" gradientUnits="userSpaceOnUse" x1="400.0166" y1="206.8564" x2="384.8644" y2="240.3176">
		<stop  offset="0" style="stop-color:#ADC910"/>
		<stop  offset="1" style="stop-color:#7CA52B"/>
	</linearGradient>
	<path fill="url(#SVGID_31_)" d="M393.118,203.732v7.705h6.053v4.312h-6.053v19.396c0,1.496,0.308,2.551,0.929,3.161
		c0.62,0.609,1.441,0.915,2.465,0.915c0.335,0,0.704-0.039,1.107-0.119c0.402-0.078,0.763-0.177,1.079-0.294l0.767,3.983
		c-0.434,0.355-1.068,0.646-1.904,0.873c-0.837,0.226-1.678,0.339-2.525,0.339c-2.36,0-4.24-0.714-5.639-2.141
		c-1.397-1.426-2.096-3.667-2.096-6.718v-19.396h-5.078v-4.312h5.078v-7.705H393.118z"/>
	<linearGradient id="SVGID_32_" gradientUnits="userSpaceOnUse" x1="418.875" y1="200.1504" x2="400.5771" y2="240.5584">
		<stop  offset="0" style="stop-color:#ADC910"/>
		<stop  offset="1" style="stop-color:#7CA52B"/>
	</linearGradient>
	<path fill="url(#SVGID_32_)" d="M412.634,203.26h-5.817v-5.936h5.817V203.26z M412.634,243.384h-5.817v-31.946h5.817V243.384z"/>
	<linearGradient id="SVGID_33_" gradientUnits="userSpaceOnUse" x1="441.3408" y1="212.4033" x2="427.7293" y2="242.4622">
		<stop  offset="0" style="stop-color:#ADC910"/>
		<stop  offset="1" style="stop-color:#7CA52B"/>
	</linearGradient>
	<path fill="url(#SVGID_33_)" d="M420.22,227.116c0-4.725,1.28-8.617,3.839-11.678s6.033-4.592,10.423-4.592
		c4.429,0,7.927,1.525,10.495,4.576s3.853,6.948,3.853,11.693v0.649c0,4.762-1.28,8.659-3.837,11.69
		c-2.559,3.031-6.043,4.547-10.452,4.547s-7.897-1.52-10.466-4.561c-2.57-3.041-3.854-6.935-3.854-11.677V227.116z M426.037,227.75
		c0,3.382,0.713,6.174,2.141,8.375c1.426,2.2,3.547,3.302,6.362,3.302c2.774,0,4.882-1.102,6.319-3.302
		c1.435-2.201,2.154-4.993,2.154-8.375v-0.649c0-3.341-0.724-6.123-2.17-8.345c-1.447-2.221-3.568-3.333-6.362-3.333
		c-2.776,0-4.878,1.112-6.304,3.333c-1.428,2.222-2.141,5.004-2.141,8.345V227.75z"/>
	<linearGradient id="SVGID_34_" gradientUnits="userSpaceOnUse" x1="475.9971" y1="211.7539" x2="460.6997" y2="245.5357">
		<stop  offset="0" style="stop-color:#ADC910"/>
		<stop  offset="1" style="stop-color:#7CA52B"/>
	</linearGradient>
	<path fill="url(#SVGID_34_)" d="M461.142,211.438l0.412,4.752c1.064-1.689,2.397-3.006,4.001-3.94
		c1.604-0.934,3.43-1.402,5.477-1.402c3.444,0,6.111,1.008,8.001,3.027c1.891,2.018,2.835,5.133,2.835,9.345v20.165h-5.817v-20.048
		c0-2.813-0.555-4.813-1.666-5.993c-1.113-1.181-2.81-1.772-5.094-1.772c-1.673,0-3.154,0.403-4.442,1.212
		c-1.29,0.808-2.317,1.909-3.086,3.306v23.296h-5.815v-31.946H461.142z"/>
	<linearGradient id="SVGID_35_" gradientUnits="userSpaceOnUse" x1="509.2432" y1="212.4346" x2="495.5208" y2="242.7383">
		<stop  offset="0" style="stop-color:#ADC910"/>
		<stop  offset="1" style="stop-color:#7CA52B"/>
	</linearGradient>
	<path fill="url(#SVGID_35_)" d="M508.883,234.88c0-1.28-0.488-2.333-1.461-3.158c-0.977-0.827-2.819-1.545-5.536-2.156
		c-3.879-0.846-6.796-1.99-8.755-3.434c-1.958-1.444-2.937-3.415-2.937-5.911c0-2.594,1.102-4.804,3.306-6.633
		c2.203-1.827,5.08-2.741,8.621-2.741c3.721,0,6.678,0.955,8.873,2.865c2.194,1.909,3.241,4.232,3.146,6.968l-0.062,0.177h-5.55
		c0-1.398-0.585-2.653-1.757-3.765c-1.171-1.112-2.722-1.669-4.65-1.669c-2.065,0-3.603,0.453-4.606,1.359
		c-1.003,0.905-1.505,1.997-1.505,3.275c0,1.261,0.442,2.255,1.329,2.982c0.886,0.729,2.686,1.378,5.403,1.949
		c4.033,0.866,7.034,2.043,9.005,3.529c1.967,1.483,2.951,3.478,2.951,5.978c0,2.835-1.146,5.127-3.439,6.88
		c-2.292,1.751-5.289,2.627-8.989,2.627c-4.074,0-7.283-1.033-9.627-3.1c-2.341-2.066-3.452-4.479-3.335-7.234l0.06-0.177h5.55
		c0.099,2.057,0.867,3.561,2.302,4.51c1.438,0.95,3.122,1.425,5.051,1.425c2.066,0,3.687-0.417,4.856-1.255
		C508.297,237.335,508.883,236.239,508.883,234.88z"/>
	<linearGradient id="SVGID_36_" gradientUnits="userSpaceOnUse" x1="549.4912" y1="200.1504" x2="531.1936" y2="240.5578">
		<stop  offset="0" style="stop-color:#ADC910"/>
		<stop  offset="1" style="stop-color:#7CA52B"/>
	</linearGradient>
	<path fill="url(#SVGID_36_)" d="M543.25,243.384h-5.816v-46.06h5.816V243.384z"/>
	<linearGradient id="SVGID_37_" gradientUnits="userSpaceOnUse" x1="566.7715" y1="206.8574" x2="551.6193" y2="240.3185">
		<stop  offset="0" style="stop-color:#ADC910"/>
		<stop  offset="1" style="stop-color:#7CA52B"/>
	</linearGradient>
	<path fill="url(#SVGID_37_)" d="M559.871,203.732v7.705h6.052v4.312h-6.052v19.396c0,1.496,0.31,2.551,0.929,3.161
		c0.622,0.609,1.443,0.915,2.467,0.915c0.335,0,0.704-0.039,1.107-0.119c0.402-0.078,0.763-0.177,1.076-0.294l0.769,3.983
		c-0.433,0.355-1.068,0.646-1.903,0.873c-0.837,0.226-1.681,0.339-2.525,0.339c-2.362,0-4.241-0.714-5.639-2.141
		c-1.397-1.426-2.096-3.667-2.096-6.718v-19.396h-5.078v-4.312h5.078v-7.705H559.871z"/>
	<linearGradient id="SVGID_38_" gradientUnits="userSpaceOnUse" x1="600.9033" y1="198.2842" x2="580.397" y2="243.569">
		<stop  offset="0" style="stop-color:#ADC910"/>
		<stop  offset="1" style="stop-color:#7CA52B"/>
	</linearGradient>
	<path fill="url(#SVGID_38_)" d="M571.768,228c0-5.137,1.098-9.279,3.294-12.43c2.194-3.148,5.271-4.724,9.225-4.724
		c1.87,0,3.529,0.346,4.977,1.033c1.446,0.69,2.68,1.694,3.705,3.012v-17.567h5.815v46.06h-4.753l-0.678-3.928
		c-1.045,1.496-2.323,2.628-3.839,3.396c-1.516,0.767-3.278,1.15-5.286,1.15c-3.896,0-6.946-1.411-9.152-4.236
		c-2.204-2.823-3.308-6.541-3.308-11.146V228z M577.585,228.62c0,3.229,0.659,5.813,1.979,7.75c1.317,1.939,3.366,2.91,6.143,2.91
		c1.729,0,3.188-0.395,4.368-1.183c1.18-0.786,2.145-1.89,2.894-3.308v-14.908c-0.749-1.317-1.718-2.367-2.907-3.146
		c-1.192-0.776-2.625-1.166-4.298-1.166c-2.794,0-4.854,1.152-6.186,3.454c-1.327,2.304-1.992,5.296-1.992,8.976V228.62z"/>
</g>
</svg>
