<svg xmlns="http://www.w3.org/2000/svg" width="1200" height="488"><linearGradient id="a" gradientUnits="userSpaceOnUse" x1="-203.5703" y1="294.207" x2="39.4785" y2="294.207" gradientTransform="matrix(1 0 0 -1 204 458)"><stop offset="0" stop-color="#7ca52b"/><stop offset="1" stop-color="#adc910"/></linearGradient><path fill="url(#a)" d="M44.723 185.491v141.87H.43V.226h118.488c35.824 0 63.179 7.946 82.067 23.832 18.886 15.891 28.33 38.974 28.33 69.249 0 16.79-4.386 31.404-13.154 43.842-8.768 12.443-21.549 22.335-38.335 29.677 17.988 5.848 30.916 15.33 38.784 28.441 7.872 13.12 11.806 29.342 11.806 48.679v30.801c0 10.195 1.124 19.335 3.372 27.431 2.248 8.096 6.143 14.689 11.692 19.782v5.398h-45.642c-5.845-5.095-9.594-12.593-11.244-22.479-1.651-9.894-2.472-20.086-2.472-30.577v-29.904c0-17.686-5.169-31.926-15.514-42.718-10.341-10.792-24.207-16.187-41.596-16.187H44.723zm0-34.852h69.699c25.032 0 43.058-4.75 54.076-14.25 11.017-9.5 16.526-23.974 16.526-43.421 0-18.401-5.362-32.651-16.078-42.748-10.718-10.098-27.395-15.149-50.026-15.149H44.723v115.568z"/><linearGradient id="b" gradientUnits="userSpaceOnUse" x1="627.832" y1="291.3555" x2="718.8639" y2="161.0988" gradientTransform="rotate(180 700.28025 229)"><stop offset="0" stop-color="#7ca52b"/><stop offset="1" stop-color="#adc910"/></linearGradient><path fill="url(#b)" d="M771.608 160.833S696.163 193.3 659.053 305.616c0 0 24.932-17.491 35.937-45.257 6.464-16.293 5.385-.123 19.492-25.189 9.93-17.643 27.377-35.835 60.272-52.293 79.631-39.839-3.146-22.044-3.146-22.044z"/><linearGradient id="c" gradientUnits="userSpaceOnUse" x1="452.9141" y1="422.3125" x2="435.1328" y2="383.0452" gradientTransform="rotate(180 700.28025 229)"><stop offset="0" stop-color="#adc910"/><stop offset="1" stop-color="#7ca52b"/></linearGradient><path fill="url(#c)" d="M1198.72 19.187s-243.063 23.377-442.556 162.34c-4.73-8.442-9.173-17.502-13.23-27.292C669.782-22.076 1076.8-14.572 1198.72 19.187z"/><linearGradient id="d" gradientUnits="userSpaceOnUse" x1="433.6304" y1="365.8262" x2="358.8008" y2="281.365" gradientTransform="rotate(180 700.28025 229)"><stop offset="0" stop-color="#adc910"/><stop offset="1" stop-color="#7ca52b"/></linearGradient><path fill="url(#d)" d="M1054.292 165.492c-46.06 111.606-217.59 159.592-298.128 16.038C955.656 42.564 1198.72 19.187 1198.72 19.187s-95.661 28.139-144.428 146.305z"/><radialGradient id="e" cx="-2316.9199" cy="-48.1484" r="357.2851" gradientTransform="matrix(-.182 0 0 -.182 442.4292 34.2983)" gradientUnits="userSpaceOnUse"><stop offset="0" stop-color="#fff"/><stop offset="1" stop-color="#adc910"/></radialGradient><path fill="url(#e)" d="M776.684 71.584s42.972-51.861 174.85-57.047c-.003.001-104.466 9.63-174.85 57.047z"/><linearGradient id="f" gradientUnits="userSpaceOnUse" x1="481.2793" y1="374.0078" x2="426.8699" y2="358.894" gradientTransform="rotate(159.801 743.76749526 298.14888631)"><stop offset="0" stop-color="#7ca52b"/><stop offset="1" stop-color="#adc910"/></linearGradient><path fill="url(#f)" d="M948.07 149.589c3.604 9.792 25.26 10.836 48.374 2.332 23.115-8.506 38.928-23.339 35.322-33.129-3.6-9.792-25.26-10.835-48.37-2.332-23.111 8.504-38.925 23.338-35.326 33.129z"/><linearGradient id="g" gradientUnits="userSpaceOnUse" x1="487.645" y1="353.1553" x2="436.257" y2="374.693" gradientTransform="rotate(159.801 743.76749526 298.14888631)"><stop offset="0" stop-color="#fff"/><stop offset="1" stop-color="#adc910"/></linearGradient><path fill="url(#g)" d="M961.26 143.036c3 8.149 20.287 9.29 38.611 2.55 18.323-6.743 30.745-18.813 27.745-26.964-2.999-8.152-20.285-9.294-38.608-2.552-18.324 6.741-30.746 18.815-27.748 26.966z"/><linearGradient id="h" gradientUnits="userSpaceOnUse" x1="433.9053" y1="348.1719" x2="440.4247" y2="347.6396" gradientTransform="matrix(-.9985 -.0556 .0556 -.9985 1427.3931 491.6904)"><stop offset="0" stop-color="#fff"/><stop offset="1" stop-color="#adc910"/></linearGradient><path fill="url(#h)" d="M1003.162 119.678c-.086 1.528 2.628 2.92 6.059 3.11s6.283-.892 6.368-2.416c.086-1.528-2.624-2.92-6.057-3.112-3.436-.19-6.286.894-6.37 2.418z"/><linearGradient id="i" gradientUnits="userSpaceOnUse" x1="454.6504" y1="389.5195" x2="464.4539" y2="388.7193" gradientTransform="matrix(-.9827 .185 -.185 -.9827 1514.4531 422.4219)"><stop offset="0" stop-color="#fff"/><stop offset="1" stop-color="#adc910"/></linearGradient><path fill="url(#i)" d="M980.432 127.122c.424 2.256 4.889 3.315 9.966 2.358 5.079-.956 8.853-3.566 8.428-5.822-.427-2.26-4.89-3.316-9.966-2.36-5.079.958-8.852 3.562-8.428 5.824z"/><linearGradient id="j" gradientUnits="userSpaceOnUse" x1="550.5713" y1="333.627" x2="512.3821" y2="323.0188" gradientTransform="rotate(159.801 743.76749526 298.14888631)"><stop offset="0" stop-color="#7ca52b"/><stop offset="1" stop-color="#adc910"/></linearGradient><path fill="url(#j)" d="M901.71 207.457c2.53 6.874 17.732 7.606 33.953 1.636 16.218-5.967 27.323-16.379 24.794-23.251-2.53-6.872-17.732-7.605-33.957-1.638-16.218 5.968-27.319 16.38-24.79 23.253z"/><linearGradient id="k" gradientUnits="userSpaceOnUse" x1="555.0391" y1="318.9902" x2="518.9711" y2="334.107" gradientTransform="rotate(159.801 743.76749526 298.14888631)"><stop offset="0" stop-color="#fff"/><stop offset="1" stop-color="#adc910"/></linearGradient><path fill="url(#k)" d="M910.968 202.857c2.105 5.72 14.238 6.521 27.099 1.792 12.858-4.734 21.578-13.208 19.473-18.929-2.106-5.72-14.237-6.523-27.102-1.792-12.855 4.735-21.577 13.208-19.47 18.929z"/><linearGradient id="l" gradientUnits="userSpaceOnUse" x1="495.9556" y1="277.9023" x2="500.532" y2="277.5287" gradientTransform="matrix(-.9985 -.0556 .0556 -.9985 1427.3931 491.6904)"><stop offset="0" stop-color="#fff"/><stop offset="1" stop-color="#adc910"/></linearGradient><path fill="url(#l)" d="M940.377 186.463c-.061 1.072 1.842 2.05 4.255 2.185 2.408.134 4.407-.626 4.468-1.696.059-1.074-1.848-2.048-4.259-2.183-2.404-.136-4.405.622-4.464 1.694z"/><linearGradient id="m" gradientUnits="userSpaceOnUse" x1="526.2739" y1="336.2773" x2="533.1537" y2="335.7157" gradientTransform="matrix(-.9827 .185 -.185 -.9827 1514.4531 422.4219)"><stop offset="0" stop-color="#fff"/><stop offset="1" stop-color="#adc910"/></linearGradient><path fill="url(#m)" d="M924.425 191.687c.299 1.586 3.428 2.327 6.996 1.656 3.563-.672 6.211-2.5 5.913-4.084-.3-1.586-3.431-2.33-6.996-1.655-3.564.669-6.214 2.497-5.913 4.083z"/><linearGradient id="n" gradientUnits="userSpaceOnUse" x1="276.916" y1="294.3193" x2="519.5117" y2="294.3193" gradientTransform="matrix(1 0 0 -1 204 458)"><stop offset="0" stop-color="#7ca52b"/><stop offset="1" stop-color="#adc910"/></linearGradient><path fill="url(#n)" d="M480.916 327.361L484.098 0h97.32c42.864 0 77.268 13.152 103.2 39.458s38.894 60.295 38.894 101.966v44.742c0 41.818-12.961 75.804-38.894 101.964-25.933 26.154-60.336 39.229-103.2 39.229H480.916v.002zm41.992-292.835v256.813l58.51 1.174c30.275 0 54.148-9.958 71.61-29.876 17.459-19.918 26.195-45.45 26.195-76.604v-45.151c0-30.852-8.736-56.235-26.195-76.154-17.462-19.918-41.335-29.878-71.61-29.878l-58.51-.324z"/><linearGradient id="o" gradientUnits="userSpaceOnUse" x1="-4.4092" y1="294.3193" x2="318.9058" y2="294.3193" gradientTransform="matrix(1 0 0 -1 204 458)"><stop offset="0" stop-color="#7ca52b"/><stop offset="1" stop-color="#adc910"/></linearGradient><path fill="url(#o)" d="M256.25 0l104.324 265.981h1.35L466.247 0h56.659v327.357h-44.293v-129.5l4.496-133.104-1.124-.224-106.123 262.832h-29.453L240.736 65.203l-1.122.225 4.271 132.429v129.504H199.59V0h56.66z"/><linearGradient id="p" gradientUnits="userSpaceOnUse" x1="-203.5703" y1="294.207" x2="39.4785" y2="294.207" gradientTransform="matrix(1 0 0 -1 204 458)"><stop offset="0" stop-color="#7ca52b"/><stop offset="1" stop-color="#adc910"/></linearGradient><path fill="url(#p)" d="M177.825 166.827c17.988 5.848 30.916 15.33 38.784 28.441 7.872 13.12 11.806 29.342 11.806 48.677v30.803c0 10.197 1.124 19.335 3.372 27.431 2.248 8.094 6.143 14.691 11.692 19.784v5.395h-45.642c-5.845-5.093-9.594-12.591-11.244-22.479-1.651-9.892-2.472-20.086-2.472-30.577v-29.904c0-17.686-5.169-31.926-15.514-42.718-10.341-10.792-24.207-16.187-41.596-16.187H44.723v141.87H.43V.226h118.488c35.824 0 61.173 7.946 80.059 23.832M44.723 150.639h69.699c25.032 0 43.058-4.75 54.076-14.25 11.017-9.5 16.526-23.974 16.526-43.421 0-18.401-5.362-32.651-16.078-42.748-10.718-10.098-27.395-15.149-50.026-15.149H44.723v115.568z"/><linearGradient id="q" gradientUnits="userSpaceOnUse" x1="-179.8867" y1="57.7061" x2="-216.4813" y2="-23.1074" gradientTransform="matrix(1 0 0 -1 204 458)"><stop offset="0" stop-color="#adc910"/><stop offset="1" stop-color="#7ca52b"/></linearGradient><path fill="url(#q)" d="M11.632 406.513H0v-11.87h11.632v11.87zm0 80.247H0v-63.892h11.632v63.892z"/><linearGradient id="r" gradientUnits="userSpaceOnUse" x1="-134.373" y1="34.4971" x2="-164.9691" y2="-33.0692" gradientTransform="matrix(1 0 0 -1 204 458)"><stop offset="0" stop-color="#adc910"/><stop offset="1" stop-color="#7ca52b"/></linearGradient><path fill="url(#r)" d="M39.916 422.868l.828 9.503c2.125-3.38 4.792-6.011 8.001-7.878 3.207-1.867 6.857-2.805 10.952-2.805 6.889 0 12.224 2.016 16.002 6.055 3.78 4.035 5.669 10.266 5.669 18.69v40.328H69.735v-40.095c0-5.627-1.112-9.628-3.335-11.987-2.225-2.36-5.62-3.542-10.187-3.542-3.346 0-6.308.805-8.885 2.424-2.581 1.615-4.634 3.818-6.17 6.61v46.594H29.526v-63.894h10.39v-.003z"/><linearGradient id="s" gradientUnits="userSpaceOnUse" x1="-50.1323" y1="61.4385" x2="-91.1437" y2="-29.1286" gradientTransform="matrix(1 0 0 -1 204 458)"><stop offset="0" stop-color="#adc910"/><stop offset="1" stop-color="#7ca52b"/></linearGradient><path fill="url(#s)" d="M95.598 455.993c0-10.273 2.194-18.559 6.584-24.859 4.388-6.297 10.54-9.449 18.452-9.449 3.74 0 7.059.692 9.95 2.066 2.895 1.379 5.364 3.389 7.412 6.023v-35.132h11.632v92.117h-9.505l-1.359-7.855c-2.085 2.992-4.646 5.256-7.676 6.791-3.032 1.535-6.553 2.301-10.57 2.301-7.794 0-13.897-2.822-18.305-8.473-4.408-5.645-6.614-13.082-6.614-22.291v-1.239zm11.634 1.239c0 6.46 1.317 11.627 3.956 15.5 2.638 3.877 6.732 5.818 12.283 5.818 3.462 0 6.376-.789 8.74-2.363 2.362-1.574 4.29-3.781 5.786-6.617v-29.815c-1.498-2.633-3.436-4.734-5.816-6.293-2.381-1.551-5.246-2.332-8.591-2.332-5.59 0-9.714 2.305-12.372 6.91-2.655 4.607-3.983 10.589-3.983 17.951v1.241h-.003z"/><linearGradient id="t" gradientUnits="userSpaceOnUse" x1="5.1934" y1="39.4731" x2="-25.3274" y2="-27.9268" gradientTransform="matrix(1 0 0 -1 204 458)"><stop offset="0" stop-color="#adc910"/><stop offset="1" stop-color="#7ca52b"/></linearGradient><path fill="url(#t)" d="M207.552 477.309c-2.006 3.428-4.584 6.062-7.733 7.914-3.15 1.85-6.792 2.775-10.923 2.775-6.967 0-12.4-2.221-16.297-6.674-3.897-4.449-5.846-11.374-5.846-20.788v-37.668h11.632v37.791c0 6.811 1.002 11.492 3.013 14.052 2.008 2.555 5.136 3.84 9.388 3.84 4.134 0 7.547-.84 10.246-2.515 2.696-1.673 4.734-4.042 6.112-7.114v-46.058h11.63v63.892h-10.452l-.77-9.447z"/><linearGradient id="u" gradientUnits="userSpaceOnUse" x1="69.582" y1="33.1367" x2="42.1399" y2="-27.4649" gradientTransform="matrix(1 0 0 -1 204 458)"><stop offset="0" stop-color="#adc910"/><stop offset="1" stop-color="#7ca52b"/></linearGradient><path fill="url(#u)" d="M272.862 469.753c0-2.562-.975-4.667-2.922-6.315-1.95-1.656-5.639-3.092-11.072-4.312-7.754-1.691-13.589-3.98-17.507-6.869-3.918-2.89-5.876-6.831-5.876-11.822 0-5.188 2.204-9.608 6.613-13.266 4.408-3.654 10.156-5.48 17.242-5.48 7.44 0 13.354 1.908 17.744 5.729 4.39 3.818 6.486 8.463 6.288 13.936l-.118.354h-11.102c0-2.796-1.17-5.306-3.513-7.53-2.344-2.223-5.443-3.339-9.299-3.339-4.132 0-7.204.907-9.21 2.72-2.008 1.807-3.012 3.994-3.012 6.548 0 2.524.886 4.513 2.658 5.966 1.771 1.457 5.374 2.756 10.806 3.898 8.07 1.729 14.074 4.085 18.009 7.058 3.937 2.965 5.906 6.955 5.906 11.956 0 5.669-2.294 10.253-6.878 13.759-4.585 3.502-10.582 5.254-17.979 5.254-8.15 0-14.566-2.066-19.25-6.199-4.686-4.133-6.908-8.959-6.672-14.469l.116-.354h11.103c.195 4.113 1.731 7.121 4.605 9.021s6.238 2.849 10.098 2.849c4.132 0 7.369-.834 9.712-2.51 2.338-1.674 3.51-3.865 3.51-6.583z"/><linearGradient id="v" gradientUnits="userSpaceOnUse" x1="124.1143" y1="44.2954" x2="93.8099" y2="-22.6268" gradientTransform="matrix(1 0 0 -1 204 458)"><stop offset="0" stop-color="#adc910"/><stop offset="1" stop-color="#7ca52b"/></linearGradient><path fill="url(#v)" d="M314.312 407.458v15.41h12.105v8.623h-12.105v38.79c0 2.992.621 5.102 1.861 6.324 1.238 1.217 2.881 1.828 4.93 1.828.67 0 1.407-.077 2.216-.238.806-.156 1.523-.354 2.155-.585l1.535 7.964c-.866.711-2.136 1.293-3.808 1.746-1.672.453-3.357.678-5.048.678-4.725 0-8.484-1.428-11.278-4.283-2.796-2.852-4.192-7.332-4.192-13.434v-38.792h-10.157v-8.625h10.157v-15.41h11.629v.004z"/><linearGradient id="w" gradientUnits="userSpaceOnUse" x1="159.2104" y1="39.9111" x2="129.5869" y2="-25.5077" gradientTransform="matrix(1 0 0 -1 204 458)"><stop offset="0" stop-color="#adc910"/><stop offset="1" stop-color="#7ca52b"/></linearGradient><path fill="url(#w)" d="M370.998 433.141l-5.964-.354c-3.072 0-5.66.729-7.765 2.186-2.107 1.457-3.731 3.506-4.873 6.143v45.644h-11.632v-63.89h10.395l1.122 9.332c1.809-3.311 4.043-5.887 6.702-7.738s5.718-2.777 9.184-2.777c.866 0 1.692.07 2.48.209.786.135 1.436.285 1.947.444l-1.596 10.801z"/><linearGradient id="x" gradientUnits="userSpaceOnUse" x1="203.2744" y1="57.7061" x2="166.6798" y2="-23.1074" gradientTransform="matrix(1 0 0 -1 204 458)"><stop offset="0" stop-color="#adc910"/><stop offset="1" stop-color="#7ca52b"/></linearGradient><path fill="url(#x)" d="M394.793 406.513h-11.632v-11.87h11.632v11.87zm0 80.247h-11.632v-63.892h11.632v63.892z"/><linearGradient id="y" gradientUnits="userSpaceOnUse" x1="250.9844" y1="31.9609" x2="222.5516" y2="-30.8282" gradientTransform="matrix(1 0 0 -1 204 458)"><stop offset="0" stop-color="#adc910"/><stop offset="1" stop-color="#7ca52b"/></linearGradient><path fill="url(#y)" d="M451.951 486.76c-.394-1.93-.7-3.631-.916-5.109-.216-1.475-.344-2.959-.384-4.459-2.164 3.07-4.988 5.639-8.473 7.709-3.483 2.061-7.231 3.098-11.25 3.098-6.653 0-11.72-1.701-15.205-5.109-3.484-3.404-5.227-8.1-5.227-14.08 0-6.102 2.47-10.875 7.411-14.319 4.939-3.446 11.641-5.171 20.104-5.171h12.637v-6.315c0-3.741-1.141-6.702-3.422-8.885-2.284-2.184-5.512-3.28-9.684-3.28-3.74 0-6.782.96-9.124 2.866-2.342 1.91-3.514 4.203-3.514 6.879h-11.102l-.118-.355c-.237-4.643 1.958-8.895 6.583-12.752 4.624-3.861 10.6-5.791 17.922-5.791 7.244 0 13.067 1.84 17.477 5.523 4.408 3.681 6.614 8.983 6.614 15.909v30.77c0 2.285.118 4.489.354 6.613.235 2.125.667 4.211 1.298 6.26h-11.981v-.002zm-19.307-8.565c4.209 0 8.009-1.078 11.396-3.238 3.384-2.156 5.587-4.629 6.612-7.417v-10.362h-13.048c-4.684 0-8.434 1.179-11.25 3.53-2.814 2.356-4.223 5.124-4.223 8.305 0 2.827.887 5.062 2.658 6.712 1.773 1.646 4.39 2.47 7.855 2.47z"/><linearGradient id="z" gradientUnits="userSpaceOnUse" x1="300.2314" y1="57.7056" x2="263.6368" y2="-23.1079" gradientTransform="matrix(1 0 0 -1 204 458)"><stop offset="0" stop-color="#adc910"/><stop offset="1" stop-color="#7ca52b"/></linearGradient><path fill="url(#z)" d="M491.75 486.76h-11.632v-92.117h11.632v92.117z"/><linearGradient id="A" gradientUnits="userSpaceOnUse" x1="373.5586" y1="33.1367" x2="346.1156" y2="-27.4667" gradientTransform="matrix(1 0 0 -1 204 458)"><stop offset="0" stop-color="#adc910"/><stop offset="1" stop-color="#7ca52b"/></linearGradient><path fill="url(#A)" d="M576.838 469.753c0-2.562-.976-4.667-2.922-6.315-1.95-1.656-5.639-3.092-11.072-4.312-7.756-1.691-13.592-3.98-17.508-6.869-3.917-2.89-5.876-6.831-5.876-11.822 0-5.188 2.204-9.608 6.615-13.266 4.408-3.654 10.156-5.48 17.242-5.48 7.441 0 13.353 1.908 17.746 5.729 4.388 3.818 6.485 8.463 6.288 13.936l-.119.354H576.13c0-2.796-1.172-5.306-3.514-7.53-2.341-2.223-5.442-3.339-9.299-3.339-4.132 0-7.204.907-9.21 2.72-2.008 1.811-3.012 3.994-3.012 6.548 0 2.524.886 4.513 2.657 5.966 1.772 1.457 5.374 2.756 10.806 3.898 8.069 1.729 14.074 4.085 18.009 7.058 3.936 2.965 5.905 6.955 5.905 11.956 0 5.669-2.292 10.253-6.878 13.759-4.586 3.502-10.582 5.254-17.982 5.254-8.147 0-14.565-2.066-19.25-6.199-4.686-4.133-6.91-8.959-6.672-14.469l.118-.354h11.102c.196 4.113 1.73 7.121 4.606 9.021 2.874 1.899 6.237 2.849 10.096 2.849 4.131 0 7.37-.834 9.712-2.51 2.343-1.674 3.514-3.865 3.514-6.583z"/><linearGradient id="B" gradientUnits="userSpaceOnUse" x1="438.4634" y1="33.2007" x2="411.2419" y2="-26.9134" gradientTransform="matrix(1 0 0 -1 204 458)"><stop offset="0" stop-color="#adc910"/><stop offset="1" stop-color="#7ca52b"/></linearGradient><path fill="url(#B)" d="M600.223 454.226c0-9.452 2.557-17.235 7.674-23.358 5.117-6.12 12.062-9.183 20.846-9.183 8.856 0 15.854 3.051 20.993 9.151 5.138 6.103 7.703 13.896 7.703 23.388v1.296c0 9.523-2.556 17.318-7.672 23.381-5.12 6.061-12.089 9.094-20.906 9.094-8.819 0-15.794-3.041-20.933-9.123-5.137-6.082-7.705-13.869-7.705-23.352v-1.294zm11.634 1.266c0 6.765 1.422 12.348 4.279 16.751 2.852 4.399 7.098 6.603 12.724 6.603 5.551 0 9.763-2.203 12.638-6.603 2.87-4.403 4.308-9.986 4.308-16.751v-1.297c0-6.683-1.449-12.245-4.335-16.69-2.898-4.441-7.138-6.667-12.729-6.667-5.549 0-9.756 2.226-12.607 6.667-2.855 4.445-4.277 10.008-4.277 16.69v1.297h-.001z"/><linearGradient id="C" gradientUnits="userSpaceOnUse" x1="492.7266" y1="57.7061" x2="456.1319" y2="-23.1074" gradientTransform="matrix(1 0 0 -1 204 458)"><stop offset="0" stop-color="#adc910"/><stop offset="1" stop-color="#7ca52b"/></linearGradient><path fill="url(#C)" d="M684.245 486.76h-11.631v-92.117h11.631v92.117z"/><linearGradient id="D" gradientUnits="userSpaceOnUse" x1="540.3408" y1="39.4731" x2="509.8202" y2="-27.9268" gradientTransform="matrix(1 0 0 -1 204 458)"><stop offset="0" stop-color="#adc910"/><stop offset="1" stop-color="#7ca52b"/></linearGradient><path fill="url(#D)" d="M742.703 477.309c-2.008 3.428-4.59 6.062-7.738 7.914-3.148 1.85-6.789 2.775-10.922 2.775-6.965 0-12.4-2.221-16.298-6.674-3.896-4.449-5.843-11.374-5.843-20.788v-37.668h11.629v37.791c0 6.811 1.005 11.492 3.012 14.052 2.008 2.555 5.137 3.84 9.387 3.84 4.137 0 7.549-.84 10.246-2.515 2.699-1.673 4.731-4.042 6.113-7.114v-46.058h11.63v63.892h-10.45l-.766-9.447z"/><linearGradient id="E" gradientUnits="userSpaceOnUse" x1="596.0225" y1="44.2979" x2="565.7173" y2="-22.6262" gradientTransform="matrix(1 0 0 -1 204 458)"><stop offset="0" stop-color="#adc910"/><stop offset="1" stop-color="#7ca52b"/></linearGradient><path fill="url(#E)" d="M786.224 407.458v15.41h12.105v8.623h-12.105v38.79c0 2.992.616 5.102 1.857 6.324 1.24 1.217 2.883 1.828 4.929 1.828.671 0 1.409-.077 2.216-.238.805-.156 1.525-.354 2.158-.585l1.533 7.964c-.867.711-2.137 1.293-3.809 1.746-1.674.453-3.355.678-5.049.678-4.72 0-8.48-1.428-11.279-4.283-2.792-2.852-4.19-7.332-4.19-13.434v-38.792h-10.156v-8.625h10.156v-15.41h11.634v.004z"/><linearGradient id="F" gradientUnits="userSpaceOnUse" x1="633.7363" y1="57.7061" x2="597.1417" y2="-23.1074" gradientTransform="matrix(1 0 0 -1 204 458)"><stop offset="0" stop-color="#adc910"/><stop offset="1" stop-color="#7ca52b"/></linearGradient><path fill="url(#F)" d="M825.254 406.513h-11.632v-11.87h11.632v11.87zm0 80.247h-11.632v-63.892h11.632v63.892z"/><linearGradient id="G" gradientUnits="userSpaceOnUse" x1="678.6689" y1="33.2017" x2="651.4476" y2="-26.9125" gradientTransform="matrix(1 0 0 -1 204 458)"><stop offset="0" stop-color="#adc910"/><stop offset="1" stop-color="#7ca52b"/></linearGradient><path fill="url(#G)" d="M840.427 454.226c0-9.452 2.56-17.235 7.677-23.358 5.119-6.12 12.066-9.183 20.848-9.183 8.857 0 15.854 3.051 20.987 9.151 5.137 6.103 7.707 13.896 7.707 23.388v1.296c0 9.523-2.561 17.318-7.674 23.381-5.118 6.061-12.085 9.094-20.904 9.094-8.817 0-15.794-3.041-20.931-9.123-5.141-6.082-7.708-13.869-7.708-23.352v-1.294h-.002zm11.634 1.266c0 6.765 1.426 12.348 4.281 16.751 2.852 4.399 7.094 6.603 12.724 6.603 5.55 0 9.765-2.203 12.64-6.603 2.868-4.403 4.306-9.986 4.306-16.751v-1.297c0-6.683-1.447-12.245-4.339-16.69-2.893-4.441-7.136-6.667-12.725-6.667-5.551 0-9.756 2.226-12.607 6.667-2.855 4.445-4.281 10.008-4.281 16.69v1.297h.001z"/><linearGradient id="H" gradientUnits="userSpaceOnUse" x1="747.9805" y1="34.4951" x2="717.3857" y2="-33.0685" gradientTransform="matrix(1 0 0 -1 204 458)"><stop offset="0" stop-color="#adc910"/><stop offset="1" stop-color="#7ca52b"/></linearGradient><path fill="url(#H)" d="M922.269 422.868l.824 9.503c2.129-3.376 4.795-6.011 8.001-7.878 3.209-1.867 6.862-2.805 10.955-2.805 6.887 0 12.221 2.016 16.002 6.055 3.781 4.035 5.67 10.266 5.67 18.69v40.328h-11.635v-40.095c0-5.627-1.108-9.628-3.332-11.987-2.227-2.36-5.618-3.542-10.187-3.542-3.346 0-6.309.805-8.886 2.424-2.579 1.615-4.633 3.818-6.172 6.61v46.594h-11.627v-63.894h10.386v-.003z"/><linearGradient id="I" gradientUnits="userSpaceOnUse" x1="814.4678" y1="33.1377" x2="787.0248" y2="-27.4657" gradientTransform="matrix(1 0 0 -1 204 458)"><stop offset="0" stop-color="#adc910"/><stop offset="1" stop-color="#7ca52b"/></linearGradient><path fill="url(#I)" d="M1017.75 469.753c0-2.562-.978-4.667-2.923-6.315-1.953-1.656-5.636-3.092-11.071-4.312-7.758-1.691-13.592-3.98-17.51-6.869-3.916-2.89-5.873-6.831-5.873-11.822 0-5.188 2.202-9.608 6.611-13.266 4.406-3.654 10.159-5.48 17.241-5.48 7.442 0 13.356 1.908 17.746 5.729 4.387 3.818 6.483 8.463 6.291 13.936l-.123.354h-11.099c0-2.796-1.171-5.306-3.515-7.53-2.344-2.223-5.445-3.339-9.301-3.339-4.13 0-7.206.907-9.213 2.72-2.005 1.811-3.009 3.994-3.009 6.548 0 2.524.885 4.513 2.658 5.966 1.771 1.457 5.373 2.756 10.807 3.898 8.065 1.729 14.067 4.085 18.009 7.058 3.934 2.965 5.902 6.955 5.902 11.956 0 5.669-2.293 10.253-6.879 13.759-4.584 3.502-10.578 5.254-17.978 5.254-8.147 0-14.564-2.066-19.254-6.199-4.682-4.133-6.902-8.959-6.67-14.469l.121-.354h11.1c.197 4.113 1.734 7.121 4.604 9.021 2.876 1.899 6.244 2.849 10.104 2.849 4.13 0 7.372-.834 9.71-2.51 2.341-1.674 3.514-3.865 3.514-6.583z"/><linearGradient id="J" gradientUnits="userSpaceOnUse" x1="894.9629" y1="57.7061" x2="858.3683" y2="-23.1074" gradientTransform="matrix(1 0 0 -1 204 458)"><stop offset="0" stop-color="#adc910"/><stop offset="1" stop-color="#7ca52b"/></linearGradient><path fill="url(#J)" d="M1086.482 486.76h-11.633v-92.117h11.633v92.117z"/><linearGradient id="K" gradientUnits="userSpaceOnUse" x1="929.5254" y1="44.2974" x2="899.2206" y2="-22.6258" gradientTransform="matrix(1 0 0 -1 204 458)"><stop offset="0" stop-color="#adc910"/><stop offset="1" stop-color="#7ca52b"/></linearGradient><path fill="url(#K)" d="M1119.725 407.458v15.41h12.103v8.623h-12.103v38.79c0 2.992.619 5.102 1.856 6.324 1.245 1.217 2.888 1.828 4.935 1.828.669 0 1.408-.077 2.214-.238.806-.156 1.525-.354 2.152-.585l1.537 7.964c-.865.711-2.135 1.293-3.805 1.746-1.676.453-3.362.678-5.05.678-4.725 0-8.482-1.428-11.278-4.283-2.794-2.852-4.192-7.332-4.192-13.434v-38.792h-10.156v-8.625h10.156v-15.41h11.631v.004z"/><linearGradient id="L" gradientUnits="userSpaceOnUse" x1="997.79" y1="61.4375" x2="956.7789" y2="-29.1286" gradientTransform="matrix(1 0 0 -1 204 458)"><stop offset="0" stop-color="#adc910"/><stop offset="1" stop-color="#7ca52b"/></linearGradient><path fill="url(#L)" d="M1143.518 455.993c0-10.273 2.196-18.559 6.589-24.859 4.387-6.297 10.541-9.449 18.449-9.449 3.74 0 7.059.692 9.953 2.066 2.892 1.379 5.361 3.389 7.409 6.023v-35.132h11.631v92.117h-9.505l-1.356-7.855c-2.092 2.992-4.646 5.256-7.68 6.791-3.031 1.535-6.554 2.301-10.569 2.301-7.793 0-13.893-2.822-18.305-8.473-4.408-5.645-6.616-13.082-6.616-22.291v-1.239zm11.632 1.239c0 6.46 1.319 11.627 3.96 15.5 2.633 3.877 6.73 5.818 12.285 5.818 3.457 0 6.375-.789 8.736-2.363 2.359-1.574 4.288-3.781 5.786-6.617v-29.815c-1.498-2.633-3.435-4.734-5.812-6.293-2.385-1.551-5.25-2.332-8.598-2.332-5.589 0-9.707 2.305-12.371 6.91-2.654 4.607-3.985 10.589-3.985 17.951v1.241h-.001z"/></svg>