<?xml version="1.0" encoding="utf-8"?>
<!-- Generator: Adobe Illustrator 15.0.0, SVG Export Plug-In . SVG Version: 6.00 Build 0)  -->
<!DOCTYPE svg PUBLIC "-//W3C//DTD SVG 1.1//EN" "http://www.w3.org/Graphics/SVG/1.1/DTD/svg11.dtd">
<svg version="1.1" id="Layer_1" xmlns="http://www.w3.org/2000/svg" xmlns:xlink="http://www.w3.org/1999/xlink" x="0px" y="0px"
	 width="595.28px" height="841.89px" viewBox="0 0 595.28 841.89" enable-background="new 0 0 595.28 841.89" xml:space="preserve">
<path fill="#FFFFFF" d="M105.389,158.497h18.527c3.656,0,6.867,1.359,9.633,4.078c1.336,1.5,2.262,2.941,2.777,4.324
	c0.633,1.711,0.949,3.27,0.949,4.676c0,3.915-1.454,7.277-4.359,10.09c-0.234,0.305-0.352,0.61-0.352,0.914
	c0,0.75,0.539,1.359,1.617,1.828c2.414,1.594,4.16,3.762,5.238,6.504c0.585,1.641,0.879,3.247,0.879,4.816
	c0,2.344-0.691,4.676-2.074,6.996c-1.688,2.625-3.996,4.442-6.926,5.449c-1.383,0.492-2.836,0.738-4.359,0.738h-21.551
	c-1.032,0-1.898-0.562-2.602-1.688c-0.211-0.492-0.316-0.902-0.316-1.23v-44.578c0-1.031,0.562-1.898,1.688-2.602
	C104.65,158.602,105.06,158.497,105.389,158.497z M108.553,166.301v12.656c0,1.148,0.574,1.723,1.723,1.723h14.203
	c0.68,0,1.734-0.41,3.164-1.23c1.289-0.984,2.109-1.851,2.461-2.602c0.796-1.289,1.195-2.613,1.195-3.973v-0.492
	c0-1.805-0.68-3.527-2.039-5.168c-1.148-1.148-2.051-1.805-2.707-1.969c-0.938-0.445-1.629-0.668-2.074-0.668h-14.203
	C109.127,164.579,108.553,165.153,108.553,166.301z M108.553,188.45v12.656c0,1.148,0.621,1.723,1.863,1.723h17.086
	c0.82-0.047,1.898-0.469,3.234-1.266c2.391-1.781,3.586-4.055,3.586-6.82c0-2.391-0.984-4.488-2.953-6.293
	c-1.454-1.055-2.742-1.617-3.867-1.688h-17.227C109.127,186.762,108.553,187.325,108.553,188.45z"/>
<path fill="#FFFFFF" d="M160.594,158.497c1.172,0,2.051,0.633,2.637,1.898c0.093,0.399,0.141,0.867,0.141,1.406v43.805
	c0,1.547-0.551,2.566-1.652,3.059c-0.234,0.118-0.61,0.199-1.125,0.246c-1.172,0-2.062-0.633-2.672-1.898
	c-0.094-0.375-0.141-0.844-0.141-1.406v-43.805c0-1.547,0.562-2.554,1.688-3.023C159.68,158.637,160.054,158.544,160.594,158.497z"
	/>
<path fill="#FFFFFF" d="M171.848,158.497c1.172,0,2.051,0.633,2.637,1.898c0.093,0.399,0.141,0.867,0.141,1.406v43.805
	c0,1.547-0.551,2.566-1.652,3.059c-0.234,0.118-0.61,0.199-1.125,0.246c-1.172,0-2.062-0.633-2.672-1.898
	c-0.094-0.375-0.141-0.844-0.141-1.406v-43.805c0-1.547,0.562-2.554,1.688-3.023C170.934,158.637,171.309,158.544,171.848,158.497z"
	/>
<path fill="#FFFFFF" d="M148.354,174.493h0.211c1.195,0,2.215,0.562,3.059,1.688c0.398,0.633,0.598,1.266,0.598,1.898v0.387
	c0,1.148-0.562,2.133-1.688,2.953c-0.68,0.422-1.336,0.633-1.969,0.633h-0.246c-1.148,0-2.145-0.539-2.988-1.617
	c-0.445-0.726-0.668-1.453-0.668-2.18c0-0.796,0.281-1.582,0.844-2.355C146.327,174.962,147.276,174.493,148.354,174.493z
	 M148.284,201.387h0.352c1.218,0,2.25,0.61,3.094,1.828c0.328,0.633,0.492,1.23,0.492,1.793v0.281c0,1.195-0.575,2.203-1.723,3.023
	c-0.633,0.399-1.254,0.598-1.863,0.598h-0.352c-1.195,0-2.215-0.585-3.059-1.758c-0.375-0.726-0.562-1.394-0.562-2.004
	c0-0.82,0.281-1.629,0.844-2.426C146.374,201.833,147.3,201.387,148.284,201.387z"/>
<g>
	<path fill="#FFFFFF" d="M244.542,223.362h9.07c2.812,0,5.414,0.984,7.805,2.953c1.195,1.148,1.969,2.062,2.32,2.742
		c1.218,2.016,1.828,4.102,1.828,6.258v21.059c0,0.961-0.469,1.793-1.406,2.496c-0.562,0.305-1.09,0.457-1.582,0.457
		c-1.313,0-2.262-0.621-2.848-1.863c-0.305-0.844-0.832-1.266-1.582-1.266c-0.329,0-1.032,0.34-2.109,1.02
		c-0.914,0.492-1.957,0.926-3.129,1.301c-1.898,0.54-3.574,0.809-5.027,0.809h-0.457c-3.141,0-5.954-1.207-8.438-3.621
		c-1.055-1.195-1.758-2.18-2.109-2.953c-0.844-1.781-1.266-3.492-1.266-5.133v-0.387c0-3.07,1.183-5.871,3.551-8.402
		c2.531-2.25,5.25-3.375,8.156-3.375h9.949c0.867,0,1.418-0.223,1.652-0.668c0.188-0.234,0.281-0.492,0.281-0.773v-0.141
		c-0.07-0.68-0.504-1.5-1.301-2.461c-0.867-0.844-1.605-1.359-2.215-1.547c-0.586-0.304-1.641-0.457-3.164-0.457h-7.98
		c-0.821,0-1.57-0.387-2.25-1.16c-0.422-0.585-0.633-1.148-0.633-1.688v-0.246c0-0.984,0.445-1.805,1.336-2.461
		C243.534,223.526,244.05,223.362,244.542,223.362z M241.659,247.409c0,1.617,0.68,3.082,2.039,4.395
		c1.218,0.961,2.414,1.441,3.586,1.441h0.598c1.992,0,4.02-0.621,6.082-1.863c2.297-1.453,3.938-3.551,4.922-6.293
		c0.211-0.82,0.363-1.477,0.457-1.969v-0.176c0-0.585-0.34-1.042-1.02-1.371c-0.164-0.023-0.293-0.035-0.387-0.035h-10.652
		c-1.406,0-2.754,0.621-4.043,1.863C242.187,244.644,241.659,245.98,241.659,247.409z"/>
	<path fill="#FFFFFF" d="M275.269,208.913h0.281c1.007,0,1.851,0.527,2.531,1.582c0.258,0.399,0.387,1.067,0.387,2.004v9.316
		c0,0.75,0.422,1.243,1.266,1.477h7.699c0.047,0,0.07,0.023,0.07,0.07v4.711c-0.094,0.445-0.329,0.809-0.703,1.09
		c-0.281,0.164-0.691,0.246-1.23,0.246h-4.008c-1.289,0-2.238,0.586-2.848,1.758c-0.164,0.422-0.246,0.773-0.246,1.055v18.211
		c0,1.008,0.574,1.852,1.723,2.531c0.445,0.164,0.796,0.246,1.055,0.246h2.426c0.07,0,0.105,0.023,0.105,0.07v5.977
		c0,0.047-0.035,0.07-0.105,0.07h-2.883c-1.992,0-3.504-0.328-4.535-0.984c-1.57-0.796-2.742-2.227-3.516-4.289
		c-0.258-0.75-0.387-1.851-0.387-3.305v-38.25c0-1.406,0.387-2.367,1.16-2.883C274.05,209.147,274.636,208.913,275.269,208.913z"/>
	<path fill="#FFFFFF" d="M304.729,223.292c1.523,0,3.046,0.445,4.57,1.336c2.156,1.477,3.234,2.965,3.234,4.465
		c0,1.055-0.527,1.922-1.582,2.602c-0.492,0.258-1.008,0.387-1.547,0.387c-0.797,0-1.56-0.375-2.285-1.125
		c-0.633-1.031-1.43-1.547-2.391-1.547h-0.141c-1.055,0-1.852,0.551-2.391,1.652c-0.141,0.375-0.211,0.715-0.211,1.02
		c0,1.078,0.62,1.957,1.863,2.637c4.547,3.023,7.089,4.746,7.629,5.168c0.844,0.727,1.441,1.324,1.793,1.793
		c1.523,2.086,2.285,4.266,2.285,6.539c0,3.68-1.489,6.68-4.465,9c-1.992,1.406-4.172,2.109-6.539,2.109
		c-2.25,0-4.383-0.703-6.398-2.109c-1.313-1.007-2.285-2.062-2.918-3.164c-0.633-1.078-0.949-1.969-0.949-2.672v-0.07
		c0-0.891,0.434-1.688,1.301-2.391c0.585-0.352,1.148-0.527,1.688-0.527c1.125,0,2.016,0.516,2.672,1.547
		c0.328,0.656,0.633,1.172,0.914,1.547c1.077,1.172,2.32,1.758,3.727,1.758c1.569,0,2.883-0.645,3.938-1.934
		c0.633-0.914,0.949-1.898,0.949-2.953c0-1.898-1.043-3.445-3.129-4.641c-4.383-2.93-6.763-4.535-7.137-4.816
		c-2.203-1.851-3.305-4.171-3.305-6.961c0-2.18,0.832-4.184,2.496-6.012C300.229,224.171,302.339,223.292,304.729,223.292z"/>
	<path fill="#FFFFFF" d="M338.409,223.292h0.598c3.703,0,7.3,1.266,10.793,3.797c1.594,1.336,2.707,2.484,3.34,3.445
		c2.391,3.282,3.586,6.879,3.586,10.793c0,4.734-1.723,8.953-5.168,12.656c-1.852,1.758-3.609,2.977-5.273,3.656
		c-2.509,1.125-4.935,1.688-7.277,1.688h-0.598c-3.75,0-7.36-1.277-10.828-3.832c-1.289-1.055-2.298-2.074-3.023-3.059
		c-2.579-3.328-3.867-7.043-3.867-11.145c0-4.453,1.547-8.473,4.641-12.059c1.594-1.617,2.742-2.602,3.445-2.953
		C331.917,224.289,335.127,223.292,338.409,223.292z M326.808,241.327v0.246c0,3.023,1.195,5.801,3.586,8.332
		c2.483,2.203,5.18,3.305,8.086,3.305h0.457c3.234,0,6.129-1.312,8.684-3.938c1.991-2.414,2.988-4.98,2.988-7.699v-0.246
		c0-3.352-1.23-6.246-3.691-8.684c-1.359-1.218-2.755-2.074-4.184-2.566c-1.359-0.445-2.59-0.668-3.691-0.668h-0.668
		c-1.969,0-3.985,0.61-6.047,1.828c-0.703,0.422-1.582,1.172-2.637,2.25c-1.243,1.57-2.017,2.965-2.32,4.184
		C326.995,238.679,326.808,239.898,326.808,241.327z"/>
	<path fill="#FFFFFF" d="M364.952,223.327c1.007,0,1.851,0.457,2.531,1.371c0.398,0.633,0.901,0.949,1.512,0.949
		c0.258,0,0.809-0.234,1.652-0.703c2.227-1.078,4.512-1.617,6.855-1.617c4.641,0,8.613,1.805,11.918,5.414
		c1.195,1.524,1.991,2.801,2.391,3.832c0.937,1.852,1.406,4.289,1.406,7.312v15.891c0,1.43-0.399,2.391-1.195,2.883
		c-0.54,0.445-1.173,0.668-1.898,0.668c-0.773,0-1.5-0.328-2.18-0.984c-0.54-0.515-0.809-1.371-0.809-2.566v-15.75
		c0-2.25-0.294-3.925-0.879-5.027c-1.125-2.391-2.966-4.078-5.52-5.062c-1.125-0.352-2.18-0.527-3.164-0.527
		c-2.766,0-5.156,1.078-7.172,3.234c-1.103,1.266-1.828,2.754-2.18,4.465c-0.141,0.61-0.211,1.582-0.211,2.918v15.75
		c0,1.43-0.399,2.391-1.195,2.883c-0.516,0.445-1.148,0.668-1.898,0.668c-0.773,0-1.5-0.328-2.18-0.984
		c-0.54-0.515-0.809-1.371-0.809-2.566v-28.898c0-1.218,0.293-2.086,0.879-2.602C363.463,223.644,364.179,223.327,364.952,223.327z"
		/>
</g>
<g>
	<path fill="#FFFFFF" d="M190.163,216.882c0.927,3.679,2.247,8.98,3.958,15.902c0.023,0.047,1.02,3.996,2.988,11.848
		c0.304,0.633,0.703,0.949,1.195,0.949h0.281c0.633,0,1.218-0.691,1.758-2.074c4.171-8.273,6.293-12.445,6.363-12.516
		c0.656-0.75,1.406-1.125,2.25-1.125c1.406,0,2.461,0.949,3.164,2.848l6.223,12.375c0.352,0.329,0.68,0.492,0.984,0.492h0.281
		c0.796,0,1.312-0.832,1.547-2.496l8.191-32.344c0.328-0.656,0.773-1.137,1.336-1.441c0.211-0.117,0.609-0.223,1.195-0.316
		c1.429,0,2.391,0.738,2.883,2.215c0.047,0.305,0.082,0.492,0.105,0.562c0,0.469-0.727,3.493-2.18,9.07
		c-2.86,11.508-5.918,23.73-9.176,36.668c-0.586,1.219-1.489,1.828-2.707,1.828c-1.406,0-2.484-0.984-3.234-2.953
		c-4.969-9.914-7.488-14.906-7.559-14.977c-0.352-0.304-0.656-0.457-0.914-0.457h-0.281c-0.633,0-1.195,0.656-1.688,1.969
		l-7.594,15.047c-0.61,0.914-1.454,1.371-2.531,1.371c-1.243,0-2.133-0.691-2.672-2.074c-2.758-10.965-5.404-21.548-7.938-31.748"/>
</g>
<path fill="#FFFFFF" d="M191.107,214.711c1.429-3.117,2.145-4.934,2.145-5.449v-0.176c0-0.562-0.434-1.793-1.301-3.691
	c-7.993-18.352-12.071-27.75-12.234-28.195c-0.164-0.352-0.246-0.703-0.246-1.055v-0.246c0-1.148,0.633-2.062,1.898-2.742
	c0.562-0.141,0.949-0.211,1.16-0.211c1.523,0,2.637,1.032,3.34,3.094c6.281,14.532,9.539,22.031,9.773,22.5
	c0.375,0.422,0.785,0.633,1.23,0.633c0.82,0,1.406-0.609,1.758-1.828l9.914-22.746c0.68-1.102,1.594-1.652,2.742-1.652
	c1.289,0,2.25,0.715,2.883,2.145c0.093,0.352,0.141,0.621,0.141,0.809v0.246c0,0.492-0.492,1.77-1.477,3.832
	c-11.18,25.828-16.98,39.164-17.402,40.008c-0.914,1.57-2.333,2.684-4.254,3.34 M191.377,219.559"/>
<path fill="#FFFFFF" d="M163.667,212.186 M200.491,208.456c-7.987,18.354-12.089,27.742-12.304,28.165
	c-0.145,0.359-0.347,0.66-0.604,0.899l-0.18,0.167c-0.84,0.783-1.94,0.942-3.301,0.479c-0.486-0.315-0.8-0.551-0.945-0.705
	c-1.038-1.116-1.041-2.633-0.011-4.553c6.358-14.498,9.627-21.993,9.811-22.483 M213.875,204.981"/>
<path fill="#FFFFFF" d="M154.496,233.095 M191.32,229.365c-7.987,18.354-12.089,27.742-12.304,28.165
	c-0.145,0.359-0.347,0.66-0.604,0.899l-0.18,0.167c-0.84,0.783-1.94,0.942-3.301,0.479c-0.486-0.315-0.8-0.551-0.945-0.705
	c-1.038-1.116-1.041-2.633-0.011-4.553c6.358-14.498,9.235-20.983,9.418-21.473L191.32,229.365z M204.703,225.89"/>
<path fill="#FFFFFF" d="M168.162,201.853 M204.986,198.123c-7.987,18.354-12.089,27.742-12.304,28.165
	c-0.145,0.359-0.347,0.66-0.604,0.899l-0.18,0.167c-0.84,0.783-1.94,0.942-3.301,0.479c-0.486-0.315-0.8-0.551-0.945-0.705
	c-1.038-1.116-1.041-2.633-0.011-4.553c6.358-14.498,9.627-21.993,9.811-22.483 M218.369,194.648"/>
<path fill="#EDCD2F" d="M224.592,174.493h0.211c1.383,0,2.473,0.691,3.27,2.074c0.258,0.492,0.387,1.02,0.387,1.582v0.352
	c0,1.336-0.715,2.414-2.145,3.234c-0.516,0.234-1.055,0.352-1.617,0.352c-1.594,0-2.766-0.796-3.516-2.391
	c-0.164-0.422-0.246-0.82-0.246-1.195v-0.316c0-1.594,0.844-2.754,2.531-3.48C223.889,174.563,224.264,174.493,224.592,174.493z"/>
<path fill="#478D34" d="M220.759,183.419h0.211c1.383,0,2.473,0.691,3.27,2.074c0.258,0.492,0.387,1.02,0.387,1.582v0.352
	c0,1.336-0.715,2.414-2.145,3.234c-0.516,0.234-1.055,0.352-1.617,0.352c-1.594,0-2.766-0.796-3.516-2.391
	c-0.164-0.422-0.246-0.82-0.246-1.195v-0.316c0-1.594,0.844-2.754,2.531-3.48C220.056,183.489,220.43,183.419,220.759,183.419z"/>
<path fill="#255485" d="M216.882,192.346h0.211c1.383,0,2.473,0.691,3.27,2.074c0.258,0.492,0.387,1.02,0.387,1.582v0.352
	c0,1.336-0.715,2.414-2.145,3.234c-0.516,0.234-1.055,0.352-1.617,0.352c-1.594,0-2.766-0.796-3.516-2.391
	c-0.164-0.422-0.246-0.82-0.246-1.195v-0.316c0-1.594,0.844-2.754,2.531-3.48C216.179,192.417,216.554,192.346,216.882,192.346z"/>
<path fill="#74160D" d="M213.003,201.317h0.211c1.383,0,2.473,0.691,3.27,2.074c0.258,0.492,0.387,1.02,0.387,1.582v0.352
	c0,1.336-0.715,2.414-2.145,3.234c-0.516,0.234-1.055,0.352-1.617,0.352c-1.594,0-2.766-0.796-3.516-2.391
	c-0.164-0.422-0.246-0.82-0.246-1.195v-0.316c0-1.594,0.844-2.754,2.531-3.48C212.3,201.387,212.675,201.317,213.003,201.317z"/>
</svg>
